<?xml version="1.0" encoding="utf-8" ?>
<svg xmlns="http://www.w3.org/2000/svg" xmlns:cc="http://creativecommons.org/ns#" xmlns:dc="http://purl.org/dc/elements/1.1/" xmlns:ev="http://www.w3.org/2001/xml-events" xmlns:inkscape="http://www.inkscape.org/namespaces/inkscape" xmlns:rdf="http://www.w3.org/1999/02/22-rdf-syntax-ns#" xmlns:sodipodi="http://sodipodi.sourceforge.net/DTD/sodipodi-0.dtd" xmlns:xlink="http://www.w3.org/1999/xlink" baseProfile="tiny" height="21.0cm" version="1.2" viewBox="0 0 1122.5196850393702 793.7007874015749" width="29.7cm">
  <metadata>
    <rdf:RDF>
      <cc:Work>
        <dc:format>image/svg+xml</dc:format>
        <dc:source/>
        <dc:date>2021-02-08T21:17:19.499559</dc:date>
      </cc:Work>
    </rdf:RDF>
  </metadata>
  <defs/>
  <g fill="none" id="layer1" inkscape:groupmode="layer" inkscape:label="1" stroke="#00f" style="display:inline">
    <polygon points="561.2598,381.7323 548.1672,404.4094 574.3525,404.4094"/>
    <polygon points="591.4961,396.8504 561.2598,366.6142 531.0236,396.8504 561.2598,427.0866"/>
    <polygon points="561.2598,336.378 508.8892,366.6142 508.8892,427.0866 561.2598,457.3228 613.6305,427.0866 613.6305,366.6142"/>
    <polygon points="561.2598,321.2598 502.1608,349.7205 487.5645,413.6709 528.4623,464.9551 594.0574,464.9551 634.9552,413.6709 620.3589,349.7205"/>
    <polygon points="632.3495,299.0039 561.2598,275.9055 490.1702,299.0039 446.2344,359.4764 446.2344,434.2244 490.1702,494.6969 561.2598,517.7953 632.3495,494.6969 676.2853,434.2244 676.2853,359.4764"/>
    <polygon points="643.991,169.5484 561.2598,154.9606 478.5287,169.5484 405.7761,211.5521 351.7772,275.9055 323.0449,354.8467 323.0449,438.8541 351.7772,517.7953 405.7761,582.1487 478.5287,624.1524 561.2598,638.7402 643.991,624.1524 716.7436,582.1487 770.7425,517.7953 799.4748,438.8541 799.4748,354.8467 770.7425,275.9055 716.7436,211.5521"/>
    <polygon points="479.3405,185.3921 408.4848,229.2641 358.2622,295.7696 335.4556,375.9265 343.1451,458.9094 380.2922,533.5108 441.88,589.6555 519.5907,619.7608 602.929,619.7608 680.6397,589.6555 742.2275,533.5108 779.3746,458.9094 787.0641,375.9265 764.2575,295.7696 714.0349,229.2641 643.1792,185.3921 561.2598,170.0787"/>
    <polygon points="470.5512,396.8504 497.1191,460.9911 561.2598,487.5591 625.4006,460.9911 651.9685,396.8504 625.4006,332.7097 561.2598,306.1417 497.1191,332.7097"/>
    <polygon points="410.0787,396.8504 430.3332,472.4409 485.6693,527.7771 561.2598,548.0315 636.8504,527.7771 692.1865,472.4409 712.4409,396.8504 692.1865,321.2598 636.8504,265.9237 561.2598,245.6693 485.6693,265.9237 430.3332,321.2598"/>
    <polygon points="534.6012,433.5428 587.9184,433.5428 604.3944,382.8351 561.2598,351.4961 518.1253,382.8351"/>
    <polygon points="652.9085,449.7638 665.4789,378.4738 629.284,315.7824 561.2598,291.0236 493.2357,315.7824 457.0408,378.4738 469.6112,449.7638 525.065,496.295 597.4547,496.295"/>
    <polygon points="664.0894,485.9527 695.9379,416.2142 685.0271,340.3278 634.821,282.3869 561.2598,260.7874 487.6986,282.3869 437.4926,340.3278 426.5818,416.2142 458.4303,485.9527 522.9265,527.4019 599.5932,527.4019"/>
    <polygon points="716.7523,455.8209 726.3465,376.8052 698.1214,302.3817 638.5429,249.5998 561.2598,230.5512 483.9767,249.5998 424.3983,302.3817 396.1731,376.8052 405.7674,455.8209 450.9831,521.3271 521.4618,558.3173 601.0578,558.3173 671.5366,521.3271"/>
    <polygon points="676.7805,555.8509 731.4645,495.1181 756.7186,417.3939 748.1761,336.1176 707.3141,265.3425 641.198,217.3063 561.2598,200.315 481.3217,217.3063 415.2056,265.3425 374.3435,336.1176 365.8011,417.3939 391.0552,495.1181 445.7392,555.8509 520.3978,589.0911 602.1219,589.0911"/>
    <polygon points="561.2598,578.2677 639.9739,560.3018 703.0976,509.9622 738.1287,437.2195 738.1287,356.4812 703.0976,283.7385 639.9739,233.399 561.2598,215.4331 482.5458,233.399 419.4221,283.7385 384.391,356.4812 384.391,437.2195 419.4221,509.9622 482.5458,560.3018"/>
    <polygon points="436.6293,655.6484 518.4483,680.8862 604.0714,680.8862 685.8904,655.6484 756.6354,607.4152 810.0205,540.4724 841.3021,460.7682 847.7007,375.3846 828.6478,291.9083 785.8363,217.7566 723.0702,159.5182 645.9265,122.3677 561.2598,109.6063 476.5932,122.3677 399.4495,159.5182 336.6834,217.7566 293.8719,291.9083 274.8189,375.3846 281.2176,460.7682 312.4992,540.4724 365.8842,607.4152"/>
    <polygon points="372.173,570.9171 438.9376,622.8821 518.9577,650.353 603.5619,650.353 683.5821,622.8821 750.3467,570.9171 796.6208,500.0893 817.3899,418.0739 810.4033,333.7587 776.4182,256.2804 719.1173,194.0351 644.7102,153.7679 561.2598,139.8425 477.8095,153.7679 403.4023,194.0351 346.1015,256.2804 312.1163,333.7587 305.1298,418.0739 325.8989,500.0893"/>
    <polygon points="411.5982,546.512 480.2635,592.3928 561.2598,608.5039 642.2561,592.3928 710.9215,546.512 756.8022,477.8467 772.9134,396.8504 756.8022,315.8541 710.9215,247.1887 642.2561,201.308 561.2598,185.1969 480.2635,201.308 411.5982,247.1887 365.7175,315.8541 349.6063,396.8504 365.7175,477.8467"/>
    <polygon points="286.2215,522.4562 332.7497,594.8555 397.7905,651.2137 476.0746,686.9648 561.2598,699.2126 646.4451,686.9648 724.7292,651.2137 789.77,594.8555 836.2982,522.4562 860.5444,439.881 860.5444,353.8198 836.2982,271.2446 789.77,198.8453 724.7292,142.4871 646.4451,106.736 561.2598,94.4882 476.0746,106.736 397.7905,142.4871 332.7497,198.8453 286.2215,271.2446 261.9752,353.8198 261.9752,439.881"/>
    <polygon points="833.3858,396.8504 820.067,312.7588 781.4144,236.8988 721.2115,176.6958 645.3514,138.0432 561.2598,124.7244 477.1683,138.0432 401.3082,176.6958 341.1053,236.8988 302.4527,312.7588 289.1339,396.8504 302.4527,480.9419 341.1053,556.802 401.3082,617.0049 477.1683,655.6576 561.2598,668.9764 645.3514,655.6576 721.2115,617.0049 781.4144,556.802 820.067,480.9419"/>
  </g>
</svg>
