<?xml version="1.0" encoding="utf-8" ?>
<svg xmlns="http://www.w3.org/2000/svg" xmlns:cc="http://creativecommons.org/ns#" xmlns:dc="http://purl.org/dc/elements/1.1/" xmlns:ev="http://www.w3.org/2001/xml-events" xmlns:inkscape="http://www.inkscape.org/namespaces/inkscape" xmlns:rdf="http://www.w3.org/1999/02/22-rdf-syntax-ns#" xmlns:sodipodi="http://sodipodi.sourceforge.net/DTD/sodipodi-0.dtd" xmlns:xlink="http://www.w3.org/1999/xlink" baseProfile="tiny" height="12.5cm" version="1.2" viewBox="0 0 472.44094488188983 472.44094488188983" width="12.5cm">
  <metadata>
    <rdf:RDF>
      <cc:Work>
        <dc:format>image/svg+xml</dc:format>
        <dc:source/>
        <dc:date>2021-02-08T21:59:53.368203</dc:date>
      </cc:Work>
    </rdf:RDF>
  </metadata>
  <defs/>
  <g fill="none" id="layer1" inkscape:groupmode="layer" inkscape:label="1" stroke="#00f" style="display:inline">
    <polyline points="33.7867,33.1201 29.9534,36.4534 18.1201,48.6201"/>
    <polyline points="22.1201,55.2867 28.6201,42.1201 30.9534,33.6201"/>
    <polyline points="32.6201,36.2867 32.2867,39.6201 29.1201,47.1201"/>
    <polyline points="34.2867,41.7867 33.4534,44.6201 27.4534,53.9534 27.2867,55.1201 28.2867,57.1201"/>
    <polyline points="30.7867,60.6201 37.4534,45.6201 39.9534,36.6201 39.9534,29.2867"/>
    <polyline points="33.6201,30.4534 36.7867,34.6201 39.9534,41.6201 40.6201,48.4534"/>
    <polyline points="38.1201,45.4534 35.2867,45.2867 48.7867,40.6201 53.7867,36.7867 53.7867,35.7867 50.2867,35.2867 51.9534,32.7867 52.6201,29.9534 52.1201,27.9534 47.7867,27.9534 52.9534,23.1201 48.4534,23.1201 44.9534,24.6201 43.6201,24.6201 44.1201,19.7867 43.2867,18.2867 41.4534,18.4534 38.6201,21.4534 33.4534,29.2867 33.4534,25.6201 32.2867,24.4534 30.4534,24.9534 29.4534,30.1201 28.7867,31.4534 25.7867,31.4534 25.2867,33.1201 25.1201,36.2867"/>
    <polyline points="27.7867,36.9534 40.9534,53.4534 47.7867,59.6201"/>
    <polyline points="98.5269,55.9534 98.3602,58.2867 99.3602,59.4534"/>
    <line x1="100.1936" x2="99.5269" y1="60.6201" y2="55.4534"/>
    <polyline points="99.0269,55.1201 120.8602,51.9534 123.5269,51.9534"/>
    <line x1="122.6936" x2="109.6936" y1="50.4534" y2="53.2867"/>
    <polyline points="109.6936,52.4534 114.8602,50.9534 118.8602,47.9534 121.8602,46.9534 122.1936,49.1201 121.6936,50.6201 120.8602,50.2867 120.6936,49.4534 121.3602,47.2867"/>
    <polyline points="120.3602,52.2867 111.0269,55.6201 103.5269,57.7867 101.0269,59.1201"/>
    <polyline points="106.5269,51.1201 103.0269,47.2867 100.5269,40.4534 96.8602,34.2867 102.5269,40.4534 104.1936,35.4534 103.8602,29.1201 104.6936,27.6201 109.3602,23.4534 111.0269,18.1201 111.0269,24.7867 109.0269,28.1201 112.0269,27.2867 114.6936,25.7867 114.8602,26.2867 114.6936,31.1201 112.3602,37.4534 113.6936,37.7867 115.8602,36.9534 117.0269,35.1201 116.8602,41.6201 116.3602,44.9534 115.1936,47.6201 112.5269,50.4534"/>
    <polyline points="114.1936,115.3602 115.8602,116.1936 122.0269,117.0269 120.6936,121.0269 116.3602,129.1936 111.0269,136.3602 109.1936,137.3602 104.3602,135.8602 99.8602,133.6936 96.8602,131.5269 97.1936,130.8602 104.3602,126.8602 111.8602,119.8602 115.8602,117.0269"/>
    <polyline points="109.8602,117.6936 109.3602,122.8602 105.8602,135.3602 106.3602,136.3602 117.8602,139.3602 118.3602,138.8602 119.1936,131.5269 119.0269,120.5269 118.5269,119.6936 115.5269,118.3602 108.5269,116.6936"/>
    <polyline points="104.1936,116.6936 101.8602,121.5269 102.0269,124.5269 105.5269,124.8602 114.0269,131.0269 122.8602,135.1936 123.5269,134.8602 123.8602,132.0269 125.5269,127.3602 125.1936,126.0269 115.6936,121.8602 103.3602,117.6936"/>
    <polyline points="103.8602,128.3602 103.1936,121.1936 103.3602,103.6936 104.1936,104.5269 106.3602,112.1936 107.3602,113.6936 108.8602,107.3602 108.8602,101.3602 109.5269,101.3602 111.6936,106.0269 113.0269,107.0269 114.6936,102.0269 115.0269,96.8602 116.3602,98.5269 118.8602,106.0269 120.0269,107.6936 120.5269,106.3602 120.8602,101.1936 121.1936,102.3602 122.1936,115.5269 122.8602,117.8602 123.1936,115.6936 123.0269,124.8602 123.5269,125.3602"/>
    <polyline points="110.6936,175.6004 110.5269,178.6004 109.5269,181.1004 103.8602,184.9337 100.8602,188.4337 100.5269,191.1004 101.6936,195.7671 101.6936,199.1004 97.0269,206.1004 96.8602,207.1004"/>
    <polyline points="99.1936,208.4337 105.1936,207.2671 106.1936,210.4337 110.6936,216.1004 106.3602,217.9337"/>
    <polyline points="107.6936,218.1004 104.1936,213.6004 99.5269,208.9337"/>
    <polyline points="100.6936,216.6004 106.0269,211.4337 111.1936,207.7671 115.0269,212.2671 108.6936,214.7671 102.6936,217.9337"/>
    <polyline points="115.8602,217.2671 111.1936,211.9337 109.0269,206.2671 115.0269,204.4337 116.0269,204.2671 116.5269,204.7671 117.5269,208.4337 120.3602,213.6004 116.1936,216.2671 115.8602,216.1004"/>
    <polyline points="117.5269,256.8406 113.6936,264.3406 111.3602,271.3406"/>
    <polyline points="110.0269,273.6739 111.6936,270.0072 116.6936,262.5072 120.0269,258.3406 121.1936,258.0072"/>
    <polyline points="121.5269,257.0072 120.8602,259.5072 119.5269,260.8406 110.6936,264.5072 105.8602,269.6739 105.6936,273.8406 106.5269,276.5072 107.6936,277.5072"/>
    <polyline points="109.0269,277.1739 117.3602,276.8406 120.3602,277.8406 120.6936,282.3406 119.6936,287.1739 116.6936,287.0072 106.6936,283.8406 106.1936,277.5072"/>
    <polyline points="106.3602,278.1739 100.6936,279.8406 96.8602,283.5072 97.3602,285.6739 98.6936,286.3406 100.3602,286.5072 106.3602,283.6739 109.6936,280.8406 110.0269,279.8406 110.0269,278.8406 108.5269,278.3406 102.5269,278.3406"/>
    <polyline points="103.3602,279.8406 102.8602,278.3406 102.8602,273.0072 104.8602,269.0072 113.1936,263.1739 115.1936,259.8406 116.1936,256.0072 119.3602,254.5072 123.0269,254.3406 125.1936,256.3406 125.6936,265.1739 129.6936,275.1739 129.5269,281.3406 128.8602,282.5072 125.0269,285.1739"/>
    <polyline points="122.0269,284.0072 128.1936,289.3406 131.6936,291.5072 133.1936,289.6739 136.6936,288.0072 137.3602,287.0072 134.1936,284.6739 125.3602,281.1739 122.5269,281.0072"/>
    <polyline points="121.8602,282.6739 122.0269,286.3406 125.1936,293.1739 115.8602,293.5072"/>
    <polyline points="119.0269,280.3406 120.1936,273.3406 122.8602,266.1739 122.8602,263.1739 122.0269,261.5072 120.3602,260.0072 114.1936,257.5072"/>
    <polyline points="111.8602,262.1739 107.8602,265.8406 107.6936,266.6739 108.8602,268.6739"/>
    <polyline points="114.3602,278.0072 114.3602,273.5072 115.5269,267.5072 116.6936,266.1739 120.8602,263.6739"/>
    <polyline points="119.3602,279.5072 119.5269,280.6739 121.8602,282.6739 121.8602,284.6739 120.6936,292.5072 119.0269,296.5072 116.8602,296.5072 112.5269,292.3406 109.5269,290.8406 101.5269,289.8406 111.5269,283.3406 118.1936,280.3406 120.1936,280.1739"/>
    <polyline points="126.1936,333.0807 126.8602,333.914 130.8602,352.414 132.3602,346.5807 134.1936,341.914 134.6936,351.7474 132.8602,359.7474"/>
    <polyline points="131.8602,360.414 129.1936,351.2474 128.0269,349.914 127.1936,355.414 125.8602,358.414 124.5269,350.5807 123.0269,345.914 120.8602,341.2474 120.5269,339.2474 118.0269,352.914 114.6936,346.914 111.8602,342.914 110.0269,344.414 109.3602,343.2474 109.1936,341.414 106.0269,345.914 103.5269,350.914 102.6936,355.0807 103.1936,357.5807"/>
    <polyline points="112.8602,363.0807 109.5269,363.5807 108.0269,362.914 106.0269,356.914 106.5269,356.414 108.3602,356.7474 114.6936,359.914"/>
    <polyline points="117.8602,361.7474 114.5269,363.914 117.3602,364.0807 121.8602,362.7474 123.5269,360.914 122.0269,359.2474 119.8602,358.914 118.8602,359.2474 117.3602,361.0807 117.3602,362.414 118.1936,364.2474"/>
    <polyline points="118.5269,364.914 115.5269,365.414 113.8602,366.5807 112.6936,368.5807 112.6936,370.914 117.8602,371.0807 119.1936,371.914 121.5269,374.5807 123.5269,375.414 125.8602,375.414 128.8602,374.5807 130.3602,373.2474 130.6936,371.914 130.0269,365.414 128.6936,361.7474 126.6936,361.7474 119.3602,364.414"/>
    <polyline points="112.3602,366.5807 106.5269,362.5807 96.8602,357.5807 97.5269,372.5807 98.5269,373.0807 100.8602,372.7474 110.3602,369.7474"/>
    <polyline points="129.6936,365.5807 128.6936,367.5807 129.0269,369.0807 135.0269,369.2474 135.8602,368.914 137.0269,361.7474 136.6936,361.0807 133.6936,362.5807 131.5269,364.2474"/>
    <polyline points="179.4337,360.7474 182.1004,360.0807 185.9337,360.2474 190.1004,359.0807 188.9337,356.414 187.9337,356.414 179.4337,359.7474"/>
    <polygon points="179.2671,349.914 181.6004,353.0807 185.4337,355.914 184.7671,352.414 183.9337,350.7474 182.4337,349.5807 181.1004,344.5807 175.6004,337.914 176.4337,338.0807 176.7671,339.0807 178.1004,347.2474"/>
    <polyline points="186.4337,349.414 191.7671,355.414 193.4337,359.0807"/>
    <polyline points="194.1004,357.914 195.6004,356.914 201.7671,354.7474 204.7671,352.0807 205.9337,349.914 205.7671,342.0807 203.4337,336.5807 202.9337,336.5807 202.4337,342.914 199.6004,351.7474 199.4337,346.914 195.9337,336.2474 195.6004,333.7474 193.9337,343.2474 194.2671,350.0807 194.7671,351.5807 193.4337,349.414 190.6004,341.7474 190.2671,335.5807 189.4337,333.0807 188.2671,335.2474 189.2671,337.2474 189.2671,340.914 187.7671,344.5807 187.1004,344.0807 184.9337,338.7474 181.2671,335.0807 182.7671,337.7474 183.6004,340.0807 183.2671,346.0807 184.6004,352.0807 187.4337,355.7474 191.7671,357.7474"/>
    <polyline points="190.7671,358.5807 200.2671,358.2474 204.1004,358.914 202.2671,360.914 196.6004,359.914 190.7671,359.5807"/>
    <line x1="192.9337" x2="191.1004" y1="353.914" y2="349.7474"/>
    <polyline points="196.2671,355.914 197.4337,351.2474 196.4337,343.0807"/>
    <polyline points="193.2671,340.914 192.2671,337.5807 191.9337,333.0807 192.6004,333.914 193.6004,340.2474"/>
    <polyline points="200.6004,341.7474 199.1004,338.414 199.1004,333.414 201.1004,337.914 201.1004,342.414"/>
    <line x1="203.2671" x2="200.6004" y1="347.2474" y2="354.414"/>
    <line x1="202.7671" x2="210.1004" y1="355.914" y2="360.7474"/>
    <polyline points="208.7671,362.414 209.9337,362.0807 211.2671,360.0807 207.9337,356.0807 206.4337,354.914 203.6004,357.2474"/>
    <polyline points="203.4337,355.7474 204.9337,355.5807 206.1004,354.7474 208.4337,351.2474 209.9337,347.0807 209.2671,339.5807 210.2671,336.914 212.6004,334.7474 211.9337,338.7474 213.2671,346.0807 212.7671,350.414 211.9337,352.414"/>
    <polyline points="209.9337,354.914 215.9337,358.5807 217.9337,356.2474 209.1004,354.414"/>
    <line x1="254.3406" x2="267.1739" y1="373.5807" y2="359.914"/>
    <polyline points="269.1739,360.0807 268.5072,361.414 266.8406,369.414 267.1739,375.414"/>
    <polyline points="278.6739,375.5807 276.3406,372.414 270.3406,360.414"/>
    <polyline points="271.6739,359.914 282.1739,367.2474 287.1739,369.7474"/>
    <polyline points="277.1739,361.914 277.6739,359.2474 280.8406,351.7474 283.3406,338.7474 281.5072,338.914 280.0072,339.914 277.1739,343.914 274.1739,352.914 274.1739,355.414 275.5072,340.414 275.5072,334.7474 275.0072,333.0807 272.3406,336.414 267.8406,351.0807 267.6739,355.0807 268.0072,335.914 266.6739,338.7474 263.8406,353.2474 264.3406,355.914 262.6739,350.7474"/>
    <polyline points="260.8406,349.914 260.8406,343.5807 260.6739,352.414 261.3406,357.914 262.1739,360.0807"/>
    <polyline points="277.1739,418.4875 277.8406,415.3209 277.0072,414.3209 275.1739,414.1542 275.0072,419.1542 268.8406,438.9875 268.8406,442.6542 269.1739,439.4875 270.6739,436.6542 270.1739,434.8209 270.5072,426.8209 268.6739,425.4875 268.5072,422.3209 267.5072,420.6542 264.8406,418.1542 266.1739,415.4875 265.6739,414.4875 262.5072,413.6542 261.1739,411.8209 259.0072,411.9875 257.1739,413.4875 257.3406,415.3209 261.3406,420.3209 263.6739,421.4875 264.3406,423.4875 264.3406,426.8209 262.5072,435.4875 262.5072,440.9875 264.0072,444.3209"/>
    <polyline points="254.3406,442.8209 257.3406,442.9875 263.8406,446.1542 272.5072,452.6542 275.1739,453.8209"/>
    <polyline points="273.6739,442.6542 271.6739,443.8209 263.3406,451.1542 258.3406,454.1542"/>
    <polyline points="193.1004,451.1542 192.1004,451.4875 189.6004,454.3209 189.1004,443.9875 178.2671,451.9875 177.4337,451.9875 176.1004,450.9875 175.7671,449.8209 183.9337,444.4875 188.1004,444.3209 194.1004,440.9875 200.4337,436.6542 189.9337,441.6542 191.7671,435.9875 197.7671,428.3209 196.1004,428.6542 195.7671,425.9875 194.7671,427.1542 193.1004,431.4875 193.1004,424.4875 191.4337,425.8209 189.9337,428.4875 189.6004,433.9875 188.9337,433.8209 188.6004,432.4875 189.9337,437.8209 189.6004,442.6542 189.1004,444.4875 191.2671,445.3209 194.4337,445.8209 197.9337,444.1542 202.9337,440.1542 206.4337,435.9875 209.7671,429.6542 208.6004,429.1542 206.6004,429.6542 196.2671,434.4875 195.1004,434.6542 200.6004,428.6542 207.2671,420.4875 208.7671,418.1542 208.7671,417.1542 207.7671,416.9875 204.4337,418.3209 199.6004,421.8209 201.6004,413.6542 198.6004,413.6542 196.1004,414.3209 193.2671,417.1542 194.6004,411.8209 191.9337,414.6542 190.1004,419.3209 188.9337,413.6542 185.7671,420.4875 185.6004,430.3209 183.9337,426.1542 183.1004,426.4875 183.1004,428.3209 183.9337,435.3209 187.9337,443.9875 189.1004,444.1542"/>
    <polyline points="132.6936,443.9875 123.3602,443.4875 115.8602,442.3209"/>
    <line x1="115.0269" x2="130.6936" y1="442.1542" y2="440.9875"/>
    <line x1="131.6936" x2="131.8602" y1="440.9875" y2="443.3209"/>
    <polyline points="121.3602,440.4875 125.5269,438.9875 127.3602,437.3209 129.0269,434.3209 129.8602,429.3209 126.8602,430.6542 123.1936,430.8209 123.8602,427.9875 123.6936,426.6542 122.8602,424.9875 120.0269,422.4875 121.3602,415.1542 121.1936,411.8209 119.6936,415.9875 114.6936,421.1542 112.1936,427.8209 111.5269,428.1542 108.8602,422.9875 110.5269,428.6542 110.1936,430.6542 103.8602,434.1542 102.8602,435.3209 102.8602,436.1542 104.0269,437.6542 107.1936,439.9875 110.8602,441.3209"/>
    <polyline points="113.6936,442.6542 103.5269,442.4875 97.3602,443.1542"/>
    <line x1="96.8602" x2="97.3602" y1="443.1542" y2="439.8209"/>
    <line x1="97.0269" x2="114.3602" y1="440.8209" y2="441.6542"/>
    <line x1="105.8602" x2="107.3602" y1="450.1542" y2="451.9875"/>
    <polyline points="106.3602,451.6542 107.0269,452.6542 108.5269,451.4875 110.8602,448.4875 114.3602,441.9875 120.8602,454.3209"/>
    <polyline points="120.8602,453.9875 122.5269,451.1542 123.5269,450.9875 123.8602,451.6542"/>
    <line x1="123.5269" x2="121.3602" y1="452.8209" y2="453.6542"/>
    <polyline points="124.5269,452.8209 123.1936,450.6542 118.3602,446.3209 114.8602,441.8209 110.6936,444.9875 105.6936,450.4875"/>
    <line x1="98.3602" x2="98.0269" y1="442.4875" y2="440.9875"/>
    <polyline points="51.6201,435.4875 51.4534,433.8209 50.6201,432.3209 49.4534,431.1542 48.4534,431.1542"/>
    <polyline points="47.2867,432.6542 46.1201,432.6542 39.1201,438.1542 30.4534,445.8209 28.2867,448.4875"/>
    <polyline points="32.4534,445.6542 31.1201,445.6542 29.9534,444.9875 26.2867,440.1542 25.4534,432.4875 26.4534,424.4875 23.2867,417.8209 29.2867,423.4875 31.1201,421.1542 34.6201,411.8209 35.4534,417.3209 37.2867,420.9875 41.1201,414.3209 41.6201,420.8209 47.2867,429.1542 47.9534,437.9875 46.7867,441.4875"/>
    <polyline points="48.6201,445.3209 50.7867,446.6542 50.9534,448.1542 49.9534,448.8209 46.1201,449.9875"/>
    <polyline points="45.4534,450.4875 34.9534,448.1542 19.4534,443.8209 18.7867,441.1542 19.7867,439.9875 21.9534,439.4875 26.2867,439.6542 26.6201,440.3209 25.7867,442.3209 24.4534,443.4875 21.9534,444.1542 18.1201,443.6542"/>
    <polyline points="27.7867,440.3209 28.9534,440.1542 44.6201,443.3209 48.9534,444.6542 50.1201,445.6542"/>
    <polyline points="50.7867,435.9875 41.6201,443.4875 34.6201,450.1542 31.6201,454.1542"/>
    <polyline points="31.7867,454.3209 26.1201,453.8209 25.1201,452.4875 25.1201,451.3209 26.7867,449.3209 29.2867,448.3209 32.7867,448.1542 33.7867,449.3209"/>
    <polyline points="35.6201,443.3209 33.6201,442.9875 32.4534,440.6542"/>
    <polyline points="24.1201,369.0807 21.4534,372.5807 18.1201,374.7474 22.2867,375.5807 24.9534,375.414 26.6201,372.2474 28.6201,370.5807 32.7867,373.0807 37.6201,374.5807 39.9534,370.0807 34.2867,368.414 40.9534,364.414 36.1201,362.2474 30.9534,364.414 19.9534,363.914 22.4534,368.414 24.6201,368.7474"/>
    <polyline points="27.2867,366.0807 25.7867,363.414 22.1201,359.2474 20.7867,356.5807 18.4534,346.5807 24.9534,354.414 26.4534,355.5807 29.9534,357.414 28.4534,353.0807 28.4534,349.914 30.2867,344.2474 31.1201,343.7474 32.4534,348.0807 34.7867,352.5807 38.4534,347.414 41.1201,345.414 41.7867,346.2474 41.2867,348.7474 38.2867,357.914 43.2867,352.5807 45.1201,351.7474 44.7867,354.0807 43.1201,357.5807 41.2867,360.5807 37.6201,363.914 32.6201,365.7474 28.9534,366.5807"/>
    <polyline points="25.7867,351.5807 22.1201,345.414 20.9534,342.0807 20.6201,338.2474 25.1201,344.2474 26.4534,345.414 28.1201,345.7474 29.7867,342.2474 31.7867,333.414 32.4534,333.0807 35.4534,340.0807 36.4534,341.2474 41.4534,338.914 45.1201,338.5807 46.6201,340.414 47.1201,342.414"/>
    <polyline points="25.4534,278.6739 22.6201,271.6739 19.7867,259.6739 19.7867,264.0072 20.7867,269.0072 23.9534,280.0072 26.4534,286.0072 24.9534,273.6739 24.9534,264.6739 26.2867,255.5072 25.4534,268.1739 25.6201,281.0072 25.7867,281.8406 27.4534,268.8406 29.7867,256.5072 29.9534,261.5072 28.6201,273.1739 28.7867,281.5072 29.7867,284.1739 33.1201,264.5072 36.4534,254.5072 36.9534,260.8406 35.4534,273.3406 35.6201,284.5072 39.6201,267.1739 43.7867,255.6739 44.1201,258.1739 42.2867,274.3406 42.2867,280.5072 42.7867,282.5072 51.4534,259.3406 52.1201,262.0072 51.4534,265.8406 47.1201,282.0072 39.4534,281.8406 32.2867,282.8406 20.4534,288.8406 18.1201,290.5072 27.2867,286.1739 50.1201,277.1739 47.4534,279.1739 41.6201,281.6739 35.6201,283.3406 30.6201,283.5072 25.2867,280.8406 22.1201,277.6739 20.7867,275.5072 22.1201,275.1739 32.7867,285.1739 52.4534,296.8406 43.4534,289.8406 34.6201,285.0072 28.6201,281.0072 21.7867,274.8406 22.7867,275.0072 33.4534,284.3406 46.2867,292.6739 40.1201,289.8406 28.9534,282.6739 26.1201,280.3406 22.2867,275.5072 22.9534,275.1739 24.6201,275.8406"/>
    <polyline points="21.9534,206.1004 21.7867,197.9337 25.1201,192.6004 26.1201,191.9337 28.4534,191.9337 30.2867,190.9337 32.2867,179.1004 32.1201,175.9337 32.2867,181.7671 33.2867,187.2671 34.9534,189.1004 35.9534,188.7671 36.7867,183.7671 37.1201,175.6004 38.6201,183.6004 39.9534,187.1004 40.7867,187.6004 45.2867,179.1004 45.4534,181.2671 43.4534,188.4337 43.2867,192.4337 45.7867,200.4337 48.2867,202.7671 49.6201,204.9337 49.9534,208.4337"/>
    <polyline points="50.9534,204.1004 54.4534,202.2671 60.1201,202.4337 60.6201,203.7671 59.2867,205.7671 36.1201,216.9337 33.1201,217.7671 29.2867,217.9337 20.7867,217.1004 19.7867,215.6004 19.6201,213.2671 20.1201,209.7671 29.6201,205.9337 55.6201,201.7671"/>
    <polyline points="20.2867,202.9337 18.9534,202.7671 18.7867,204.4337 21.6201,209.1004 26.1201,212.1004 30.9534,214.2671 39.2867,215.4337 53.7867,215.2671 58.4534,214.7671 56.7867,212.6004 54.9534,211.4337 42.6201,208.2671 31.4534,206.4337 18.1201,205.6004"/>
    <polyline points="35.1201,126.3602 31.7867,122.3602 27.9534,118.8602 25.9534,115.1936 24.1201,109.3602 24.1201,105.5269 24.7867,103.8602 25.7867,104.3602 28.2867,108.3602 29.4534,109.0269 29.7867,102.3602 32.2867,98.0269 35.4534,102.6936 39.4534,96.8602 40.9534,98.8602 42.2867,102.8602 42.9534,102.6936 44.6201,100.3602 44.9534,100.5269 45.4534,102.8602 45.4534,106.8602 42.9534,114.0269 37.7867,122.5269 36.9534,125.1936 35.7867,126.1936"/>
    <polyline points="37.9534,120.3602 43.4534,122.0269 43.4534,123.1936 32.6201,137.6936 29.7867,139.3602 27.9534,139.3602 25.4534,138.6936 18.1201,135.6936 27.9534,126.5269 37.2867,119.5269"/>
    <polyline points="26.6201,121.8602 28.9534,120.1936 31.6201,120.8602 35.7867,123.3602 43.4534,130.5269 46.6201,131.6936 43.1201,137.1936 38.9534,134.6936 29.6201,127.1936 24.6201,121.8602"/>
    <polyline points="176.4337,96.8602 175.9337,97.0269 175.6004,98.6936 176.4337,100.8602 178.9337,102.3602 181.2671,102.6936 182.4337,105.3602 182.2671,109.5269"/>
    <line x1="188.4337" x2="189.4337" y1="102.5269" y2="100.5269"/>
    <polyline points="199.6004,122.1936 198.4337,123.5269 197.4337,123.6936 197.1004,122.8602 197.1004,115.6936 196.6004,113.8602 195.7671,114.1936 189.4337,126.5269 188.7671,120.8602 187.6004,119.5269 186.7671,122.6936 185.6004,124.5269 184.7671,124.0269 183.1004,117.8602 181.1004,113.3602 180.1004,114.6936 178.9337,117.8602 177.7671,126.5269 180.1004,118.0269 181.9337,116.1936 184.4337,120.1936 186.2671,121.3602 187.6004,120.8602 192.2671,114.8602 193.6004,113.8602 194.7671,113.6936 197.1004,119.0269 197.7671,119.1936 198.7671,111.3602 198.1004,110.5269 195.1004,116.1936 194.4337,111.5269 193.6004,110.1936 192.7671,110.8602 191.4337,114.3602 190.9337,114.5269 190.7671,111.3602 190.1004,110.5269 187.9337,116.5269 187.4337,116.8602 186.7671,111.5269 185.7671,110.6936 184.2671,114.6936 183.6004,111.3602 182.6004,110.3602 182.1004,111.1936 181.2671,117.0269 181.4337,122.8602 182.1004,125.0269"/>
    <polyline points="182.2671,124.6936 185.9337,123.8602 188.7671,121.8602 192.1004,121.6936 193.4337,124.5269 195.1004,125.6936 195.9337,127.5269 197.9337,129.0269 199.9337,133.3602 195.9337,133.8602 193.4337,135.0269 190.1004,129.5269 189.7671,127.8602"/>
    <polyline points="182.2671,127.5269 179.2671,132.3602 178.2671,133.0269 176.9337,135.8602 178.9337,138.3602 182.1004,139.3602 182.7671,138.6936 184.7671,134.5269 189.6004,127.5269 187.6004,125.6936 184.1004,124.8602 182.9337,124.8602 181.6004,127.0269"/>
    <polyline points="194.2671,59.2867 196.2671,58.7867 206.6004,58.4534 207.7671,57.4534 205.9337,56.7867 197.6004,55.6201"/>
    <polyline points="201.4337,54.9534 203.7671,54.4534 205.4337,53.2867 212.1004,45.6201 204.6004,50.4534"/>
    <polyline points="206.7671,48.2867 210.2671,41.7867 211.1004,28.7867 209.4337,34.2867 206.9337,39.6201"/>
    <polyline points="208.6004,34.9534 205.4337,36.6201 202.4337,36.7867 201.1004,36.2867 199.9337,34.9534 198.9337,32.2867 201.2671,26.6201"/>
    <polyline points="198.1004,37.4534 198.6004,28.9534 197.9337,26.2867 196.6004,23.9534 194.6004,21.9534 187.2671,18.1201 189.9337,20.1201"/>
    <polyline points="184.1004,26.1201 186.9337,36.2867 187.2671,39.9534 188.1004,40.7867"/>
    <polyline points="186.2671,42.9534 184.2671,41.1201 180.4337,33.4534 180.1004,31.4534"/>
    <polyline points="180.1004,25.9534 178.9337,26.4534 175.9337,31.9534 175.6004,37.2867 176.1004,39.9534 177.2671,42.2867 182.9337,48.4534 186.2671,52.9534"/>
    <polyline points="189.1004,54.9534 198.4337,52.9534 203.1004,53.1201 203.2671,53.9534 200.1004,55.6201 191.2671,57.2867 190.1004,58.1201"/>
    <polyline points="188.9337,55.6201 181.6004,55.7867 177.7671,53.7867 176.2671,51.6201 176.1004,48.9534 179.6004,48.9534 181.1004,50.2867"/>
    <polyline points="192.4337,56.2867 192.1004,60.2867 181.4337,60.6201 179.6004,59.7867 182.6004,58.4534 188.6004,56.9534 185.4337,57.1201 187.1004,56.6201 193.4337,55.7867"/>
    <polyline points="256.1739,41.2867 254.5072,33.6201 254.6739,29.1201 255.1739,27.6201"/>
    <polyline points="263.0072,22.9534 263.5072,34.7867 264.5072,36.1201"/>
    <polyline points="265.5072,38.4534 265.5072,32.6201 265.8406,30.9534 267.0072,27.9534 269.0072,24.7867"/>
    <polyline points="262.8406,21.2867 261.6739,24.1201 261.1739,28.9534 261.3406,30.7867 263.5072,33.4534"/>
    <polyline points="269.3406,34.1201 270.6739,35.1201 276.3406,37.1201 279.6739,39.6201 281.0072,42.6201 280.6739,47.4534 279.1739,52.2867 273.6739,58.7867 270.3406,60.4534 264.5072,60.6201 259.1739,59.1201 256.0072,56.1201 254.5072,51.7867 254.6739,43.9534 256.5072,40.4534 260.3406,37.4534 265.6739,35.2867 272.0072,34.2867"/>
    <polyline points="274.6739,34.9534 278.5072,26.9534 280.3406,20.2867 281.5072,18.1201"/>
    <polyline points="284.3406,22.6201 279.6739,28.7867 277.1739,33.4534 276.5072,36.1201 277.0072,39.9534"/>
    <polyline points="280.8406,44.2867 280.6739,41.9534 281.8406,38.9534 289.5072,26.1201"/>
    <polyline points="285.1739,24.7867 283.5072,27.2867 282.1739,32.2867 282.1739,43.9534"/>
    <polyline points="269.5072,36.4534 269.6739,31.2867 271.6739,27.6201 274.3406,19.6201"/>
    <polyline points="266.3406,40.7867 260.1739,42.7867 260.1739,45.7867 261.3406,50.1201 266.5072,48.1201 274.1739,46.1201 274.3406,44.2867 273.5072,42.4534 272.1739,39.9534 270.1739,38.2867 266.5072,38.2867 264.0072,40.2867 263.0072,40.2867"/>
    <polyline points="264.8406,52.2867 268.3406,51.4534 277.6739,46.2867 279.1739,46.1201 279.1739,51.4534 274.3406,54.6201 267.1739,58.1201 266.6739,56.6201 267.0072,53.2867"/>
    <line x1="265.5072" x2="265.5072" y1="97.1936" y2="97.1936"/>
    <line x1="260.8406" x2="261.8406" y1="102.3602" y2="106.5269"/>
    <line x1="266.1739" x2="266.1739" y1="105.8602" y2="104.8602"/>
    <line x1="270.6739" x2="270.6739" y1="117.0269" y2="117.0269"/>
    <polyline points="269.5072,119.1936 272.3406,119.5269 279.3406,118.5269 281.0072,115.8602 278.8406,113.0269 277.3406,108.5269 280.0072,101.5269 279.6739,99.3602 274.5072,100.0269 272.0072,103.6936 270.8406,110.0269 275.6739,115.0269 276.3406,119.3602 275.8406,120.3602"/>
    <polyline points="276.6739,121.6936 283.3406,133.0269 284.5072,133.8602"/>
    <line x1="286.3406" x2="281.0072" y1="132.6936" y2="122.8602"/>
    <line x1="285.0072" x2="285.3406" y1="122.6936" y2="122.8602"/>
    <line x1="291.8406" x2="292.1739" y1="121.0269" y2="121.0269"/>
    <line x1="293.0072" x2="293.0072" y1="120.0269" y2="120.0269"/>
    <line x1="287.1739" x2="287.1739" y1="114.0269" y2="114.0269"/>
    <line x1="290.0072" x2="289.6739" y1="108.3602" y2="108.0269"/>
    <line x1="296.8406" x2="296.8406" y1="110.1936" y2="110.5269"/>
    <line x1="279.6739" x2="279.3406" y1="110.1936" y2="110.1936"/>
    <polyline points="274.8406,115.5269 278.1739,114.5269 279.1739,113.5269 277.8406,98.3602 276.6739,99.3602 285.5072,113.5269 286.0072,112.3602 271.5072,105.0269 270.5072,107.3602 285.0072,108.3602 284.5072,107.3602 273.8406,105.0269 272.8406,107.1936 281.5072,116.6936 282.5072,115.1936 280.5072,106.5269 275.5072,113.5269 274.8406,115.1936 275.0072,126.8602 276.3406,126.5269 281.1739,118.3602 280.3406,117.5269 279.3406,104.3602 272.0072,119.0269 283.1739,120.6936 276.3406,113.8602 279.1739,107.0269 281.1739,103.6936 272.6739,120.0269 272.6739,121.0269 276.3406,120.8602 271.3406,116.3602 271.3406,112.6936 276.8406,104.8602 275.3406,104.3602 265.5072,107.8602 264.0072,110.8602 275.0072,127.8602"/>
    <polyline points="277.0072,127.1936 271.1739,135.8602 269.8406,138.6936"/>
    <polyline points="270.6739,139.0269 275.3406,133.3602 281.3406,130.5269"/>
    <line x1="281.0072" x2="285.8406" y1="128.1936" y2="137.3602"/>
    <polyline points="283.1739,139.0269 280.5072,136.1936 277.0072,129.0269"/>
    <line x1="278.1739" x2="273.1739" y1="127.8602" y2="132.1936"/>
    <polyline points="269.6739,136.8602 269.1739,136.5269 276.3406,127.3602 277.5072,127.1936"/>
    <line x1="278.5072" x2="276.0072" y1="126.0269" y2="138.3602"/>
    <line x1="279.6739" x2="277.5072" y1="137.5269" y2="125.3602"/>
    <polyline points="275.0072,125.3602 279.0072,125.0269 277.6739,121.1936 277.8406,120.3602 280.1739,117.8602 283.1739,116.0269 284.6739,114.3602 284.5072,113.6936 283.1739,113.0269 277.5072,111.0269 276.5072,109.1936 278.1739,106.5269 284.1739,103.0269 285.6739,101.1936 285.5072,100.3602 282.6739,97.8602 279.8406,96.8602 275.0072,97.0269 273.3406,97.6936 273.6739,98.6936 276.1739,100.5269 277.1739,102.0269 274.0072,104.1936 270.1739,109.1936 269.8406,114.8602 271.6739,118.5269 275.5072,122.1936"/>
    <polyline points="274.0072,118.8602 275.1739,116.8602 278.6739,104.5269 286.3406,105.1936 279.0072,114.1936 278.5072,118.1936 285.0072,123.5269 274.8406,125.0269 273.5072,124.1936 271.6739,121.0269"/>
    <line x1="266.6739" x2="266.5072" y1="117.8602" y2="118.0269"/>
    <line x1="260.0906" x2="260.0906" y1="121.6936" y2="121.6936"/>
    <line x1="262.9239" x2="262.9239" y1="125.3602" y2="125.3602"/>
    <line x1="264.5072" x2="264.5072" y1="133.9436" y2="133.9436"/>
    <polyline points="267.0072,139.0269 272.6739,126.0269 275.6739,123.0269 278.0072,123.5269 282.5072,128.1936 288.3406,135.8602 276.1739,138.3602 268.3406,138.6936 267.6739,139.1936"/>
    <line x1="281.6739" x2="279.6739" y1="137.0269" y2="126.6936"/>
    <line x1="258.3406" x2="257.1739" y1="115.6936" y2="115.1936"/>
    <line x1="254.3406" x2="254.5072" y1="119.5269" y2="119.8602"/>
    <polyline points="254.8406,193.2671 257.3406,196.6004 275.3406,208.2671 285.8406,213.2671 285.5072,212.1004"/>
    <polyline points="294.8406,207.7671 284.8406,205.9337 261.5072,203.2671 258.1739,203.4337 254.8406,204.2671"/>
    <polyline points="254.3406,213.7671 269.0072,203.6004 276.6739,196.2671 289.1739,188.1004 287.3406,188.6004"/>
    <polyline points="283.8406,196.7671 285.5072,191.9337 285.1739,181.4337 286.3406,178.4337 287.5072,177.9337 285.1739,182.2671 274.5072,188.9337 274.0072,190.6004 276.0072,192.2671 275.5072,180.9337 276.1739,177.2671 277.3406,175.6004 276.6739,176.7671 273.8406,179.1004 270.6739,183.4337 265.8406,187.4337 265.8406,189.4337 268.3406,191.4337 266.3406,183.7671 266.6739,181.9337 264.8406,185.7671 262.3406,187.9337 258.5072,193.1004 258.8406,194.7671 262.3406,199.2671 268.0072,203.4337"/>
    <polyline points="256.1739,218.1004 259.0072,215.1004 264.5072,210.4337 277.0072,202.9337 290.5072,195.7671 291.8406,195.6004 292.8406,197.4337"/>
    <polyline points="334.0807,207.6004 335.414,212.7671 337.7474,214.6004 339.0807,214.6004 340.414,213.7671 341.914,211.1004 341.914,209.6004 341.0807,208.7671 338.914,208.4337 336.414,208.6004 335.2474,209.2671 333.2474,212.7671 333.0807,215.2671 334.2474,216.2671 337.414,216.6004 339.2474,215.9337 343.0807,212.6004 344.0807,210.6004 343.414,210.4337 341.5807,210.6004 340.7474,211.7671 340.5807,214.2671 341.5807,215.6004 344.5807,217.4337 347.5807,217.7671 349.0807,217.1004 351.2474,214.7671 352.0807,212.9337 352.0807,211.7671 351.414,211.4337 347.914,211.2671 346.5807,211.9337 345.414,213.4337 345.7474,215.7671 348.2474,217.6004 352.5807,218.1004 355.414,216.2671 356.2474,215.1004 357.0807,213.1004 356.914,211.2671 354.7474,210.1004 351.5807,210.2671 350.2474,211.1004 348.7474,213.4337 349.0807,216.1004 350.5807,216.9337 354.414,217.1004 356.0807,216.6004 357.5807,215.2671 359.414,212.7671 359.914,210.7671 359.914,208.4337 358.414,205.6004 356.7474,204.2671 354.914,204.2671 354.0807,204.9337 353.5807,207.6004 353.914,209.6004 354.914,210.7671 356.5807,211.2671 359.0807,211.4337 361.414,210.4337 363.0807,209.2671 364.414,207.4337 365.2474,205.7671 365.414,202.1004 363.5807,199.1004 362.0807,198.4337 358.914,198.1004 354.5807,201.1004 350.7474,205.7671 352.5807,203.1004 353.2474,200.6004 353.5807,196.1004 352.7474,194.7671 350.7474,193.6004 345.7474,193.6004 340.5807,196.4337 338.2474,198.4337 335.2474,203.1004 334.2474,206.6004 334.2474,208.1004 335.0807,209.1004 338.414,210.4337 342.5807,209.7671 344.414,207.4337 345.0807,203.6004 343.5807,203.2671 341.2474,204.4337 336.914,208.4337 334.2474,213.2671"/>
    <polyline points="346.0807,217.4337 342.7474,208.9337 337.914,199.7671 335.7474,194.6004 335.0807,192.1004 335.0807,183.7671 335.5807,181.2671 337.5807,200.1004 337.5807,185.9337 338.2474,180.2671 339.7474,176.2671 340.914,175.6004 341.914,177.2671 344.0807,187.9337 346.2474,194.9337 349.2474,180.1004 350.5807,176.4337 352.7474,193.2671 352.5807,199.7671 350.914,208.4337"/>
    <polyline points="351.5807,256.8406 354.5807,258.6739 355.914,260.8406 356.914,265.1739 359.5807,271.1739 362.914,274.6739 365.5807,275.6739 368.0807,275.5072 369.2474,274.6739 368.914,273.5072 360.7474,267.3406 356.5807,261.1739 352.914,257.8406"/>
    <polyline points="352.7474,272.1739 356.914,274.3406 357.914,274.5072 359.0807,273.5072 358.2474,267.0072 354.0807,259.0072 350.0807,255.6739 347.414,254.3406 349.914,257.5072 352.414,269.3406 353.914,273.1739 357.5807,278.5072"/>
    <polyline points="364.414,273.0072 369.914,275.8406 373.914,279.5072 374.2474,281.1739 373.914,282.3406 372.7474,283.3406 369.414,284.3406 367.914,283.5072"/>
    <line x1="375.5807" x2="375.5807" y1="274.3406" y2="274.3406"/>
    <polyline points="348.0807,278.1739 357.414,282.6739 358.414,284.5072 355.7474,284.1739 352.5807,282.8406 347.7474,282.6739 346.0807,281.6739"/>
    <polyline points="343.0807,274.6739 346.7474,273.5072 361.7474,264.5072 368.914,261.0072 369.414,263.1739 368.7474,264.6739 365.5807,267.5072 363.2474,269.0072 349.414,274.0072 342.914,275.5072 342.5807,274.3406"/>
    <polyline points="335.5807,277.3406 334.0807,275.8406 333.7474,274.0072 334.5807,272.6739 336.2474,272.6739 338.414,273.5072 339.0807,274.8406 338.7474,276.3406 337.414,277.1739 334.5807,278.1739 333.2474,277.6739 333.414,275.3406"/>
    <polyline points="337.914,264.5072 338.0807,265.6739 339.7474,266.3406 340.914,265.8406 341.0807,262.6739 340.0807,260.0072 339.0807,258.6739 337.914,258.0072 335.414,260.3406"/>
    <polyline points="281.6739,266.3406 285.5072,268.6739 285.8406,269.5072 282.6739,274.3406 273.1739,285.5072 270.5072,289.8406 264.8406,295.0072 261.6739,295.1739 257.5072,292.5072 265.5072,286.0072 271.3406,277.6739 279.1739,271.1739 281.6739,267.3406"/>
    <polyline points="269.8406,284.8406 267.3406,282.0072 265.5072,277.3406 264.6739,260.8406 268.5072,258.1739 270.3406,254.8406 272.0072,254.3406 274.3406,256.5072 277.1739,256.0072 278.3406,259.3406 278.3406,269.1739 276.1739,281.3406 275.1739,282.8406 271.0072,283.6739 269.1739,285.6739"/>
    <polyline points="259.3406,266.3406 256.0072,269.3406 254.3406,272.0072 259.6739,276.0072 261.5072,278.1739 264.3406,282.8406 272.6739,289.6739 274.0072,291.6739 283.3406,296.8406 283.6739,295.5072 284.0072,288.6739 278.3406,279.5072 270.1739,272.6739 259.1739,266.1739"/>
    <polyline points="204.2671,293.8406 191.7671,292.5072 175.6004,292.5072"/>
    <polyline points="182.1004,293.0072 184.7671,291.0072 191.6004,287.5072 194.1004,284.8406"/>
    <polyline points="194.6004,281.6739 193.1004,281.3406 190.1004,278.8406 188.2671,276.0072 181.1004,270.5072 179.4337,260.5072 180.9337,259.0072 189.4337,255.8406"/>
    <polyline points="192.9337,254.3406 196.4337,257.6739 196.4337,262.5072 194.6004,265.1739 191.6004,266.6739 190.2671,268.8406 194.6004,275.5072"/>
    <polyline points="197.6004,283.6739 192.1004,289.6739 189.1004,294.1739"/>
    <polyline points="185.6004,293.0072 188.7671,291.5072 200.4337,289.1739"/>
    <polyline points="196.9337,287.6739 192.6004,289.5072 184.1004,296.8406"/>
    <line x1="185.2671" x2="199.1004" y1="286.5072" y2="294.5072"/>
    <polyline points="196.4337,296.8406 194.2671,295.3406 189.9337,286.0072 188.2671,284.8406 186.4337,284.5072"/>
    <polyline points="201.6004,211.1004 204.1004,209.9337 204.6004,208.6004 196.9337,198.1004 192.2671,201.7671 200.4337,208.4337 201.9337,210.7671"/>
    <polyline points="197.9337,199.7671 197.4337,186.2671 195.4337,189.7671 193.6004,191.1004 192.4337,191.1004 191.4337,182.7671 189.1004,176.1004 187.9337,175.6004 187.2671,178.4337 187.9337,180.9337 187.9337,184.4337 186.4337,194.6004 183.4337,190.4337 182.4337,187.1004 181.6004,186.1004 179.4337,190.1004 179.9337,194.4337 182.6004,199.2671 184.9337,205.7671"/>
    <polyline points="188.2671,206.6004 187.6004,209.2671 186.4337,211.1004 178.7671,218.1004 175.6004,214.1004 183.9337,205.6004 188.6004,203.4337"/>
    <polyline points="190.1004,201.7671 189.7671,202.1004 192.4337,204.7671 196.7671,210.7671 197.6004,212.7671 192.2671,215.2671 189.2671,209.7671 188.6004,206.4337"/>
    <polyline points="333.0807,132.8602 337.914,132.3602 349.2474,132.3602 358.2474,133.1936"/>
    <polyline points="350.5807,139.3602 350.0807,137.3602 340.0807,124.3602"/>
    <polyline points="341.7474,122.8602 335.7474,109.8602 335.414,106.3602 336.5807,102.6936 336.914,98.8602 337.5807,97.3602 339.0807,96.8602 340.414,97.0269 346.5807,102.3602 349.414,103.0269 353.414,103.3602 355.0807,105.1936 355.414,107.1936 355.5807,112.5269 350.2474,125.1936 347.414,130.0269"/>
    <polyline points="344.2474,128.8602 341.0807,126.5269 339.2474,123.8602 339.5807,116.3602 340.414,115.5269"/>
    <polyline points="350.414,126.5269 341.414,134.8602 340.2474,136.3602 340.2474,137.8602"/>
    <line x1="342.5807" x2="355.7474" y1="60.6201" y2="47.4534"/>
    <polyline points="357.5807,44.4534 358.2474,43.4534 358.2474,40.4534 357.2474,32.6201 356.2474,30.9534 354.2474,29.2867 352.5807,26.4534 352.7474,22.2867 351.414,22.9534 350.7474,26.9534 349.914,28.6201 348.0807,27.2867 346.414,22.9534 346.914,18.1201 342.914,20.2867 340.414,22.6201 340.914,24.9534 340.5807,31.4534 339.2474,32.6201 337.914,29.1201 333.7474,36.2867 333.914,40.6201 335.0807,44.6201 337.0807,46.6201 338.914,46.9534"/>
    <polyline points="338.7474,47.1201 344.0807,47.2867 347.414,47.9534 365.914,52.9534"/>
    <polyline points="362.2474,54.7867 362.2474,55.4534 357.914,54.6201 336.7474,48.4534 333.7474,48.2867 335.0807,47.2867 336.914,46.9534 337.0807,47.9534 333.0807,47.9534"/>
    <polyline points="343.2474,53.2867 344.7474,50.6201 351.7474,44.2867 356.0807,41.4534 358.7474,40.7867 358.7474,41.1201"/>
    <polyline points="428.9875,30.7867 429.9875,25.6201 434.4875,31.2867 435.6542,25.6201 436.9875,22.4534 443.3209,31.4534 445.3209,24.4534 448.9875,29.1201 450.1542,31.9534"/>
    <polyline points="449.6542,32.4534 451.4875,32.1201 452.9875,32.4534 454.1542,34.1201 454.3209,35.1201 446.1542,37.9534 434.8209,38.1201 425.6542,37.4534 411.9875,34.4534 427.4875,33.7867 439.9875,32.1201 448.9875,32.1201 450.6542,32.6201"/>
    <polyline points="443.6542,34.4534 440.1542,35.9534 441.1542,35.9534 448.9875,33.6201 445.8209,29.9534 443.3209,32.7867 442.4875,34.9534"/>
    <polygon points="431.8209,36.4534 434.9875,36.9534 439.1542,33.1201 441.6542,29.4534 432.9875,33.1201 429.9875,35.4534"/>
    <line x1="432.4875" x2="434.1542" y1="24.7867" y2="19.2867"/>
    <polyline points="440.9875,23.4534 443.9875,19.4534 445.9875,18.1201"/>
    <line x1="451.4875" x2="450.3209" y1="21.6201" y2="24.7867"/>
    <polyline points="424.6542,97.0269 422.1542,105.5269 421.3209,112.3602 421.3209,116.6936 422.9875,120.8602 425.8209,123.5269 431.4875,125.3602 435.8209,125.0269 439.4875,123.1936 440.6542,121.5269 442.3209,117.8602 442.9875,113.5269 442.6542,101.6936 441.6542,99.8602 438.6542,104.0269 437.4875,104.0269 436.1542,101.8602 435.1542,98.1936 434.1542,98.5269 432.6542,102.0269 431.4875,103.1936 429.8209,102.3602 427.3209,98.0269 426.1542,97.0269 425.1542,96.8602 423.8209,98.1936"/>
    <polyline points="422.8209,119.8602 416.3209,124.6936 412.1542,128.8602 411.8209,134.1936 411.9875,135.1936 414.1542,135.5269 418.9875,132.6936 423.8209,128.8602"/>
    <polyline points="427.1542,127.1936 425.9875,131.3602 425.4875,135.6936 425.6542,138.6936 427.8209,139.3602 428.4875,138.1936 430.3209,127.5269"/>
    <polyline points="434.4875,123.3602 438.3209,128.1936 441.9875,134.1936 445.1542,134.3602 445.8209,133.3602 443.1542,129.0269 436.1542,123.0269"/>
    <polyline points="440.1542,119.5269 442.8209,122.6936 445.8209,127.3602 447.1542,128.6936 448.6542,129.1936 450.6542,128.1936 451.1542,127.1936 444.8209,121.0269"/>
    <polyline points="424.9875,208.1004 426.9875,207.4337 431.4875,204.6004 431.9875,201.9337 431.9875,196.7671 430.4875,191.7671 426.9875,189.4337 424.8209,186.1004 422.6542,180.4337 422.4875,176.2671 422.9875,175.6004 422.8209,178.4337 417.9875,189.6004 416.4875,194.9337 416.8209,201.1004 418.8209,206.7671 419.8209,207.9337"/>
    <polyline points="422.3209,207.6004 418.1542,207.6004 412.1542,206.7671 411.8209,208.9337 412.3209,209.6004 415.3209,210.7671 417.3209,210.7671 417.9875,211.4337 415.6542,212.6004 413.9875,215.1004 414.3209,216.1004 415.9875,216.7671 417.9875,216.4337 422.8209,212.1004"/>
    <polyline points="423.6542,212.6004 424.1542,213.4337 423.9875,218.1004 428.3209,217.6004 425.9875,210.4337"/>
    <polyline points="425.8209,210.7671 428.6542,210.9337 432.9875,212.7671 434.3209,212.6004 433.4875,208.2671 424.4875,208.6004"/>
    <polyline points="431.9875,269.3406 435.3209,285.1739 437.8209,275.3406 437.4875,287.8406 437.6542,286.1739 440.6542,291.8406 441.4875,292.5072 442.6542,282.6739 443.9875,258.3406 444.4875,267.1739 445.8209,275.3406 440.9875,270.3406 438.6542,269.1739 437.8209,269.6739 435.9875,276.6739 433.8209,279.8406 432.8209,279.5072 433.6542,268.3406 433.1542,269.0072 428.4875,262.5072 427.4875,262.0072 425.8209,262.5072 421.8209,265.3406 418.6542,267.0072 416.1542,267.0072 415.1542,266.0072 414.4875,257.8406 414.9875,254.3406 415.8209,254.8406 417.6542,257.0072 421.3209,263.8406 425.8209,275.0072 428.1542,283.6739 428.4875,286.8406 421.1542,277.1739 419.3209,275.6739 419.1542,276.3406 422.8209,284.5072 426.4875,296.8406 431.9875,289.6739 434.4875,287.5072 436.4875,286.5072 437.1542,287.0072 437.3209,288.0072"/>
    <polyline points="435.3209,290.1739 429.1542,284.8406 422.8209,276.1739"/>
    <polyline points="420.1542,287.0072 416.4875,280.8406 415.9875,279.5072 416.3209,278.5072 431.6542,270.1739 433.6542,269.5072 435.3209,269.6739 437.9875,271.3406 439.9875,278.8406 439.4875,282.6739 439.8209,291.0072 438.6542,292.3406"/>
    <polyline points="451.4875,288.0072 450.4875,289.0072 446.8209,289.8406 434.8209,290.3406 425.3209,291.8406 411.8209,291.3406"/>
    <polyline points="418.4875,288.3406 418.1542,287.3406 418.9875,286.6739 430.6542,281.1739 436.4875,277.3406"/>
    <polyline points="435.9875,278.8406 433.9875,279.6739 430.6542,281.8406 420.1542,292.0072"/>
    <polyline points="431.4875,355.5807 434.4875,360.0807 438.3209,364.5807 439.6542,367.7474"/>
    <polyline points="433.6542,369.414 438.6542,365.2474 442.8209,364.0807 446.1542,361.5807 447.3209,360.0807"/>
    <polyline points="443.4875,357.2474 440.9875,355.7474 444.3209,358.414 445.6542,358.5807 446.3209,358.2474 446.1542,357.5807 441.6542,353.5807 433.9875,360.0807 428.4875,363.0807"/>
    <polyline points="427.1542,358.5807 432.4875,355.0807 430.4875,353.914 427.8209,354.7474 423.9875,357.5807"/>
    <polyline points="423.9875,358.2474 428.1542,361.914 433.4875,370.5807 432.4875,368.2474"/>
    <polyline points="411.8209,367.7474 411.9875,364.0807 412.9875,361.914 419.9875,357.0807 422.9875,351.7474 422.9875,346.914 421.3209,340.0807 421.3209,336.7474 422.4875,334.914 426.1542,333.0807 427.4875,333.7474 427.9875,335.2474 426.8209,340.414 426.8209,345.2474 427.4875,347.7474 428.8209,349.7474 430.9875,351.2474 434.3209,351.914 436.8209,349.2474 437.3209,343.414 436.4875,339.7474 434.8209,335.414 431.8209,333.914 433.8209,333.7474 437.9875,336.914 439.8209,341.914 441.1542,350.2474 442.8209,354.5807 444.1542,355.2474 446.4875,354.914 447.8209,353.0807 449.3209,350.2474 450.4875,346.2474 450.3209,342.414 449.4875,339.7474 446.6542,336.0807 444.3209,333.914 445.3209,333.414 448.9875,334.7474 451.4875,338.414 451.4875,341.5807 449.4875,350.5807 449.1542,358.914 450.1542,360.914 454.3209,363.7474"/>
    <polyline points="450.8209,433.1542 451.1542,425.8209 447.6542,413.6542 445.4875,411.8209 439.3209,414.9875 436.1542,415.4875 433.8209,417.6542 431.3209,418.8209 430.3209,417.6542 428.4875,416.9875 424.8209,418.1542 421.3209,417.9875 419.3209,419.6542 417.4875,419.9875 412.1542,418.4875 422.4875,433.6542"/>
    <polyline points="422.8209,433.6542 424.6542,433.6542 433.8209,436.9875 443.8209,439.3209 450.9875,442.3209 452.1542,443.4875 452.3209,444.8209 451.4875,445.9875 446.6542,446.4875 429.1542,439.1542 419.6542,432.8209"/>
    <polyline points="423.6542,440.9875 428.8209,436.9875 435.9875,433.6542 440.6542,432.6542 442.3209,433.3209 442.6542,434.6542 441.3209,437.4875 435.9875,442.1542 432.3209,443.9875 428.3209,444.9875 422.3209,445.4875"/>
    <polyline points="411.8209,440.8209 413.6542,439.9875 418.9875,439.6542 442.6542,439.4875 451.9875,438.9875"/>
    <polyline points="454.3209,438.9875 453.3209,440.3209 449.8209,441.6542 435.6542,442.4875 422.4875,443.9875 417.4875,443.3209 411.8209,439.3209"/>
    <polyline points="352.2474,441.3209 359.0807,440.9875 360.414,441.6542 359.414,444.8209 357.7474,445.1542 354.5807,444.3209 349.0807,444.3209"/>
    <polyline points="350.5807,444.9875 357.914,451.6542 357.914,452.4875 355.0807,454.3209 351.914,452.3209 347.914,446.8209 346.914,444.3209"/>
    <polyline points="345.7474,440.9875 342.7474,436.8209 341.7474,431.9875 338.2474,433.9875"/>
    <polyline points="339.5807,433.8209 343.0807,438.9875 345.414,440.8209"/>
    <polyline points="343.914,439.4875 333.414,438.4875 333.0807,440.9875 333.0807,441.6542 336.7474,443.1542 343.5807,442.9875"/>
    <polyline points="336.2474,445.3209 355.414,434.9875 360.914,431.4875 361.7474,431.4875 362.7474,435.9875 362.0807,436.4875 359.0807,437.1542 352.414,440.4875 343.2474,445.4875 338.7474,448.9875 338.0807,449.1542 336.5807,447.3209"/>
    <polyline points="348.2474,434.3209 349.5807,432.6542 355.0807,428.1542 357.5807,421.9875 357.2474,419.6542 354.7474,417.4875 352.414,411.9875 351.5807,411.8209 350.414,412.8209 350.2474,413.6542 350.414,416.9875 351.414,420.9875 351.414,424.3209 348.914,431.4875 348.914,432.4875 350.0807,434.3209"/>
    <polyline points="350.2474,363.2474 353.2474,374.2474 356.914,372.5807 357.414,371.5807 351.7474,361.7474"/>
    <polyline points="353.7474,361.2474 358.0807,367.914 358.914,368.414 362.0807,366.414 363.7474,364.414 359.2474,361.5807 354.414,357.2474"/>
    <polyline points="352.2474,356.914 351.5807,354.5807 351.2474,346.914"/>
    <line x1="347.0807" x2="346.7474" y1="346.0807" y2="352.7474"/>
    <line x1="345.914" x2="345.914" y1="353.914" y2="359.7474"/>
    <polyline points="345.5807,362.2474 348.5807,374.2474 344.914,374.7474 343.7474,375.414 342.914,371.5807 343.0807,362.2474"/>
    <polyline points="340.914,361.914 337.414,375.414 334.5807,375.0807 333.0807,373.5807 340.5807,361.2474 345.914,363.414 348.5807,363.414 354.5807,360.5807 357.5807,355.2474 359.2474,349.914 359.0807,348.914 357.414,349.7474 355.5807,349.0807 356.5807,341.0807 356.414,340.0807 354.914,341.5807 354.0807,341.5807 353.914,334.5807 352.7474,337.5807 350.0807,340.5807 349.0807,333.0807 346.5807,340.0807 345.5807,340.2474 345.2474,336.914 344.414,335.7474 341.5807,347.2474 339.914,342.914 338.914,354.414 339.914,359.5807 340.7474,361.7474"/>
  </g>
</svg>
