<?xml version="1.0" encoding="utf-8" ?>
<svg xmlns="http://www.w3.org/2000/svg" xmlns:cc="http://creativecommons.org/ns#" xmlns:dc="http://purl.org/dc/elements/1.1/" xmlns:ev="http://www.w3.org/2001/xml-events" xmlns:inkscape="http://www.inkscape.org/namespaces/inkscape" xmlns:rdf="http://www.w3.org/1999/02/22-rdf-syntax-ns#" xmlns:sodipodi="http://sodipodi.sourceforge.net/DTD/sodipodi-0.dtd" xmlns:xlink="http://www.w3.org/1999/xlink" baseProfile="tiny" height="29.7cm" version="1.2" viewBox="0 0 793.7007874015749 1122.5196850393702" width="21.0cm">
  <metadata>
    <rdf:RDF>
      <cc:Work>
        <dc:format>image/svg+xml</dc:format>
        <dc:source/>
        <dc:date>2021-02-09T16:05:57.088943</dc:date>
      </cc:Work>
    </rdf:RDF>
  </metadata>
  <defs/>
  <g fill="none" id="layer1" inkscape:groupmode="layer" inkscape:label="1" stroke="#00f" style="display:inline">
    <polygon points="174.793,138.5363 212.5883,138.5363 212.5883,176.3316 174.793,176.3316"/>
    <polygon points="212.5883,176.3316 212.5883,138.5363 250.3835,138.5363 250.3835,176.3316"/>
    <polygon points="212.6478,214.1325 213.0291,176.3392 250.8224,176.7205 250.4411,214.5139"/>
    <polygon points="250.3355,210.7205 252.1951,248.47 214.4456,250.3295 212.586,212.58"/>
    <polygon points="249.4183,250.5695 251.3377,212.8229 289.0842,214.7423 287.1648,252.4888"/>
    <polygon points="283.6469,291.9137 245.9545,289.1268 248.7414,251.4345 286.4338,254.2213"/>
    <polygon points="288.6618,291.1951 287.0962,328.958 249.3334,327.3924 250.899,289.6296"/>
    <polygon points="289.0074,288.6089 326.7689,290.2067 325.171,327.9682 287.4096,326.3703"/>
    <polygon points="323.2891,253.5647 285.5425,251.6466 287.4606,213.9001 325.2071,215.8181"/>
    <polygon points="325.1195,252.599 362.9112,253.1157 362.3945,290.9075 324.6028,290.3908"/>
    <polygon points="324.718,247.636 327.9341,285.2942 290.2759,288.5103 287.0598,250.8521"/>
    <polygon points="325.7191,215.4843 363.5029,216.4153 362.5719,254.1991 324.7881,253.2681"/>
    <polygon points="325.2916,215.4176 287.5057,214.5775 288.3457,176.7916 326.1317,177.6317"/>
    <polygon points="363.0075,251.3046 364.5921,213.5425 402.3541,215.1271 400.7695,252.8892"/>
    <polygon points="363.9948,251.9956 401.6488,255.2606 398.3839,292.9146 360.7299,289.6496"/>
    <polygon points="362.3074,286.6056 364.5676,324.3333 326.8399,326.5934 324.5798,288.8658"/>
    <polygon points="398.6183,290.1399 401.7512,252.4747 439.4164,255.6075 436.2835,293.2728"/>
    <polygon points="439.9275,288.7181 477.7005,287.4226 478.996,325.1957 441.223,326.4912"/>
    <polygon points="437.425,328.0422 399.635,327.4153 400.2618,289.6252 438.0519,290.2521"/>
    <polygon points="439.4094,367.7908 401.6589,365.9525 403.4972,328.2019 441.2477,330.0403"/>
    <polygon points="402.6758,363.3173 440.0803,357.896 445.5016,395.3005 408.0971,400.7218"/>
    <polygon points="402.0153,362.3242 364.2363,363.4322 363.1283,325.6531 400.9073,324.5451"/>
    <polygon points="361.7751,371.268 399.2289,376.3367 394.1602,413.7905 356.7063,408.7218"/>
    <polygon points="363.1629,398.3314 367.789,435.8425 330.2779,440.4686 325.6518,402.9575"/>
    <polygon points="332.8666,393.0899 295.6762,399.8248 288.9413,362.6344 326.1317,355.8995"/>
    <polygon points="323.4866,407.5495 321.2633,445.2793 283.5334,443.056 285.7568,405.3262"/>
    <polygon points="291.6447,403.9699 253.9322,406.4692 251.4328,368.7567 289.1454,366.2574"/>
    <polygon points="284.6606,437.6548 246.9457,435.1903 249.4102,397.4755 287.125,399.94"/>
    <polygon points="283.4827,439.026 286.3165,476.7149 248.6276,479.5486 245.7938,441.8598"/>
    <polygon points="330.0097,439.5822 367.1298,446.6946 360.0173,483.8146 322.8973,476.7022"/>
    <polygon points="367.5673,444.8358 362.0475,407.4458 399.4375,401.9259 404.9573,439.316"/>
    <polygon points="395.8829,443.6798 399.3465,406.0435 436.9828,409.5071 433.5192,447.1434"/>
    <polygon points="405.7091,437.7026 407.9652,475.4304 370.2373,477.6864 367.9813,439.9586"/>
    <polygon points="414.1567,479.4766 406.3371,442.4991 443.3146,434.6795 451.1342,471.657"/>
    <polygon points="393.0981,518.4377 402.8443,481.9206 439.3614,491.6668 429.6152,528.1839"/>
    <polygon points="371.8972,511.5083 334.7891,518.6823 327.6151,481.5741 364.7233,474.4002"/>
    <polygon points="363.917,510.343 370.123,547.6253 332.8407,553.8312 326.6347,516.5489"/>
    <polygon points="362.3064,518.1816 399.2997,525.9262 391.5551,562.9195 354.5618,555.1749"/>
    <polygon points="368.5301,524.912 369.4768,487.1286 407.2602,488.0753 406.3135,525.8588"/>
    <polygon points="402.3309,546.5263 394.4259,509.567 431.3853,501.662 439.2903,538.6213"/>
    <polygon points="401.6659,562.1095 438.3236,552.9065 447.5266,589.5642 410.8688,598.7672"/>
    <polygon points="396.2575,590.7784 391.3047,628.2477 353.8353,623.2949 358.7881,585.8256"/>
    <polygon points="361.0148,594.6306 368.6948,557.6238 405.7016,565.3038 398.0216,602.3106"/>
    <polygon points="359.6776,568.6318 348.7851,604.8235 312.5934,593.9309 323.486,557.7393"/>
    <polygon points="301.7791,581.3931 266.0212,593.6347 253.7796,557.8768 289.5374,545.6352"/>
    <polygon points="288.4773,583.6628 291.6462,621.325 253.984,624.4938 250.8151,586.8317"/>
    <polygon points="283.5814,557.6574 246.1094,552.7249 251.0419,515.2528 288.5139,520.1853"/>
    <polygon points="296.1645,556.3256 333.4646,550.2274 339.5628,587.5274 302.2627,593.6256"/>
    <polygon points="299.4212,514.0509 290.1707,477.4051 326.8164,468.1546 336.067,504.8004"/>
    <polygon points="293.5691,509.7055 256.5713,517.4285 248.8483,480.4307 285.8461,472.7077"/>
    <polygon points="325.3183,506.2254 334.6402,542.853 298.0126,552.1749 288.6906,515.5473"/>
    <polygon points="325.8705,482.0569 288.0987,483.3894 286.7662,445.6176 324.538,444.2851"/>
    <polygon points="253.2451,519.2468 246.8322,556.4941 209.5849,550.0811 215.9978,512.8339"/>
    <polygon points="222.7996,501.9268 186.0477,510.7462 177.2284,473.9943 213.9803,465.1749"/>
    <polygon points="213.4421,507.8613 223.8405,544.198 187.5038,554.5964 177.1054,518.2597"/>
    <polygon points="219.6233,480.7606 181.8597,482.3073 180.313,444.5437 218.0766,442.997"/>
    <polygon points="217.4404,471.6778 216.9688,433.8855 254.7612,433.4139 255.2328,471.2063"/>
    <polygon points="207.494,479.1351 244.3978,487.2955 236.2373,524.1993 199.3335,516.0389"/>
    <polygon points="173.4358,439.087 180.4821,401.9543 217.6147,409.0006 210.5684,446.1333"/>
    <polygon points="213.8003,406.8451 176.0484,405.035 177.8585,367.2831 215.6104,369.0932"/>
    <polygon points="248.8782,391.845 256.1037,428.9432 219.0055,436.1686 211.78,399.0705"/>
    <polygon points="211.5517,366.769 210.2822,328.9951 248.0562,327.7256 249.3257,365.4995"/>
    <polygon points="209.4997,366.7682 246.716,373.3582 240.126,410.5745 202.9097,403.9845"/>
    <polygon points="176.1132,329.4242 173.3885,291.7273 211.0854,289.0026 213.8101,326.6995"/>
    <polygon points="172.7069,325.361 210.4718,326.8772 208.9557,364.642 171.1908,363.1259"/>
    <polygon points="212.6496,290.1591 213.9941,252.3877 251.7655,253.7322 250.421,291.5036"/>
    <polygon points="175.2853,252.3277 213.0195,254.4757 210.8715,292.2099 173.1373,290.0619"/>
    <polygon points="173.8153,251.196 174.3267,213.4041 212.1186,213.9156 211.6071,251.7074"/>
    <polygon points="173.7216,214.5349 174.2198,176.7429 212.0118,177.2412 211.5136,215.0331"/>
    <polygon points="288.175,177.5003 287.3415,215.2864 249.5554,214.4528 250.389,176.6668"/>
    <polygon points="288.1788,176.3316 250.3835,176.3316 250.3835,138.5363 288.1788,138.5363"/>
    <polygon points="288.1788,138.5363 325.9741,138.5363 325.9741,176.3316 288.1788,176.3316"/>
    <polygon points="325.9741,138.5363 363.7694,138.5363 363.7694,176.3316 325.9741,176.3316"/>
    <polygon points="364.4298,175.5904 365.0225,213.381 327.2319,213.9737 326.6392,176.1831"/>
    <polygon points="401.5646,176.3316 363.7694,176.3316 363.7694,138.5363 401.5646,138.5363"/>
    <polygon points="401.8554,176.3734 401.9734,214.1685 364.1783,214.2865 364.0603,176.4914"/>
    <polygon points="439.3599,176.3316 401.5646,176.3316 401.5646,138.5363 439.3599,138.5363"/>
    <polygon points="477.0281,175.9891 476.9119,213.7842 439.1168,213.668 439.233,175.8729"/>
    <polygon points="477.1552,176.3316 477.1552,138.5363 514.9505,138.5363 514.9505,176.3316"/>
    <polygon points="475.504,213.8585 476.2171,176.07 514.0056,176.783 513.2926,214.5716"/>
    <polygon points="478.8344,214.8464 478.1077,252.6347 440.3194,251.9079 441.0462,214.1196"/>
    <polygon points="477.8067,247.3824 479.7748,285.1264 442.0308,287.0945 440.0627,249.3505"/>
    <polygon points="476.7088,252.1978 514.3648,248.9552 517.6074,286.6111 479.9514,289.8537"/>
    <polygon points="514.0119,250.8586 513.9504,213.0634 551.7456,213.0019 551.8071,250.7971"/>
    <polygon points="514.4832,253.7755 476.7113,252.4454 478.0414,214.6736 515.8132,216.0036"/>
    <polygon points="553.0779,251.8837 554.7107,289.6437 516.9507,291.2765 515.3179,253.5165"/>
    <polygon points="553.3473,253.1218 591.1288,252.1035 592.1472,289.885 554.3656,290.9034"/>
    <polygon points="552.1545,214.4516 552.3728,176.6569 590.1675,176.8753 589.9491,214.6699"/>
    <polygon points="514.3683,213.9094 514.6023,176.1149 552.3968,176.3489 552.1628,214.1434"/>
    <polygon points="514.9505,176.3316 514.9505,138.5363 552.7457,138.5363 552.7457,176.3316"/>
    <polygon points="552.7457,176.3316 552.7457,138.5363 590.541,138.5363 590.541,176.3316"/>
    <polygon points="590.4677,212.5884 591.633,250.3657 553.8557,251.5309 552.6904,213.7536"/>
    <polygon points="591.1096,214.3483 590.6342,176.556 628.4264,176.0806 628.9019,213.8728"/>
    <polygon points="593.4203,253.6922 631.0857,250.5621 634.2158,288.2275 596.5504,291.3576"/>
    <polygon points="629.7485,249.9741 591.9745,251.2417 590.7069,213.4677 628.4809,212.2001"/>
    <polygon points="590.2907,330.4124 588.3674,292.6661 626.1137,290.7428 628.037,328.4891"/>
    <polygon points="556.4215,326.947 554.0658,289.2252 591.7876,286.8695 594.1433,324.5913"/>
    <polygon points="555.3946,326.2964 517.6287,327.7844 516.1407,290.0185 553.9067,288.5305"/>
    <polygon points="554.1072,323.9072 591.9006,323.5318 592.276,361.3252 554.4826,361.7006"/>
    <polygon points="516.8732,328.2885 479.0819,327.7389 479.6316,289.9476 517.4228,290.4973"/>
    <polygon points="513.7409,363.5988 551.5351,363.8827 551.2512,401.677 513.457,401.3931"/>
    <polygon points="512.1514,363.9809 474.3564,364.1253 474.2121,326.3303 512.0071,326.1859"/>
    <polygon points="481.189,364.321 443.4923,367.0486 440.7646,329.3519 478.4614,326.6242"/>
    <polygon points="476.7154,362.124 482.3902,399.4909 445.0233,405.1657 439.3485,367.7988"/>
    <polygon points="474.0596,402.0529 478.0299,364.4667 515.6161,368.4371 511.6457,406.0232"/>
    <polygon points="474.7127,405.3761 512.3604,402.0394 515.6971,439.6871 478.0494,443.0238"/>
    <polygon points="479.3058,432.51 487.2084,469.4698 450.2486,477.3725 442.3459,440.4126"/>
    <polygon points="444.3799,408.6686 481.4756,401.4306 488.7136,438.5264 451.6179,445.7643"/>
    <polygon points="480.0916,479.8848 476.4251,517.5019 438.8081,513.8354 442.4746,476.2184"/>
    <polygon points="474.4653,510.2054 512.2234,511.88 510.5487,549.6382 472.7906,547.9635"/>
    <polygon points="481.4454,549.259 519.2402,549.0552 519.4439,586.85 481.6492,587.0537"/>
    <polygon points="515.364,554.4287 521.188,517.0848 558.5318,522.9087 552.7079,560.2526"/>
    <polygon points="558.4123,569.2986 554.0927,606.8462 516.5451,602.5267 520.8647,564.979"/>
    <polygon points="587.1876,549.602 589.4029,587.3323 551.6726,589.5476 549.4573,551.8173"/>
    <polygon points="590.5161,550.4873 592.7511,512.7581 630.4802,514.9931 628.2452,552.7222"/>
    <polygon points="589.5776,530.2779 580.4663,566.9585 543.7857,557.8472 552.897,521.1666"/>
    <polygon points="588.659,521.7348 550.9301,519.4958 553.1692,481.7669 590.8981,484.0059"/>
    <polygon points="596.3621,476.3365 632.9845,485.6794 623.6416,522.3017 587.0193,512.9588"/>
    <polygon points="595.6521,441.9613 588.8768,404.7783 626.0598,398.003 632.8351,435.186"/>
    <polygon points="592.7952,438.1933 595.1823,475.9131 557.4624,478.3002 555.0753,440.5804"/>
    <polygon points="587.8183,441.7382 625.2798,446.7504 620.2675,484.2119 582.8061,479.1996"/>
    <polygon points="553.9694,437.9172 516.3163,441.1925 513.041,403.5395 550.6941,400.2641"/>
    <polygon points="554.648,405.7005 591.765,398.5724 598.8931,435.6895 561.776,442.8175"/>
    <polygon points="547.5662,403.1829 552.6108,365.7258 590.0679,370.7704 585.0233,408.2275"/>
    <polygon points="546.5233,369.2681 508.9783,364.9252 513.3213,327.3802 550.8662,331.7232"/>
    <polygon points="589.1309,372.1213 592.668,334.4919 630.2974,338.029 626.7603,375.6584"/>
    <polygon points="595.128,400.1931 588.9066,362.9134 626.1863,356.6919 632.4077,393.9716"/>
    <polygon points="513.849,476.6917 551.6443,476.6641 551.6719,514.4593 513.8766,514.487"/>
    <polygon points="512.1659,475.7459 513.7055,437.982 551.4694,439.5216 549.9298,477.2855"/>
    <polygon points="511.2738,480.1192 473.4801,479.7744 473.8248,441.9807 511.6185,442.3255"/>
    <polygon points="511.4819,490.2397 503.0419,527.0806 466.2011,518.6407 474.641,481.7998"/>
    <polygon points="442.885,551.695 442.9984,513.8999 480.7935,514.0133 480.6801,551.8084"/>
    <polygon points="454.6038,590.173 443.6748,553.9923 479.8555,543.0633 490.7845,579.244"/>
    <polygon points="469.6601,589.4046 506.5164,597.7773 498.1437,634.6336 461.2874,626.2609"/>
    <polygon points="470.3047,636.0687 434.1993,624.8937 445.3743,588.7882 481.4797,599.9632"/>
    <polygon points="444.333,631.8361 481.499,638.7043 474.6307,675.8703 437.4648,669.0021"/>
    <polygon points="417.1197,622.5622 407.0938,586.121 443.5351,576.0951 453.5609,612.5364"/>
    <polygon points="411.9643,626.9888 410.0191,664.734 372.2739,662.7888 374.2191,625.0436"/>
    <polygon points="408.7532,634.3574 446.4667,631.8722 448.9518,669.5857 411.2383,672.0709"/>
    <polygon points="450.5887,660.485 487.812,653.9347 494.3623,691.1581 457.139,697.7084"/>
    <polygon points="501.9882,663.2878 515.3219,627.9226 550.6871,641.2564 537.3534,676.6215"/>
    <polygon points="519.4869,676.3692 482.0905,670.8929 487.5668,633.4964 524.9633,638.9727"/>
    <polygon points="524.2953,702.8441 511.9111,667.1354 547.6198,654.7512 560.004,690.4599"/>
    <polygon points="543.4489,696.5095 550.9846,733.5459 513.9482,741.0816 506.4125,704.0452"/>
    <polygon points="547.0417,705.8778 583.5068,715.8165 573.5681,752.2817 537.103,742.3429"/>
    <polygon points="513.2717,728.2586 526.7274,763.5775 491.4085,777.0333 477.9527,741.7143"/>
    <polygon points="484.7944,740.9487 447.4903,747.0223 441.4168,709.7182 478.7208,703.6446"/>
    <polygon points="477.7758,721.1314 482.0815,683.5822 519.6307,687.8879 515.325,725.4371"/>
    <polygon points="486.6972,702.1043 524.4795,701.1141 525.4697,738.8964 487.6874,739.8866"/>
    <polygon points="439.83,745.4167 433.3965,782.6604 396.1528,776.2269 402.5863,738.9832"/>
    <polygon points="431.9427,758.9927 468.5488,768.3988 459.1427,805.0049 422.5366,795.5988"/>
    <polygon points="436.4359,778.6983 473.9086,773.7703 478.8366,811.2429 441.364,816.171"/>
    <polygon points="440.5177,787.025 429.9231,823.305 393.6431,812.7104 404.2377,776.4304"/>
    <polygon points="405.4416,797.0778 424.6481,829.6292 392.0968,848.8357 372.8902,816.2844"/>
    <polygon points="372.1357,773.3982 359.8874,737.6426 395.643,725.3943 407.8913,761.1499"/>
    <polygon points="358.5867,777.837 355.7374,815.5247 318.0496,812.6753 320.899,774.9876"/>
    <polygon points="349.2216,782.794 312.6762,773.1547 322.3155,736.6093 358.8609,746.2486"/>
    <polygon points="362.4459,814.2211 359.012,776.5821 396.651,773.1483 400.0848,810.7872"/>
    <polygon points="327.8515,823.1098 290.1988,826.389 286.9195,788.7363 324.5723,785.457"/>
    <polygon points="300.5068,824.7538 338.2862,825.8487 337.1913,863.6281 299.4119,862.5332"/>
    <polygon points="299.3032,805.4085 262.7394,814.9778 253.1702,778.414 289.734,768.8447"/>
    <polygon points="270.0159,777.0108 259.4074,740.7348 295.6834,730.1263 306.2919,766.4023"/>
    <polygon points="244.5645,800.8599 262.1315,834.3245 228.6668,851.8915 211.0998,818.4269"/>
    <polygon points="251.1056,818.2038 288.883,817.0418 290.045,854.8192 252.2675,855.9812"/>
    <polygon points="219.549,825.9285 181.9326,822.2562 185.6049,784.6397 223.2214,788.3121"/>
    <polygon points="227.477,846.2863 193.8652,863.5701 176.5813,829.9584 210.1931,812.6745"/>
    <polygon points="214.2182,849.7007 251.7106,844.9255 256.4858,882.4179 218.9934,887.1931"/>
    <polygon points="195.9389,872.2143 178.8946,905.9482 145.1607,888.9038 162.2051,855.1699"/>
    <polygon points="226.093,920.2499 189.7796,930.7295 179.3,894.4161 215.6134,883.9365"/>
    <polygon points="229.9165,924.2068 208.7209,892.9142 240.0136,871.7186 261.2092,903.0113"/>
    <polygon points="212.0294,927.9557 213.8892,965.7052 176.1397,967.565 174.2799,929.8155"/>
    <polygon points="206.7707,969.4427 221.1171,934.4761 256.0837,948.8224 241.7373,983.7891"/>
    <polygon points="254.0008,932.3484 287.5047,914.8563 304.9968,948.3602 271.4929,965.8523"/>
    <polygon points="270.7495,935.8759 306.4505,948.2824 294.044,983.9834 258.343,971.5769"/>
    <polygon points="299.6346,927.1293 294.9531,889.6251 332.4573,884.9436 337.1388,922.4478"/>
    <polygon points="333.6556,935.5749 371.3452,932.7507 374.1694,970.4403 336.4798,973.2645"/>
    <polygon points="344.6261,935.6338 357.719,900.1788 393.174,913.2717 380.0811,948.7267"/>
    <polygon points="365.4131,930.7021 401.2768,942.63 389.3488,978.4938 353.4851,966.5658"/>
    <polygon points="377.1628,894.0221 384.3971,931.1186 347.3006,938.3529 340.0663,901.2564"/>
    <polygon points="377.8275,882.4796 341.7563,893.7646 330.4713,857.6934 366.5425,846.4084"/>
    <polygon points="410.9895,869.8653 377.9126,888.152 359.6259,855.0751 392.7028,836.7884"/>
    <polygon points="424.7723,868.0101 392.3484,848.5892 411.7693,816.1652 444.1932,835.5861"/>
    <polygon points="436.0038,870.9731 473.7955,871.4953 473.2733,909.2869 435.4817,908.7648"/>
    <polygon points="440.8069,886.5041 448.6794,923.4704 411.7131,931.3428 403.8406,894.3765"/>
    <polygon points="484.2467,903.2359 519.4202,889.4045 533.2515,924.578 498.078,938.4094"/>
    <polygon points="486.3036,934.2867 448.9765,940.2169 443.0462,902.8898 480.3734,896.9595"/>
    <polygon points="473.9934,968.1291 470.894,930.4612 508.562,927.3618 511.6614,965.0297"/>
    <polygon points="463.0176,983.3991 429.2791,966.3639 446.3144,932.6254 480.0529,949.6607"/>
    <polygon points="514.6745,976.425 516.6298,938.6803 554.3744,940.6356 552.4192,978.3802"/>
    <polygon points="541.8932,916.6997 531.3494,952.9945 495.0546,942.4507 505.5984,906.1559"/>
    <polygon points="582.2334,924.0402 585.0033,961.7339 547.3096,964.5038 544.5397,926.8101"/>
    <polygon points="596.4034,931.0592 560.2346,942.0273 549.2665,905.8584 585.4353,894.8903"/>
    <polygon points="611.866,924.3304 592.2207,892.0419 624.5092,872.3966 644.1545,904.685"/>
    <polygon points="627.2804,889.2378 589.4875,889.6599 589.0653,851.867 626.8583,851.4449"/>
    <polygon points="624.052,825.9847 615.6,862.8228 578.7619,854.3707 587.2139,817.5326"/>
    <polygon points="579.7099,834.4069 563.9893,868.7776 529.6186,853.057 545.3392,818.6863"/>
    <polygon points="577.6041,825.6669 585.0606,788.6145 622.113,796.071 614.6565,833.1234"/>
    <polygon points="563.575,854.5798 526.4135,861.4723 519.521,824.3108 556.6825,817.4183"/>
    <polygon points="562.19,857.363 595.5393,875.148 577.7543,908.4973 544.405,890.7123"/>
    <polygon points="532.238,852.1376 570.0269,852.8323 569.3322,890.6212 531.5433,889.9265"/>
    <polygon points="505.1915,854.5734 511.4926,891.8397 474.2263,898.1408 467.9252,860.8745"/>
    <polygon points="492.5991,858.8367 484.0179,822.0285 520.8261,813.4473 529.4073,850.2555"/>
    <polygon points="499.293,830.0828 462.2585,822.538 469.8033,785.5034 506.8378,793.0482"/>
    <polygon points="523.9011,812.5037 510.3157,777.2345 545.5849,763.649 559.1704,798.9183"/>
    <polygon points="552.5068,771.8324 515.7389,780.5845 506.9868,743.8166 543.7547,735.0645"/>
    <polygon points="556.7003,745.6391 594.3082,741.8804 598.0669,779.4883 560.459,783.247"/>
    <polygon points="588.2354,730.2297 625.2165,722.4271 633.0191,759.4082 596.038,767.2108"/>
    <polygon points="614.0245,751.9863 577.3204,742.9701 586.3366,706.266 623.0407,715.2822"/>
    <polygon points="584.3358,783.8946 585.3894,821.6751 547.6088,822.7288 546.5552,784.9482"/>
    <polygon points="635.4667,707.8891 598.1225,713.7109 592.3007,676.3667 629.6449,670.5449"/>
    <polygon points="641.347,624.6559 645.8211,662.1854 608.2916,666.6595 603.8175,629.13"/>
    <polygon points="637.1632,580.4353 648.5401,616.4776 612.4977,627.8545 601.1208,591.8122"/>
    <polygon points="635.6807,580.3754 599.5619,591.5071 588.4303,555.3882 624.5491,544.2566"/>
    <polygon points="574.9829,636.9349 537.8309,629.9914 544.7744,592.8394 581.9264,599.7829"/>
    <polygon points="552.3328,631.0015 588.0253,618.5704 600.4563,654.2629 564.7638,666.6939"/>
    <polygon points="523.2312,624.0148 514.842,587.1623 551.6945,578.7731 560.0837,615.6256"/>
    <polygon points="562.304,667.6007 598.0101,679.9926 585.6182,715.6987 549.9121,703.3068"/>
    <polygon points="407.5125,737.7312 369.9786,742.1682 365.5415,704.6343 403.0754,700.1972"/>
    <polygon points="397.1289,748.3174 394.0243,710.6498 431.6918,707.5452 434.7965,745.2127"/>
    <polygon points="381.7972,705.3339 396.2321,670.4037 431.1623,684.8386 416.7274,719.7688"/>
    <polygon points="371.2812,704.0881 366.3568,666.615 403.8299,661.6907 408.7543,699.1638"/>
    <polygon points="337.0957,701.4148 299.5286,705.5613 295.3821,667.9942 332.9492,663.8477"/>
    <polygon points="330.8533,709.2098 368.3618,713.857 363.7145,751.3655 326.2061,746.7182"/>
    <polygon points="314.9862,706.3306 326.2171,670.2425 362.3052,681.4734 351.0743,717.5615"/>
    <polygon points="290.815,710.7861 327.7256,718.9158 319.596,755.8263 282.6854,747.6967"/>
    <polygon points="280.8844,696.8543 295.0476,731.8956 260.0063,746.0587 245.8432,711.0175"/>
    <polygon points="272.3088,717.1128 237.0458,703.511 250.6476,668.2481 285.9106,681.8499"/>
    <polygon points="250.5693,692.7249 262.8519,728.4687 227.1082,740.7514 214.8255,705.0076"/>
    <polygon points="253.2514,665.3276 262.4299,701.9914 225.766,711.1698 216.5876,674.506"/>
    <polygon points="263.3899,655.5613 251.6053,619.6502 287.5164,607.8656 299.301,643.7766"/>
    <polygon points="247.2,632.8887 242.305,670.3656 204.8281,665.4706 209.7231,627.9937"/>
    <polygon points="222.5329,660.2703 184.7398,660.6781 184.332,622.8851 222.1251,622.4772"/>
    <polygon points="210.5786,699.5134 217.644,736.6424 180.515,743.7078 173.4496,706.5788"/>
    <polygon points="209.7162,721.4312 173.2698,711.4241 183.2769,674.9777 219.7233,684.9847"/>
    <polygon points="245.6519,736.7858 247.0146,774.5565 209.2439,775.9192 207.8812,738.1485"/>
    <polygon points="209.758,788.429 246.8128,780.9839 254.258,818.0386 217.2032,825.4838"/>
    <polygon points="179.5163,779.59 177.8277,741.8325 215.5853,740.1439 217.2738,777.9015"/>
    <polygon points="296.6776,858.2813 308.5315,894.1696 272.6432,906.0235 260.7893,870.1352"/>
    <polygon points="284.1065,887.1921 271.3593,922.7729 235.7785,910.0257 248.5257,874.4449"/>
    <polygon points="332.3164,863.2169 328.5941,900.8284 290.9826,897.1062 294.7049,859.4946"/>
    <polygon points="356.972,853.4353 319.9391,845.8821 327.4923,808.8492 364.5252,816.4024"/>
    <polygon points="394.0192,848.3431 431.5135,853.1036 426.753,890.5978 389.2588,885.8374"/>
    <polygon points="438.2401,830.1503 474.9042,839.3276 465.7269,875.9918 429.0627,866.8145"/>
    <polygon points="330.7542,748.3852 326.4554,785.9352 288.9054,781.6364 293.2042,744.0864"/>
    <polygon points="336.0751,669.9892 330.3577,632.6289 367.718,626.9115 373.4354,664.2718"/>
    <polygon points="316.3676,669.8471 279.4663,661.6755 287.6379,624.7741 324.5393,632.9458"/>
    <polygon points="311.4212,634.5176 275.0411,624.2719 285.2868,587.8918 321.6669,598.1375"/>
    <polygon points="320.9696,631.5677 324.5647,593.9438 362.1886,597.539 358.5935,635.1629"/>
    <polygon points="244.684,581.3797 255.2811,617.659 219.0018,628.256 208.4048,591.9767"/>
    <polygon points="252.4667,557.734 243.7815,594.5178 206.9977,585.8326 215.6829,549.0487"/>
    <polygon points="199.8511,601.2874 162.751,594.072 169.9664,556.9718 207.0665,564.1872"/>
    <polygon points="168.9051,589.5831 204.5791,577.0992 217.063,612.7732 181.389,625.2571"/>
    <polygon points="248.0304,330.0689 210.3597,327.0033 213.4252,289.3326 251.0959,292.3981"/>
    <polygon points="251.2189,328.9991 288.5924,323.3682 294.2234,360.7416 256.8499,366.3726"/>
    <polygon points="324.5547,323.2578 327.5063,360.9376 289.8265,363.8893 286.8749,326.2094"/>
    <polygon points="361.8539,330.7539 357.6061,368.3097 320.0503,364.062 324.2981,326.5061"/>
    <polygon points="365.214,327.7913 362.2673,290.1111 399.9475,287.1644 402.8942,324.8446"/>
    <polygon points="328.6791,367.1677 366.0789,361.7142 371.5324,399.1139 334.1327,404.5675"/>
    <polygon points="401.7124,214.0525 401.7304,176.2573 439.5256,176.2753 439.5076,214.0705"/>
    <polygon points="438.6017,215.73 436.5628,253.4703 398.8225,251.4314 400.8614,213.6911"/>
    <polygon points="477.1552,138.5363 477.1552,176.3316 439.3599,176.3316 439.3599,138.5363"/>
    <polygon points="628.3363,138.5363 628.3363,176.3316 590.541,176.3316 590.541,138.5363"/>
    <polygon points="639.4573,960.7713 603.3631,971.9822 592.1521,935.888 628.2464,924.677"/>
    <polygon points="412.6636,968.874 397.8511,934.1023 432.6229,919.2898 447.4353,954.0616"/>
  </g>
</svg>
