<?xml version="1.0" encoding="utf-8" ?>
<svg xmlns="http://www.w3.org/2000/svg" xmlns:cc="http://creativecommons.org/ns#" xmlns:dc="http://purl.org/dc/elements/1.1/" xmlns:ev="http://www.w3.org/2001/xml-events" xmlns:inkscape="http://www.inkscape.org/namespaces/inkscape" xmlns:rdf="http://www.w3.org/1999/02/22-rdf-syntax-ns#" xmlns:sodipodi="http://sodipodi.sourceforge.net/DTD/sodipodi-0.dtd" xmlns:xlink="http://www.w3.org/1999/xlink" baseProfile="tiny" height="21.0cm" version="1.2" viewBox="0 0 1122.5196850393702 793.7007874015749" width="29.7cm">
  <metadata>
    <rdf:RDF>
      <cc:Work>
        <dc:format>image/svg+xml</dc:format>
        <dc:source/>
        <dc:date>2021-02-08T22:18:21.075197</dc:date>
      </cc:Work>
    </rdf:RDF>
  </metadata>
  <defs/>
  <g fill="none" id="layer1" inkscape:groupmode="layer" inkscape:label="1" stroke="#00f" style="display:inline">
    <polyline points="562.401,76.6059 567.9562,95.987 570.368,106.1213 577.0621,143.6194 578.3364,153.2563 578.8176,159.3762 579.0195,168.0489 578.6126,178.8022 576.8987,194.1596 574.8653,204.296 569.6448,221.9113 561.9888,244.4172 558.103,259.0905 556.1565,268.8898 552.9443,289.6467 549.8692,306.5408 548.322,319.3268 546.4223,349.1307 543.9438,373.3136 542.7944,393.4139 546.7298,315.1218 552.3283,270.7955 554.2196,260.9883 557.5658,249.0835 560.4529,241.0974 569.228,219.2674 573.2086,206.6895 575.6797,194.0211 577.4251,175.917 577.7718,164.8607 577.5227,155.8762 576.2394,142.8023 574.6527,132.5098 570.3799,112.2761 567.8879,102.44 564.8606,92.8869 560.393,80.4359"/>
    <polyline points="568.4679,70.5347 572.5251,94.3817 575.7955,119.061 580.9099,152.5049 581.7951,164.3409 581.3499,177.796 580.1663,188.1987 578.3109,198.5865 572.3133,221.7136 566.9247,239.4953 564.7431,247.7831 553.9998,300.4987 551.9478,313.7689 549.4276,338.3167 545.0065,369.2071 542.8867,393.1877"/>
    <polyline points="543.0581,392.9908 547.2762,361.9195 553.2603,333.4279 557.8374,301.4857 560.8068,284.0686 569.4934,245.0498 576.4328,220.7659 581.6822,199.9537 583.7858,189.5717 584.8245,181.7274 586.0196,168.4344 586.1736,157.3463 584.8037,141.9598 581.1921,111.3963 579.0693,65.1301"/>
    <polyline points="588.6716,62.5705 588.1337,73.5173 587.1939,113.0316 589.1595,160.669 588.6063,174.5425 587.7537,185.1678 586.4961,192.9709 583.2475,208.5634 578.9224,226.9926 573.5886,246.7367 568.1529,272.5018 566.257,282.8327 562.6148,306.9561 557.8907,332.5177 555.7995,341.3436 550.2913,360.8333 543.3598,392.8909"/>
    <polyline points="543.7751,392.4364 555.2128,354.4938 566.3912,322.2146 571.2525,307.1688 577.1731,285.2546 579.931,271.9883 581.0837,261.8425 581.9888,248.5512 582.4186,235.9716 582.3062,227.0644 581.6368,215.7461 580.7589,207.6439 576.7811,184.6886 575.9174,176.6567 575.3229,163.2381 575.7893,152.3832 577.0398,141.6307 578.6292,133.5539 585.373,107.3376 590.4112,85.0629 595.5193,65.8242"/>
    <polyline points="597.2931,64.9237 596.0775,72.0625 593.285,93.6518 590.1824,114.6905 588.0931,134.0955 586.5217,157.7622 586.4279,183.0161 586.0378,193.6371 585.013,206.3345 582.9649,221.4135 575.4485,258.6867 570.8647,288.3218 567.1725,315.083 565.0349,327.697 563.1229,336.8774 559.7724,348.7337 552.1564,368.8935 543.6032,392.808 551.6651,366.0063 559.3125,343.6823 562.3051,331.9056 566.679,309.7552 571.4745,275.9878 574.241,259.5846 576.1257,250.258 581.5168,227.4527 585.5949,204.1781 587.6753,188.586 588.25,180.669 588.3872,143.5642 589.422,117.9506 593.4431,74.6796 594.7742,63.7459"/>
    <polyline points="591.7864,61.8047 583.7793,91.2088 575.2971,127.4958 572.9235,140.9723 571.8083,154.4377 571.5394,165.3905 572.2973,176.3109 573.1241,181.7044 576.5391,197.3575 578.5593,208.1447 580.1649,219.5499 581.3326,231.5016 581.6298,240.8216 581.3105,250.419 580.3392,263.5727 579.1465,273.3632 576.7067,286.1329 572.8227,301.5429 569.9199,310.5475 554.9804,352.651 551.7419,363.2966 543.6717,392.2399 551.8406,358.0666 569.4134,298.4208 572.8916,283.0123 575.0303,270.4271 576.5238,257.6996 577.6486,244.7997 578.0139,235.2744 577.8621,228.9801 576.826,216.6205 575.6328,207.6999 569.484,177.3029 568.2261,169.0869 567.6209,160.8301 567.8575,149.9247 568.5311,141.8378 569.6338,133.9208 573.6186,114.7664 577.9273,96.9445 588.2813,58.1074"/>
    <polyline points="589.3947,55.8852 571.2622,116.4658 568.7348,126.94 566.5373,139.7034 565.6302,150.0926 565.8551,160.7432 567.4052,171.6077 572.0453,196.8691 573.6515,211.8577 573.9431,224.3136 573.1959,236.8692 570.8391,255.9316 568.2512,271.8809 559.2865,313.8926 554.1162,341.4538 543.4977,391.8927"/>
    <polyline points="543.6777,391.6068 553.8138,345.4129 556.6959,333.7216 558.8575,326.2671 562.4319,315.6723 567.3422,302.5194 572.7135,290.2755 577.1106,281.5383 585.2355,267.9793 601.1001,244.1269 606.6779,236.7224 623.3976,216.0322 627.3139,210.5383 634.5564,198.3681 646.0036,177.6826 650.5925,170.4749 659.66,159.2958 683.45,133.0928"/>
    <polyline points="697.3796,144.397 669.6794,174.1279 664.4667,180.2934 660.2808,186.0418 645.9635,207.2404 636.549,221.8108 630.9621,228.8583 616.9123,244.5122 611.4089,251.5062 589.7574,282.2924 582.6444,293.0125 577.7262,301.4321 574.7463,307.2586 563.7161,333.4523 558.5051,348.1792 544.0057,391.8635"/>
    <polyline points="544.1739,392.1388 552.0887,373.2515 568.5396,337.1214 578.5063,318.296 585.5747,307.1663 598.7849,288.772 611.2538,270.3282 618.4017,260.3469 625.6891,251.2791 636.4286,239.6046 640.9466,234.2151 644.71,229.0356 650.7124,219.4359 653.8815,214.9067 669.4788,195.1889 678.1253,185.3566 697.7113,166.2046 709.9636,153.1713"/>
    <polyline points="720.518,156.985 679.0971,195.42 663.4568,212.4409 656.0859,221.4201 642.4702,242.1676 629.6585,258.7073 622.8612,268.1501 609.7032,289.404 604.2989,297.5119 598.5011,305.3129 586.0809,320.7801 576.0418,334.8925 570.2553,344.1316 554.5013,371.033 549.0626,381.626 544.2066,392.3264"/>
    <polyline points="544.3004,392.5211 549.469,382.4992 555.1444,372.6751 569.5943,350.8706 582.3225,333.8446 599.6199,312.9041 607.4363,302.0583 614.2425,290.6934 626.0516,268.9801 637.7045,250.6115 647.3425,234.364 655.8319,222.0611 663.9402,212.6523 679.4014,197.4236 698.0185,181.7146 713.126,168.3905 727.8155,156.4776"/>
    <polyline points="733.7356,155.9428 718.8278,167.1527 703.1046,180.1218 685.8021,193.1511 678.2554,199.2513 667.5074,209.1682 662.6471,214.2722 656.7316,221.162 648.4703,232.1454 643.3318,240.2696 634.3476,258.4749 625.2026,275.3651 615.2937,294.6724 610.4775,303.5039 606.941,309.3097 603.0845,314.9568 598.9123,320.3605 576.9484,346.1999 570.4422,354.3812 556.1272,374.6629 544.5404,392.7895"/>
    <polyline points="544.9288,393.3288 554.1455,383.7763 566.066,372.9205 575.8335,364.7425 605.9795,340.5452 612.9325,333.8466 619.4139,326.8841 627.1491,317.4042 637.2005,303.6845 644.2957,292.7367 656.5552,272.2155 661.2075,265.3281 671.4019,252.2527 676.7454,245.977 682.3116,240.0249 690.3413,232.528 706.963,218.3198 737.6239,195.4426 747.4402,187.4487 760.5838,175.9102"/>
    <polyline points="750.5146,168.0486 724.842,188.7106 705.1645,201.6712 698.7088,206.4544 682.6435,220.2964 675.068,227.4578 669.698,233.0541 663.0172,241.0752 655.3907,251.8428 649.9964,260.9234 641.3775,277.2261 632.1018,293.1046 624.0859,305.2772 612.95,320.9781 606.7518,328.6009 599.9597,335.7574 578.0269,355.3978 568.6202,364.676 555.4389,379.5822 544.7896,393.0171 554.8788,378.7141 571.5614,357.1104 599.0382,327.9648 603.3638,322.8373 607.3869,317.4505 614.5928,306.1477 627.1034,284.4202 636.0766,267.7502 643.8234,250.9828 647.3991,244.2746 652.8447,235.9109 660.2935,226.1453 665.1198,220.6289 672.0145,213.4447 677.5571,208.2549 685.5123,201.5353 693.8174,195.2746 712.6689,182.5889 728.891,169.8115 741.3576,160.4896"/>
    <polyline points="772.0639,182.2258 757.2897,196.1314 711.7235,233.1613 694.5142,248.1995 686.2415,256.3191 674.304,269.1164 666.6531,277.9484 661.4444,284.9824 649.4448,303.5561 634.8123,323.3536 627.3059,332.635 618.6676,341.3454 611.5254,347.407 606.5319,351.1213 585.9104,365.1572 560.1739,382.0168 552.5638,387.5633 545.1177,393.6938 562.7316,377.6433 568.1489,373.124 573.8983,368.825 579.9396,364.8144 589.4119,359.2252 606.3213,350.554 631.497,339.099 656.4216,327.337 674.9732,320.012 690.2631,314.7739 718.7183,305.6327 751.3612,294.4607 819.0647,274.4858 832.0554,270.1642 841.1833,266.6525 849.8858,262.7742 861.0388,257.1683 869.0465,252.6505 876.6391,247.7714 886.0275,240.3828 901.1324,225.958"/>
    <polyline points="906.6195,232.5506 890.6647,246.7974 885.8812,250.5972 878.4247,255.815 870.5692,260.6419 862.2013,265.1839 847.7651,272.3097 838.9557,276.1112 829.712,279.4377 819.7569,282.3847 767.5789,295.3804 755.7723,298.6606 723.2686,309.287 674.4485,323.6872 655.1745,330.763 603.1765,352.9064 585.9485,361.58 579.572,365.2856 573.5558,369.2729 565.306,375.8216 545.0628,393.9151 552.2963,388.442 559.6527,383.4374 567.4168,378.7406 575.6396,374.2833 584.2486,370.1367 593.0126,366.4527 616.5771,358.0983 622.2686,355.8187 630.5233,351.8259 641.1058,345.5084 658.789,333.1921 682.1208,314.5806 699.6722,302.4232 715.1696,292.7164 761.7014,265.7732 770.1731,260.2093 780.1319,252.231 799.2984,234.3795 824.9205,212.8813 831.766,207.6069"/>
    <polyline points="819.2472,199.7349 810.2562,206.9507 787.0589,227.6274 768.1784,246.2386 758.7339,254.6886 745.4008,264.6723 713.4127,285.6002 699.0134,295.9924 682.9827,309.4308 657.2924,333.3099 648.1939,340.9416 638.6624,348.2823 628.4148,354.8957 620.2164,359.064 614.5376,361.4873 588.602,371.213 574.3698,377.6112 558.2828,385.9074 550.4507,390.5257 545.2306,393.9926 568.3604,375.1531 576.6945,369.1805 582.8332,365.534 589.4164,362.1273 610.9934,352.5302 625.9675,346.6373 648.7291,338.4004 660.2184,334.4689 671.8967,330.9506 720.5832,318.6586 768.3192,305.5723 787.1493,301.1153 816.3775,294.76 823.1307,292.9407 832.635,289.772 841.5952,286.0943 850.3344,281.9188 864.753,274.5489 875.6451,268.3737 883.4239,263.504 891.034,258.2627 908.2293,244.8627"/>
    <polyline points="910.5695,265.1841 892.5261,277.5518 879.3638,285.4227 851.0755,299.8564 842.0395,304.0103 832.6797,307.7618 822.8828,310.9151 816.0454,312.5968 783.6021,318.0636 705.2236,333.2756 664.988,341.7264 645.6917,346.848 626.6757,352.7925 615.4188,356.8198 597.2246,364.1777 583.8238,370.0984 572.0413,376.6296 545.4275,394.1794"/>
    <polyline points="545.2937,394.5869 558.3346,388.2322 577.3049,379.5641 586.0264,375.9461 592.1458,373.7818 601.9346,370.9713 612.5247,368.8708 619.999,368.0249 631.6168,367.4341 647.8235,367.1803 660.635,367.4379 678.3666,368.505 691.7731,369.9466 731.2395,375.7411 768.5282,381.8871 780.5259,384.2296 800.1111,388.7189 807.8987,390.0824 830.7262,392.7871 844.994,393.901 869.9677,394.8084 878.7258,394.4454 887.3933,393.5023 898.752,391.6248 906.8984,389.661 914.8582,387.1595 925.5029,383.207"/>
    <polyline points="926.168,383.8587 912.8205,388.32 904.8455,390.6151 896.5225,392.4175 884.8701,394.3568 876.0962,395.3885 867.2734,395.9641 851.837,396.219 841.8038,395.8614 812.4786,393.2898 801.0219,391.6978 766.1213,384.2877 718.9151,375.5377 691.7336,371.0709 664.4061,367.6178 651.2414,366.3288 638.532,365.7671 626.258,365.8373 618.3041,366.3078 610.6321,367.3284 603.3864,368.9445 593.3641,372.0993 587.1696,374.4409 578.4473,378.2915 545.1726,394.6743 557.6756,388.8111 580.7781,377.0902 595.8999,370.6816 606.1561,367.4286 613.5912,365.7937 621.4111,364.7192 629.4985,364.126 641.9975,363.8918 650.6112,364.1827 663.9701,365.2751 682.2715,367.3858 709.8541,371.4859 753.671,379.5994 788.9414,385.4772 804.0084,387.4216 818.8206,388.4178 847.0342,389.08 866.0679,388.2662 875.147,387.4727 884.0624,386.1001 895.6618,383.6094 906.6498,380.7699 925.3176,375.2257"/>
    <polyline points="922.6939,377.421 906.3228,382.7548 898.0289,384.9463 889.4096,386.7879 883.4696,387.6776 874.4604,388.5121 862.1695,388.7109 848.9411,387.6527 827.6131,384.8412 783.1754,375.7718 772.0142,373.7676 764.6755,372.7991 702.8095,368.4519 694.5855,368.1207 686.4579,368.2291 674.3138,369.1252 650.3009,371.8571 624.666,375.3533 601.5448,379.1177 595.136,380.4472 585.4798,382.9414 546.062,394.9885"/>
    <polyline points="546.2135,395.2829 556.6551,393.215 586.7276,386.162 599.9977,383.717 613.2549,381.9715 663.969,376.3803 683.4948,374.8352 699.0957,374.7721 767.8221,378.4991 778.9062,379.7401 790.0182,381.3861 815.3412,386.3059 826.0404,388.0216 843.4391,389.9447 856.8095,390.7908 869.2034,390.5437 884.1048,388.7566 892.888,386.9578 904.3984,384.0983 921.6304,379.088"/>
    <polyline points="923.8842,378.7143 916.0162,381.9115 908.2475,384.6316 894.7175,388.0667 885.9864,389.4489 879.982,390.0158 870.8238,390.3124 864.5733,390.096 840.9643,387.6625 826.2465,385.4851 788.6584,377.0231 773.4375,373.8722 765.9469,372.6669 758.4462,371.8826 727.423,369.8115 693.7841,366.6685 685.2643,366.3 676.7444,366.411 655.8816,367.9037 632.8782,370.3112 618.5973,372.4051 601.8551,375.6388 589.2488,378.762 576.8369,382.6761 564.4272,387.1242 545.8446,394.6865"/>
    <polyline points="546.218,395.6267 556.6784,394.6276 587.2677,390.6856 601.0091,389.3934 664.4254,385.2669 679.5381,384.9137 690.8665,385.2286 717.4764,386.6318 751.8957,387.6129 770.6883,388.615 789.16,390.3758 814.3147,394.6132 824.9856,395.9233 845.7475,397.4522 858.8893,397.7037 871.2679,396.8399 886.2135,394.4688 906.5716,389.8217 921.1238,385.353"/>
    <polyline points="918.4075,390.4116 903.7768,394.9092 885.9582,398.8009 861.8336,402.6426 852.565,403.498 846.1091,403.6948 818.2974,403.0153 782.1295,400.1245 725.4227,398.4081 695.7769,397.158 670.4512,395.592 659.6978,395.4938 624.8692,396.3855 590.6845,395.7006 546.1276,396.0278"/>
    <polyline points="545.9562,396.3853 555.8565,397.4894 585.8455,399.5006 622.6828,403.469 636.3524,404.1542 660.84,404.5401 695.4853,407.145 728.7595,408.337 805.1518,408.9516 833.5054,408.017 849.6464,406.6674 889.0523,400.1409 901.0822,397.3468 913.0505,394.0981"/>
    <polyline points="908.1511,403.711 871.3207,410.2867 840.6185,414.9139 827.5611,416.1303 810.2746,417.0818 788.8328,417.6697 751.1875,418.0288 721.4007,417.5924 706.6385,417.1581 692.6368,416.3573 633.9595,411.2088 619.8506,409.049 577.6237,401.2372 545.7052,396.5186 564.0612,400.5895 620.4006,415.5529 634.6853,418.7679 648.9894,421.2078 692.1519,427.6402 702.3709,428.9152 712.9539,429.8056 734.8004,430.8892 752.1229,431.2663 819.3356,429.4066 835.3097,427.9795 859.9997,424.4578 878.854,422.1344 900.6801,420.1241"/>
    <polyline points="888.9414,442.5724 876.5645,441.9896 860.6263,442.0839 847.6407,442.7964 825.8542,444.9153 813.4351,445.743 800.757,445.8868 777.9099,445.513 748.5289,446.6755 732.3835,446.2984 718.9664,445.363 708.7764,444.2873 702.0738,443.2536 692.1266,441.2201 650.8849,431.5319 637.3271,427.9807 620.1169,422.4698 560.0707,400.8716 545.577,396.6392"/>
    <polyline points="545.4878,396.8931 553.9309,399.9253 564.9326,404.356 624.0143,430.8915 640.1529,437.5043 649.5406,440.6131 670.4717,446.4516 691.8341,452.9579 704.2479,456.0665 719.8818,458.7166 735.3823,460.1538 744.7585,460.2276 767.2557,459.624 792.8011,461.01 808.3905,461.3768 836.8677,460.4948 846.843,460.4974 863.0206,461.6707 869.2325,462.5729 878.3877,464.539"/>
    <polyline points="873.1668,479.522 866.9972,477.4391 860.6242,475.7509 854.0878,474.4747 843.9519,473.2881 833.4848,472.8814 803.6429,473.3689 791.0075,473.0027 759.2193,471.3674 730.932,471.568 724.7214,471.094 718.6048,470.2366 706.5943,467.769 697.6009,465.3148 688.663,462.444 662.4846,453.2527 644.9834,447.5534 636.0515,443.9933 627.0011,439.6639 593.637,422.4485 567.3347,407.7111 545.4512,397.1958"/>
    <polyline points="545.3,397.4758 566.4735,409.9208 583.831,421.7261 591.6924,426.729 617.6658,441.584 629.3754,447.9053 640.8943,453.4429 674.721,467.94 689.081,473.4851 700.7942,477.2919 709.5682,479.5877 718.4964,481.4445 730.721,482.7094 780.4933,484.9607 803.1987,485.1201 827.6488,484.7379 838.5884,485.1497 845.7895,485.9356 852.8512,487.2241 859.729,488.9833 869.5849,492.3652"/>
    <polyline points="868.2195,502.1752 861.2516,499.8449 854.0492,497.8791 842.8921,495.7115 835.3458,494.7762 827.8003,494.2878 816.6171,494.1512 772.1785,494.9467 746.99,493.7992 734.9279,492.7751 723.2247,491.0565 714.5408,489.1057 703.0828,485.7104 686.1238,479.6469 669.4053,472.483 641.7441,458.5799 610.4055,441.5544 598.8924,434.8509 585.1041,426.0905 545.0685,397.6812"/>
    <polyline points="544.9938,398.6119 556.6591,411.7336 563.7319,419.1549 593.5112,446.5407 599.7698,452.62 605.6621,459.0256 612.8715,468.5581 619.4613,479.3662 623.6606,488.3127 626.9554,497.8565 629.3306,507.7688 630.814,517.9895 632.0857,531.9101 632.4477,545.9881 632.0812,556.5119 631.2902,566.898 626.3457,604.5275 625.042,618.5743 624.7308,640.6522 625.0788,667.611 625.5657,679.4186 626.2661,687.4598 627.3631,695.5304 628.9543,703.6584 631.1275,711.7661 633.9127,719.7638 637.2896,727.5952 641.1963,735.2328 645.5912,742.6319"/>
    <polyline points="644.6313,747.1704 640.7,739.7193 637.1251,732.1354 634.0,724.4585 631.4211,716.6819 629.4364,708.782 627.968,700.806 626.8452,692.8666 625.6701,681.1294 624.5147,654.3084 624.544,631.8443 625.7331,617.4897 629.2445,593.2103 630.4372,582.821 631.49,565.6773 631.783,551.8678 631.2789,538.0819 630.0174,524.5106 628.5614,514.3783 626.2763,504.3548 622.967,494.6329 618.6166,485.427 611.8281,474.0568 606.3194,466.2815 598.112,457.0268 564.5036,423.4763 557.9135,415.7419 544.8886,398.7948"/>
    <polyline points="544.5727,399.2434 550.3457,409.6814 555.7546,420.7343 560.3335,432.264 563.8919,443.8738 566.579,455.3764 574.4249,493.1334 585.1204,535.5345 588.3867,556.211 589.0847,563.3249 589.3418,570.4513 588.7925,581.0154 587.3992,591.2606 585.4749,601.2123 581.0075,620.5662 577.7055,632.7849 569.7098,659.4987 566.607,668.1277 557.4677,690.7037 552.6234,705.0667 546.3642,732.4704 541.5022,760.0002"/>
    <polyline points="537.2033,753.1055 543.3588,726.8232 550.9799,696.8814 556.174,680.3332 563.4675,661.6103 566.2749,653.1954 580.8091,598.3962 583.1261,588.9313 584.9746,579.1995 585.7543,572.5026 586.0359,565.6232 585.8186,558.6629 585.1927,551.7307 583.1524,538.2307 574.4177,499.6413 566.8077,458.2502 564.3578,446.8467 559.8458,431.5473 555.4705,420.0837 550.3794,409.1547 544.6634,398.9922 556.368,416.9475 564.318,427.9621 568.6001,433.0938 581.7987,447.6154 598.4555,467.5771 604.3527,475.4568 609.6934,484.0841 616.0107,496.5066 619.8834,506.1951 622.8486,516.0336 625.7976,529.2105 627.7239,542.3511 628.5166,555.841 628.5092,569.6079 628.117,583.1926 627.2447,593.4349 621.7025,628.1951 620.5163,639.0392 619.956,650.1027 619.7854,661.3417 620.0129,672.6986 620.6316,684.0085 621.3678,691.5866 623.0057,703.1024 625.157,714.7226 627.0681,722.3632 631.0943,733.5092 634.449,740.8185 640.0131,751.7426"/>
    <polyline points="628.6794,758.8726 623.2686,748.0639 620.0456,740.8169 616.3415,729.7586 614.6861,722.2442 612.9263,710.9436 611.7026,699.7304 611.2344,692.2548 611.0141,681.0001 611.2159,669.6318 612.6864,650.9993 615.2739,633.0862 621.1004,602.1783 622.0061,595.3632 622.5234,588.5144 622.6793,574.7234 621.7198,557.6294 620.4029,547.7407 617.7207,534.7687 614.4538,521.5837 611.3656,511.4444 607.3634,501.3414 602.6363,491.5983 595.5595,479.5298 580.8804,457.203 575.1775,448.9798 565.0924,435.39 561.2694,429.6759 544.228,399.0884 550.1769,411.8158 556.7989,427.8011 561.2751,437.2531 591.9107,491.6553 598.6126,504.7965 602.8907,515.1975 606.4209,525.7035 612.0459,545.8837 615.074,559.0969 617.2385,572.5423 618.1831,582.8703 618.3584,593.3554 617.9364,600.3728 615.8726,614.1283 609.9003,641.1255 605.4903,665.9291 603.7848,684.6184 603.1191,706.9723 603.8031,721.6602 604.6218,729.0242 605.9107,736.4789 607.7893,744.0233 610.248,751.5703 616.3067,766.4912"/>
    <polyline points="603.7948,770.6884 599.1591,755.3739 597.4061,747.7328 596.0878,740.2452 594.6712,725.8211 594.3908,715.0818 594.5354,707.8298 596.1929,689.5793 599.1561,671.4006 604.861,647.3018 610.9608,624.3575 613.5198,610.7665 614.2051,603.7604 614.2015,593.2032 613.6183,586.2163 612.1564,575.8337 609.3577,562.1821 605.7276,548.7112 601.3282,535.0857 596.1936,521.1342 588.8002,503.71 568.2601,462.3604 559.3828,442.8429 555.4607,432.8477 547.7934,409.1318 544.0368,399.166 547.6656,409.5132 553.9436,430.8939 557.722,441.3976 569.9551,471.9222 585.4713,508.4473 600.8321,546.7278 604.1459,557.0142 606.9977,567.3028 609.2052,577.6535 610.3038,584.6587 611.3991,595.2726 611.7948,605.8787 611.4865,612.8984 610.616,619.8005 609.301,626.5339 606.8257,636.3459 593.0746,682.8276 590.0413,696.899 588.5557,707.4748 588.0234,721.5599 588.7908,746.028 590.282,760.9288 592.5052,772.403"/>
    <polyline points="584.1828,771.5555 583.1805,760.2948 582.9855,749.5072 583.5783,722.2555 584.6832,708.7331 586.4168,698.5996 588.8579,688.4691 602.4419,646.1048 605.0419,636.6484 607.2286,627.0042 608.7418,616.9006 609.1993,609.902 609.0663,599.2113 608.3213,588.4488 606.8885,577.7342 605.4911,570.6484 602.8086,560.074 599.5412,549.5552 587.1865,518.2052 578.5101,494.2139 568.1004,467.331 556.4102,435.2752 548.3669,409.6785 544.2154,399.2774 547.4102,406.2729 550.0777,413.4734 563.8012,457.8458 577.5445,495.2753 584.4737,515.7156 595.61,546.8697 598.799,557.5733 600.5298,564.8604 601.9136,572.2197 603.3342,583.2492 604.045,594.13 604.139,604.8607 603.4467,615.4133 601.8734,625.5129 599.7315,635.0236 597.2002,644.2949 583.5031,688.2881 581.1247,698.0254 578.8605,711.0476 577.1599,727.4326 575.8865,747.577 575.6683,758.0499 576.0595,768.9783"/>
    <polyline points="564.5329,768.4642 564.6259,757.731 565.2829,747.385 569.1999,718.0749 570.8627,708.6349 575.6909,689.9609 590.8778,640.6369 593.3311,631.1963 595.3801,621.3823 596.8163,611.1746 597.6779,600.6883 598.0193,586.3223 597.683,575.1664 596.4507,563.8554 594.99,556.4439 592.1856,545.6493 587.1421,528.266 562.9647,455.459 553.2041,421.283 549.1142,410.0815 544.3429,399.3406 553.0225,417.5218 556.0473,425.1859 558.7133,432.9967 562.1435,444.6917 575.0289,492.8836 584.5201,524.5355 587.8788,538.3251 591.2782,555.9782 592.7724,566.9711 593.1062,574.3729 592.7313,585.3708 591.3338,599.5379 589.2751,613.1724 586.7027,626.3072 582.6506,641.9691 575.3265,666.2436 562.7364,702.0313 560.0324,710.9609 558.6528,717.0361 553.9202,742.3449 552.5772,752.5422 551.3242,766.9044"/>
    <polyline points="540.913,745.0084 548.9823,714.3117 556.6003,682.6432 567.2929,648.2064 569.6376,639.52 575.0543,614.9802 583.6617,578.2023 585.146,568.7397 585.6224,558.9671 584.7748,545.8974 583.4238,536.2521 581.6591,526.464 564.1579,449.5441 559.5834,434.3106 554.1189,419.2145 549.5967,408.5444 544.3642,398.8142 547.5955,404.9824 551.9791,414.9999 557.4485,429.4215 561.3138,440.7194 564.8044,452.0027 570.6559,474.2207 578.9404,503.1206 582.286,516.6322 584.01,526.2389 585.9097,541.5183 586.4949,553.7067 586.261,559.8403 585.1723,568.9886 578.2644,601.5173 573.1201,629.1551 562.7724,667.5213 554.3901,706.6105 546.434,735.6733"/>
    <polyline points="551.6201,730.803 553.7663,722.2861 558.7945,705.1144 560.1753,699.1799 565.7463,665.2844 569.4606,646.7007 573.9126,626.6792 575.3245,617.5708 578.203,593.0414 583.5341,563.6707 584.43,554.5897 584.7005,545.6691 584.2738,536.806 583.3549,527.9381 580.8636,512.7732 577.7,499.8879 566.3197,457.7091 561.9764,443.1138 555.8425,424.9391 550.3751,411.3408 544.2746,398.8167"/>
    <polyline points="544.1097,398.9584 549.6491,411.8089 554.7079,425.2016 562.0677,449.8437 564.8311,460.443 575.3532,513.5538 577.3605,528.584 578.0805,540.498 577.8353,549.3934 576.4686,567.6545 573.3964,591.2569 571.5601,615.5051 570.1079,627.6662 566.2788,653.4231 562.447,674.9755 558.995,698.466 557.0954,707.4214 551.0368,730.2172"/>
    <polyline points="540.559,731.1713 547.8699,702.7997 557.1614,651.5225 561.1233,616.0372 562.6599,597.8084 564.8494,576.7452 567.4613,537.4311 567.2395,525.3886 565.9454,503.8162 563.2444,477.898 561.3692,464.1459 558.564,450.1397 554.2131,432.7812 550.2382,419.1251 543.7804,399.1185"/>
    <polyline points="543.4868,399.1682 551.1666,432.9889 553.0606,443.2774 555.1443,457.128 556.3151,467.4711 556.9772,477.6258 557.269,490.8063 557.0705,500.3469 554.1723,540.9129 552.0731,565.3259 548.0405,599.8233 543.3573,645.2076 540.8477,662.1739 534.7041,696.4123 525.8214,734.1628"/>
    <polyline points="511.563,738.9161 514.0299,724.5382 519.558,696.9118 527.8568,641.6405 532.0033,607.5691 535.031,588.8905 538.8771,569.6209 540.4735,560.1649 544.6947,522.2955 547.9903,503.143 549.2406,493.5987 549.9757,483.8853 550.2812,474.0429 549.6784,457.3084 547.8193,433.4973 543.1505,399.2759"/>
    <polyline points="542.7665,399.3869 543.8889,434.5659 544.5718,468.1459 544.2123,481.2637 543.3418,491.0014 541.8085,500.6144 536.2482,526.0935 532.9293,548.7771 531.2621,558.2495 528.9588,567.7234 523.2158,586.8749 518.2774,608.7315 513.5497,640.4225 507.3676,671.2166 503.4485,705.182 498.7791,730.2214 496.9027,744.8175"/>
    <polyline points="482.6331,750.7896 485.2798,732.8482 489.9301,710.7217 493.1542,684.8456 494.6726,675.1619 503.2649,639.1627 508.8669,607.541 513.6365,588.9567 521.0476,566.53 522.9407,559.9805 529.5867,530.5207 536.5706,504.9871 538.6526,495.2692 539.5252,488.6658 540.1704,478.7556 540.2924,442.0268 542.4752,399.4063 540.4873,416.9946 536.3405,441.3758 531.4802,474.6088 529.6551,484.4263 518.729,534.0655 507.996,568.871 503.499,582.1277 488.9823,619.5851 475.2426,648.4036 463.6717,675.843 452.707,699.0485 437.9379,732.4696 433.3419,743.7758 429.7172,755.038"/>
    <polyline points="451.832,756.9251 455.4597,742.3567 463.2517,718.0236 469.6517,694.8171 493.327,626.8568 503.8129,592.9542 511.4645,570.3918 523.3122,529.0584 528.6191,505.0042 531.6994,487.7667 533.2467,474.3798 534.3468,454.3695 535.3221,444.1881 536.9332,433.9701 540.7997,413.4433 542.4651,399.4125 537.2553,441.3801 536.6781,451.6656 536.565,478.41 535.8025,488.4512 534.2749,498.5404 531.0761,511.7754 518.2448,558.2374 515.1574,568.3792 508.5593,587.7801 505.8153,597.1198 501.7882,612.2857 495.697,637.738 485.1759,675.0579 482.0511,688.6529 477.9294,711.9817 471.7088,737.2065 468.4471,755.3191"/>
    <polyline points="404.7137,751.0291 410.2556,737.2202 415.8878,726.3712 444.5434,678.831 461.1522,648.7384 475.3056,626.7704 480.7246,617.5477 485.4116,608.1972 497.2063,583.032 505.4845,563.2348 512.0242,545.9745 515.5497,535.3061 527.5025,492.5686 530.834,479.2875 535.5383,456.1506 539.4161,431.9243 541.2412,417.4637 542.5266,399.4411 542.5233,406.901 541.9943,418.0242 540.2896,432.83 536.5226,454.2352 531.6665,474.5736 525.6803,494.6922 511.6595,535.9599 506.402,549.915 497.7567,570.335 493.0748,580.0921 484.9235,595.6653 478.245,608.094 472.7037,617.5277 464.2401,629.9223 448.0894,651.5658 427.4415,680.1725 411.6403,700.9385 400.0275,717.2969 394.9448,725.1832 392.0126,730.5209 388.2725,738.6568 385.0776,746.8782"/>
    <polyline points="374.2299,743.8055 376.8755,735.4382 380.0576,727.2872 384.2044,719.1713 389.3879,711.0115 397.6085,700.0607 417.675,677.9551 430.5074,663.0087 455.5871,632.8828 462.6627,623.7283 469.0009,614.3112 476.3821,601.7811 484.8407,586.392 493.0006,570.3803 499.2355,556.9003 504.9004,543.1375 514.4015,515.5462 527.149,482.3704 531.5814,468.7939 536.7451,447.8915 540.3418,429.8832 542.1704,414.881 542.6525,399.6783 542.215,411.6269 541.4103,419.4321 540.1964,427.0392 537.6519,438.0142 530.0447,466.4 527.9347,473.2947 524.1529,483.5686 511.9457,513.5636 502.9184,540.7946 498.9677,551.2217 494.5163,561.6155 479.308,594.5497 472.6309,606.9306 467.0647,616.2683 462.8851,622.4054 458.2381,628.3896 427.1024,663.4866 416.1498,674.8356 394.5206,696.1538 389.6414,701.5299 385.2022,707.0208 379.6404,715.4119 375.5363,723.7703 372.5982,732.018 369.5594,743.3906"/>
    <polyline points="362.3399,744.3119 366.1836,729.675 369.3912,721.07 374.0739,712.5105 378.2081,707.0199 383.0348,701.7448 388.3046,696.5961 411.4409,675.9616 420.2278,667.7359 453.8545,633.706 461.3748,625.1503 465.7487,619.2451 469.5972,613.157 474.7392,603.8235 480.6851,591.0664 494.4995,556.6459 506.91,522.3411 517.5316,496.0419 523.892,478.8499 538.8698,428.2729 541.1771,416.4138 542.1306,408.235 542.5895,399.9897"/>
    <polyline points="542.2722,400.1204 540.3077,412.8073 537.1808,425.019 533.3533,436.6032 525.3879,458.5297 516.1012,486.2083 499.1015,529.6157 476.9573,588.0679 472.7803,598.0184 468.0692,607.6549 464.5103,613.8699 460.481,619.8856 455.9428,625.7258 448.2206,634.1974 439.6109,642.364 403.3956,674.9107 379.4516,695.5068 374.1041,700.7134 369.2347,706.133 365.0841,711.8353 363.3191,714.7805 360.3875,720.8012 356.1643,732.9373 353.0718,745.1347"/>
    <polyline points="345.4386,745.6641 349.8369,729.9845 352.0385,723.625 354.7274,717.241 359.9951,707.8963 366.7328,699.1082 371.8792,693.5479 380.4481,685.521 408.1439,661.089 433.0681,640.2545 441.7307,632.3469 449.6455,624.106 454.4492,618.4115 458.8699,612.5569 462.7468,606.4258 467.5594,596.7598 471.6014,586.7633 491.4056,532.2193 507.641,491.7028 518.9287,461.0337 534.3931,424.7576 538.5948,412.7434 541.8469,400.1411"/>
    <polyline points="541.4424,400.1174 538.6828,408.4939 533.777,420.5134 526.6212,435.5585 515.822,456.6023 509.9,469.9112 488.3136,524.3559 484.7375,534.714 478.4188,555.0682 473.6471,568.4647 464.4082,591.1227 459.7558,600.6816 455.945,606.8434 451.6397,612.8051 446.9482,618.5799 439.2922,626.8802 427.9551,637.33 406.1237,655.7983 381.4333,678.5693 372.6257,687.2419 364.7789,696.2346 360.0983,702.3384 355.8421,708.5534 350.4843,718.2438 346.5463,728.187 340.7238,747.5877"/>
    <polyline points="335.1048,745.4345 340.6805,728.8802 343.2946,722.2116 346.3582,715.5413 349.9406,708.9303 353.9554,702.3986 360.626,692.6084 365.4945,686.0634 370.7892,679.6282 376.4214,673.384 394.0572,655.3008 406.2741,643.5936 426.8938,624.9618 434.8479,617.1249 439.7466,611.6247 444.3092,605.9222 448.4932,600.0915 452.2222,594.1084 457.0,584.8834 466.636,563.3278 472.4342,547.182 478.4877,526.8784 481.943,516.4865 487.4002,502.8626 500.4234,473.1505 504.986,463.5193 508.3833,457.1054 530.9421,419.2112 537.0753,407.788 540.8672,399.8834"/>
    <polyline points="540.2871,399.413 509.1828,442.1372 501.0703,454.52 495.853,463.7855 481.9162,492.1083 476.1818,505.1124 471.2042,518.4089 461.3946,547.7945 456.4748,560.2609 449.2795,575.6002 442.4935,587.5828 436.4997,596.2289 427.1518,607.3314 381.9268,652.2657 373.4607,661.4516 362.9094,674.3417 351.2487,690.9154 341.2052,707.2794 332.7493,723.6986 327.0309,737.2565"/>
    <polyline points="321.2926,730.2833 328.5049,716.7643 342.6138,694.2368 351.4369,681.4885 368.2894,658.9158 376.1399,649.2405 381.6336,643.0232 401.2665,622.5053 419.367,602.3585 428.7313,591.0045 435.0143,582.2968 442.1122,570.153 448.0592,557.5722 453.199,544.9519 464.9697,513.1801 474.2186,491.2166 481.7914,475.8324 493.3062,454.2814 497.0562,448.1917 501.2061,442.2164 510.4282,430.5357 515.4714,424.8599 531.8727,407.9923 540.017,399.0196"/>
    <polyline points="539.7743,398.7279 527.9754,409.6337 496.2723,437.2396 482.6291,449.7492 474.8733,457.4247 470.0737,462.6157 461.4366,473.3789 455.593,481.8977 450.3707,490.7361 445.8055,499.8351 437.1823,518.7193 434.4217,525.3382 430.6785,535.5645 419.52,569.3722 414.0606,582.0366 385.6043,632.9913 379.9378,642.5752 375.8032,648.7654 371.2752,654.6645 363.8947,662.9295 356.0923,670.7155 345.1629,680.5033 312.7555,707.3751"/>
    <polyline points="319.7051,720.6825 356.8244,684.7968 362.0345,679.3145 369.4681,670.6253 376.4793,661.3533 380.7825,654.899 394.5791,631.6101 408.4575,608.9695 419.1528,589.9149 425.3541,577.141 430.3196,563.9847 438.613,536.3427 444.7528,519.1833 452.4903,499.8291 456.5415,490.4939 461.249,481.5029 466.6664,472.8519 470.6592,467.2245 477.2776,458.9926 487.0311,448.1621 494.7802,440.0591 502.8683,432.28 528.4516,409.4196 539.8658,398.6919 531.2235,406.6983 516.7674,419.2576 511.4061,424.4417 506.3595,429.7982 499.209,438.1303 490.5496,449.7865 484.8162,458.7518 477.8853,470.6237 473.1731,479.6149 467.4462,491.6435 460.8907,506.8647 454.5253,522.7407 445.2843,548.5709 441.4489,558.4859 437.088,568.2388 431.9414,577.6716 425.9756,586.6743 417.1431,598.2905 404.9124,612.7674 389.0558,630.5126 383.8911,636.8339 362.1982,666.8756 345.1829,688.1959 326.4653,712.9379 317.8884,725.8435"/>
    <polyline points="319.5195,726.3082 328.9376,714.295 356.8272,682.1332 364.3263,673.0449 371.3337,663.2211 384.5361,642.2793 391.4775,632.0569 396.3722,625.5963 418.0198,598.7435 424.3398,589.8302 428.1641,583.7184 433.292,574.236 437.576,564.3245 441.2043,554.0985 448.5268,530.2972 463.0544,491.7159 471.6245,473.6015 478.4666,461.7822 484.536,453.1932 491.2435,444.6452 498.3681,436.2088 505.8356,428.1937 516.478,418.0839 539.7853,398.5319 514.0413,420.8473 503.2817,430.8663 495.6963,438.9556 485.9619,450.2131 479.1331,458.6266 475.009,464.3134 467.8814,476.1477 463.2509,485.1105 460.4809,491.1915 445.991,530.3618 437.4978,558.0624 433.9648,568.2617 429.6783,578.0345 422.8673,590.7161 412.9662,606.1592 393.3213,634.8626 378.887,659.0581 370.111,672.4104 365.3322,678.7127 357.7596,687.6415 329.4787,718.5201 322.1516,726.9403"/>
    <polyline points="305.3631,693.2193 340.088,666.4354 351.096,657.3234 358.9008,650.1124 363.7897,645.0414 368.3545,639.6565 372.5856,633.9233 376.4582,627.8994 380.0037,621.6474 389.9521,602.1781 405.107,574.1488 409.2494,564.8852 422.335,531.7347 429.9617,515.5182 438.3052,500.432 443.5038,491.7165 447.2837,486.1037 453.4498,477.9204 466.6918,461.9736 476.6387,451.7627 495.8687,435.0307 521.5664,413.9904 539.6379,398.5694"/>
    <polyline points="539.6082,398.2672 504.4169,425.2905 480.3893,445.5197 475.2299,450.2256 467.8915,457.5623 453.8525,472.5329 447.1072,480.1884 440.7586,488.1694 430.8494,502.0956 425.0007,510.7308 419.4847,520.0174 413.0598,533.4685 401.2247,563.2526 392.451,582.3457 379.5243,608.2882 374.1427,617.6263 370.1432,623.5645 365.8373,629.1908 359.0436,637.05 351.828,644.319 346.7293,648.8965 338.6527,655.311 301.4834,682.6644"/>
    <polyline points="301.6462,672.1312 324.9665,655.4782 338.0035,645.6181 345.6936,639.2915 350.5952,634.7358 357.6722,627.4188 364.5829,619.5409 371.2068,611.0883 375.2302,605.1473 380.627,595.9 388.4591,579.7831 399.5992,553.2531 410.8639,522.7299 415.5317,512.722 419.1895,506.4453 423.224,500.58 429.6824,492.3692 440.7449,479.2502 447.5507,471.6787 454.6289,464.6099 479.2,442.9263 505.0626,422.5151 539.7141,397.9454"/>
    <polyline points="540.1045,397.649 491.3841,433.1513 481.862,439.468 467.0524,448.1788 459.5816,452.9827 452.353,458.4827 442.9176,466.7353 435.9711,473.6346 429.2235,480.94 422.6427,488.475 416.4534,496.3688 409.4117,507.4673 396.8033,532.0836 389.1261,545.2681 380.1265,558.4411 371.6199,568.7001 364.4377,575.9787 354.0908,584.8502 341.2628,594.744 318.4308,611.2582 304.5695,622.0604"/>
    <polyline points="302.0086,610.1053 327.3496,592.4705 347.0446,579.629 357.632,572.3724 365.4553,566.3209 372.7294,559.7443 381.2943,550.3071 390.4484,537.9635 398.4606,525.6221 408.7381,507.7073 416.0094,497.369 422.1131,490.0613 428.6887,483.1148 437.9769,474.0889 447.4985,465.3836 459.2816,455.242 466.266,449.8488 484.8056,437.1709 507.0985,420.7408 527.4829,407.4495 540.1237,397.8382 513.3432,418.2903 506.5797,424.2973 493.4287,436.9277 484.4475,444.5825 475.1343,451.3404 452.3471,466.5788 424.2477,487.0951 413.2025,495.9221 387.6517,517.7426 378.2391,524.4402 370.5865,529.0463 362.5618,533.3113 336.766,544.9889 310.2306,557.7056 297.7461,563.3691 288.2675,567.216 278.5696,570.5251 268.5639,573.2178 261.667,574.5922"/>
    <polyline points="273.6716,576.6155 280.1991,575.05 289.7064,572.1107 302.0723,567.4998 314.2749,562.3851 352.4296,543.9142 372.0705,534.8658 379.6437,530.6977 389.2039,524.6904 395.7908,520.0309 401.8519,515.0948 423.3767,495.7946 453.7316,471.8574 461.2522,466.2337 481.0219,453.0741 490.1351,446.0212 496.7478,439.9877 517.6864,419.0314 540.2045,397.9518 502.88,431.1944 485.359,448.3406 472.9612,459.8684 454.5311,476.4951 435.8451,492.7538 427.555,500.947 410.1188,519.2376 402.0226,527.1133 391.3111,536.6004 377.8728,547.5947 368.3149,554.4776 357.7775,560.3916 327.6502,573.7619 303.9357,584.9974 293.5776,588.9373"/>
    <polyline points="296.4451,593.8568 303.5584,590.6629 325.4719,579.1951 357.4397,563.9566 368.1612,557.82 375.3983,552.4665 386.3716,542.7441 398.7789,530.6351 426.2115,500.025 436.8111,489.1206 455.6485,472.2012 502.9332,427.4442 509.2872,422.1289 525.4931,409.7479 540.1216,397.9466 527.449,407.6764 509.6801,419.1444 500.7493,425.7322 467.0763,454.1853 431.8185,485.6839 423.1507,494.481 415.0808,503.8035 409.499,510.995 397.6917,527.4795 388.5909,538.7368 380.6081,547.6682 371.6905,556.0672 364.0954,561.7744 355.9778,566.8505 345.2966,572.8952 324.9263,583.6753 298.063,599.9696"/>
    <polyline points="288.538,584.3217 299.7109,580.1786 324.5908,569.0356 352.8322,557.2726 360.9789,553.2008 368.9654,548.7333 376.6465,544.0305 383.8322,539.0652 394.9275,530.3054 405.3707,521.3461 411.1494,515.8617 425.8418,500.9129 434.0125,493.4923 464.853,467.7545 481.3886,454.5557 490.0098,447.1377 512.3366,425.7659 540.2707,398.0485 526.8209,411.4235 504.5001,434.6747 491.8105,446.9828 482.8177,454.419 460.7994,470.3964 426.5081,498.7704 409.7524,514.6939 404.0234,519.7651 389.1315,531.1169 382.144,535.8611 377.2188,538.7693 346.7151,553.862 300.2485,573.7959 291.4353,577.1948 282.3978,580.1646"/>
    <polyline points="246.9469,569.7512 254.0681,568.6049 264.4843,566.2562 271.2427,564.2987 281.0499,560.8707 311.8837,548.0995 344.2556,535.3597 352.9132,531.2791 358.4778,528.2347 366.4262,523.315 371.4508,519.8005 399.6438,497.0126 414.188,486.245 435.4092,471.4407 471.2144,445.2699 480.5539,437.9418 496.9241,423.8164 504.4104,417.819 509.6775,414.2063 515.1476,410.9438 531.8087,402.2435 539.9419,397.5345 500.4767,424.0878 457.8683,454.9801 450.3952,461.2116 445.5687,465.7602 431.3984,480.5218 424.6273,488.4587 420.43,494.0922 416.6148,500.0471 413.2338,506.2771 410.267,512.7329 407.6482,519.3413 397.829,546.4263 389.3034,566.1659 384.8252,575.7651 379.9635,585.0778 374.6263,594.1856 370.7024,600.079 366.4082,605.7377 359.538,613.81 352.4902,621.3731 345.2499,628.289 330.5585,640.4664 303.6779,660.6278"/>
    <polyline points="305.731,648.2661 316.2278,639.2048 334.7814,625.0322 346.7605,615.0016 354.1317,608.0863 361.3708,600.6142 370.3603,589.8441 374.4137,584.1307 380.0387,575.3403 385.193,566.382 389.8636,557.1959 397.1446,541.6751 399.7592,535.3304 408.1468,512.739 410.8951,506.3872 414.1067,500.2119 417.7136,494.2381 421.6716,488.4848 425.9089,482.9569 432.6929,475.113 437.4038,470.2073 444.6468,463.3505 452.0463,457.047 457.1341,453.1856 464.8923,447.8682 482.7734,436.7405 526.5349,406.0457 540.0739,397.4659 527.0921,406.1237 504.421,422.9835 487.6777,435.0003 480.2879,439.7511 464.9801,448.7232 457.2667,453.7187 447.3857,461.2943 437.8923,470.0971 431.0596,477.5574 424.4811,485.4248 418.1413,493.6218 414.2788,499.3368 409.3495,508.2374 397.5439,534.8029 390.2649,549.1363 381.9503,563.343 372.0279,577.2411 367.5647,582.6233 362.8104,587.749 350.1227,599.3727 340.1058,607.5838 317.3843,624.5686 305.6132,634.7043"/>
    <polyline points="234.9685,561.7506 245.8712,560.5474 253.0945,559.3322 260.1739,557.7453 270.3264,554.8594 279.9879,551.6022 298.3171,544.759 327.9355,535.1654 336.761,531.6077 342.4749,528.74 350.7306,523.896 361.3087,516.8897 368.9692,510.989 381.2632,500.728 388.8902,494.9004 437.254,460.7238 472.2763,433.4618 484.2426,423.7623 492.1837,417.9763 497.8751,414.4655 506.831,409.9268 539.8406,397.1567"/>
    <polyline points="539.6755,396.2596 527.1608,397.3092 506.7644,397.8901 499.834,398.7176 492.9803,400.1255 486.2226,402.0253 479.5949,404.368 473.1671,407.1732 461.069,413.8618 436.7332,429.2504 407.3828,450.1997 389.301,463.5823 369.1177,476.5794 359.9499,482.1048 353.6742,485.4955 341.0745,491.4695 331.7528,495.3999 322.4321,498.6359 310.0622,501.8409 278.1549,507.8757 256.8593,513.1052 247.2397,515.1228 234.1113,517.4279 217.8986,519.5854"/>
    <polyline points="219.5692,531.3315 243.0663,527.3286 262.3244,522.8121 311.8494,509.0369 320.8307,506.1394 329.72,502.6945 350.7021,492.5519 363.021,485.5691 392.1457,466.9031 423.4048,444.4987 436.1011,435.7299 463.3598,418.7018 472.1457,413.6798 478.2607,410.7018 484.5751,408.0776 494.3351,404.7208 500.9908,402.8719 511.1516,400.8485 539.8175,396.6259 515.1798,402.0187 505.25,404.5609 492.2496,409.1855 482.8231,413.2746 476.749,416.2876 470.8688,419.5852 462.3525,424.932 421.7029,452.2366 402.9831,465.2362 391.801,472.4316 352.9093,495.5464 332.4537,506.4401 323.9282,510.6054 309.474,516.2781 284.026,524.7543 260.4454,531.9382 240.9297,536.7348 220.4139,540.3915"/>
    <polyline points="222.5484,548.077 240.0695,545.9669 246.9559,544.6403 256.9396,542.1349 312.0057,523.4928 320.5414,520.1521 326.2052,517.538 337.4801,511.6569 348.9021,505.1786 371.7999,490.0563 398.2454,473.6547 434.1986,450.0972 471.9744,422.8442 483.299,415.5817 495.6287,409.3965 505.3563,405.7104 531.2061,399.1985 539.8738,396.7291 531.2227,399.7041 512.1572,405.0757 502.3877,408.2645 496.0749,410.9078 487.0501,415.7752 478.8013,421.4145 437.4985,453.0686 379.2986,492.6146 355.3362,511.0047 344.357,517.9505 330.5494,525.6698 324.874,528.255 319.144,530.438 290.3648,539.4329 272.3906,546.137 262.7526,549.3364 252.5923,551.9309 245.5223,553.26 238.3283,554.1789 227.5279,554.9079"/>
    <polyline points="215.5449,507.0175 231.2858,505.5991 247.4914,503.6105 272.6608,499.3006 301.3415,495.2041 313.3473,492.9916 325.8599,489.5214 338.4495,484.5993 354.3081,477.3949 366.6606,470.8528 378.4871,463.9359 386.9343,458.7924 394.8722,453.5167 414.8355,439.5316 431.4792,427.0686 446.7626,416.3749 458.1778,409.4103 470.9793,403.0931 477.7648,400.4289 484.7154,398.2383 491.7755,396.5649 498.8946,395.4918 509.5275,395.0725 529.9598,396.0734 539.5682,396.0323"/>
    <polyline points="539.4775,395.7975 512.7421,393.5622 505.6106,393.3437 498.3055,393.6384 490.9227,394.5755 483.5627,396.1318 476.2737,398.1527 465.5619,401.8078 455.412,406.166 446.2928,411.2995 435.5228,418.6352 408.1675,438.09 392.9206,447.7493 382.111,454.0578 367.7974,461.5295 355.6314,467.0884 330.6334,477.4161 321.3862,480.651 312.2093,483.0378 297.5777,485.8668 283.8014,487.8752 260.3375,490.6195 247.6422,491.8692 237.9794,492.4612 225.106,492.8701 212.4233,492.8787"/>
    <polyline points="208.2533,475.1607 220.953,476.3281 233.6562,476.8971 246.258,476.7216 258.7103,475.9887 270.4427,474.6812 292.1071,471.5599 306.3786,468.8997 318.4564,466.2529 361.6464,453.8301 367.7144,451.6854 376.5422,447.9291 390.538,441.233 401.0131,435.5126 416.5832,425.9815 438.2,411.9744 444.1629,408.4282 453.9417,403.6293 464.6166,399.7352 475.7741,396.5723 483.3236,394.8022 494.6624,392.9311 502.1047,392.3282 509.3354,392.2516 516.3015,392.6544 539.4688,395.5476 519.3957,393.6918 512.3617,393.5085 505.1883,393.7552 494.2068,394.7828 479.305,396.9089 468.0852,399.0494 457.0941,401.5695 446.6561,404.4445 436.9542,408.0914 402.3696,425.5589 388.0953,431.8258 379.2329,435.0302 370.2284,437.8354 360.8954,440.1053 354.4863,441.2085 326.6909,444.0575 305.2983,445.6598 284.4148,447.8774 258.4165,449.36 243.158,448.8086 224.3317,447.0204 212.1515,444.9114 200.2265,441.8774"/>
    <polyline points="203.7018,458.7389 216.1274,460.9713 228.6624,462.3883 247.4326,462.9848 259.5264,462.638 287.2576,459.2748 353.4663,447.9359 359.8081,446.5452 369.1367,443.7687 381.1368,439.3317 389.7639,435.7643 403.4725,428.8987 440.3962,408.2218 450.197,403.9265 460.7719,400.4175 471.9163,397.5316 483.2552,395.185 494.5212,393.4766 501.8888,392.7403 509.1076,392.4235 516.1478,392.6249 539.4836,395.4736 526.1425,393.6319 516.4848,392.8722 494.1632,392.2904 471.6399,391.3001 450.135,390.8463 413.0746,388.1944 384.7659,388.1249 371.936,386.8375 362.6649,385.0117 350.8868,381.826 318.1984,371.6056 291.2443,362.0663 279.7536,358.4867 254.6611,351.9235 228.0278,346.0754 207.9573,340.9147"/>
    <polyline points="208.4407,337.0447 232.5716,341.7557 259.3406,346.2072 278.467,350.8078 290.3997,354.6813 322.9251,367.7977 336.2942,372.5316 356.4707,378.951 372.2721,382.5936 378.7936,383.5629 388.6228,384.4232 414.4656,385.411 461.4749,389.9388 488.4957,392.216 500.8134,392.8939 521.7474,393.474 539.6502,395.4265"/>
    <polyline points="539.3402,395.5448 518.809,393.8672 504.3974,393.8058 493.297,394.6479 478.4709,396.3221 467.451,397.8991 456.6184,399.8595 446.1863,402.142 436.3881,405.0361 427.2629,408.595 401.3426,419.7856 386.7353,425.0275 377.8639,427.5941 368.949,429.6756 362.8568,430.7331 356.5597,431.4345 315.9704,432.1408 273.7654,431.7213 255.4956,431.0444 239.7942,429.5968 220.7768,427.0227 211.7169,425.2198 197.175,421.276"/>
    <polyline points="195.2964,395.2654 210.2732,399.5322 222.7123,402.3293 238.7275,405.3543 263.9444,409.0914 279.2436,410.8281 314.8076,414.0928 345.5586,416.5368 354.9115,417.0011 367.1988,416.3677 385.3059,413.695 397.3573,410.8993 421.1654,404.0233 436.2236,400.0543 449.2165,397.4642 466.6437,395.0561 488.5098,392.9351 503.3665,392.2139 517.9668,392.8839 539.254,395.2388 525.4493,393.1113 515.144,392.0554 484.2208,390.5776 463.7825,390.3546 438.5308,390.9852 413.8643,390.2707 379.6036,391.6526 370.1762,391.3335 364.0225,390.7127 358.0033,389.7638 349.1687,387.8283 332.3812,383.1752 304.4132,376.3775 282.2818,370.3019 228.4773,357.7512 215.7067,354.3961 202.9587,350.4748"/>
    <polyline points="206.9875,335.1805 224.0585,337.4889 257.8733,341.352 267.8835,343.1046 277.6869,345.2882 287.0498,347.9889 295.989,351.1564 307.3553,355.7363 323.3456,362.9004 342.5836,369.9984 358.1398,374.7913 368.127,377.2217 374.8216,378.5189 384.799,379.9363 407.7531,382.1369 434.2459,385.5409 468.9536,389.1381 495.4344,392.2626 507.1836,393.2512 526.6807,394.1054 540.0072,395.5277"/>
    <polyline points="539.7944,395.0521 525.8623,391.4171 506.2726,387.6612 496.9655,385.4974 483.1883,381.2699 471.6202,377.2371 462.182,373.4387 445.1119,365.2942 435.4444,361.1204 409.6372,351.9841 400.1103,348.0086 392.5162,344.1378 372.7087,332.604 340.0998,315.4166 329.7159,310.2512 321.7285,306.7847 313.4188,303.8458 301.4562,300.7793 291.7459,298.9965 274.7005,296.5923"/>
    <polyline points="273.0472,300.6831 289.3283,302.5625 301.7969,304.5189 310.6155,306.5836 318.9856,309.2801 327.0217,312.5324 334.8949,316.2847 370.3423,334.9571 391.5847,346.9837 398.8153,350.5045 406.17,353.5953 415.9712,357.1689 434.7517,363.0273 458.5452,372.2819 466.3973,375.0146 493.211,383.1534 502.7197,385.4804 524.1367,390.0754 539.9029,395.0054 525.7015,391.343 505.0666,387.3106 497.806,385.6161 486.0904,381.9525 474.7958,377.8994 463.7726,372.981 445.8224,363.3465 434.2585,357.6526 425.4141,353.8668 404.2331,345.6993 391.7605,339.9992 338.1438,310.0056 324.8977,303.631 316.7493,300.2873 308.1667,297.4487 295.8722,294.0866 272.4839,288.3826"/>
    <polyline points="271.6326,276.3743 293.2378,284.8371 316.9406,293.4145 330.7836,299.3543 338.6297,303.5297 361.3179,316.945 383.9598,328.8682 397.7957,335.4651 424.1365,346.2737 435.3688,351.3795 446.5694,357.3 465.595,368.7791 476.2148,373.9766 485.3409,377.6153 497.25,381.8264 525.9922,389.8174 539.8561,394.7574"/>
    <polyline points="539.9212,394.4409 526.2116,387.7215 492.5881,374.3567 474.3738,366.3116 463.9704,360.5182 442.9522,346.4403 431.5926,340.2002 419.8536,334.8029 394.4711,324.6336 384.7036,320.3233 361.2734,308.9344 353.6163,304.5167 338.5683,295.1569 330.7232,290.8735 322.4558,287.0298 293.8891,274.9255 271.1257,264.3245"/>
    <polyline points="273.789,249.9614 305.0229,266.1306 331.609,278.5863 341.6931,284.4748 358.9611,295.7852 369.3159,301.501 384.8604,308.8123 407.3843,317.3554 414.496,320.6582 426.6625,326.8839 438.6229,333.991 460.4194,350.374 471.1283,357.3834 490.8232,368.1267 526.5269,386.0211 540.039,394.1559"/>
    <polyline points="540.6174,393.1507 517.831,362.8937 507.737,348.3123 502.2682,338.948 492.5836,320.1119 487.5767,311.3008 472.9504,289.3497 465.818,277.6862 460.9304,268.4924 455.1684,256.0424 451.4157,246.8536 443.3651,225.2479 433.6637,203.7298 429.2242,195.033 426.0742,189.557 417.8752,176.9612 412.542,170.0385 408.672,165.7667 404.6074,161.7778 398.2627,156.2865 389.3479,149.745 371.1656,137.7649 343.7279,117.3703"/>
    <polyline points="347.4295,121.1877 382.3586,143.0412 400.7136,155.0619 407.5804,160.1052 414.1563,165.713 420.393,171.9246 426.0809,178.7844 431.3829,186.0589 439.8547,199.0266 445.7344,210.3765 450.8657,222.2373 459.5391,245.5603 466.1562,259.8508 474.3788,274.3237 488.6295,297.0219 493.7618,305.8508 498.4028,315.3674 508.4834,338.7618 513.3899,348.354 518.7227,357.4634 540.7151,392.996 536.8685,387.1321 533.403,381.138 517.1477,350.2507 511.2649,337.0793 502.5236,312.9478 498.3073,303.0007 493.5016,293.7338 467.8881,248.7496 464.3047,240.8293 458.0346,224.3949 452.0348,210.5034 447.9308,202.3851 441.529,192.3016 434.5333,182.764 428.7817,175.7767 422.2848,169.2375 413.1947,161.487 406.148,156.3689 381.5181,139.9565 370.107,133.2822 352.9051,123.978"/>
    <polyline points="356.4947,130.8098 373.6858,139.2269 382.6332,144.2321 395.661,152.2891 414.045,164.7857 421.0414,170.5138 429.9682,179.1682 435.9648,186.111 444.6561,197.8195 449.4919,205.0194 453.7162,212.594 469.4047,245.6383 473.6241,252.8766 484.8589,270.6289 494.5472,287.6326 499.323,296.6354 504.9064,309.5917 513.9113,337.3426 517.7816,347.5105 531.981,378.5867 536.8508,387.4171 540.6309,393.1026 533.4197,381.9406 527.6849,371.179 522.8719,360.5352 510.4389,329.809 506.2984,321.5532 503.0667,316.171 494.1295,302.9554 484.7829,290.8915 477.5332,282.6245 463.5702,268.2483 457.3913,260.9646 451.8817,252.9036 440.5507,234.0186 437.1714,229.021 431.6672,221.8615 425.7976,215.3643 421.5284,211.4544 416.9411,207.7839 409.6525,202.5638 399.5495,196.2717 379.7397,185.6872 368.6832,179.1678 359.7406,173.4502 345.8436,163.5127"/>
    <polyline points="350.5018,159.2748 362.1283,167.5046 368.9467,171.8839 384.5821,180.7388 404.5397,191.2433 414.6929,197.6868 421.9095,203.1291 426.3958,207.0463 430.5845,211.2228 436.4278,217.9406 443.5914,227.4769 454.9333,245.9824 460.3097,253.9213 464.648,259.3026 481.1313,278.0749 488.3084,286.9676 495.5196,297.1321 502.4586,308.3205 507.2708,316.992 511.3471,325.751 518.2505,343.1183 525.4243,363.2239 528.8594,371.3208 535.574,384.8333 540.7603,393.123 537.2233,387.5027 532.5639,378.8925 526.0684,364.0563 518.6899,345.1703 508.7824,314.5097 504.8637,304.608 501.8307,298.223 496.7476,289.1793 488.1406,275.3834 473.0367,254.0622 468.5375,247.2757 451.1402,217.2724 441.3798,203.4207 434.4617,194.3532 428.6289,187.693 422.1003,181.3307 412.7002,173.7746 400.8808,165.8324 383.031,155.1765 371.9636,149.0993 354.8899,140.7006"/>
    <polyline points="352.117,148.4475 396.4774,172.5192 403.6245,176.7783 413.3716,183.2606 420.6528,188.8029 427.3341,194.8675 435.2313,203.4451 444.3243,214.658 450.8892,223.7121 470.4317,253.4882 491.0227,280.7598 496.391,289.0044 501.6557,297.8123 506.4097,307.229 510.4504,316.8919 515.1877,329.8629 522.6709,352.177 529.5761,370.0921 534.7635,381.63 540.8809,393.0579 536.0625,384.624 530.832,373.4614 525.1659,359.2258 517.8864,338.2454 513.2059,326.0502 507.9513,313.7207 501.7272,301.5496 496.5761,292.9081 491.214,284.8258 462.0526,247.5099 457.9305,241.575 446.6087,223.7966 441.3876,216.7783 433.6477,207.8202 427.4777,201.4356 420.7191,195.4631 413.3787,190.0544 400.8119,182.3888 383.9942,173.636 368.2247,164.9327 351.5853,154.8242"/>
    <polyline points="340.3443,168.9877 371.3702,190.0751 380.3888,195.4893 394.8606,203.5849 404.4641,209.7653 415.9987,218.5498 420.2346,222.4605 424.2836,226.7192 428.1508,231.3445 433.5268,238.792 445.3624,258.3851 451.2703,266.6673 459.31,275.7202 471.7877,287.7556 483.0972,299.8057 492.7001,311.1514 499.9597,320.6305 504.8601,328.0897 507.742,333.2965 518.8406,357.6759 525.5692,370.9123 532.2252,381.705 540.3851,392.9976"/>
    <polyline points="540.8825,393.0492 537.5649,387.2513 533.1014,378.1631 529.1893,368.5964 526.9834,361.9031 522.5867,344.5182 515.5871,311.858 510.216,290.286 503.4555,260.4859 498.7081,244.169 490.0291,218.9568 485.0278,203.4169 482.4449,194.0373 481.0783,187.6518 479.3974,177.9653 477.6739,164.9299 474.6103,135.1839 472.2733,108.9233 469.7184,66.9897 469.641,56.9886 470.5504,33.622"/>
    <polyline points="481.6998,27.2318 481.7474,68.4065 483.5805,130.0428 485.2354,153.2676 487.9016,172.4655 491.9319,194.3429 501.6107,231.9625 505.4618,248.2492 512.6811,285.5987 517.9401,307.518 523.1484,333.5243 527.2496,351.7546 530.0095,362.3867 533.2749,372.7388 536.9821,382.8184 541.14,392.6605"/>
    <polyline points="541.211,392.3814 537.4289,381.4923 533.1867,366.3557 529.4598,351.0154 526.3669,335.5845 518.4066,287.3326 513.4053,259.3868 506.5687,206.9507 504.4609,194.0974 499.743,168.8254 497.3972,152.9608 496.0194,139.6447 495.5147,129.2855 495.5553,119.0001 496.2938,102.4343 496.4136,92.549 495.5554,48.5518 494.3742,21.2978"/>
    <polyline points="489.2311,21.9457 489.9554,52.8426 490.3821,128.2393 491.1407,141.8337 492.6495,155.0691 497.2946,183.4727 502.9557,211.7439 507.587,237.2504 513.6439,274.5898 520.3803,307.2383 526.5471,341.1844 529.9151,356.1979 532.864,367.2643 537.4267,381.8001 541.2851,392.4779 538.8307,385.4577 536.7448,378.1605 532.3598,359.18 529.2955,343.7239 523.7715,309.935 520.2304,285.0053 515.7626,257.6392 514.4763,244.2915 511.2641,201.7888 509.9832,192.0471 505.6247,166.0125 503.9647,152.994 502.7015,139.5571 502.0806,125.8373 502.2027,115.7942 503.2036,96.4738 502.7566,70.9299 501.7029,47.3754 500.1845,23.7284"/>
    <polyline points="509.9013,27.3509 511.8888,67.209 512.3266,83.0788 512.2193,95.6416 511.0187,118.3102 511.162,131.8368 512.058,145.5847 513.6045,162.7332 518.8805,203.1811 519.2929,213.0577 519.2235,235.7593 520.6662,255.0586 521.6542,264.9417 529.0887,319.497 533.1918,352.9083 537.6143,378.8476 539.3326,385.8721 541.4543,392.6153"/>
    <polyline points="541.6607,392.764 539.9518,386.3323 538.6705,379.6009 535.4488,350.9168 532.1887,311.9217 530.0893,282.2852 526.6224,243.705 526.5002,234.3352 527.9682,215.1352 528.1103,205.3295 527.3192,191.8176 524.186,159.9209 522.9252,142.4563 522.6576,128.5504 523.2227,104.9029 523.146,95.2725 522.7101,76.3203 521.4082,43.7708 521.2951,31.0214"/>
    <polyline points="453.8225,40.3386 452.9941,62.8873 453.3038,72.5383 454.1638,82.582 458.7091,124.1657 464.4335,160.0119 467.78,183.4734 470.2564,196.622 472.9384,206.2868 475.1287,212.6278 481.3804,228.3961 490.759,250.4024 496.7035,266.4755 512.5201,315.6288 523.6642,357.1692 526.8189,367.1574 529.3745,373.4942 532.2845,379.4657 537.1765,387.9404 540.7806,393.2894 532.0536,379.7852 526.0096,368.1504 522.2061,358.761 510.6811,326.3232 502.6493,306.7913 486.1301,270.1697 466.863,228.8445 461.4139,216.0594 459.0833,209.5547 455.6353,196.3274 450.8706,169.2901 443.9435,137.0568 441.754,124.2325 436.8858,87.3934 435.5468,74.5662 434.9343,62.1653 435.0685,49.5595"/>
    <polyline points="421.1114,57.1722 421.3848,72.4871 421.9636,78.5495 423.4328,87.7242 426.7516,103.2042 433.7808,140.5898 440.7322,168.9342 446.776,199.6904 449.4826,209.8386 451.7107,216.5767 458.4113,233.2524 467.3425,252.9422 480.4987,278.167 495.0028,304.4971 504.6352,322.956 509.1419,332.424 519.7741,357.2995 525.3084,369.1506 531.7448,380.2852 540.6325,393.4651 533.1626,383.4414 526.3237,372.8175 520.3754,361.5622 503.9939,328.4375 498.7685,319.4153 479.1699,287.4643 470.3975,272.3668 461.7244,255.9695 455.7754,242.4207 449.3585,224.7175 444.9348,210.6748 439.6894,190.4445 434.6962,167.0252 432.3416,157.5427 420.7671,116.1158 412.5707,89.976 411.2224,84.0219 410.3276,77.9722 409.5061,62.8057"/>
    <polyline points="395.9022,67.0707 397.9107,78.9783 401.1796,90.7446 419.8629,137.9532 425.9439,155.064 429.3097,167.4507 441.1707,218.0915 446.7462,236.73 452.2306,251.3606 458.9024,265.1801 468.0342,281.4529 473.6386,290.4852 500.1275,331.0758 503.6132,337.0299 513.103,354.7096 521.349,368.6449 526.6569,376.5624 530.4403,381.5933 540.5179,393.5567 519.8184,371.3978 513.1622,363.5049 506.7357,355.1339 498.8533,343.2148 490.3497,328.3586 483.4495,317.0206 470.2704,298.345 464.7184,289.7518 458.0866,277.2133 450.6104,260.91 446.7593,251.1162 438.5419,228.2752 423.555,190.1709 418.0833,179.1217 413.4741,171.4029 410.0227,166.6085 406.3347,162.1511 396.589,152.1943 390.2967,146.7345 375.0052,134.6752 346.6259,109.7233"/>
    <polyline points="353.8393,100.2336 370.3743,117.4148 396.8078,143.9009 405.8681,154.3238 412.7984,163.6107 415.9366,168.8302 418.7157,174.3809 423.4418,186.0748 440.0802,240.0414 445.9876,257.1948 453.1669,274.02 461.3231,290.2484 466.8607,299.2389 476.5834,312.8672 484.019,323.9302 500.0577,349.9741 506.0266,358.6117 512.4245,366.5394 519.0594,373.7769 525.9953,380.5482 540.3967,393.7531 531.7066,385.0259 525.4659,378.1435 519.5568,370.7633 514.0005,362.8994 508.801,354.5741 496.7475,333.83 480.1426,307.2807 466.6161,286.3666 455.1912,266.91 449.7491,256.6637 446.5149,249.4803 443.662,242.0647 438.8747,226.9168 435.2252,212.1657 428.1801,177.8599 425.5563,168.1652 421.5744,156.1234 417.0511,145.0387 409.751,129.3708 391.1952,92.4076 387.6419,84.0285 383.6538,72.5535"/>
    <polyline points="375.3425,80.218 379.4742,88.5624 385.5542,99.2125 391.9658,109.6316 403.3484,126.8588 407.6298,134.0977 417.0338,151.682 421.9967,162.5774 425.2589,171.3505 428.8704,183.9357 437.2046,222.3384 440.9317,237.1705 443.311,244.5319 446.0715,251.7915 450.9716,262.2332 469.3348,294.5653 506.8576,356.9636 514.5274,367.5182 520.5839,374.7671 529.1462,383.649 540.3287,393.9064 530.9166,385.7618 521.8551,377.2119 513.2559,367.9845 507.0472,360.2659 501.1936,351.8417 490.3582,334.1955 464.1978,293.3607 458.8936,283.811 450.5192,267.4374 445.9243,257.1834 443.2244,250.1635 438.8776,235.9717 425.5404,183.7459 421.411,171.7052 417.6462,163.2581 411.7737,153.0103 400.8354,136.8504 395.7559,130.2126 376.6151,107.0531 363.9977,89.7438"/>
    <polyline points="340.2034,172.3928 369.2638,196.7246 391.8846,214.8229 399.9743,222.4594 414.4093,237.4245 421.9662,246.4638 438.6462,268.7109 443.5675,274.7095 460.787,292.8219 476.0259,307.9379 487.1469,320.6891 492.2878,327.5935 497.077,334.7544 510.7302,357.3309 519.2372,370.2157 527.3918,380.5783 539.8715,393.4448 526.843,381.2892 518.0587,371.3091 508.5889,358.8181 491.7525,334.4955 480.8134,320.9764 471.0224,310.3658 457.3444,296.7583 439.178,278.0017 407.7106,242.0194 399.0854,233.4086 388.1598,223.277 360.9045,200.4589 331.4735,174.42"/>
    <polyline points="338.8104,172.3937 368.6904,193.9408 392.5451,209.7609 399.2972,214.5494 410.4589,223.5305 418.9454,231.8148 426.5754,241.2497 431.7025,248.7166 440.9838,263.2692 447.1493,271.5166 455.2583,280.4134 469.6444,294.2908 479.3578,304.225 490.8618,316.9007 498.0406,325.7398 502.9495,332.6948 505.8933,337.5498 517.612,360.8528 523.512,371.2361 528.9507,379.1925 540.0429,393.1415 530.2652,382.5007 522.1559,372.0298 515.7292,361.6748 503.2275,338.9429 497.139,329.5939 492.1246,322.7883 484.9107,314.1614 477.4014,305.8732 453.4685,282.1394 445.198,273.1912 440.4951,267.167 426.0162,246.1553 418.6888,236.867 406.272,224.0379 395.852,214.7664 371.0591,196.2363 341.4412,173.1822"/>
    <polyline points="319.4451,180.5325 352.7419,210.2559 361.0615,216.8963 379.4704,230.6603 391.2667,240.4675 400.4373,248.7313 420.0795,267.5804 429.5942,277.0972 448.0807,296.4934 464.0167,312.3283 482.5867,331.4953 488.4075,338.0396 507.1672,360.903 519.6911,375.1394 529.2392,384.5327 539.9027,393.766 529.405,385.2073 519.7332,376.2347 493.6719,349.5133 479.3917,334.2422 466.4016,321.2259 444.5605,298.2769 431.7124,284.2229 423.8056,276.5915 412.8837,267.583 376.0728,239.9375 368.6346,234.9402 354.3437,226.0395 345.4874,219.9303 339.5495,215.0676 326.7427,203.5665 309.1251,189.0524"/>
    <polyline points="299.2547,200.6593 317.8941,214.8407 331.4998,225.8483 337.7746,230.3455 361.2172,244.2245 383.7569,259.229 407.3077,273.1951 414.7283,278.1528 421.6043,283.4473 431.9693,292.7358 446.9302,308.5556 462.5433,325.8413 482.4446,345.0813 502.3008,363.1628 516.6891,375.62 524.228,381.8139 539.9639,393.9029 502.8149,367.7356 475.5995,345.992 462.0408,333.9075 441.63,312.8635 433.7523,305.2683 425.5253,298.093 418.8103,292.9591 411.6505,288.013 403.9986,283.3861 379.5733,271.3184 368.8579,265.3879 346.8421,250.9928 328.1251,240.2011 319.2025,234.7055 310.5908,228.8651 289.0059,213.2319"/>
    <polyline points="281.7447,226.4214 307.48,243.3617 314.5829,247.2383 329.0322,254.3529 336.1729,258.3077 345.7702,264.0383 360.6328,273.8855 368.3765,278.5365 376.4441,282.5338 403.2833,294.1533 410.8377,298.2017 415.6626,301.1942 424.9801,307.7811 436.0691,316.505 442.4448,322.1495 461.6689,340.2691 472.7767,349.3096 495.0883,364.9113 504.8267,371.1604 526.5897,384.388 540.1051,393.9441 532.2814,388.2466 526.8264,384.7584 493.1054,366.2131 471.2339,352.4465 464.6852,347.8059 458.137,342.6466 443.0093,329.5221 436.3459,324.1787 426.8803,317.7098 414.7523,310.0724 405.0653,304.9854 381.7576,295.8469 368.646,289.589 360.9922,285.011 346.1784,275.0365 334.0711,267.5572 326.6402,263.6171 314.0757,258.0769 306.62,254.3457 278.3997,237.669"/>
    <polyline points="261.3594,298.2735 298.1846,301.8249 307.1536,303.5543 315.881,306.0704 327.2537,310.5817 338.4844,316.013 351.6015,323.1433 369.8458,334.4808 376.251,338.1457 397.2213,348.7655 408.0078,353.546 452.8359,369.0662 520.4315,388.1265 527.7764,390.4732 540.1065,394.9844 529.9893,391.152 522.6305,388.8223 493.0087,381.6158 453.9049,370.8395 416.5231,358.5877 408.0058,355.5345 396.4149,350.6909 382.8144,344.0151 374.3829,339.3747 355.9072,328.4289 334.8759,316.8923 323.9459,311.7294 315.7173,308.5502 307.2575,306.0435 298.4619,304.3014 267.4008,301.0612"/>
    <polyline points="255.4133,298.3234 289.1638,301.0242 298.3937,302.063 307.4467,303.8007 316.2119,306.4574 327.7233,311.0973 338.9664,316.5128 374.4203,337.2429 394.7439,347.8609 406.5928,353.1941 435.4603,362.603 455.1391,369.3708 525.1561,390.0879 540.2573,395.2418 512.4657,388.1713 497.5158,383.9656 457.3004,371.7284 426.7987,361.9645 404.9623,355.505 397.1391,352.3059 389.6251,348.6695 363.0009,334.686 332.4974,317.8731 321.0341,312.7738 309.3473,308.6082 300.3768,306.2961 291.1645,304.9617 247.5183,302.5073"/>
    <polyline points="237.0546,309.9323 259.1113,310.6501 278.0469,310.7399 284.2614,311.048 293.5797,312.1627 305.8634,314.9183 317.8515,318.7468 326.5237,322.2893 385.0019,350.0658 393.3132,353.6507 401.7745,356.8435 447.8347,370.9653 470.9773,377.2543 505.398,387.2872 517.7724,390.4638 540.3613,395.4198 511.0516,389.2924 473.1917,379.7778 449.1358,374.5046 436.8677,371.1457 403.4511,360.8687 394.4132,357.7879 373.1953,349.8085 355.8634,342.6102 336.423,335.0777 319.6924,328.0187 310.8153,324.9257 301.6544,322.3442 289.2277,319.7483 279.8331,318.7689 267.3818,318.3161 242.4117,318.4364 226.6784,317.9131"/>
    <polyline points="216.1442,324.0947 235.3396,325.3892 254.3446,325.6975 270.2788,326.3208 279.8656,327.2047 289.3067,328.9706 298.6877,331.4212 307.964,334.3721 363.0685,356.0925 385.5024,363.64 398.2399,367.4861 433.177,376.6905 446.1545,379.6436 482.7236,385.8041 510.4879,391.1935 528.6005,393.5906 540.3947,395.4819 527.9431,394.3196 514.7233,393.609 506.4577,392.8493 480.6665,389.09 443.4762,384.4924 433.5191,382.9662 410.4255,378.5463 387.554,374.6005 370.9107,370.7132 357.6102,366.7914 328.1483,355.7296 299.8216,343.9563 290.6008,340.7828 281.2013,338.1494 271.4894,336.2433 258.1649,334.5741 245.0697,333.5126 221.7114,332.2323 208.5048,330.8221"/>
    <polyline points="197.2091,368.927 209.4999,372.8092 218.8011,375.3682 244.498,381.1916 292.9294,390.2808 324.9443,395.419 345.6805,399.185 357.7962,400.5875 370.0269,400.7961 382.3328,400.17 391.531,399.2765 416.0881,395.8431 446.9672,392.8245 460.3214,391.8482 481.6486,390.8662 496.1603,390.6659 510.6707,391.2537 525.015,392.879 539.1808,395.2205"/>
    <polyline points="543.1151,391.2662 546.7054,338.0477 548.5831,321.7381 550.0265,314.0919 552.7791,303.2538 558.0813,286.0977 562.7212,269.7313 565.9281,260.3043 569.5734,251.1662 573.7187,242.4724 588.1515,218.3625 594.2781,206.0407 600.3349,190.8693 604.6677,175.4039 606.9493,168.4451 611.0618,157.6377 613.9625,151.3988 618.0409,144.781 623.4302,137.752 632.5588,126.8585 648.098,109.1633"/>
    <polyline points="635.9834,103.2292 616.8126,124.4335 610.5992,131.7839 605.2225,139.0447 602.2817,144.3911 600.2229,149.4609 597.9134,157.2902 595.1558,168.8874 591.3087,188.7928 588.7985,197.8935 586.3729,205.3222 581.8293,215.9581 568.4878,241.059 564.6395,249.9589 561.2791,259.2951 557.7279,272.3137 550.6607,306.4867 548.8199,317.5209 547.0777,333.3447 545.5059,358.8952 543.0199,391.1442 546.7012,358.5875 548.6407,329.3129 549.8691,317.7569 555.3433,275.6862 557.1262,265.6437 558.7855,259.1099 561.8531,249.6306 565.4375,240.5389 577.8867,214.0201 582.2093,202.6198 584.2589,194.7002 586.5393,182.8763 587.7079,174.1608 589.2997,158.0816 590.7864,147.9408 592.4418,140.9745 594.4842,135.2969 596.4112,131.3461 598.8062,127.3896 604.5909,119.4923 609.4818,113.6673 627.5345,93.5393"/>
    <polyline points="615.9892,80.425 599.7634,100.4115 591.9926,111.1562 588.1214,117.7052 586.0115,121.9986 584.2917,126.212 582.4437,132.2952 581.371,138.0599 580.4198,147.5133 580.1408,153.5563 580.06,173.943 579.3021,183.7407 578.1232,191.6152 576.2299,200.1553 573.6697,209.2539 563.7395,237.2405 560.7828,246.6212 557.4647,259.5844 554.9078,273.1254 552.2591,293.7773 549.9658,318.6346 548.2267,350.2237 547.5084,358.8619 543.2875,391.1362"/>
    <polyline points="543.4611,391.319 547.1788,368.8352 549.3493,351.7596 550.2829,339.6658 551.582,310.1917 552.49,299.8223 553.8901,289.586 557.0256,272.2765 561.909,248.7386 565.8332,232.6709 572.9138,207.4657 574.2473,201.149 575.6871,191.9829 576.5781,183.3581 576.9835,172.7528 576.2043,146.4324 576.8598,137.7266 578.0644,129.2513 579.5913,122.8886 581.7155,116.4032 584.4792,109.5921 586.8171,104.8852 593.8888,93.0978 609.4679,69.9513"/>
    <polyline points="607.0769,69.1282 604.8245,78.6311 601.8052,94.8355 599.6444,104.5701 590.0216,137.016 587.9778,144.974 586.9882,150.3187 586.4034,155.7674 586.197,164.0849 586.6027,183.4523 587.5771,204.3532 587.2733,219.3293 585.3335,235.3409 575.9005,291.9913 570.376,318.3708 566.2784,334.2493 563.0158,343.4496 555.3844,361.7592 543.9037,392.7339 553.0917,363.3094 562.5842,337.6855 565.6097,328.564 572.2508,303.9017 578.2532,277.4981 579.8508,267.133 581.9622,250.0979 583.6947,231.4267 584.2927,220.2819 583.8907,207.2396 582.0059,186.7703 581.4694,175.9543 581.1587,162.4437 581.7819,151.5192 583.7108,140.8132 593.1394,106.7535 598.6435,81.2487 601.8955,68.645"/>
    <polyline points="603.1426,66.5875 597.4416,103.107 595.247,112.8397 589.1109,136.7841 586.9724,147.9771 586.1096,159.1925 586.8309,179.1711 587.1049,197.5552 586.8706,207.5397 586.3287,214.9678 584.6181,227.5578 578.3403,260.6867 575.1221,284.6253 569.1319,322.1703 566.1899,335.1795 563.1938,344.442 543.8823,392.8151 561.2458,348.0986 564.0735,339.0061 566.8522,326.4134 575.6776,262.5386 582.8359,224.1648 584.3588,214.0425 585.4978,201.654 586.0268,189.0828 586.067,180.9458 585.5048,163.688 585.9886,152.2487 588.1833,134.695 594.0871,99.4312 598.7053,64.8561"/>
    <polyline points="598.5281,57.0607 579.283,105.9959 574.5842,121.0901 571.4695,135.7196 570.3765,145.7547 570.2454,153.428 570.7391,161.2471 573.3752,186.1679 573.9254,195.0496 574.1395,210.5027 573.3411,223.0677 571.6485,235.5278 569.4213,248.2245 561.1479,288.1206 557.3799,308.3608 555.8781,318.64 553.4811,339.9134 552.3114,347.3922 543.416,391.6839 550.3585,353.5211 551.5595,345.6186 552.3887,337.945 554.1205,312.6734 556.4089,295.6755 559.7151,278.538 572.5534,219.6065 574.6359,206.8877 575.6867,194.2615 576.1413,182.3638 575.975,171.3569 574.9872,153.4447 574.9705,146.0973 575.5365,138.8407 577.0939,129.3628 578.7153,122.5081 581.4177,113.4737 585.9732,101.2611 590.9881,90.9862 606.4567,61.8008"/>
    <polyline points="665.6876,119.3355 642.5557,145.9816 636.9256,152.8939 632.2855,159.3086 629.5697,163.817 626.5651,169.7248 615.5287,194.7541 611.6985,202.4958 601.2363,219.2452 587.3363,239.2627 582.1059,247.2908 577.3089,255.6084 571.6096,267.1354 566.6501,279.1162 558.2547,301.78 554.9011,312.2266 552.9794,319.5469 551.3849,327.2105 549.5381,339.2644 543.2945,391.4121"/>
    <polyline points="544.096,398.6314 549.9673,409.2504 554.5101,416.7552 559.2881,423.9746 564.3622,430.8373 571.1745,439.095 581.4953,450.7927 593.8513,465.9026 613.43,487.6677 621.1823,496.6888 631.866,510.3242 636.3701,516.9063 638.9845,521.3103 642.3783,527.8919 646.28,536.7278 656.8392,564.2835 667.5089,593.1939 676.9398,621.114 681.7222,633.9119 692.8386,659.7373 699.4401,672.6516"/>
    <polyline points="692.9545,681.1852 687.9722,671.0734 683.5114,660.8219 677.9522,647.1434 674.2421,636.9637 669.9498,623.876 663.291,601.5457 655.0008,577.4584 644.7651,540.5043 641.396,531.3436 637.1474,522.1968 633.1553,515.2273 628.4302,508.0632 614.013,488.4627 584.6623,452.3681 570.4878,436.6713 563.5797,428.0783 555.3574,416.4209 544.2596,398.6068 557.0424,420.7716 585.2916,467.2981 594.0603,481.0641 599.6583,488.9808 603.7081,493.9313 608.0162,498.5802 614.8297,505.015 624.4968,512.7601 645.0144,526.6052 679.0102,551.0698 688.0078,556.4118 716.6054,570.4961 741.7385,583.9253 750.8438,589.1751 765.3553,598.3486 783.204,610.4155 801.8761,623.9123 811.1389,631.0051"/>
    <polyline points="787.2153,642.7832 764.9759,622.9953 733.7015,597.5098 723.0502,589.7583 703.0546,575.9276 682.3278,562.2668 673.8897,556.249 666.1212,549.7744 640.9399,527.2278 634.0535,521.7498 617.0301,509.3013 610.1473,503.5099 605.8333,499.3708 601.7309,494.9598 597.8858,490.2372 591.0036,479.9099 575.2212,452.8721 554.6348,418.5533 544.0652,398.6716 549.8685,410.0235 554.6146,418.4499 575.6482,451.8431 590.81,477.9499 597.4801,487.7908 603.1104,494.5032 607.208,498.6439 613.8643,504.4009 630.4915,516.7622 639.3002,523.914 645.4503,529.6233 664.3626,548.6534 671.4501,555.3503 695.1302,575.5007 724.2531,601.3775 749.3442,626.8133 768.7934,647.8573"/>
    <polyline points="753.3905,651.7778 729.3383,622.5931 711.5952,600.5184 688.7478,574.579 666.106,550.8575 646.9679,528.9006 641.4334,523.1337 633.5477,515.7461 609.5417,495.5278 603.5127,489.4857 599.7707,485.1611 592.8495,475.9125 579.9721,456.2222 564.8047,434.192 551.8186,412.7941 544.1643,398.7149 548.6001,407.4064 555.068,418.4478 563.5198,431.7778 570.3897,441.4476 595.5254,473.4022 603.0211,482.2343 608.9628,488.3381 623.48,501.7088 631.53,509.5882 640.7115,519.5342 649.022,529.4834 667.7578,554.1341 685.1615,576.3539 699.0328,596.9168 711.8231,618.1158 717.2501,626.3249 727.1792,639.7782 740.5107,656.0642"/>
    <polyline points="728.3509,660.338 715.6347,643.5501 708.2702,632.1671 701.8539,620.559 688.7261,592.2112 681.4105,578.2824 674.9677,567.6689 646.5008,523.2608 636.6685,510.7557 627.4808,500.0766 621.5527,493.8508 606.7734,480.3396 596.467,469.9767 572.5555,441.8958 561.7867,428.3218 554.6444,418.1071 549.6905,410.0881 544.0187,398.6548 548.2372,406.8854 552.8946,414.7202 557.9582,422.1425 565.0905,431.3211 593.2032,464.9204 601.3915,473.2657 618.3574,489.5513 624.3313,496.0027 635.0985,509.2318 642.7675,520.0383 648.7912,530.7648 656.6576,546.9969 666.0821,565.0376 672.7659,578.7754 680.0511,596.0514 690.5618,623.1332 694.6841,632.3215 704.1336,650.419 713.4396,665.3946"/>
    <polyline points="691.5981,691.6165 685.9768,681.4343 680.9526,671.0115 676.5,660.3907 672.7685,649.64 668.6049,635.6697 662.1866,612.2561 655.803,593.2425 653.0654,583.9229 650.4681,571.6088 646.7052,548.007 644.4674,538.3809 641.0738,528.4484 635.124,515.4737 627.3696,501.9434 622.0676,493.8925 616.4077,486.1133 598.8216,464.7651 586.0133,449.9955 573.3876,436.0127 564.3236,425.2911 555.2874,413.6845 544.4317,398.5167 587.2572,462.9531 599.0825,479.5855 607.4577,489.8706 614.2438,496.9902 621.4359,503.4847 628.991,509.3868 636.9473,514.6657 656.0805,525.927 672.9472,535.6234 684.5098,541.729 700.0557,548.5592 736.8249,561.7836 750.351,567.1378 763.845,572.9625 780.1435,580.8648 800.0445,591.3512 820.8659,602.7616 834.5169,610.9998"/>
    <polyline points="850.537,588.5285 832.2749,580.3142 806.3944,569.6712 771.367,556.1914 753.7753,550.4914 710.0927,538.1406 688.2869,530.8853 679.2003,527.1588 661.2047,519.1476 649.7747,513.3077 641.3821,508.3629 633.2545,502.8458 623.0644,494.7769 613.3689,485.8505 604.1045,476.0968 590.9372,460.3704 578.3923,444.5214 544.553,398.4277 564.4045,423.6325 572.5599,433.4509 594.8906,458.1324 608.9809,472.8947 618.8724,481.8619 633.9047,494.1488 644.6148,501.6803 653.1359,506.6106 658.9878,509.3924 664.9556,511.7892 686.6169,518.6922 720.4287,527.4822 742.9931,532.7349 763.8008,536.997 778.1031,540.5868 822.2215,553.3802 845.3348,560.7568 860.3836,566.1259"/>
    <polyline points="867.0984,547.8116 852.0124,543.1319 836.2188,539.3011 820.3369,536.1269 797.2003,532.414 742.9015,522.8427 709.0823,515.2459 675.3824,508.3538 666.1632,505.9655 657.2027,502.7185 648.6502,498.2939 637.8731,491.1688 617.2626,475.719 607.009,466.905 594.4735,454.7824 571.0362,430.7852 564.7607,423.454 544.6355,398.4635 552.7415,408.6206 565.0056,422.7314 583.8945,443.7584 604.5527,465.4665 612.5483,474.9436 620.7045,485.3462 626.4382,493.6961 631.5659,502.4168 636.0449,511.3255 642.1009,526.0259 644.9406,534.643 646.3778,540.2348 648.0156,550.8648 648.5456,558.67 649.1793,578.564 650.8722,591.5379 653.0955,601.5338 660.6264,629.1198 666.3928,654.5734 668.3735,662.1305 672.1092,673.4905 676.9018,684.5455 682.575,695.1155 689.1207,705.1189"/>
    <polyline points="682.0387,718.1288 674.7796,707.9193 668.627,697.0347 663.8011,685.5042 660.3551,673.5876 657.9729,661.7497 653.4979,635.3726 648.3755,610.1096 646.8356,599.6445 646.2203,592.8499 646.0239,583.0593 647.0708,565.2598 647.2709,556.7359 647.0348,550.9779 646.3557,545.048 644.4885,535.7309 641.8772,526.0722 637.5148,513.0083 633.6471,503.1842 629.0563,493.7251 623.7705,484.7544 616.2676,473.4752 610.4422,465.8528 604.5894,459.3457 587.4469,442.6082 556.0051,410.8518 544.7755,398.5086 554.5705,408.358 569.3722,421.6449 596.7834,447.0433 602.3419,452.4794 609.6368,460.3156 615.1514,467.3582 622.0991,478.4791 628.5975,490.6452 632.8457,500.4179 636.1063,510.7272 639.5312,524.694 641.5081,535.0531 642.8107,545.1129 643.241,551.6099 643.2538,557.9617 640.6729,588.8899 640.3958,598.9083 640.6044,605.824 641.8991,620.0563 649.376,676.5702 651.9748,688.7106 654.551,696.72 656.1289,700.6368 661.9237,711.9355 666.4939,719.1692 671.4996,726.1936"/>
    <polyline points="660.3028,731.4441 655.453,724.1664 651.0727,716.7254 645.4881,705.2331 641.3704,693.2433 639.5437,685.1085 638.3389,676.9751 635.397,642.2173 633.6125,616.5137 633.2837,605.8182 634.2284,588.828 637.5464,556.6684 637.924,546.4964 637.8069,539.5797 636.9807,528.9705 635.4401,518.2204 633.3062,507.576 630.3442,497.3273 626.4478,487.6861 620.4681,475.7966 613.9798,465.1945 608.745,458.5474 601.7002,450.9275 594.2603,443.6142 570.182,421.6628 555.0775,408.3078 545.0703,398.4784 559.8718,413.0573 596.0395,446.0646 601.7957,451.7719 607.2582,457.7679 614.2012,466.959 618.9163,474.8936 624.4777,486.6325 627.9291,496.1015 630.5772,506.0399 632.4607,516.4468 633.6976,527.1066 634.1023,537.7922 633.7848,548.3746 633.0629,558.77 629.0664,591.9487 627.624,609.168 627.553,619.8666 628.4133,661.458 629.1664,677.3202 630.0758,685.473 631.5619,693.6514 635.01,705.8678 638.0957,713.8391 641.766,721.5983 646.0018,729.1458 650.7493,736.4922"/>
    <polyline points="872.3094,534.5129 860.9982,531.0326 853.0889,529.1746 844.9409,527.7346 832.5888,526.1048 816.3018,524.7072 796.6912,524.3274 781.3172,523.4961 766.1924,522.0232 751.6493,519.8568 738.3702,517.1028 714.7375,511.3114 676.1186,503.179 670.0747,501.5862 661.2291,498.3122 655.5031,495.5124 649.9298,492.3265 630.8071,480.1201 617.3422,470.83 606.575,462.2704 583.0641,441.0176 571.2702,429.5645 562.7863,420.0338 544.6816,398.1688 560.3654,416.4896 571.088,427.7248 583.2602,438.6528 604.934,456.2701 618.5204,466.3264 637.3572,478.724 656.5631,490.3889 662.2028,493.3225 667.9614,495.8911 676.791,499.1101 688.6498,502.7331 713.8687,509.2398 733.3876,515.0152 742.6081,517.1813 749.268,518.3845 759.9444,519.6859 775.0644,520.2123 786.8178,519.8636 810.7602,518.2417 818.9845,518.1395 827.3273,518.5505 839.8865,519.8047 852.376,521.7557 860.4486,523.6528 871.9642,527.4523"/>
    <polyline points="869.1346,526.1444 857.403,521.8487 845.1885,518.5829 832.5964,516.4462 824.141,515.6504 815.7389,515.4756 807.4494,515.8473 775.2452,519.1028 763.6927,519.7856 752.7007,519.5834 742.5629,518.4185 733.3234,516.544 724.8616,514.0911 695.131,504.0782 678.1151,497.7825 663.5598,491.4004 652.3092,485.2139 641.6338,478.472 621.1247,464.8301 602.3114,451.5249 583.2391,436.8616 568.5112,424.1335 560.0007,415.5695 544.6577,397.9078 558.025,412.7287 568.6042,423.1243 580.8314,433.4722 594.5526,443.4891 624.3809,463.0857 646.7525,478.2821 657.6516,484.9542 666.3249,489.548 675.1016,493.6374 700.2667,503.8654 713.7306,508.7892 724.6779,512.3173 736.1667,515.1095 745.5375,516.5435 755.8397,517.1354 763.189,516.9328 778.4561,515.5586 806.0241,512.0888 814.0728,511.4676 822.2848,511.4091 830.6042,512.0775 843.0944,514.2671 855.3065,517.751 866.998,522.2884"/>
    <polyline points="867.0142,516.4211 859.3545,513.536 851.3881,511.1311 843.2003,509.3194 830.8658,507.5904 818.7404,506.9482 810.8441,507.2384 772.7172,511.2368 761.9254,511.8667 755.0391,511.8454 742.2782,510.76 730.4273,508.7335 721.9305,506.59 711.1583,502.9234 675.2248,488.6508 660.6128,481.7076 646.8801,473.8553 618.8518,455.5204 596.3266,442.2378 582.339,432.7421 572.2672,424.7349 558.8132,412.3126 544.6624,397.8489 570.1461,419.4582 577.5919,425.2807 585.495,430.908 599.4725,440.0158 619.6301,451.3789 640.9712,464.4781 657.4443,473.5787 671.4558,480.4767 696.8431,490.8589 713.428,497.0494 724.396,500.3739 732.9817,502.1784 741.9804,503.3704 757.5796,504.47 774.0129,504.5634 814.0532,502.4497 821.7423,502.4857 829.5371,502.9224 841.3827,504.2223 849.296,505.5008 857.0674,507.2566 868.2813,510.8011"/>
    <polyline points="924.6014,379.7224 916.7582,382.9247 908.9526,385.6292 895.4397,388.9369 886.8969,390.2752 881.0738,390.83 872.1478,391.1332 866.0664,390.9216 836.1637,388.4118 825.0025,387.0227 805.9722,383.6649 778.6278,378.3178 762.8911,375.9521 718.175,371.2551 687.8909,367.492 674.7959,366.7337 661.8239,366.9563 641.43,368.1074 622.5629,369.6284 611.7852,371.1329 601.5322,373.2347 588.8204,376.6803 574.0545,381.8889 559.7272,387.7884 545.5274,394.5925 577.6685,377.7157 593.0468,370.7869 606.8923,365.3053 617.8843,361.3884 629.2114,357.9893 640.7195,355.097 648.474,353.4352 672.3409,349.1717 692.9668,346.0015 709.7397,344.0922 738.7764,341.8927 758.2867,339.6852 809.1215,333.3985 816.2361,332.1904 826.755,329.7177 836.9818,326.5524 849.9807,321.6424 882.5336,306.637 890.6558,302.5087 914.5139,288.5359"/>
    <polyline points="920.7589,310.7477 893.5563,323.2719 856.9432,337.3926 840.0205,343.1332 825.7632,347.0882 818.4541,348.5731 807.52,350.1861 778.3351,353.2158 751.9193,354.3506 740.0085,354.2769 715.0019,353.4235 697.7473,353.8267 676.3591,355.6019 635.8118,360.7642 628.0346,362.2214 616.6866,364.9892 609.375,367.195 598.9081,370.935 586.144,376.2731 556.3866,390.3488 545.4857,394.9532 559.1115,389.4535 583.3584,377.7049 595.5805,372.4173 609.2815,367.6885 616.6981,365.8283 624.3775,364.3385 636.2543,362.6483 648.4817,361.5999 669.5625,360.6921 687.0362,360.2894 704.5156,360.4097 717.564,360.8661 758.7758,364.584 774.1317,365.3988 789.1339,365.1196 818.5416,362.624 829.7499,361.2078 837.1558,359.8885 847.9208,357.4348 861.6961,353.8086 893.4965,344.4346 926.3996,332.5795"/>
    <polyline points="927.2233,349.1463 891.547,360.9512 876.1467,364.9792 859.7826,368.3758 846.2541,370.6111 835.6068,371.8294 821.0355,372.8119 791.5292,373.8053 776.396,373.2376 760.8361,371.5373 736.4684,367.5911 723.6483,366.0712 706.0411,364.6004 675.019,362.5557 661.7307,362.0633 648.7918,362.038 640.4097,362.3974 628.2003,363.4794 620.302,364.5302 612.6643,365.955 605.4235,367.9238 598.6263,370.2602 583.1212,376.7659 556.3605,390.2102 545.3371,394.8059 555.7666,390.0709 581.8102,376.8081 597.0758,370.2452 607.2908,366.8554 614.6455,365.0776 622.3834,363.7647 630.4001,362.8699 642.8307,362.1688 651.4104,362.1157 664.7295,362.6223 678.318,363.6628 696.4799,365.6228 719.0077,368.5914 736.4071,371.3658 760.9448,375.7896 776.6381,377.8999 795.645,379.527 817.7999,380.0173 832.0214,379.6958 845.8666,378.9798 862.1381,377.3546 874.7449,375.6341 880.8655,374.4717 889.7851,372.2356 925.5324,361.4505"/>
    <polyline points="888.583,222.6883 873.382,236.1638 861.8253,244.9721 849.0579,252.8572 835.2825,259.7988 823.3493,264.5935 778.8247,279.8632 724.9775,299.9419 693.5829,310.9481 671.4148,319.2717 650.4752,327.9925 603.8875,350.8419 587.7271,359.4746 575.8041,367.1506 564.9202,375.6574 544.9479,393.6628 561.4122,378.378 571.4767,370.0019 582.7686,362.3047 598.0491,353.6906 641.6314,332.4875 678.0851,316.1487 688.6272,311.8267 710.4299,303.7497 725.3573,297.7879 764.8167,279.6745 805.0285,264.1646 819.603,257.8415 830.4925,251.9981 838.1648,247.0873 847.5994,240.1889 872.4592,220.9017"/>
    <polyline points="858.0209,221.6286 841.9838,233.0743 819.5239,250.0478 809.4452,256.6564 798.6883,262.7593 783.9591,269.7484 764.4239,277.9643 754.2502,282.5709 744.0257,287.5279 720.4514,299.7271 682.9134,316.1667 630.7045,342.0725 621.9275,346.0207 600.2484,354.8852 585.2157,362.617 573.6779,369.5258 565.7673,375.2001 553.8859,385.2049 544.8956,393.7858 553.9924,385.8352 561.1478,380.2809 568.8388,375.0525 579.9815,368.5518 588.7233,364.1113 597.6258,360.1365 621.9013,351.5762 633.1027,346.3575 657.7929,331.929 677.8337,319.0743 689.9309,312.0145 739.0756,286.1502 752.1886,279.4734 771.2919,270.3635 783.1069,263.9147 793.5139,256.8288 828.6784,228.4222 844.276,216.7241"/>
    <polyline points="802.0717,191.8509 793.8634,199.1471 745.7326,245.0766 736.4148,253.4893 723.8268,263.4056 702.2512,278.6835 696.9597,282.9698 689.2955,289.8051 679.8974,299.3627 665.3156,316.1533 657.1737,324.9123 640.6738,341.7745 631.5537,349.9344 624.0263,355.2488 618.6469,358.3322 610.2939,362.2623 588.1671,371.5701 571.8956,379.1827 555.9066,387.3781 545.2578,393.9839 553.0002,388.5087 563.4897,382.1956 610.9618,357.0364 618.7479,352.0868 625.9891,346.3203 630.4157,342.0716 636.5083,335.1719 658.2902,308.4319 672.614,288.916 681.0597,279.6212 692.5399,268.6052 716.0581,248.9263 735.6405,230.8175 767.8543,202.5602 784.7793,186.2116"/>
  </g>
</svg>
