<?xml version="1.0" encoding="utf-8" ?>
<svg xmlns="http://www.w3.org/2000/svg" xmlns:cc="http://creativecommons.org/ns#" xmlns:dc="http://purl.org/dc/elements/1.1/" xmlns:ev="http://www.w3.org/2001/xml-events" xmlns:inkscape="http://www.inkscape.org/namespaces/inkscape" xmlns:rdf="http://www.w3.org/1999/02/22-rdf-syntax-ns#" xmlns:sodipodi="http://sodipodi.sourceforge.net/DTD/sodipodi-0.dtd" xmlns:xlink="http://www.w3.org/1999/xlink" baseProfile="tiny" height="25.4cm" version="1.2" viewBox="0 0 960.0 960.0" width="25.4cm">
  <metadata>
    <rdf:RDF>
      <cc:Work>
        <dc:format>image/svg+xml</dc:format>
        <dc:source/>
        <dc:date>2021-02-08T21:21:31.925877</dc:date>
      </cc:Work>
    </rdf:RDF>
  </metadata>
  <defs/>
  <g fill="none" id="layer1" inkscape:groupmode="layer" inkscape:label="1" stroke="#00f" style="display:inline">
    <polygon points="473.6908,489.4211 471.9492,487.9842 470.5268,486.2307 469.48,484.23 468.663,480.1885 468.8504,477.9383 469.48,475.77 470.5268,473.7693 471.9492,472.0158 473.6908,470.5789 475.6827,469.5155 477.8457,468.8679 480.0942,468.6618 482.339,468.9053 484.491,469.5887 486.4649,470.685 488.1824,472.1507 490.4482,475.5957 491.1138,477.7533 491.3386,480.0 491.1138,482.2467 490.4482,484.4043 488.1824,487.8493 486.4649,489.315 484.491,490.4113 482.339,491.0947 480.0942,491.3382 477.8457,491.1321 475.6827,490.4845"/>
    <line x1="463.2892" x2="454.9337" y1="495.3298" y2="502.9946"/>
    <line x1="452.1377" x2="442.8503" y1="499.5132" y2="506.0175"/>
    <line x1="442.9712" x2="433.714" y1="506.1894" y2="512.7367"/>
    <line x1="429.7056" x2="419.6467" y1="506.1641" y2="511.3969"/>
    <line x1="421.4153" x2="411.6512" y1="514.5849" y2="520.349"/>
    <line x1="406.655" x2="396.1771" y1="510.3334" y2="514.6668"/>
    <line x1="401.0419" x2="391.1721" y1="524.6506" y2="530.2319"/>
    <line x1="381.3601" x2="371.4961" y1="535.9152" y2="541.5068"/>
    <line x1="377.0069" x2="367.6439" y1="550.3463" y2="556.7414"/>
    <line x1="373.1423" x2="364.2374" y1="564.2292" y2="571.2483"/>
    <line x1="362.2294" x2="353.1701" y1="568.6414" y2="575.46"/>
    <line x1="357.2366" x2="348.4678" y1="580.6359" y2="587.8242"/>
    <line x1="348.8262" x2="340.0812" y1="588.2599" y2="595.4772"/>
    <line x1="325.9381" x2="335.5669" y1="575.7975" y2="569.8102"/>
    <line x1="334.1701" x2="343.8921" y1="567.5239" y2="561.689"/>
    <line x1="340.0846" x2="350.0785" y1="554.9808" y2="549.625"/>
    <line x1="350.4815" x2="360.4445" y1="550.3718" y2="544.9586"/>
    <line x1="354.4959" x2="364.9546" y1="532.5534" y2="528.1739"/>
    <line x1="374.0797" x2="384.6718" y1="520.4629" y2="516.4166"/>
    <line x1="371.6461" x2="360.8107" y1="513.4033" y2="516.7436"/>
    <polygon points="360.7322,516.488 357.686,504.402 355.8612,492.0724 355.2756,480.0 355.8612,467.9276 357.6126,455.9687 360.5133,444.2353 364.6795,432.4883 369.9973,421.2157 376.2037,410.8443 383.3848,401.1224 391.7398,391.8733 400.9761,383.5044 410.6872,376.3086 421.0492,370.0865 432.3137,364.7516 443.6927,360.6771 455.7833,357.6492 467.7396,355.8796 479.8111,355.2757 491.8843,355.8431 503.8459,357.5764 515.5836,360.4593 527.337,364.6077 538.6176,369.9084 548.9984,376.0991 558.7312,383.2654 567.9929,391.6064 576.3758,400.83 583.5863,410.5302 589.8241,420.8828 595.176,432.1392 599.3778,443.8735 602.314,455.598 604.1388,467.9276 604.7244,480.0 604.1388,492.0724 602.314,504.402 599.2678,516.488 595.176,527.8608 590.0027,538.7843 583.7963,549.1557 576.6152,558.8776 568.2602,568.1267 559.0239,576.4956 549.3128,583.6914 538.6176,590.0916 527.6863,595.2484 516.3073,599.3229 504.5873,602.2769 492.6363,604.0826 480.1889,604.7243 468.1157,604.1569 456.1541,602.4236 444.0544,599.4324 432.663,595.3923 421.3824,590.0916 411.0016,583.9009 400.9761,576.4956 392.0071,568.3936 383.8645,559.4616 376.4137,549.4698 370.1759,539.1172 364.824,527.8608"/>
    <line x1="351.1861" x2="340.4516" y1="523.8192" y2="527.4709"/>
    <line x1="340.973" x2="330.2786" y1="528.9766" y2="532.744"/>
    <line x1="333.4486" x2="322.9806" y1="541.001" y2="545.3582"/>
    <line x1="324.8851" x2="314.5441" y1="549.7578" y2="554.4083"/>
    <polygon points="320.0711,565.6445 315.9906,557.5445 312.4647,549.6 309.1956,541.1399 306.4632,532.8887 304.0368,524.1496 302.0502,515.3001 300.5636,506.7363 299.4516,497.735 298.8094,489.0669 298.5827,480.0 298.8094,470.9331 299.4516,462.265 300.5636,453.2637 302.0502,444.6999 303.9452,436.2171 306.3534,427.473 309.0686,419.2161 312.32,410.7492 315.9906,402.4555 319.893,394.6889 324.3568,386.7936 328.9997,379.4457 334.2139,372.0247 339.553,365.1659 345.4676,358.2901 351.7186,351.7186 358.0101,345.7215 364.8736,339.7925 372.0247,334.2139 379.1314,329.2095 386.7936,324.3568 394.6889,319.893 402.4555,315.9906 410.7492,312.32 418.8601,309.1956 427.473,306.3534 436.2171,303.9452 444.6999,302.0502 453.2637,300.5636 462.265,299.4516 470.9331,298.8094 480.0,298.5827 489.0669,298.8094 497.735,299.4516 506.7363,300.5636 515.3001,302.0502 524.1496,304.0368 532.527,306.3534 541.1399,309.1956 549.2508,312.32 557.5445,315.9906 565.3111,319.893 573.2064,324.3568 580.5543,328.9997 587.9753,334.2139 595.1264,339.7925 601.9899,345.7215 608.2814,351.7186 614.2785,358.0101 620.2075,364.8736 625.7861,372.0247 630.7905,379.1314 635.4487,386.4696 639.9289,394.3555 643.8475,402.1139 647.5353,410.4 650.8044,418.8601 653.5368,427.1113 655.8709,435.484 657.8759,444.3293 659.4364,453.2637 660.5484,462.265 661.1906,470.9331 661.4173,480.0 661.1906,489.0669 660.5484,497.735 659.4364,506.7363 657.9498,515.3001 656.0548,523.7829 653.6466,532.527 650.8044,541.1399 647.68,549.2508 644.0094,557.5445 640.107,565.3111 635.6432,573.2064 631.0003,580.5543 626.0107,587.6713 620.447,594.8341 614.5324,601.7099 608.2814,608.2814 601.9899,614.2785 595.1264,620.2075 587.9753,625.7861 580.8686,630.7905 573.5304,635.4487 565.6445,639.9289 557.5445,644.0094 549.6,647.5353 541.1399,650.8044 532.8887,653.5368 524.516,655.8709 515.6707,657.8759 506.7363,659.4364 497.735,660.5484 489.0669,661.1906 480.0,661.4173 470.9331,661.1906 462.265,660.5484 453.2637,659.4364 444.6999,657.9498 436.2171,656.0548 427.473,653.6466 418.8601,650.8044 410.7492,647.68 402.4555,644.0094 394.6889,640.107 386.7936,635.6432 379.4457,631.0003 372.0247,625.7861 364.8736,620.2075 358.2901,614.5324 351.7186,608.2814 345.4676,601.7099 339.7925,595.1264 334.2139,587.9753 329.2095,580.8686 324.3568,573.2064"/>
    <line x1="306.1027" x2="316.9713" y1="531.6913" y2="528.4606"/>
    <line x1="315.1377" x2="326.1285" y1="521.7995" y2="519.0128"/>
    <line x1="323.9819" x2="335.1261" y1="509.271" y2="507.1802"/>
    <line x1="334.4363" x2="345.6335" y1="503.2042" y2="501.4193"/>
    <line x1="346.4861" x2="357.6122" y1="506.2138" y2="504.0293"/>
    <line x1="355.6985" x2="366.9986" y1="490.2624" y2="489.3295"/>
    <line x1="367.0908" x2="378.3817" y1="490.3855" y2="489.3469"/>
    <polygon points="378.4436,489.9965 377.9529,480.1889 378.4436,470.0035 379.9483,459.9179 382.3417,450.3942 385.784,440.7955 390.1671,431.5884 395.2362,423.178 401.3303,415.0021 407.942,407.7416 415.5132,400.9108 423.4136,395.0787 432.1714,389.8553 441.0573,385.6755 450.6655,382.2599 460.1958,379.8929 469.9095,378.4529 480.0945,377.9528 489.9025,378.4344 499.9895,379.9297 509.8769,382.4243 519.1172,385.7478 528.3285,390.1223 536.7435,395.1836 544.6331,401.0303 552.1917,407.8751 558.7899,415.1479 564.8689,423.335 570.1004,432.088 574.2884,440.97 577.6033,450.2135 580.0887,460.1032 581.5378,469.8155 582.0472,480.0 581.5378,490.1845 580.0887,499.8968 577.6033,509.7865 574.2884,519.03 570.1004,527.912 564.8689,536.665 558.7899,544.8521 552.1917,552.1249 544.925,558.7298 536.7435,564.8164 528.3285,569.8777 519.1172,574.2522 509.8769,577.5757 499.9895,580.0703 489.9025,581.5656 480.0945,582.0472 469.9095,581.5471 460.1958,580.1071 450.6655,577.7401 441.0573,574.3245 432.1714,570.1447 423.4136,564.9213 415.2209,558.8499 407.942,552.2584 401.3303,544.9979 395.2362,536.822 390.1671,528.4116 385.784,519.2045 382.3417,509.6058 379.9483,500.0821"/>
    <line x1="379.6748" x2="390.822" y1="498.6678" y2="496.5936"/>
    <line x1="389.3144" x2="400.6501" y1="482.0455" y2="481.7898"/>
    <line x1="400.729" x2="412.0534" y1="483.964" y2="483.3977"/>
    <line x1="412.2531" x2="423.5443" y1="473.7833" y2="474.8194"/>
    <line x1="425.5466" x2="436.4372" y1="464.2231" y2="467.3785"/>
    <polygon points="436.6713,466.5972 438.08,462.6873 440.0178,458.5889 442.1455,455.0189 444.8285,451.3647 447.8629,447.9965 451.2184,444.9481 454.8614,442.2499 458.7556,439.9289 462.5128,438.1525 466.4168,436.7275 470.8046,435.5876 475.2842,434.8915 479.811,434.6461 484.3397,434.8538 488.454,435.4405 492.8602,436.5071 497.1379,438.0082 501.2444,439.9289 505.1386,442.2499 508.7816,444.9481 511.8693,447.7298 514.6894,450.7825 517.4329,454.3915 519.8024,458.2564 521.7743,462.3386 523.3287,466.5972 524.4503,470.9897 525.1278,475.4722 525.3543,480.0 525.1278,484.5278 524.5238,488.6396 523.4389,493.0413 521.92,497.3127 519.9822,501.4111 517.8545,504.9811 515.1715,508.6353 512.1371,512.0035 508.7816,515.0519 505.1386,517.7501 501.2444,520.0711 497.4872,521.8475 493.2222,523.3842 489.1954,524.4124 484.7158,525.1085 480.189,525.3539 475.6603,525.1462 471.546,524.5595 467.1398,523.4929 462.8621,521.9918 458.7556,520.0711 454.8614,517.7501 451.2184,515.0519 447.8629,512.0035 444.8285,508.6353 442.1455,504.9811 439.8407,501.0772 438.08,497.3127 436.6713,493.4028 435.5497,489.0103 434.8722,484.5278 434.6457,480.0 434.8722,475.4722 435.5497,470.9897"/>
    <line x1="443.776" x2="452.832" y1="452.7084" y2="459.5313"/>
    <line x1="458.3811" x2="469.1905" y1="473.1533" y2="476.5767"/>
    <polygon points="461.3909,492.9597 459.1872,489.0045 457.8132,484.6902 457.3236,480.189 457.6692,476.0518 458.8987,471.6942 460.9693,467.6676 463.7987,464.1327 467.2739,461.2304 471.2564,459.0763 475.5875,457.7563 479.7165,457.3246 484.227,457.7203 488.5689,459.0041 492.5693,461.125 496.0685,463.9983 498.7165,467.1958 500.8871,471.1693 502.2252,475.4948 502.6772,480.0 502.2252,484.5052 500.8871,488.8307 498.9272,492.4905 496.0685,496.0017 492.5693,498.875 488.5689,500.9959 484.5977,502.2062 480.0945,502.677 475.9588,502.3142 471.6063,501.0666 467.5884,498.9791 464.0654,496.1351"/>
    <line x1="490.8095" x2="512.4471" y1="483.4233" y2="490.2107"/>
    <line x1="514.0106" x2="525.3475" y1="480.5906" y2="480.7874"/>
    <line x1="524.7249" x2="535.9062" y1="472.4704" y2="470.588"/>
    <line x1="535.6284" x2="546.7541" y1="469.0653" y2="466.8784"/>
    <line x1="545.1591" x2="556.0189" y1="460.4403" y2="457.1804"/>
    <line x1="557.6699" x2="568.7656" y1="463.6602" y2="461.3259"/>
    <line x1="579.3991" x2="590.4434" y1="456.9031" y2="454.3368"/>
    <line x1="591.3302" x2="602.4633" y1="458.5076" y2="456.3584"/>
    <line x1="604.1909" x2="615.4809" y1="468.4757" y2="467.4281"/>
    <line x1="615.6989" x2="627.0072" y1="470.0529" y2="469.224"/>
    <line x1="626.5295" x2="637.801" y1="463.9895" y2="462.7579"/>
    <line x1="636.3088" x2="647.4737" y1="452.3231" y2="450.3462"/>
    <line x1="645.9014" x2="656.9615" y1="442.5368" y2="440.0392"/>
    <polygon points="644.9328,438.4795 646.8383,446.9583 648.2535,455.1494 649.2667,463.3999 649.8756,471.69 650.0787,480.0 649.8756,488.31 649.2667,496.6001 648.2535,504.8506 646.8383,513.0417 644.9328,521.5205 642.7071,529.5294 640.0928,537.4201 637.0961,545.1736 633.7241,552.7714 629.9849,560.1954 625.8875,567.4278 621.4415,574.4514 616.6577,581.2494 611.3077,588.0975 605.8693,594.384 600.1302,600.3974 594.1041,606.1231 587.8055,611.5475 581.2494,616.6577 574.4514,621.4415 567.4278,625.8875 560.1954,629.9849 552.7714,633.7241 545.1736,637.0961 537.4201,640.0928 529.5294,642.7071 521.5205,644.9328 513.0417,646.8383 504.8506,648.2535 496.6001,649.2667 488.31,649.8756 480.0,650.0787 471.69,649.8756 463.3999,649.2667 455.1494,648.2535 446.9583,646.8383 438.4795,644.9328 430.4706,642.7071 422.5799,640.0928 414.8264,637.0961 407.2286,633.7241 399.8046,629.9849 392.5722,625.8875 385.5486,621.4415 378.7506,616.6577 371.9025,611.3077 365.616,605.8693 359.6026,600.1302 353.8769,594.1041 348.4525,587.8055 343.3423,581.2494 338.5585,574.4514 334.1125,567.4278 330.0151,560.1954 326.2759,552.7714 322.7595,544.8244 319.78,537.0643 317.1832,529.1678 314.9754,521.1539 313.1617,513.0417 311.7465,504.8506 310.7333,496.6001 310.1244,488.31 309.9213,480.0 310.1244,471.69 310.7333,463.3999 311.8022,454.7756 313.2355,446.5877 315.0672,438.4795 317.2929,430.4706 319.9072,422.5799 322.9039,414.8264 326.2759,407.2286 330.0151,399.8046 334.1125,392.5722 338.5585,385.5486 343.3423,378.7506 348.4525,372.1945 353.8769,365.8959 359.6026,359.8698 365.616,354.1307 371.9025,348.6923 378.7506,343.3423 385.5486,338.5585 392.5722,334.1125 399.8046,330.0151 407.2286,326.2759 414.8264,322.9039 422.5799,319.9072 430.4706,317.2929 438.4795,315.0672 446.5877,313.2355 454.7756,311.8022 463.3999,310.7333 471.69,310.1244 480.0,309.9213 488.31,310.1244 496.6001,310.7333 504.8506,311.7465 513.4123,313.2355 521.5205,315.0672 529.5294,317.2929 537.4201,319.9072 545.1736,322.9039 552.7714,326.2759 560.1954,330.0151 567.4278,334.1125 574.4514,338.5585 581.2494,343.3423 587.8055,348.4525 594.1041,353.8769 600.1302,359.6026 605.8693,365.616 611.3077,371.9025 616.4325,378.4472 621.2313,385.2346 625.6929,392.2483 629.8064,399.4716 633.7241,407.2286 637.0961,414.8264 640.0928,422.5799 642.7071,430.4706"/>
    <line x1="633.3196" x2="622.3682" y1="438.8718" y2="441.8095"/>
    <line x1="623.0714" x2="612.0659" y1="444.5347" y2="447.2628"/>
    <line x1="610.1769" x2="599.3288" y1="440.4133" y2="443.7122"/>
    <line x1="594.5179" x2="584.1072" y1="430.5851" y2="435.0774"/>
    <line x1="579.424" x2="569.4816" y1="425.4912" y2="430.9421"/>
    <line x1="556.0256" x2="546.5224" y1="430.5211" y2="436.7059"/>
    <polygon points="541.2038,429.4659 545.9413,435.8258 549.8417,442.294 553.2559,449.452 555.9387,456.9149 557.7892,464.2379 558.9739,472.0794 559.3701,480.0 558.9739,487.9206 557.7892,495.7621 555.9387,503.0851 553.2559,510.548 549.8417,517.706 545.9413,524.1742 541.2038,530.5341 536.1231,536.1231 530.5341,541.2038 524.1742,545.9413 517.706,549.8417 510.548,553.2559 503.0851,555.9387 495.7621,557.7892 487.9206,558.9739 480.0,559.3701 472.0794,558.9739 464.2379,557.7892 456.9149,555.9387 449.452,553.2559 442.294,549.8417 435.8258,545.9413 429.4659,541.2038 423.8769,536.1231 418.5563,530.2422 414.0587,524.1742 410.1583,517.706 406.7441,510.548 404.0613,503.0851 402.1366,495.3917 400.9893,487.5446 400.6299,480.0 401.0261,472.0794 402.2108,464.2379 404.0613,456.9149 406.7441,449.452 410.1583,442.294 414.0587,435.8258 418.5563,429.7578 423.8769,423.8769 429.4659,418.7962 435.8258,414.0587 442.294,410.1583 449.452,406.7441 456.9149,404.0613 464.6083,402.1366 472.4554,400.9893 480.0,400.6299 487.5446,400.9893 495.3917,402.1366 503.0851,404.0613 510.199,406.5995 517.3731,409.9796 524.1742,414.0587 530.5341,418.7962 536.1231,423.8769"/>
    <line x1="536.7066" x2="528.6057" y1="424.4665" y2="432.3998"/>
    <line x1="529.063" x2="520.8859" y1="432.8714" y2="440.7262"/>
    <line x1="507.4983" x2="501.9987" y1="430.4225" y2="440.338"/>
    <line x1="494.762" x2="491.0715" y1="437.1153" y2="447.8365"/>
    <line x1="472.6192" x2="475.0795" y1="446.7947" y2="457.8631"/>
    <line x1="462.7069" x2="458.3837" y1="438.0719" y2="427.5899"/>
    <line x1="461.2599" x2="457.5119" y1="426.494" y2="415.7928"/>
    <line x1="468.437" x2="466.5098" y1="412.9584" y2="401.7848"/>
    <line x1="470.8963" x2="469.5958" y1="401.1537" y2="389.89"/>
    <line x1="470.8273" x2="469.6807" y1="389.7563" y2="378.4759"/>
    <line x1="477.6095" x2="477.3439" y1="377.9808" y2="366.6453"/>
    <line x1="489.075" x2="489.9825" y1="366.9779" y2="355.6757"/>
    <line x1="487.4146" x2="488.0886" y1="355.4962" y2="344.1776"/>
    <line x1="498.8651" x2="500.4372" y1="345.2512" y2="334.0221"/>
    <line x1="492.1803" x2="493.1172" y1="333.1025" y2="321.8027"/>
    <line x1="492.7588" x2="493.6701" y1="321.7734" y2="310.4715"/>
    <line x1="504.6663" x2="506.3107" y1="311.7194" y2="300.5007"/>
    <line x1="518.208" x2="515.6608" y1="314.2685" y2="325.3173"/>
    <line x1="517.1122" x2="514.4613" y1="325.6591" y2="336.6834"/>
    <line x1="524.8136" x2="521.3664" y1="339.5758" y2="350.3776"/>
    <line x1="515.2639" x2="512.3252" y1="348.5862" y2="359.5373"/>
    <line x1="516.4752" x2="513.1593" y1="360.7283" y2="371.5712"/>
    <line x1="508.0252" x2="505.2227" y1="370.1322" y2="381.119"/>
    <line x1="503.2047" x2="500.6264" y1="380.626" y2="391.6676"/>
    <line x1="502.8499" x2="499.9937" y1="392.2165" y2="403.1894"/>
    <line x1="504.4035" x2="500.9173" y1="404.4746" y2="415.264"/>
    <line x1="495.7948" x2="493.1624" y1="413.8274" y2="424.8562"/>
    <polygon points="473.1143,412.3179 479.9055,411.9686 486.6976,412.299 493.4228,413.3058 499.6524,414.8688 506.0563,417.1561 512.2,420.0713 517.7078,423.3749 523.1724,427.4222 528.2056,431.9948 532.5178,436.7546 536.5727,442.2135 540.0623,448.05 542.8076,453.8564 545.1038,460.2572 546.6755,466.4845 547.6916,473.2083 548.0315,480.0 547.6916,486.7917 546.6755,493.5155 545.1038,499.7428 542.8076,506.1436 540.0623,511.95 536.5727,517.7865 532.7572,522.953 528.2056,528.0052 523.4638,532.3372 518.0218,536.4148 512.2,539.9287 506.0563,542.8439 500.0139,545.021 493.4228,546.6942 486.6976,547.701 479.9055,548.0314 473.4904,547.7193 466.7625,546.7312 460.1667,545.0763 453.7692,542.7712 447.6337,539.839 442.135,536.5201 436.6817,532.4577 431.9279,528.1389 427.3623,523.0994 423.3226,517.6292 419.8492,511.783 417.12,505.969 414.9513,499.9236 413.2873,493.3302 412.2898,486.6036 411.9688,480.189 412.2898,473.3964 413.2142,467.0406 414.8416,460.4381 416.9767,454.3807 419.8492,448.217 423.3226,442.3708 427.1237,437.1937 431.6612,432.1289 436.6817,427.5423 441.8216,423.6911 447.6337,420.161 453.7692,417.2288 460.1667,414.9237 466.7625,413.2688"/>
    <line x1="443.0285" x2="437.7469" y1="409.7667" y2="399.7333"/>
    <line x1="442.0222" x2="437.275" y1="397.6243" y2="387.3274"/>
    <polygon points="445.3746,396.16 453.5557,393.2316 462.35,391.0251 470.9445,389.7445 480.0,389.2913 489.0555,389.7445 498.0206,391.0994 506.4443,393.2316 514.9744,396.305 523.1551,400.2146 530.5913,404.71 537.5632,409.8962 544.2742,415.9931 550.343,422.7294 555.5001,429.7229 560.1422,437.5113 563.84,445.3746 566.7684,453.5557 568.9749,462.35 570.2925,471.3206 570.7087,480.0 570.2555,489.0555 568.9006,498.0206 566.7684,506.4443 563.695,514.9744 559.9645,522.8223 555.29,530.5913 550.1038,537.5632 544.0069,544.2742 537.2706,550.343 530.2771,555.5001 522.4887,560.1422 514.6254,563.84 506.4443,566.7684 497.65,568.9749 488.6794,570.2925 480.0,570.7087 470.9445,570.2555 461.9794,568.9006 453.5557,566.7684 445.0256,563.695 437.1777,559.9645 429.4087,555.29 422.1452,549.8633 415.7258,544.0069 409.8962,537.5632 404.4999,530.2771 399.8578,522.4887 396.16,514.6254 393.2316,506.4443 391.0251,497.65 389.7445,489.0555 389.2913,480.0 389.7445,470.9445 391.0251,462.35 393.1222,453.9174 396.16,445.3746 399.8578,437.5113 404.4999,429.7229 409.8962,422.4368 415.9931,415.7258 422.4368,409.8962 429.7229,404.4999 437.5113,399.8578"/>
    <line x1="450.1737" x2="446.8597" y1="382.4088" y2="371.5654"/>
    <line x1="440.7795" x2="436.8575" y1="373.6134" y2="362.9748"/>
    <line x1="437.7149" x2="433.8708" y1="362.6623" y2="351.9952"/>
    <line x1="430.7532" x2="426.6493" y1="353.1619" y2="342.5921"/>
    <line x1="425.7342" x2="421.5599" y1="342.9509" y2="332.4087"/>
    <line x1="424.3921" x2="420.4201" y1="331.3185" y2="320.6984"/>
    <line x1="415.4643" x2="411.162" y1="322.6408" y2="312.1502"/>
    <line x1="397.8605" x2="403.3365" y1="331.0709" y2="340.9995"/>
    <line x1="399.7151" x2="405.4498" y1="343.0592" y2="352.8407"/>
    <line x1="404.1947" x2="410.0259" y1="353.5849" y2="363.3091"/>
    <line x1="409.0479" x2="414.9605" y1="363.9012" y2="373.5761"/>
    <line x1="412.7092" x2="424.95" y1="374.9851" y2="394.0748"/>
    <line x1="409.4992" x2="417.3326" y1="406.2214" y2="414.419"/>
    <line x1="411.6045" x2="420.1539" y1="420.4171" y2="427.865"/>
    <line x1="426.3687" x2="435.3073" y1="438.1434" y2="445.1195"/>
    <line x1="418.2573" x2="407.9668" y1="451.4322" y2="446.6709"/>
    <line x1="405.3619" x2="394.6993" y1="453.0045" y2="449.1479"/>
    <line x1="399.434" x2="389.3633" y1="438.3205" y2="433.1105"/>
    <line x1="388.3189" x2="378.1321" y1="435.187" y2="430.2077"/>
    <line x1="373.5254" x2="362.8779" y1="441.0192" y2="437.1211"/>
    <line x1="365.8214" x2="355.4415" y1="429.8061" y2="425.2431"/>
    <line x1="352.2501" x2="341.6043" y1="433.1695" y2="429.267"/>
    <line x1="345.8661" x2="335.5481" y1="418.8828" y2="414.1815"/>
    <line x1="339.3668" x2="329.3216" y1="406.3743" y2="401.1154"/>
    <line x1="331.8291" x2="321.951" y1="396.5005" y2="390.9339"/>
    <line x1="342.413" x2="351.5855" y1="380.017" y2="386.6826"/>
    <line x1="347.2881" x2="356.7675" y1="392.9024" y2="399.1236"/>
    <line x1="352.1689" x2="362.002" y1="406.6077" y2="412.2533"/>
    <line x1="374.8339" x2="384.3944" y1="412.9458" y2="419.0416"/>
    <line x1="378.2626" x2="369.0137" y1="407.8496" y2="401.2905"/>
    <line x1="375.1486" x2="366.411" y1="393.286" y2="386.0598"/>
    <line x1="370.5575" x2="362.1388" y1="381.2601" y2="373.6648"/>
    <line x1="366.541" x2="358.4368" y1="368.9797" y2="361.0497"/>
    <line x1="359.1539" x2="351.0975" y1="360.3213" y2="352.3427"/>
    <line x1="335.2326" x2="344.2805" y1="370.6627" y2="377.4963"/>
    <line x1="383.9208" x2="391.3115" y1="368.2144" y2="376.8133"/>
    <line x1="387.1297" x2="394.8689" y1="380.5603" y2="388.847"/>
    <line x1="391.7073" x2="399.7339" y1="391.9059" y2="399.9144"/>
    <line x1="395.3434" x2="403.8091" y1="404.5705" y2="412.1135"/>
    <line x1="431.7066" x2="438.6057" y1="417.013" y2="426.0112"/>
    <line x1="390.266" x2="379.0492" y1="466.7385" y2="465.0808"/>
    <line x1="379.6282" x2="368.4758" y1="461.584" y2="459.5378"/>
    <line x1="367.635" x2="356.3985" y1="464.8194" y2="463.3013"/>
    <line x1="358.0547" x2="346.9687" y1="453.8176" y2="451.4374"/>
    <line x1="346.1733" x2="335.021" y1="455.433" y2="453.3857"/>
    <line x1="333.6769" x2="322.4212" y1="462.2021" y2="460.833"/>
    <line x1="324.1181" x2="312.9836" y1="450.0123" y2="447.8703"/>
    <line x1="315.0336" x2="304.0358" y1="438.6134" y2="435.8543"/>
    <line x1="319.4416" x2="330.1455" y1="423.895" y2="427.6353"/>
    <polygon points="327.9638,434.3555 330.435,426.8141 333.28,419.4056 336.4918,412.1485 340.0622,405.0611 348.0321,391.7792 357.2585,379.3374 367.6536,367.854 373.3988,362.3793 379.4105,357.1986 391.8578,347.9796 405.1444,340.0176 419.1437,333.3885 433.7224,328.1553 448.7418,324.3679 464.0588,322.0623 471.9721,321.463 479.9055,321.2599 495.3771,322.0064 503.254,322.9723 511.0729,324.3308 526.0968,328.1003 540.6818,333.3161 547.9369,336.5322 555.0222,340.1068 568.2993,348.0846 580.7356,357.3184 592.2128,367.7204 602.6216,379.1914 611.8628,391.6222 619.8485,404.8945 623.4274,411.9777 626.6477,419.2309 631.8723,433.8128 633.9908,441.4608 635.7245,449.2051 637.9844,464.5289 638.7402,480.0 637.9844,495.4711 635.7245,510.7949 631.9818,525.8255 626.792,540.4197 620.2046,554.4387 612.2822,567.7489 607.7313,574.2504 602.8613,580.5164 592.4798,592.0122 581.0274,602.4414 568.6131,611.7048 561.92,615.9689 555.0222,619.8932 541.0308,626.539 533.6308,629.4061 526.0968,631.8997 511.0729,635.6692 495.7532,637.9566 480.2835,638.7399 464.811,638.0118 449.4832,635.7792 441.7358,634.0594 434.0841,631.9545 419.4929,626.756 405.4779,620.1602 392.1724,612.2299 379.7031,603.0406 373.6792,597.8742 367.9209,592.4131 357.4985,580.9545 352.6061,574.706 348.0321,568.2208 340.0622,554.9389 333.4247,540.9436 328.1828,526.368 324.3865,511.3508 322.0718,496.0352 321.4678,488.1222 321.26,480.189 321.9973,464.717 324.239,449.3905"/>
    <line x1="327.1938" x2="338.1086" y1="437.0034" y2="440.0745"/>
    <line x1="322.0218" x2="311.4899" y1="416.9948" y2="412.7945"/>
    <line x1="310.9892" x2="299.7218" y1="460.9706" y2="459.7019"/>
    <line x1="310.0854" x2="321.413" y1="472.5305" y2="473.0285"/>
    <line x1="321.3422" x2="332.6749" y1="485.1119" y2="484.7468"/>
    <line x1="332.6086" x2="343.9464" y1="478.2701" y2="478.4032"/>
    <line x1="343.9423" x2="355.2804" y1="478.801" y2="478.901"/>
    <polygon points="344.5795,493.2072 343.937,480.0 344.5795,466.7928 346.501,453.7103 349.6832,440.8761 354.24,428.0619 360.0533,415.7666 366.8546,404.4271 374.7245,393.8013 383.5887,383.9896 393.6552,374.8444 404.27,366.9597 415.9333,359.9642 427.8873,354.3123 440.3335,349.8474 453.5249,346.5376 466.6047,344.598 479.811,343.9371 493.0191,344.5613 506.1042,346.4646 518.9428,349.629 531.7634,354.168 543.7331,359.7867 555.4157,366.7498 566.3448,374.8444 576.1442,383.7221 585.0356,393.5092 593.1454,404.4271 600.1247,416.1 605.76,428.0619 610.3168,440.8761 613.499,453.7103 615.4205,466.7928 616.063,480.0 615.4205,493.2072 613.4255,506.6604 610.2076,519.4857 605.76,531.9381 600.1247,543.9 593.3548,555.2583 585.2755,566.1987 576.4113,576.0104 566.3448,585.1556 555.73,593.0403 544.3999,599.8574 532.4616,605.5425 520.0279,610.0419 506.8457,613.3883 493.7713,615.3643 480.189,616.0629 466.6047,615.402 453.5249,613.4624 440.6952,610.2623 428.2366,605.832 415.9333,600.0358 404.5843,593.2502 393.6552,585.1556 383.8558,576.2779 374.7245,566.1987 366.8546,555.5729 359.8753,543.9 354.24,531.9381 349.6832,519.1239 346.501,506.2897"/>
    <line x1="322.0879" x2="310.8085" y1="496.1932" y2="497.3499"/>
    <line x1="311.9668" x2="300.7646" y1="506.2986" y2="508.0518"/>
    <line x1="298.6249" x2="309.9608" y1="483.9118" y2="483.6673"/>
    <line x1="388.9243" x2="398.0319" y1="547.5394" y2="540.7854"/>
    <line x1="395.6864" x2="387.255" y1="555.8126" y2="563.3939"/>
    <line x1="393.2758" x2="385.3917" y1="569.6386" y2="577.7876"/>
    <line x1="388.9141" x2="381.3236" y1="581.0767" y2="589.4998"/>
    <line x1="377.1406" x2="369.2284" y1="585.5802" y2="593.7017"/>
    <line x1="373.1975" x2="365.5688" y1="597.4379" y2="605.8264"/>
    <line x1="364.4262" x2="356.7213" y1="604.7777" y2="613.0962"/>
    <line x1="375.5612" x2="382.0886" y1="628.3401" y2="619.0688"/>
    <line x1="385.1087" x2="391.4348" y1="621.1468" y2="611.737"/>
    <line x1="387.8831" x2="394.4629" y1="609.2784" y2="600.0442"/>
    <line x1="401.2485" x2="407.3063" y1="604.6011" y2="595.0164"/>
    <line x1="407.0129" x2="413.0951" y1="594.8304" y2="585.2612"/>
    <line x1="407.3505" x2="413.955" y1="581.3816" y2="572.1651"/>
    <line x1="410.5235" x2="417.4712" y1="569.6067" y2="560.6461"/>
    <line x1="412.2953" x2="419.8181" y1="556.3526" y2="547.869"/>
    <line x1="414.3606" x2="422.5655" y1="542.6061" y2="534.7804"/>
    <line x1="438.2312" x2="444.1982" y1="547.4906" y2="537.8491"/>
    <line x1="446.202" x2="451.835" y1="539.0422" y2="529.2018"/>
    <line x1="446.2329" x2="441.409" y1="551.8289" y2="562.0902"/>
    <line x1="445.1159" x2="440.7554" y1="563.7327" y2="574.1993"/>
    <line x1="441.548" x2="437.2755" y1="574.5256" y2="585.0284"/>
    <line x1="435.3119" x2="430.8431" y1="584.2081" y2="594.6289"/>
    <line x1="435.6536" x2="431.6221" y1="596.5743" y2="607.172"/>
    <line x1="427.7898" x2="423.439" y1="605.6473" y2="616.1179"/>
    <line x1="413.79" x2="408.6969" y1="611.6946" y2="621.8249"/>
    <line x1="411.5597" x2="406.6711" y1="623.2283" y2="633.4589"/>
    <line x1="401.4983" x2="396.2649" y1="630.8783" y2="640.9369"/>
    <line x1="418.4628" x2="422.3088" y1="650.6617" y2="639.9953"/>
    <line x1="429.7963" x2="433.1432" y1="642.5004" y2="631.667"/>
    <line x1="431.182" x2="434.669" y1="631.0472" y2="620.2581"/>
    <line x1="447.2566" x2="449.7753" y1="623.7188" y2="612.6635"/>
    <line x1="458.212" x2="460.0276" y1="614.3072" y2="603.1149"/>
    <line x1="456.6342" x2="458.7583" y1="602.5162" y2="591.3784"/>
    <line x1="467.1962" x2="468.4766" y1="592.6606" y2="581.3945"/>
    <line x1="473.4682" x2="474.194" y1="581.838" y2="570.5227"/>
    <line x1="473.6693" x2="475.1829" y1="570.4875" y2="547.8607"/>
    <line x1="483.4879" x2="482.9066" y1="547.942" y2="536.6184"/>
    <line x1="476.7357" x2="477.3886" y1="536.5989" y2="525.2791"/>
    <line x1="493.2642" x2="489.9482" y1="523.3714" y2="512.5285"/>
    <line x1="513.7724" x2="522.2155" y1="510.2727" y2="517.8409"/>
    <line x1="533.1119" x2="541.9638" y1="522.5137" y2="529.5993"/>
    <line x1="548.4069" x2="558.1793" y1="520.2506" y2="526.0007"/>
    <line x1="552.6069" x2="561.6828" y1="534.3718" y2="541.1683"/>
    <line x1="564.7252" x2="574.1391" y1="536.8796" y2="543.1995"/>
    <line x1="568.4543" x2="577.2998" y1="550.9378" y2="558.0316"/>
    <line x1="573.9161" x2="582.4539" y1="562.0728" y2="569.534"/>
    <line x1="577.1198" x2="585.2131" y1="575.2936" y2="583.2348"/>
    <line x1="581.5629" x2="589.3755" y1="586.8279" y2="595.0454"/>
    <line x1="585.0523" x2="600.0881" y1="599.0061" y2="615.982"/>
    <line x1="617.1412" x2="608.5699" y1="598.7625" y2="591.3398"/>
    <line x1="609.9217" x2="601.2602" y1="589.7594" y2="582.4421"/>
    <line x1="605.6552" x2="596.6798" y1="577.001" y2="570.0724"/>
    <line x1="601.1465" x2="591.8275" y1="563.9687" y2="557.5096"/>
    <line x1="598.3797" x2="588.5148" y1="547.0774" y2="541.4876"/>
    <line x1="591.7995" x2="581.6359" y1="535.2907" y2="530.2643"/>
    <line x1="587.6992" x2="576.9293" y1="515.4575" y2="511.9117"/>
    <line x1="577.1183" x2="566.3274" y1="511.3317" y2="507.8504"/>
    <line x1="569.5174" x2="558.3277" y1="494.6528" y2="492.8212"/>
    <line x1="557.9162" x2="546.7853" y1="495.122" y2="492.9617"/>
    <line x1="543.2512" x2="532.7093" y1="505.0514" y2="500.8762"/>
    <line x1="513.0554" x2="519.6665" y1="526.059" y2="535.2707"/>
    <line x1="529.2473" x2="536.2826" y1="542.244" y2="551.136"/>
    <line x1="531.0184" x2="537.3957" y1="555.0012" y2="564.3764"/>
    <line x1="546.2374" x2="553.5971" y1="557.6289" y2="566.2543"/>
    <line x1="551.1368" x2="558.2505" y1="568.2944" y2="577.1238"/>
    <line x1="555.4725" x2="562.3336" y1="579.2979" y2="588.325"/>
    <line x1="559.6181" x2="566.253" y1="590.3363" y2="599.5309"/>
    <line x1="564.0654" x2="570.532" y1="601.0794" y2="610.3932"/>
    <line x1="566.6054" x2="572.7915" y1="613.0336" y2="622.536"/>
    <line x1="574.5862" x2="580.892" y1="621.3514" y2="630.7748"/>
    <line x1="559.8955" x2="554.902" y1="642.8771" y2="632.6973"/>
    <line x1="551.0492" x2="546.3126" y1="634.5276" y2="624.2258"/>
    <line x1="549.5666" x2="544.5976" y1="622.6847" y2="612.4929"/>
    <line x1="544.8115" x2="539.826" y1="612.3884" y2="602.2047"/>
    <line x1="538.8426" x2="533.939" y1="602.6812" y2="592.4578"/>
    <line x1="535.5423" x2="530.493" y1="591.6747" y2="581.5224"/>
    <line x1="527.5968" x2="522.8371" y1="582.912" y2="572.6208"/>
    <line x1="506.8889" x2="503.9012" y1="578.441" y2="567.5031"/>
    <line x1="506.7847" x2="503.4366" y1="566.664" y2="555.831"/>
    <line x1="511.8163" x2="507.2711" y1="552.714" y2="542.3263"/>
    <line x1="496.2598" x2="498.0665" y1="580.7435" y2="591.9373"/>
    <line x1="507.4882" x2="512.9425" y1="590.0034" y2="612.0149"/>
    <line x1="518.3128" x2="521.5055" y1="610.5575" y2="621.4373"/>
    <line x1="523.6155" x2="526.9706" y1="620.801" y2="631.6318"/>
    <line x1="524.6065" x2="527.7927" y1="632.344" y2="643.2257"/>
    <line x1="533.8811" x2="537.4732" y1="641.3183" y2="652.0729"/>
    <line x1="514.0253" x2="511.8987" y1="658.198" y2="647.0606"/>
    <line x1="503.5175" x2="501.9497" y1="648.445" y2="637.2153"/>
    <line x1="503.2736" x2="501.6112" y1="637.0248" y2="625.8087"/>
    <line x1="497.0054" x2="495.6973" y1="626.4173" y2="615.1545"/>
    <line x1="485.6938" x2="485.2193" y1="615.9438" y2="604.6152"/>
    <line x1="483.5178" x2="483.198" y1="604.6748" y2="593.3407"/>
    <polygon points="469.1507,592.8656 458.3083,591.2916 447.3063,588.5701 436.9804,584.9079 427.0562,580.2661 417.311,574.4798 408.485,567.9884 400.0583,560.4094 392.4303,552.027 385.8875,543.2391 380.2234,533.8607 375.3449,523.6308 371.512,512.965 368.8368,502.3405 367.1619,491.1314 366.6143,480.189 367.1619,468.8686 368.763,458.0301 371.512,447.035 375.2,436.7183 380.0444,426.4722 385.6772,417.075 392.1907,408.2653 399.7907,399.8575 408.1921,392.2505 416.9964,385.7297 426.3889,380.0891 436.6309,375.2361 446.9446,371.5395 457.9374,368.7813 468.7746,367.1712 480.0945,366.6142 491.4134,367.1901 502.2479,368.8183 512.8746,371.4845 523.1944,375.164 533.4445,379.9998 542.8464,385.6248 551.954,392.3703 560.0756,399.724 567.4495,407.8271 574.2178,416.9179 580.0447,426.6388 584.7277,436.5437 588.5428,447.2158 591.2002,457.8448 592.8565,469.0567 593.3858,480.0 592.8194,491.3194 591.2002,502.1552 588.5428,512.7842 584.7277,523.4563 580.0447,533.3612 574.2178,543.0821 567.6896,551.881 560.3427,560.0087 552.2457,567.3894 543.1606,574.1652 533.4445,580.0002 523.5436,584.6915 513.2361,588.4053 502.2479,591.1817 491.0374,592.8473 480.0945,593.3858"/>
    <line x1="472.6303" x2="472.0162" y1="615.8633" y2="627.1852"/>
    <line x1="479.1004" x2="479.0311" y1="627.3988" y2="638.7372"/>
    <line x1="478.825" x2="478.7411" y1="638.7358" y2="650.0741"/>
    <line x1="489.3471" x2="489.9703" y1="649.8217" y2="661.1431"/>
    <line x1="465.7373" x2="466.6287" y1="660.8558" y2="649.5523"/>
    <line x1="453.9916" x2="455.7254" y1="648.0784" y2="636.8731"/>
    <line x1="454.8114" x2="456.6106" y1="636.729" y2="625.534"/>
    <line x1="444.1489" x2="441.7588" y1="646.2573" y2="657.3411"/>
    <polygon points="425.7809,496.5644 424.4737,491.442 423.6092,485.8446 423.3074,480.1889 423.5363,474.9073 424.3262,469.2989 425.6718,463.7973 427.5596,458.4573 429.7942,453.6664 432.6722,448.7883 436.0227,444.2218 439.812,440.0123 444.0025,436.202 448.2386,433.0394 453.0827,430.1046 458.1955,427.6679 463.1649,425.8644 468.6505,424.4548 474.2493,423.5995 479.9056,423.3072 485.5628,423.5807 491.1644,424.4172 496.6547,425.8086 501.63,427.5955 506.7509,430.0152 511.6048,432.9338 516.1432,436.3222 520.0545,439.8787 523.8579,444.0755 527.0135,448.3169 529.9401,453.1659 532.3684,458.2828 534.1636,463.2551 535.5641,468.743 536.41,474.3433 536.6929,480.0 536.41,485.6567 535.5641,491.257 534.274,496.3836 532.3684,501.7172 530.1178,506.5008 527.2235,511.3692 523.8579,515.9245 520.0545,520.1213 516.1432,523.6778 511.6048,527.0662 507.0833,529.8054 501.9787,532.2592 496.6547,534.1914 491.1644,535.5828 485.5628,536.4193 480.2833,536.6922 474.6252,536.4376 469.0208,535.6196 463.8878,534.3552 458.5447,532.4763 453.75,530.2496 448.8672,527.3797 444.2951,524.0369 440.0793,520.2545 436.262,516.0704 433.0924,511.8396 430.1495,507.0003 427.7043,501.8916"/>
    <polygon points="513.3389,473.2482 514.0157,480.0 513.3389,486.7518 511.4804,492.8863 508.504,498.5632 504.2522,503.8517 499.0353,508.1909 493.0609,511.4084 486.9368,513.3009 480.1888,514.0152 473.4333,513.3759 466.9391,511.4084 461.2788,508.4005 456.0141,504.1194 451.7038,498.8785 448.6646,493.235 446.6611,486.7518 445.9843,480.0 446.5882,473.6187 448.5196,467.1137 451.7038,461.1215 456.0141,455.8806 460.9647,451.8091 466.9391,448.5916 473.0632,446.6991 479.8112,445.9848 486.5667,446.6241 493.0609,448.5916 499.0353,451.8091 503.9859,455.8806 508.0849,460.8085 511.3354,466.765"/>
    <line x1="565.2305" x2="575.8843" y1="448.9545" y2="445.0738"/>
    <line x1="589.5815" x2="599.5435" y1="420.4343" y2="415.0192"/>
    <line x1="593.6159" x2="603.0839" y1="405.1364" y2="398.8978"/>
    <line x1="604.2105" x2="613.7652" y1="400.6339" y2="394.5288"/>
    <line x1="609.7819" x2="619.052" y1="388.5937" y2="382.0647"/>
    <line x1="618.1119" x2="627.3193" y1="380.7433" y2="374.1262"/>
    <line x1="611.8933" x2="603.65" y1="355.4351" y2="363.2204"/>
    <line x1="603.3107" x2="595.09" y1="362.8622" y2="370.6714"/>
    <line x1="599.1504" x2="590.6396" y1="375.1114" y2="382.6034"/>
    <line x1="587.6071" x2="579.3297" y1="379.2631" y2="387.0121"/>
    <line x1="584.0159" x2="575.3479" y1="392.2855" y2="399.595"/>
    <line x1="581.2178" x2="572.0162" y1="407.1225" y2="413.7477"/>
    <line x1="559.3485" x2="550.532" y1="415.8326" y2="422.9623"/>
    <line x1="552.9277" x2="561.0308" y1="408.6194" y2="400.6882"/>
    <line x1="555.6226" x2="563.1849" y1="395.5159" y2="387.0675"/>
    <line x1="557.2107" x2="564.2298" y1="382.0475" y2="373.1428"/>
    <line x1="562.1859" x2="569.0347" y1="371.5628" y2="362.5264"/>
    <line x1="574.4755" x2="581.7428" y1="366.8558" y2="358.1524"/>
    <line x1="577.9451" x2="584.9412" y1="355.0793" y2="346.1564"/>
    <line x1="586.9815" x2="594.1136" y1="347.7815" y2="338.9669"/>
    <line x1="574.2975" x2="568.4039" y1="325.0154" y2="334.702"/>
    <line x1="564.3351" x2="558.7128" y1="332.3031" y2="342.1496"/>
    <line x1="561.9505" x2="556.0969" y1="344.0494" y2="353.7602"/>
    <line x1="547.9009" x2="542.6777" y1="349.1692" y2="359.2331"/>
    <line x1="540.9954" x2="535.9125" y1="358.3748" y2="368.5102"/>
    <line x1="541.2623" x2="535.693" y1="371.3579" y2="381.2344"/>
    <line x1="536.6279" x2="530.9651" y1="381.7675" y2="391.5907"/>
    <line x1="534.214" x2="528.1903" y1="393.5449" y2="403.1511"/>
    <line x1="533.0179" x2="526.3907" y1="406.3987" y2="415.5988"/>
    <line x1="535.9346" x2="540.2373" y1="343.6235" y2="333.133"/>
    <line x1="537.8028" x2="541.9315" y1="332.1579" y2="321.5978"/>
    <line x1="548.2488" x2="552.7988" y1="324.2153" y2="313.8296"/>
    <line x1="530.0009" x2="526.8758" y1="305.6092" y2="316.5086"/>
    <line x1="482.0166" x2="482.151" y1="309.9332" y2="298.5954"/>
    <line x1="468.8409" x2="469.5848" y1="310.2877" y2="321.6019"/>
    <line x1="468.8148" x2="469.6137" y1="321.6544" y2="332.9648"/>
    <line x1="475.4729" x2="475.8211" y1="332.668" y2="344.0012"/>
    <line x1="460.5822" x2="462.2004" y1="345.3297" y2="356.5522"/>
    <line x1="463.0231" x2="464.5664" y1="356.4364" y2="367.6695"/>
    <line x1="452.8973" x2="450.6388" y1="346.6636" y2="335.5523"/>
    <line x1="447.2906" x2="444.7745" y1="336.2734" y2="325.2176"/>
    <line x1="446.6329" x2="444.2495" y1="324.8063" y2="313.7211"/>
    <line x1="437.0141" x2="434.1484" y1="315.4431" y2="304.4726"/>
    <line x1="457.953" x2="459.3309" y1="299.9273" y2="311.1819"/>
    <line x1="395.0662" x2="389.404" y1="332.6466" y2="322.823"/>
    <line x1="369.2627" x2="376.1838" y1="336.3007" y2="345.2819"/>
    <line x1="377.0516" x2="383.9148" y1="344.6176" y2="353.6431"/>
    <line x1="379.7521" x2="386.9127" y1="356.9195" y2="365.711"/>
    <line x1="570.6929" x2="582.0295" y1="478.3109" y2="478.0997"/>
    <line x1="581.9445" x2="593.2717" y1="484.5772" y2="485.0857"/>
    <line x1="593.3476" x2="604.6824" y1="482.9428" y2="483.2371"/>
    <line x1="603.9685" x2="615.2383" y1="493.7111" y2="494.9575"/>
    <line x1="615.4281" x2="626.7137" y1="493.1292" y2="494.2233"/>
    <line x1="627.2562" x2="638.5836" y1="486.5448" y2="487.0482"/>
    <line x1="649.9044" x2="661.2314" y1="487.6983" y2="488.2115"/>
    <line x1="648.9161" x2="637.655" y1="499.8525" y2="498.529"/>
    <line x1="635.6492" x2="624.5314" y1="511.1733" y2="508.9466"/>
    <line x1="622.1996" x2="611.2612" y1="518.8135" y2="515.8278"/>
    <line x1="609.4591" x2="598.6708" y1="521.8746" y2="518.3851"/>
    <line x1="601.0715" x2="590.065" y1="509.9644" y2="507.2404"/>
    <line x1="603.3182" x2="613.5947" y1="537.4957" y2="542.2871"/>
    <polygon points="609.7256,549.9892 602.3035,562.2744 593.7217,573.7796 584.0615,584.3955 573.1221,594.2607 561.5676,602.776 549.2398,610.1272 536.2554,616.2445 522.7376,621.0699 508.8145,624.5578 494.6183,626.6749 479.9055,627.4015 465.5697,626.6935 451.0002,624.5207 437.0817,621.015 423.57,616.1723 410.2604,609.86 397.9609,602.4614 386.4392,593.9017 375.8048,584.262 366.1582,573.6337 357.5912,562.1176 350.1848,549.8228 343.8639,536.5172 339.0125,523.0087 335.4979,509.0924 333.3535,494.9002 332.5985,480.1889 333.279,465.8518 335.3506,451.6488 338.9027,437.3529 343.7195,423.832 349.8285,410.8436 357.3811,398.1965 366.1582,386.3663 375.8048,375.738 386.7315,365.8588 398.2751,357.3287 410.5935,349.9617 423.57,343.8277 437.0817,338.985 451.0002,335.4793 465.5697,333.3065 479.9055,332.5985 494.6183,333.3251 508.8145,335.4422 522.7376,338.9301 536.2554,343.7555 549.2398,349.8728 561.8821,357.4335 573.4147,365.9784 584.0615,375.6045 593.9617,386.5123 602.514,398.0394 609.9046,410.3436 616.0635,423.3083 620.9323,436.8106 624.5393,451.0928 626.7027,465.6638 627.4016,480.0 626.7027,494.3362 624.5393,508.9072 620.9323,523.1894 616.0635,536.6917"/>
    <line x1="609.0619" x2="618.9897" y1="551.2057" y2="556.6831"/>
    <line x1="614.8837" x2="624.5183" y1="563.6948" y2="569.673"/>
    <line x1="622.2629" x2="631.7471" y1="573.2097" y2="579.4237"/>
    <line x1="643.645" x2="633.4172" y1="558.3107" y2="553.4163"/>
    <line x1="636.0347" x2="625.6324" y1="547.6754" y2="543.1637"/>
    <line x1="629.0664" x2="618.4188" y1="534.5677" y2="530.67"/>
    <line x1="633.2771" x2="644.2255" y1="521.2863" y2="524.2354"/>
    <line x1="641.8337" x2="652.6227" y1="532.3127" y2="535.8002"/>
    <line x1="658.5199" x2="647.3624" y1="512.294" y2="510.2756"/>
    <line x1="650.0066" x2="638.6728" y1="475.0466" y2="475.3768"/>
    <line x1="649.4145" x2="660.7088" y1="464.9835" y2="463.9824"/>
    <line x1="641.3713" x2="630.6133" y1="426.2779" y2="429.8593"/>
    <line x1="639.4278" x2="650.0563" y1="420.7585" y2="416.8091"/>
    <line x1="631.8297" x2="621.7077" y1="403.3545" y2="408.4642"/>
    <line x1="625.2446" x2="614.87" y1="415.9497" y2="420.5247"/>
    <line x1="615.0198" x2="604.6337" y1="420.8656" y2="425.4144"/>
    <line x1="630.1092" x2="640.1165" y1="400.0375" y2="394.7066"/>
  </g>
</svg>
