<?xml version="1.0" encoding="utf-8" ?>
<svg xmlns="http://www.w3.org/2000/svg" xmlns:cc="http://creativecommons.org/ns#" xmlns:dc="http://purl.org/dc/elements/1.1/" xmlns:ev="http://www.w3.org/2001/xml-events" xmlns:inkscape="http://www.inkscape.org/namespaces/inkscape" xmlns:rdf="http://www.w3.org/1999/02/22-rdf-syntax-ns#" xmlns:sodipodi="http://sodipodi.sourceforge.net/DTD/sodipodi-0.dtd" xmlns:xlink="http://www.w3.org/1999/xlink" baseProfile="tiny" height="29.7cm" version="1.2" viewBox="0 0 793.7007874015749 1122.5196850393702" width="21.0cm">
  <metadata>
    <rdf:RDF>
      <cc:Work>
        <dc:format>image/svg+xml</dc:format>
        <dc:source/>
        <dc:date>2021-02-08T21:15:50.369765</dc:date>
      </cc:Work>
    </rdf:RDF>
  </metadata>
  <defs/>
  <g fill="none" id="layer1" inkscape:groupmode="layer" inkscape:label="1" stroke="#00f" style="display:inline">
    <polygon points="118.8919,820.989 118.3773,821.5535 117.758,820.989 118.2727,820.4245"/>
    <polygon points="123.7205,798.0567 124.1301,798.1561 124.3682,798.6179 123.8282,799.1841 123.2369,798.6717"/>
    <polygon points="129.8281,776.9994 130.3091,777.5598 129.7135,778.126 129.1782,777.5024"/>
    <polygon points="136.1401,758.3276 135.514,757.7638 136.0216,757.1999 136.6478,757.7638"/>
    <polygon points="142.7553,738.6122 143.3222,739.1792 142.7553,739.7461 142.1883,739.1792"/>
    <polygon points="149.6753,722.3218 149.1452,721.69 149.6753,721.1899 150.2752,721.7558"/>
    <polygon points="156.3248,705.3732 156.9228,704.8785 157.4541,705.4443 156.9228,706.0101 156.5258,705.8811"/>
    <polygon points="163.6769,690.1957 164.2439,689.6288 164.8108,690.1957 164.2439,690.7627"/>
    <polygon points="171.6953,675.3968 172.3009,675.9624 171.8494,676.5174 171.1724,676.0396"/>
    <polygon points="179.2365,662.1361 179.6885,662.2688 179.8841,662.6972 179.3979,663.2584 178.9459,663.1257 178.7503,662.6972"/>
    <polygon points="186.999,650.9198 186.396,650.439 186.541,649.9688 186.999,649.7891 187.5236,650.3545"/>
    <polygon points="194.6189,639.4562 194.052,638.8892 194.6189,638.3223 195.1858,638.8892"/>
    <polygon points="202.8407,628.258 202.4129,628.8075 201.7146,628.3513 202.2269,627.693"/>
    <polygon points="210.3282,618.0538 210.4608,618.4182 209.9923,618.9765 209.6104,618.9092 209.327,618.4182 209.7954,617.8599"/>
    <polygon points="217.5072,609.8932 216.9728,609.6272 216.8976,609.2246 217.5072,608.7642 218.0218,609.3287"/>
    <polygon points="224.9348,601.5166 224.3678,600.9497 224.9348,600.3828 225.5017,600.9497"/>
    <polygon points="232.8811,593.2425 232.4893,593.7816 231.7596,593.3603 232.2549,592.6786"/>
    <polygon points="240.1427,586.1697 239.5165,586.7335 239.0212,586.0518 239.5165,585.6059"/>
    <polygon points="246.8308,580.2481 246.3512,580.1387 246.1377,579.6954 246.5785,579.1427 247.0581,579.2522 247.2716,579.6954"/>
    <polygon points="254.2545,573.785 253.756,574.3478 253.1372,573.9206 253.4866,573.2549 254.0097,573.3184"/>
    <polygon points="260.5817,567.8422 261.0803,568.405 260.5817,568.9678 260.089,568.7809 259.9629,568.2693"/>
    <polygon points="267.7391,563.5234 267.1722,564.0903 266.6053,563.5234 267.1722,562.9565"/>
    <polygon points="273.5754,559.6706 273.1121,558.9498 273.5754,558.5483 274.223,559.1095"/>
    <polygon points="280.5253,555.1338 280.1939,555.6495 279.4145,555.2935 279.8777,554.5726"/>
    <polygon points="286.249,552.1073 285.8986,552.1073 285.5068,551.5681 285.8986,551.029 286.249,551.029 286.6407,551.5681"/>
    <polygon points="292.1732,547.8464 292.565,548.3856 292.1732,548.9248 291.8228,548.9248 291.4311,548.3856 291.8228,547.8464"/>
    <polygon points="298.2951,545.5604 297.8266,546.1187 297.4447,546.0514 297.1954,545.3665 297.8266,545.0021"/>
    <polygon points="303.6964,542.7037 303.8291,543.0681 303.3606,543.6264 302.7294,543.262 302.9787,542.5772"/>
    <polygon points="308.3154,541.3763 308.0661,540.6915 308.6973,540.3271 309.1658,540.8854 308.6973,541.4437"/>
    <polygon points="313.738,538.423 314.3049,538.9899 313.738,539.5569 313.1711,538.9899"/>
    <polygon points="318.6801,536.7938 319.247,537.3608 318.6801,537.9277 318.1132,537.3608"/>
    <polygon points="323.9931,535.9779 323.7797,536.4211 323.3,536.5306 322.9154,536.2238 322.9154,535.7319 323.3,535.4251 323.7797,535.5346"/>
    <polygon points="328.3316,535.2655 327.852,535.375 327.4673,535.0682 327.4673,534.5763 327.852,534.2695 328.3316,534.379 328.545,534.8222"/>
    <polygon points="332.905,533.876 332.6916,534.3192 332.212,534.4287 331.8273,534.122 331.8273,533.63 332.212,533.3233 332.6916,533.4328"/>
    <polygon points="336.7924,532.6312 337.0759,533.1222 336.7924,533.6131 336.2255,533.6131 335.942,533.1222 336.2255,532.6312"/>
    <polygon points="340.2104,533.0357 339.9269,532.5447 340.2104,532.0538 340.7773,532.0538 341.0608,532.5447 340.7773,533.0357"/>
    <polygon points="343.7294,532.1286 344.0128,531.6377 344.5798,531.6377 344.8632,532.1286 344.5798,532.6196 344.0128,532.6196"/>
    <polygon points="347.6368,531.3687 348.2037,531.3687 348.4872,531.8597 348.2037,532.3506 347.6368,532.3506 347.3533,531.8597"/>
    <polygon points="351.545,532.2636 350.9112,532.0577 350.9112,531.3912 351.545,531.1852 351.9368,531.7244"/>
    <polygon points="354.6494,531.7104 426.3998,519.0589 439.0514,590.8093 367.301,603.4608"/>
    <polygon points="355.2163,531.7104 354.8246,532.2496 354.1908,532.0436 354.1908,531.3772 354.8246,531.1712"/>
    <polygon points="369.7148,510.7921 369.1478,510.2252 369.7148,509.6582 370.2817,510.2252"/>
    <polygon points="373.3462,511.9068 373.1328,512.35 372.6531,512.4595 372.2685,512.1527 372.2685,511.6608 372.6531,511.354 373.1328,511.4635"/>
    <polygon points="375.9865,513.1617 376.2,513.6049 375.9865,514.0481 375.5069,514.1576 375.1223,513.8509 375.1223,513.3589 375.5069,513.0522"/>
    <polygon points="378.16,515.8645 377.7754,515.5578 377.7754,515.0658 378.16,514.7591 378.6396,514.8685 378.8531,515.3118 378.6396,515.755"/>
    <polygon points="381.032,517.5113 380.465,517.5113 380.1816,517.0203 380.465,516.5293 381.032,516.5293 381.3154,517.0203"/>
    <polygon points="382.7462,519.215 382.4627,518.724 382.7462,518.233 383.3131,518.233 383.5966,518.724 383.3131,519.215"/>
    <polygon points="385.4224,519.9262 385.7059,520.4172 385.4224,520.9082 384.8555,520.9082 384.572,520.4172 384.8555,519.9262"/>
    <polygon points="387.3689,521.6037 387.6524,522.0947 387.3689,522.5857 386.802,522.5857 386.5185,522.0947 386.802,521.6037"/>
    <polygon points="389.053,523.2127 389.4448,523.7519 389.053,524.291 388.4192,524.0851 388.4192,523.4186"/>
    <polygon points="390.6998,524.8455 391.0916,525.3846 390.6998,525.9238 390.066,525.7179 390.066,525.0514"/>
    <polygon points="365.8622,508.5687 366.4292,508.0018 366.9961,508.5687 366.4292,509.1356"/>
    <polygon points="362.3791,506.7529 363.0103,506.3885 363.4788,506.9468 363.0103,507.5052 362.3791,507.1407"/>
    <polygon points="358.6194,505.5638 358.6194,505.176 359.2506,504.8115 359.7191,505.3699 359.2506,505.9282"/>
    <polygon points="354.6063,504.0429 354.8555,503.358 355.2374,503.2907 355.7059,503.849 355.2374,504.4073"/>
    <polygon points="351.0365,502.9357 350.4027,502.7298 350.2944,502.3965 350.6861,501.8574 351.0365,501.8574 351.4283,502.3965"/>
    <polygon points="345.741,501.0257 346.1327,500.4865 346.4831,500.4865 346.8749,501.0257 346.4831,501.5649 345.8493,501.3589"/>
    <polygon points="341.3867,500.312 340.9235,499.9106 341.3867,499.1897 342.0344,499.7508"/>
    <polygon points="336.8954,498.5875 336.5639,499.1032 335.7845,498.7472 336.2478,498.0264"/>
    <polygon points="330.8795,498.1194 330.3126,497.5525 330.8795,496.9856 331.4465,497.5525"/>
    <polygon points="325.4314,496.1973 325.6762,496.6639 325.1776,497.2267 324.5589,496.7996 324.9083,496.1338"/>
    <polygon points="319.3285,496.4076 318.8054,496.4711 318.456,495.8053 319.0748,495.3782 319.5734,495.941"/>
    <polygon points="312.2063,495.848 311.9928,495.4048 312.4336,494.8521 312.9132,494.9615 313.1267,495.4048 312.6859,495.9575"/>
    <polygon points="306.3251,495.0775 305.6989,495.6413 305.2036,495.1953 305.6989,494.5136"/>
    <polygon points="298.5317,495.5468 298.0364,495.1009 298.5317,494.4192 299.1579,494.983"/>
    <polygon points="291.0476,494.58 291.6146,495.1469 291.0476,495.7139 290.4807,495.1469"/>
    <polygon points="283.3709,495.089 283.6851,495.5965 283.1705,496.161 282.5609,495.7007 282.963,495.0512"/>
    <polygon points="275.3599,496.3608 274.8914,496.9191 274.3587,496.7252 274.226,496.3608 274.6945,495.8024 275.0764,495.8698"/>
    <polygon points="266.6299,497.4706 266.0162,498.0356 265.5038,497.5639 266.0162,496.9056"/>
    <polygon points="256.92,498.3919 257.4869,498.9588 256.92,499.5257 256.353,498.9588"/>
    <polygon points="247.7097,500.417 247.9231,500.8603 247.3986,501.4256 246.7956,500.9448 247.2301,500.3076"/>
    <polygon points="237.2844,502.6508 237.7364,502.7835 237.932,503.2119 237.4458,503.7731 236.9938,503.6404 236.7982,503.2119"/>
    <polygon points="226.9022,505.4873 227.5079,506.0529 227.0563,506.608 226.3793,506.1301"/>
    <polygon points="216.0792,508.8576 216.6461,509.4245 216.0792,509.9915 215.5123,509.4245"/>
    <polygon points="204.2141,513.4415 204.6704,512.8136 205.0804,512.8918 205.3435,513.3705 204.8122,513.9363"/>
    <polygon points="192.4682,517.8709 192.9984,517.3708 193.5983,517.9368 192.9984,518.5027"/>
    <polygon points="180.2762,523.1719 180.8432,522.605 181.4101,523.1719 180.8432,523.7389"/>
    <polygon points="168.7806,529.127 168.2729,529.6909 167.6467,529.127 168.1544,528.5632"/>
    <polygon points="155.1176,535.2895 155.7133,535.8557 155.2322,536.4161 154.5823,535.9131"/>
    <polygon points="142.0571,543.8055 141.5661,543.9754 141.0824,543.3604 141.6738,542.848 142.2137,543.4143"/>
    <polygon points="127.7754,552.4262 127.1562,551.8617 127.6708,551.2972 128.29,551.8617"/>
    <polygon points="336.0493,611.8023 336.441,611.2631 336.7914,611.2631 337.1832,611.8023 336.7914,612.3415 336.441,612.3415"/>
    <polygon points="338.554,607.2489 338.1623,607.7881 337.8119,607.7881 337.4202,607.2489 337.8119,606.7097 338.1623,606.7097"/>
    <polygon points="339.1561,602.4803 339.538,602.4129 340.0065,602.9712 339.538,603.5296 338.9068,603.1651"/>
    <polygon points="341.0589,599.5164 340.4277,599.152 340.4277,598.7642 341.0589,598.3998 341.5273,598.9581"/>
    <polygon points="343.1043,595.1984 342.6358,595.7567 342.0047,595.3923 342.2539,594.7074 342.9717,594.834"/>
    <polygon points="344.7262,591.6811 344.1593,592.248 343.5923,591.6811 344.1593,591.1142"/>
    <polygon points="345.2488,588.3955 345.8157,587.8285 346.3826,588.3955 345.8157,588.9624"/>
    <polygon points="346.9865,585.085 347.3712,584.7782 347.8508,584.8877 348.0642,585.331 347.8508,585.7742 347.3712,585.8837 346.9865,585.5769"/>
    <polygon points="349.0693,581.9245 349.5489,582.0339 349.7624,582.4772 349.5489,582.9204 349.0693,583.0299 348.6847,582.7232 348.6847,582.2312"/>
    <polygon points="351.4693,579.8241 351.2558,580.2673 350.7762,580.3768 350.3915,580.07 350.3915,579.5781 350.7762,579.2714 351.2558,579.3808"/>
    <polygon points="352.3274,577.8527 352.0439,577.3617 352.3274,576.8707 352.8943,576.8707 353.1778,577.3617 352.8943,577.8527"/>
    <polygon points="354.0311,575.5715 353.7476,575.0806 354.0311,574.5896 354.598,574.5896 354.8815,575.0806 354.598,575.5715"/>
    <polygon points="356.5747,572.9713 356.2912,573.4623 355.7243,573.4623 355.4408,572.9713 355.7243,572.4803 356.2912,572.4803"/>
    <polygon points="357.1183,571.0248 357.4018,570.5338 357.9687,570.5338 358.2522,571.0248 357.9687,571.5158 357.4018,571.5158"/>
    <polygon points="359.5176,568.6932 359.9093,569.2324 359.5176,569.7716 358.8837,569.5656 358.8837,568.8992"/>
    <polygon points="360.5165,567.9188 360.5165,567.2524 361.1504,567.0464 361.5421,567.5856 361.1504,568.1248"/>
    <polygon points="366.8423,603.1276 367.4761,602.9216 367.8679,603.4608 367.4761,604.0 366.8423,603.7941"/>
    <polygon points="367.4902,606.2012 367.8819,606.7404 367.4902,607.2796 366.8563,607.0736 366.8563,606.4072"/>
    <polygon points="368.0171,610.19 367.7337,610.6809 367.1667,610.6809 366.8833,610.19 367.1667,609.699 367.7337,609.699"/>
    <polygon points="367.4357,613.3229 368.0027,613.3229 368.2861,613.8139 368.0027,614.3049 367.4357,614.3049 367.1523,613.8139"/>
    <polygon points="367.8518,618.1074 367.5684,617.6164 367.8518,617.1254 368.4188,617.1254 368.7022,617.6164 368.4188,618.1074"/>
    <polygon points="368.1458,621.6013 368.4293,621.1103 368.9962,621.1103 369.2796,621.6013 368.9962,622.0923 368.4293,622.0923"/>
    <polygon points="369.3404,626.3248 368.9558,626.0181 368.9558,625.5261 369.3404,625.2194 369.82,625.3289 370.0335,625.7721 369.82,626.2154"/>
    <polygon points="370.2866,630.6848 369.902,630.3781 369.902,629.8861 370.2866,629.5794 370.7663,629.6889 370.9797,630.1321 370.7663,630.5754"/>
    <polygon points="371.9219,634.2408 372.1353,634.684 371.9219,635.1273 371.4423,635.2368 371.0576,634.93 371.0576,634.4381 371.4423,634.1313"/>
    <polygon points="372.9513,639.9971 372.3844,639.4302 372.9513,638.8632 373.5183,639.4302"/>
    <polygon points="374.5805,644.9392 374.0136,644.3722 374.5805,643.8053 375.1474,644.3722"/>
    <polygon points="376.5744,650.0697 375.9432,649.7053 376.1925,649.0204 376.5744,648.9531 377.0429,649.5114"/>
    <polygon points="378.7571,654.2898 379.2256,654.8481 378.7571,655.4064 378.3752,655.3391 378.1259,654.6542"/>
    <polygon points="381.2494,660.9404 380.6182,660.576 380.8675,659.8911 381.5853,660.0177 381.7179,660.3821"/>
    <polygon points="384.5431,666.1122 384.1513,666.6514 383.801,666.6514 383.4092,666.1122 383.801,665.573 384.1513,665.573"/>
    <polygon points="387.3339,671.4973 387.7256,672.0365 387.3339,672.5757 386.7,672.3697 386.5918,672.0365 386.9835,671.4973"/>
    <polygon points="391.2913,678.1518 390.9599,678.6675 390.1804,678.3115 390.6437,677.5907"/>
    <polygon points="395.267,684.4541 394.6193,685.0153 394.1561,684.6138 394.6193,683.893"/>
    <polygon points="399.1139,691.505 398.547,690.938 399.1139,690.3711 399.6809,690.938"/>
    <polygon points="403.7945,697.0668 404.3176,697.1303 404.5624,697.5969 404.0639,698.1597 403.4451,697.7326"/>
    <polygon points="408.9512,704.7986 408.8251,704.2869 409.4438,703.8598 409.9424,704.4226 409.4438,704.9854"/>
    <polygon points="415.4121,711.9583 414.9325,711.8488 414.719,711.4056 415.1598,710.8529 415.6394,710.9623 415.8529,711.4056"/>
    <polygon points="421.2057,718.6523 421.701,717.9706 422.3272,718.5344 421.701,719.0983"/>
    <polygon points="428.7737,725.2323 429.3999,725.7961 429.0082,726.3353 428.2785,725.914"/>
    <polygon points="436.5402,733.7424 435.9733,733.1755 436.5402,732.6086 437.1072,733.1755"/>
    <polygon points="445.4862,740.6554 444.9716,741.2199 444.362,740.7596 444.7641,740.1101 445.172,740.1479"/>
    <polygon points="453.9103,747.658 454.443,747.8519 454.5757,748.2163 454.1072,748.7747 453.5744,748.5808 453.4418,748.2163"/>
    <polygon points="463.9877,756.3861 463.2893,755.9298 463.8017,755.2715 464.4154,755.8365"/>
    <polygon points="473.9129,763.4913 474.4798,762.9244 475.0467,763.4913 474.4798,764.0583"/>
    <polygon points="486.5119,771.1536 485.9874,771.7189 485.3844,771.2381 485.5294,770.768 485.9874,770.5883"/>
    <polygon points="498.2071,778.2319 498.659,778.3646 498.8547,778.793 498.3685,779.3542 497.9165,779.2215 497.7209,778.793"/>
    <polygon points="511.6683,786.9313 510.9913,786.4534 511.5142,785.8106 512.1199,786.3762"/>
    <polygon points="526.3532,793.8664 525.7863,794.4333 525.2194,793.8664 525.7863,793.2994"/>
    <polygon points="541.6017,801.223 541.0704,801.7888 540.4724,801.2941 540.5762,800.8898 541.0704,800.6572"/>
    <polygon points="557.3134,808.968 556.7833,808.4678 557.3134,807.836 557.9133,808.402"/>
    <polygon points="575.3366,815.355 574.7697,815.9219 574.2028,815.355 574.7697,814.788"/>
    <polygon points="593.9212,822.0294 593.4136,822.5932 592.7874,822.0294 593.2951,821.4655"/>
    <polygon points="613.7173,828.368 613.2362,828.9284 612.5863,828.4254 613.1216,827.8018"/>
    <polygon points="634.2354,834.8753 633.644,834.3629 634.1277,833.7478 634.5373,833.8472 634.7753,834.309"/>
    <polygon points="656.0126,839.7853 656.5272,839.2208 657.1465,839.7853 656.6319,840.3498"/>
    <polygon points="588.9598,609.715 588.3617,609.2203 588.5628,608.7124 588.9598,608.5834 589.4911,609.1492"/>
    <polygon points="578.1885,613.0952 577.6216,613.6621 577.0547,613.0952 577.6216,612.5282"/>
    <polygon points="566.1982,616.544 566.7212,615.9012 567.3268,616.4668 566.8752,617.0218"/>
    <polygon points="555.7688,619.3077 556.255,618.7466 556.7069,618.8793 556.9026,619.3077 556.4164,619.8689 555.9644,619.7362"/>
    <polygon points="545.784,621.7439 546.2184,621.1067 546.6981,621.2162 546.9115,621.6594 546.3869,622.2248"/>
    <polygon points="536.7808,624.1278 536.2139,623.5609 536.7808,622.994 537.3478,623.5609"/>
    <polygon points="527.591,624.4841 528.2047,625.0491 527.7769,625.5987 527.0786,625.1424"/>
    <polygon points="518.8094,625.6006 519.3421,625.7945 519.4747,626.1589 519.0063,626.7172 518.6243,626.6499 518.3409,626.1589"/>
    <polygon points="510.4275,626.3779 511.0016,626.5412 511.1495,626.9232 510.6349,627.4877 510.0253,627.0273"/>
    <polygon points="502.0862,627.3727 502.6531,626.8058 503.2201,627.3727 502.6531,627.9397"/>
    <polygon points="495.6768,627.5367 495.285,628.0759 494.5553,627.6545 495.0506,626.9728"/>
    <polygon points="487.8834,626.8784 488.5095,627.4422 488.1178,627.9814 487.3881,627.5601"/>
    <polygon points="480.5741,627.1149 481.0149,626.5622 481.4945,626.6717 481.708,627.1149 481.2672,627.6676 480.7876,627.5582"/>
    <polygon points="474.7627,626.0159 475.2613,626.5787 474.7627,627.1415 474.1439,626.7143 474.27,626.2027"/>
    <polygon points="468.6598,626.4186 468.1671,626.2318 468.041,625.7201 468.6598,625.293 469.1584,625.8558"/>
    <polygon points="462.2543,624.9672 462.8213,624.4002 463.3882,624.9672 462.8213,625.5341"/>
    <polygon points="457.2917,624.4933 456.8284,624.0919 457.2917,623.371 457.9393,623.9322"/>
    <polygon points="452.8003,622.7689 452.4689,623.2846 451.6894,622.9286 452.1527,622.2077"/>
    <polygon points="447.2177,622.0332 446.8259,621.494 447.2177,620.9548 447.568,620.9548 447.9598,621.494 447.568,622.0332"/>
    <polygon points="442.6643,619.584 443.0146,619.584 443.4064,620.1232 443.0146,620.6623 442.6643,620.6623 442.2725,620.1232"/>
    <polygon points="438.2783,619.1616 438.0291,618.4768 438.6602,618.1123 439.1287,618.6707 438.6602,619.229"/>
    <polygon points="434.0159,617.3437 434.2652,616.6588 434.6471,616.5915 435.1156,617.1498 434.6471,617.7081"/>
    <polygon points="430.5055,615.0819 430.8874,615.0145 431.3559,615.5728 430.8874,616.1312 430.2562,615.7667"/>
    <polygon points="427.2716,614.5179 426.7047,613.951 427.2716,613.3841 427.8386,613.951"/>
    <polygon points="423.986,612.8615 423.4191,612.2945 423.986,611.7276 424.5529,612.2945"/>
    <polygon points="420.4107,610.8589 420.4107,610.3669 420.7953,610.0602 421.275,610.1697 421.4884,610.6129 421.275,611.0562 420.7953,611.1656"/>
    <polygon points="417.9416,609.4675 417.557,609.1608 417.557,608.6688 417.9416,608.3621 418.4212,608.4715 418.6347,608.9148 418.4212,609.358"/>
    <polygon points="415.7681,607.6511 415.2885,607.7606 414.9038,607.4539 414.9038,606.9619 415.2885,606.6552 415.7681,606.7647 415.9815,607.2079"/>
    <polygon points="412.3853,605.4994 412.6688,605.0084 413.2357,605.0084 413.5192,605.4994 413.2357,605.9904 412.6688,605.9904"/>
    <polygon points="410.9546,603.3047 411.2381,603.7957 410.9546,604.2866 410.3877,604.2866 410.1042,603.7957 410.3877,603.3047"/>
    <polygon points="407.9949,602.1025 408.2784,601.6115 408.8453,601.6115 409.1288,602.1025 408.8453,602.5935 408.2784,602.5935"/>
    <polygon points="406.3319,599.934 406.8988,599.934 407.1823,600.425 406.8988,600.916 406.3319,600.916 406.0484,600.425"/>
    <polygon points="404.9982,599.307 404.3643,599.1011 404.3643,598.4346 404.9982,598.2286 405.3899,598.7678"/>
    <polygon points="403.3514,596.5959 403.7431,597.1351 403.3514,597.6742 402.7175,597.4683 402.7175,596.8018"/>
    <polygon points="439.2266,591.3485 438.5927,591.1425 438.5927,590.4761 439.2266,590.2701 439.6183,590.8093"/>
    <polygon points="442.8979,590.7953 442.5061,591.3344 441.8723,591.1285 441.8723,590.462 442.5061,590.2561"/>
    <polygon points="445.2136,590.66 445.4971,590.1691 446.064,590.1691 446.3475,590.66 446.064,591.151 445.4971,591.151"/>
    <polygon points="449.6879,590.882 449.121,590.882 448.8375,590.391 449.121,589.9001 449.6879,589.9001 449.9714,590.391"/>
    <polygon points="453.4904,590.4659 452.9235,590.4659 452.64,589.9749 452.9235,589.484 453.4904,589.484 453.7739,589.9749"/>
    <polygon points="457.7588,589.3975 457.4753,589.8885 456.9084,589.8885 456.6249,589.3975 456.9084,588.9065 457.4753,588.9065"/>
    <polygon points="461.9296,588.6437 461.7162,589.0869 461.2365,589.1964 460.8519,588.8897 460.8519,588.3977 461.2365,588.091 461.7162,588.2004"/>
    <polygon points="465.2119,587.9434 465.2119,587.4515 465.5965,587.1447 466.0762,587.2542 466.2896,587.6974 466.0762,588.1407 465.5965,588.2502"/>
    <polygon points="470.6281,586.9851 470.1484,587.0945 469.7638,586.7878 469.7638,586.2958 470.1484,585.9891 470.6281,586.0986 470.8415,586.5418"/>
    <polygon points="475.5876,585.1589 475.0207,585.7258 474.4538,585.1589 475.0207,584.592"/>
    <polygon points="479.3958,583.5297 479.9628,582.9628 480.5297,583.5297 479.9628,584.0967"/>
    <polygon points="484.5692,581.8282 484.8185,581.1433 485.2004,581.076 485.6689,581.6343 485.2004,582.1926"/>
    <polygon points="490.5371,578.8932 491.0056,579.4516 490.8729,579.816 490.1552,579.9425 489.9059,579.2577"/>
    <polygon points="496.0711,577.5176 495.4399,577.1532 495.6892,576.4683 496.0711,576.4009 496.5395,576.9593"/>
    <polygon points="501.5276,573.5949 501.8779,573.5949 502.2697,574.1341 501.8779,574.6733 501.5276,574.6733 501.1358,574.1341"/>
    <polygon points="507.4518,570.4124 507.8022,570.4124 508.1939,570.9515 507.8022,571.4907 507.4518,571.4907 507.0601,570.9515"/>
    <polygon points="513.1984,567.2262 513.9779,566.8702 514.3093,567.3859 513.6617,567.9471"/>
    <polygon points="519.964,563.9714 519.5007,563.5699 519.964,562.849 520.6116,563.4102"/>
    <polygon points="527.0955,558.9963 526.5286,559.5632 525.9617,558.9963 526.5286,558.4294"/>
    <polygon points="532.7631,553.7388 533.2558,553.5519 533.7544,554.1147 533.2558,554.6775 532.637,554.2504"/>
    <polygon points="539.4627,548.8704 539.8121,548.2046 540.3352,548.2681 540.5801,548.7347 540.0815,549.2975"/>
    <polygon points="547.1223,543.377 546.6426,543.2675 546.4292,542.8243 546.87,542.2715 547.3496,542.381 547.5631,542.8243"/>
    <polygon points="553.5705,536.4679 554.0657,535.7862 554.6919,536.35 554.0657,536.9138"/>
    <polygon points="560.8321,529.3951 561.3274,528.7134 561.9536,529.2772 561.5619,529.8164"/>
    <polygon points="568.1991,521.57 568.766,521.0031 569.333,521.57 568.766,522.1369"/>
    <polygon points="576.2982,512.6264 576.8129,513.191 576.2982,513.7555 575.6887,513.2951 575.7639,512.8925"/>
    <polygon points="584.0904,503.6105 584.3738,504.1015 583.9053,504.6598 583.3726,504.4659 583.24,504.1015 583.7084,503.5432"/>
    <polygon points="590.8678,494.1684 591.5662,493.7121 591.994,494.2617 591.3802,494.8267"/>
    <polygon points="599.0819,484.1974 598.515,483.6304 599.0819,483.0635 599.6488,483.6304"/>
    <polygon points="607.3111,472.1652 606.7865,472.7306 606.1836,472.2497 606.3286,471.7796 606.7865,471.5999"/>
    <polygon points="614.0123,460.2509 613.8167,459.8224 614.3029,459.2613 614.7549,459.394 614.9505,459.8224 614.4643,460.3836"/>
    <polygon points="622.0821,447.1124 621.4051,446.6345 621.9281,445.9917 622.5337,446.5573"/>
    <polygon points="629.4569,432.8909 628.89,432.3239 629.4569,431.757 630.0238,432.3239"/>
    <polygon points="636.8492,417.6412 636.2511,417.1465 636.7073,416.5185 637.2268,416.6873 637.3805,417.0754"/>
    <polygon points="643.4294,400.8297 643.9596,400.1979 644.5595,400.7639 644.091,401.3222"/>
    <polygon points="651.5124,383.3405 650.9455,383.9075 650.3786,383.3405 650.9455,382.7736"/>
    <polygon points="657.053,364.7559 657.5606,364.1921 658.1868,364.7559 657.6792,365.3197"/>
    <polygon points="664.0444,345.5203 663.3946,345.0173 663.9299,344.3937 664.5255,344.9599"/>
    <polygon points="670.3099,324.2931 669.8189,324.463 669.3352,323.8479 669.9265,323.3355 670.4665,323.9018"/>
    <polygon points="675.9427,301.5307 675.4281,302.0952 674.8089,301.5307 675.3235,300.9662"/>
    <polygon points="448.6857,379.9217 449.2526,380.4886 448.6857,381.0556 448.1188,380.4886"/>
    <polygon points="444.7754,368.6202 445.3067,369.186 445.0435,369.6647 444.6335,369.7429 444.1773,369.115"/>
    <polygon points="440.7404,357.4408 440.1405,358.0067 439.6104,357.5066 440.1405,356.8748"/>
    <polygon points="435.5052,345.2526 434.9383,345.8196 434.3714,345.2526 434.9383,344.6857"/>
    <polygon points="429.0424,333.1869 428.4163,332.6231 428.9239,332.0593 429.5501,332.6231"/>
    <polygon points="422.2258,320.122 421.6905,319.4984 422.3404,318.9954 422.8214,319.5558"/>
    <polygon points="414.6153,305.4951 415.0248,305.5944 415.2629,306.0563 414.7229,306.6225 414.1316,306.1101"/>
    <polygon points="405.6816,292.1325 406.1962,291.568 406.8155,292.1325 406.3008,292.6971"/>
    <polygon points="348.6264,381.319 349.2005,381.4824 349.3484,381.8643 348.8338,382.4288 348.2242,381.9685"/>
    <polygon points="357.1605,388.7773 357.7275,389.3442 357.1605,389.9111 356.5936,389.3442"/>
    <polygon points="365.043,397.2628 364.3132,396.8414 364.8085,396.1598 365.4347,396.7236"/>
    <polygon points="371.8813,404.5491 371.386,404.1031 371.8813,403.4214 372.5075,403.9852"/>
    <polygon points="378.7683,410.6709 378.9817,411.1141 378.541,411.6668 378.0613,411.5574 377.8479,411.1141 378.2887,410.5614"/>
    <polygon points="383.9009,417.7211 384.3936,417.5343 384.8922,418.0971 384.3936,418.6599 383.7748,418.2327"/>
    <polygon points="389.7736,425.4856 389.1548,425.0585 389.5042,424.3927 390.0273,424.4562 390.2722,424.9228"/>
    <polygon points="394.0199,431.5817 394.5869,431.0147 395.1538,431.5817 394.5869,432.1486"/>
    <polygon points="398.4568,437.9058 399.2363,437.5499 399.5677,438.0656 398.9201,438.6267"/>
    <polygon points="402.8958,443.8067 403.5434,444.3679 402.8958,444.929 402.4325,444.5276"/>
    <polygon points="406.3669,451.0224 405.9752,450.4832 406.3669,449.944 407.0007,450.15 407.109,450.4832 406.7173,451.0224"/>
    <polygon points="409.1577,456.4075 409.5495,455.8683 409.8998,455.8683 410.2916,456.4075 409.8998,456.9467 409.5495,456.9467"/>
    <polygon points="412.9841,461.7732 413.1167,462.1376 412.6483,462.6959 412.0171,462.3315 412.2663,461.6466"/>
    <polygon points="414.7586,467.1806 415.1406,467.1133 415.609,467.6716 415.1406,468.2299 414.5094,467.8655"/>
    <polygon points="417.3233,472.45 417.7918,473.0083 417.3233,473.5666 416.6921,473.2022 416.6921,472.8144"/>
    <polygon points="419.1203,478.7144 418.5534,478.1475 419.1203,477.5805 419.6872,478.1475"/>
    <polygon points="420.7495,483.6565 420.1825,483.0895 420.7495,482.5226 421.3164,483.0895"/>
    <polygon points="422.4858,488.2789 422.0062,488.3884 421.6216,488.0816 421.6216,487.5897 422.0062,487.2829 422.4858,487.3924 422.6993,487.8356"/>
    <polygon points="423.6415,492.8308 423.1618,492.9403 422.7772,492.6335 422.7772,492.1416 423.1618,491.8348 423.6415,491.9443 423.8549,492.3876"/>
    <polygon points="423.7234,496.5016 424.1081,496.1948 424.5877,496.3043 424.8012,496.7476 424.5877,497.1908 424.1081,497.3003 423.7234,496.9935"/>
    <polygon points="424.7046,500.4274 425.2715,500.4274 425.555,500.9184 425.2715,501.4094 424.7046,501.4094 424.4211,500.9184"/>
    <polygon points="424.9986,504.9033 425.282,504.4123 425.849,504.4123 426.1324,504.9033 425.849,505.3943 425.282,505.3943"/>
    <polygon points="426.2651,508.2148 426.5485,508.7058 426.2651,509.1967 425.6981,509.1967 425.4147,508.7058 425.6981,508.2148"/>
    <polygon points="426.8175,512.3297 426.534,512.8207 425.9671,512.8207 425.6837,512.3297 425.9671,511.8387 426.534,511.8387"/>
    <polygon points="425.9272,516.1125 425.9272,515.4461 426.561,515.2401 426.9527,515.7793 426.561,516.3185"/>
    <polygon points="426.9668,519.0589 426.575,519.598 425.9412,519.3921 425.9412,518.7256 426.575,518.5197"/>
    <polygon points="450.6307,527.5152 450.8799,526.8303 451.5977,526.9569 451.7303,527.3213 451.2618,527.8796"/>
    <polygon points="449.5415,530.2717 450.1085,530.8386 449.5415,531.4055 448.9746,530.8386"/>
    <polygon points="447.8851,533.5573 448.452,534.1242 447.8851,534.6911 447.3182,534.1242"/>
    <polygon points="446.557,536.7455 446.7704,537.1887 446.557,537.632 446.0773,537.7414 445.6927,537.4347 445.6927,536.9428 446.0773,536.636"/>
    <polygon points="444.3792,540.5952 443.9945,540.2885 443.9945,539.7965 444.3792,539.4898 444.8588,539.5993 445.0723,540.0425 444.8588,540.4857"/>
    <polygon points="442.2877,542.9416 442.2877,542.4496 442.6723,542.1429 443.1519,542.2524 443.3654,542.6956 443.1519,543.1389 442.6723,543.2483"/>
    <polygon points="440.523,545.158 440.8065,544.667 441.3734,544.667 441.6569,545.158 441.3734,545.6489 440.8065,545.6489"/>
    <polygon points="439.1028,546.9481 439.6697,546.9481 439.9532,547.4391 439.6697,547.9301 439.1028,547.9301 438.8193,547.4391"/>
    <polygon points="438.26,549.5484 437.9765,550.0394 437.4096,550.0394 437.1261,549.5484 437.4096,549.0574 437.9765,549.0574"/>
    <polygon points="435.7321,551.0039 436.299,551.0039 436.5825,551.4949 436.299,551.9858 435.7321,551.9858 435.4486,551.4949"/>
    <polygon points="433.8997,552.954 434.5336,552.7481 434.9253,553.2873 434.5336,553.8265 433.8997,553.6205"/>
    <polygon points="433.2925,554.9341 432.9008,555.4733 432.2669,555.2673 432.2669,554.6008 432.9008,554.3949"/>
    <polygon points="452.8388,523.0033 453.3073,523.5616 452.8388,524.1199 452.2076,523.7555 452.2076,523.3677"/>
    <polygon points="454.3597,518.9901 454.8281,519.5484 454.3597,520.1068 453.9778,520.0394 453.7285,519.3545"/>
    <polygon points="455.1468,515.2708 455.5385,514.7316 455.8889,514.7316 456.2806,515.2708 455.8889,515.81 455.5385,515.81"/>
    <polygon points="457.2597,511.2566 456.9094,511.2566 456.5176,510.7174 456.9094,510.1782 457.5432,510.3841 457.6515,510.7174"/>
    <polygon points="457.8154,506.0366 458.2787,505.3157 458.9263,505.8769 458.2787,506.438"/>
    <polygon points="458.9788,500.8976 459.442,500.1767 460.0896,500.7379 459.442,501.299"/>
    <polygon points="460.5577,494.722 461.1246,495.289 460.5577,495.8559 459.9908,495.289"/>
    <polygon points="460.8959,489.6544 461.2453,488.9887 461.7684,489.0522 462.0133,489.5188 461.5147,490.0816"/>
    <polygon points="462.4913,483.8825 461.9682,483.946 461.6188,483.2802 462.2376,482.8531 462.7362,483.4159"/>
    <polygon points="463.2724,476.9692 462.8316,477.5219 462.352,477.4124 462.1385,476.9692 462.5793,476.4165 463.0589,476.5259"/>
    <polygon points="463.5997,470.1676 463.208,470.7068 462.4782,470.2855 462.9735,469.6038"/>
    <polygon points="463.068,463.5642 462.5727,463.1183 463.068,462.4366 463.6942,463.0004"/>
    <polygon points="462.9633,454.8902 463.5302,455.4571 462.9633,456.024 462.3964,455.4571"/>
    <polygon points="463.0806,447.5276 462.7664,448.0351 462.3586,448.0729 461.9564,447.4235 462.566,446.9631"/>
    <polygon points="462.1838,438.838 462.3164,439.2024 461.8479,439.7607 461.3152,439.5668 461.1825,439.2024 461.651,438.6441"/>
    <polygon points="460.7788,431.022 460.0805,430.5658 460.5928,429.9075 461.2066,430.4725"/>
    <polygon points="459.7184,421.3294 459.1514,421.8963 458.5845,421.3294 459.1514,420.7625"/>
    <polygon points="457.2923,412.331 456.6894,411.8502 456.8344,411.38 457.2923,411.2003 457.8169,411.7657"/>
    <polygon points="454.979,402.3357 454.527,402.203 454.3314,401.7745 454.8176,401.2134 455.2696,401.3461 455.4652,401.7745"/>
    <polygon points="452.1727,391.9055 451.4957,391.4276 452.0186,390.7848 452.6243,391.3504"/>
    <polygon points="339.2578,374.6678 339.1251,374.3033 339.5936,373.745 340.1263,373.9389 340.259,374.3033 339.7905,374.8617"/>
    <polygon points="329.2931,366.7765 329.8055,366.1182 330.4192,366.6832 329.9915,367.2328"/>
    <polygon points="319.221,358.4614 319.7879,359.0284 319.221,359.5953 318.6541,359.0284"/>
    <polygon points="308.3227,351.3661 307.7981,351.9314 307.1952,351.4506 307.3402,350.9805 307.7981,350.8007"/>
    <polygon points="295.0417,344.1551 294.8461,343.7266 295.3323,343.1655 295.7843,343.2982 295.9799,343.7266 295.4937,344.2878"/>
    <polygon points="282.1092,335.5778 282.7148,336.1435 282.2632,336.6985 281.5862,336.2207"/>
    <polygon points="268.4814,328.6533 267.9145,329.2203 267.3476,328.6533 267.9145,328.0864"/>
    <polygon points="252.7016,320.7309 253.2329,321.2967 252.7016,321.8625 252.1035,321.3677 252.2073,320.9634"/>
    <polygon points="235.7913,314.0519 236.4529,313.5594 236.9213,314.1177 236.3214,314.6837"/>
    <polygon points="218.9311,306.5978 219.498,307.1647 218.9311,307.7317 218.3641,307.1647"/>
    <polygon points="200.9134,300.4903 200.4057,301.0542 199.7795,300.4903 200.2872,299.9265"/>
    <polygon points="179.9864,294.209 180.5217,293.5855 181.1174,294.1517 180.6363,294.7121"/>
    <polygon points="159.4117,287.6495 159.9027,287.8195 160.0593,288.2107 159.5194,288.777 158.928,288.2646"/>
    <polygon points="136.5543,282.7344 137.0689,282.1699 137.6882,282.7344 137.1735,283.2989"/>
    <polygon points="335.2607,617.204 334.7974,616.8025 335.2607,616.0816 335.9083,616.6428"/>
    <polygon points="334.4136,622.2975 333.6341,621.9415 334.0974,621.2206 334.745,621.7818"/>
    <polygon points="332.5761,627.2307 333.1431,626.6638 333.71,627.2307 333.1431,627.7976"/>
    <polygon points="331.704,633.1366 331.8301,632.625 332.3228,632.4381 332.8214,633.0009 332.3228,633.5637"/>
    <polygon points="331.5999,638.541 332.0985,639.1038 331.5999,639.6666 330.9811,639.2395 331.1072,638.7278"/>
    <polygon points="330.4284,645.5505 330.8692,644.9978 331.3488,645.1073 331.5622,645.5505 331.1215,646.1032 330.6418,645.9937"/>
    <polygon points="331.2349,652.3521 330.8432,652.8913 330.1135,652.4699 330.6088,651.7882"/>
    <polygon points="330.5143,658.9555 331.1405,659.5193 330.5143,660.0831 330.019,659.4014"/>
    <polygon points="330.1706,667.0626 330.7375,666.4957 331.3044,667.0626 330.7375,667.6295"/>
    <polygon points="330.6298,675.0962 330.7051,674.6936 331.2394,674.4275 331.754,674.9921 331.2394,675.5566"/>
    <polygon points="331.3844,683.3173 331.8529,682.7589 332.2348,682.8263 332.5182,683.3173 332.0498,683.8756 331.517,683.6817"/>
    <polygon points="333.0143,691.4822 333.6281,692.0472 333.2003,692.5968 332.5019,692.1405"/>
    <polygon points="334.5493,701.7572 333.9824,701.1903 334.5493,700.6234 335.1163,701.1903"/>
    <polygon points="335.8902,710.8385 336.3247,710.2013 336.8043,710.3108 337.0178,710.754 336.4932,711.3194"/>
    <polygon points="339.3694,720.7451 338.8832,721.3063 338.4312,721.1736 338.2356,720.7451 338.7218,720.184 339.1738,720.3167"/>
    <polygon points="341.6048,730.6037 342.2104,731.1693 341.7588,731.7244 341.0818,731.2465"/>
    <polygon points="345.582,742.0311 345.0151,742.598 344.4482,742.0311 345.0151,741.4641"/>
    <polygon points="349.5279,753.3336 348.9966,753.8995 348.3986,753.4047 348.8548,752.7768 349.2648,752.855"/>
    <polygon points="354.0942,765.0789 353.4943,765.6449 352.9642,765.1447 353.4943,764.5129"/>
    <polygon points="358.7625,777.834 358.1956,777.2671 358.7625,776.7001 359.3294,777.2671"/>
    <polygon points="364.1507,789.8966 364.6583,789.3327 365.2845,789.8966 364.7769,790.4604"/>
    <polygon points="370.8823,803.0213 371.4176,802.3977 372.0132,802.9639 371.5321,803.5243"/>
    <polygon points="379.0318,817.0297 378.4405,816.5173 378.9241,815.9023 379.3337,816.0016 379.5717,816.4634"/>
    <polygon points="387.4,829.8226 388.0192,830.3871 387.5046,830.9516 386.8853,830.3871"/>
    <polygon points="600.6365,604.017 601.2364,604.5829 600.6365,605.1489 600.1064,604.6487"/>
    <polygon points="612.8576,599.9147 612.2907,599.3477 612.8576,598.7808 613.4245,599.3477"/>
    <polygon points="625.4279,592.8288 626.054,593.3926 625.5464,593.9565 624.9202,593.3926"/>
    <polygon points="638.6403,586.1036 639.1214,586.664 638.5257,587.2302 637.9904,586.6066"/>
    <polygon points="652.081,579.6717 651.4896,579.1593 651.9733,578.5443 652.4643,578.7142 652.6209,579.1054"/>
    <polygon points="666.5446,570.658 666.03,571.2225 665.4108,570.658 665.9254,570.0935"/>
  </g>
</svg>
