<?xml version="1.0" encoding="utf-8" ?>
<svg xmlns="http://www.w3.org/2000/svg" xmlns:cc="http://creativecommons.org/ns#" xmlns:dc="http://purl.org/dc/elements/1.1/" xmlns:ev="http://www.w3.org/2001/xml-events" xmlns:inkscape="http://www.inkscape.org/namespaces/inkscape" xmlns:rdf="http://www.w3.org/1999/02/22-rdf-syntax-ns#" xmlns:sodipodi="http://sodipodi.sourceforge.net/DTD/sodipodi-0.dtd" xmlns:xlink="http://www.w3.org/1999/xlink" baseProfile="tiny" height="29.7cm" version="1.2" viewBox="0 0 793.7007874015749 1122.5196850393702" width="21.0cm">
  <metadata>
    <rdf:RDF>
      <cc:Work>
        <dc:format>image/svg+xml</dc:format>
        <dc:source/>
        <dc:date>2021-11-29T11:10:31.006232</dc:date>
      </cc:Work>
    </rdf:RDF>
  </metadata>
  <defs/>
  <g fill="none" id="layer1" inkscape:groupmode="layer" inkscape:label="1" stroke="#00f" style="display:inline">
    <polygon points="63.9888,251.972 64.5558,251.4051 216.1377,251.5711 216.1377,403.554 64.1549,403.554"/>
    <polygon points="66.2565,253.6728 66.2565,401.4523 214.0361,401.4523 214.0361,253.6728"/>
    <polygon points="64.5558,249.1373 215.7369,249.1373 217.0542,249.462 217.8586,250.0923 218.5715,251.972 218.5715,403.1531 218.2468,404.4704 217.6166,405.2749 215.7369,405.9877 64.5558,405.9877 63.2384,405.663 62.434,405.0328 61.7211,403.1531 61.7211,251.972 62.434,250.0923 63.5506,249.3215"/>
    <polygon points="210.6345,257.0743 69.6581,257.0743 69.6581,398.0507 210.6345,398.0507"/>
    <polygon points="211.7684,255.9405 68.5243,255.9405 68.5243,399.1846 211.7684,399.1846"/>
    <polygon points="215.1699,252.5389 65.1227,252.5389 65.1227,402.5862 215.1699,402.5862"/>
    <polygon points="217.0397,250.8787 217.4376,251.972 217.4376,403.1531 216.8301,404.456 215.7369,404.8539 64.5558,404.8539 63.2529,404.2463 62.855,403.1531 62.855,251.972 63.2529,250.8787 64.5558,250.2712 215.7369,250.2712"/>
    <polygon points="219.4658,248.4894 220.4168,249.9392 220.8392,251.972 220.8392,403.1531 220.4168,405.1859 219.2195,406.8821 217.7696,407.833 215.7369,408.2554 64.5558,408.2554 62.523,407.833 60.8268,406.6357 59.8758,405.1859 59.4534,403.1531 59.4534,251.972 59.8758,249.9392 61.0731,248.243 62.523,247.292 64.5558,246.8696 215.7369,246.8696 217.7696,247.292"/>
    <polygon points="325.1542,251.972 329.1227,248.0035 480.3038,248.0035 484.2723,251.972 484.2723,403.1531 480.3038,407.1216 329.1227,407.1216 325.1542,403.1531"/>
    <polygon points="326.288,251.972 329.1227,249.1373 480.3038,249.1373 483.1384,251.972 483.1384,403.1531 480.3038,405.9877 329.1227,405.9877 326.288,403.1531"/>
    <polygon points="329.1227,251.4051 480.3038,251.4051 480.8707,251.972 480.8707,403.1531 480.3038,403.72 329.1227,403.72 328.5558,403.1531 328.5558,251.972"/>
    <polygon points="331.9573,254.8066 331.9573,400.3184 477.4691,400.3184 477.4691,254.8066"/>
    <polygon points="333.0912,255.9405 333.0912,399.1846 476.3353,399.1846 476.3353,255.9405"/>
    <polygon points="334.225,398.0507 475.2014,398.0507 475.2014,257.0743 334.225,257.0743"/>
    <polygon points="330.3602,473.7936 481.5413,511.5889 484.5492,519.3692 408.9587,632.755 400.1495,632.2066 324.559,481.0255"/>
    <polygon points="330.0852,474.8936 481.2663,512.6889 483.6058,518.7402 408.0152,632.1261 401.1637,631.6995 325.5731,480.5184"/>
    <polygon points="334.4143,482.9884 405.0642,624.2881 475.714,518.3134"/>
    <polygon points="216.4244,513.7889 217.3463,514.2055 218.2399,515.2086 218.5545,516.8488 218.0954,518.1113 142.5049,631.4971 141.483,632.4244 140.4919,632.7382 139.1225,632.568 138.2384,632.0212 137.6109,631.1924 62.0204,480.0113 61.7474,478.3588 62.2423,477.1057 63.5708,476.0856 65.2433,475.9936"/>
    <polygon points="216.2171,516.2376 216.2086,516.8534 140.4498,630.4036 139.6392,630.1783 64.0487,478.9972 64.1135,478.3889 64.6933,478.1936"/>
    <polygon points="207.4752,519.7329 74.0807,486.3843 140.778,619.7788"/>
    <polygon points="217.414,406.7498 215.7369,407.1216 64.5558,407.1216 62.8786,406.7498 61.7496,405.9592 60.9591,404.8302 60.5872,403.1531 60.5872,251.972 60.9591,250.2948 61.7496,249.1658 63.1984,248.2428 64.5558,248.0035 215.7369,248.0035 217.0942,248.2428 218.543,249.1658 219.466,250.6147 219.7054,251.972 219.7054,403.1531 219.466,404.5104 218.543,405.9592"/>
    <polygon points="212.9022,400.3184 212.9022,254.8066 67.3904,254.8066 67.3904,400.3184"/>
    <polygon points="140.6376,622.0335 209.3112,519.0231 71.964,484.6863"/>
    <polygon points="140.4972,624.2881 211.1471,518.3134 69.8474,482.9884"/>
    <polygon points="140.3569,626.5428 212.983,517.6036 67.7307,481.2905"/>
    <polygon points="140.2165,628.7974 214.8189,516.8938 65.6141,479.5926"/>
    <polygon points="140.9018,631.4485 139.7481,631.5782 138.6251,630.6854 63.0345,479.5043 62.8583,478.6376 63.141,477.7997 64.084,477.1096 64.9683,477.0936 216.1494,514.8889 217.2639,515.7901 217.4339,516.6512 217.152,517.4823 141.5614,630.8682"/>
    <polygon points="141.9092,633.4802 140.5898,633.8684 138.8851,633.6875 137.4157,632.8045 136.5968,631.6995 61.0062,480.5184 60.595,478.4963 61.4602,476.2604 63.4551,474.9308 65.5183,474.8936 216.6994,512.6889 218.232,513.453 219.3,514.7917 219.6967,516.8008 219.0388,518.7402 143.4483,632.1261"/>
    <polygon points="144.3917,632.755 142.3355,634.5336 140.688,634.9983 138.6475,634.802 136.849,633.8185 135.5826,632.2066 59.9921,481.0255 59.5427,479.694 59.4736,478.2904 59.9271,476.5967 60.6883,475.4154 61.7429,474.4866 63.0109,473.8808 64.396,473.6438 65.7933,473.7936 216.9744,511.5889 219.1144,512.7145 220.3592,514.3783 220.8349,516.7491 220.5888,518.1178 219.9823,519.3692"/>
    <polygon points="217.2134,704.6712 217.4371,705.5578 213.6576,856.7389 213.416,857.571 212.5306,858.2976 211.3853,858.2981 159.3655,839.7196 122.3111,869.3631 121.2393,869.7357 120.4099,869.5145 119.7942,868.9165 44.2036,744.1921 44.0423,742.7797 44.5163,742.05 45.2892,741.6503 215.3679,703.855 216.5629,704.0286"/>
    <polygon points="180.592,761.203 180.7762,762.2082 180.7762,800.0035 180.0633,801.8832 178.9468,802.6539 177.9416,802.8381 140.1463,802.8381 138.2666,802.1252 137.4959,801.0087 137.3117,800.0035 137.3117,762.2082 138.0245,760.3285 139.1411,759.5578 140.1463,759.3736 177.9416,759.3736 179.8213,760.0864"/>
    <polygon points="179.0348,760.9053 179.6424,762.2082 179.6424,800.0035 179.2445,801.0967 177.9416,801.7043 140.1463,801.7043 139.0531,801.3064 138.4455,800.0035 138.4455,762.2082 138.8434,761.115 140.1463,760.5074 177.9416,760.5074"/>
    <polygon points="176.2408,763.909 141.8471,763.909 141.8471,798.3027 176.2408,798.3027"/>
    <polygon points="172.8392,794.9011 172.8392,767.3106 145.2487,767.3106 145.2487,794.9011"/>
    <polygon points="182.7493,801.7122 181.6706,803.4861 179.9744,804.6834 177.9416,805.1058 140.1463,805.1058 138.4376,804.8112 136.6637,803.7325 135.4664,802.0363 135.0558,800.3517 135.0439,762.2082 135.3385,760.4995 136.4173,758.7256 138.1135,757.5283 139.7981,757.1177 177.9416,757.1058 179.6503,757.4004 181.4242,758.4792 182.6215,760.1754 183.0439,762.2082 183.0439,800.0035"/>
    <polygon points="144.1148,796.035 173.9731,796.035 173.9731,766.1767 144.1148,766.1767"/>
    <polygon points="142.9809,797.1688 175.1069,797.1688 175.1069,765.0429 142.9809,765.0429"/>
    <polygon points="140.7132,799.4366 177.3747,799.4366 177.3747,762.7751 140.7132,762.7751"/>
    <polygon points="138.789,803.7327 137.5954,803.0435 136.5496,801.6806 136.1778,800.0035 136.1778,762.2082 136.4171,760.8509 137.3401,759.402 138.4691,758.6115 139.8004,758.2548 177.9416,758.2397 179.2989,758.479 180.4925,759.1682 181.5383,760.531 181.9101,762.2082 181.9101,800.0035 181.6708,801.3608 180.9816,802.5544 179.6187,803.6002 177.9416,803.972 140.1463,803.972"/>
    <polygon points="158.5759,835.003 159.9973,835.1293 209.2215,852.7093 212.8125,709.0689 50.1303,745.2205 121.9993,863.8044 157.2732,835.5853"/>
    <polygon points="121.699,865.4966 157.9815,836.4707 158.7631,836.1213 159.616,836.1971 210.3158,854.3041 213.9822,707.6475 48.3414,744.4566"/>
    <polygon points="121.3988,867.1889 159.0461,837.2318 211.4102,855.899 215.152,706.226 46.5525,743.6926"/>
    <polygon points="120.0386,871.8145 119.0792,871.358 117.8548,870.0919 42.2643,745.3675 41.7152,743.7609 42.0085,741.7519 42.9939,740.3694 44.7972,739.4366 214.876,701.6413 216.2393,701.5787 217.8414,702.1508 219.232,703.6356 219.7041,705.6145 215.9246,856.7956 215.3609,858.7372 214.475,859.764 213.2951,860.4326 210.948,860.5344 159.7942,842.2807 123.4408,871.3431 121.4398,871.9989"/>
    <polygon points="208.1271,851.1145 211.6427,710.4904 51.9192,745.9845 122.2995,862.1121 156.5648,834.6999 158.3887,833.8847 160.3787,834.0615"/>
    <polygon points="212.651,859.4448 211.0039,859.3659 159.5798,841.0002 123.0195,870.2485 121.4395,870.8632 119.7912,870.4662 118.8245,869.5042 43.2339,744.7798 42.8305,743.5106 43.0513,742.1972 43.8474,741.1296 45.0432,740.5434 215.1219,702.7481 216.1443,702.7101 217.4025,703.2216 218.2783,704.2597 218.5706,705.5861 214.7911,856.7672 214.2722,858.3325"/>
    <polygon points="215.1212,860.6994 213.9396,861.3979 212.2721,861.789 210.569,861.6063 160.0086,843.5613 124.1579,872.2267 122.9243,872.8544 121.2205,873.1373 118.5828,872.3855 116.8851,870.6795 41.2946,745.9551 40.5685,743.6706 40.9658,741.3066 42.3988,739.3849 44.5513,738.3297 214.63,700.5344 216.6731,700.4996 218.5661,701.2692 220.3414,703.317 220.8376,705.6428 217.0581,856.8239 216.2677,859.4268"/>
    <polygon points="139.5794,762.2082 140.1463,761.6413 178.3425,761.8073 178.3425,800.4044 139.7454,800.4044"/>
    <polygon points="53.708,746.7485 122.5998,860.4199 155.8565,833.8145 158.3727,832.7407 160.7601,832.9936 207.0328,849.5196 210.473,711.9119"/>
    <polygon points="45.1733,743.6044 45.1881,742.9936 45.5351,742.7571 216.0122,705.0197 216.3036,705.5295 212.3602,857.0953 211.7666,857.2303 159.1511,838.439 121.6028,868.4777 120.9282,868.5026"/>
    <polygon points="308.7705,744.1921 309.8561,741.6503 479.9348,703.855 482.004,705.5578 478.2245,856.7389 475.9522,858.2981 423.9324,839.7196 386.8781,869.3631 384.3611,868.9165"/>
    <polygon points="310.1021,742.7571 480.1808,704.9619 480.8705,705.5295 477.091,856.7106 476.3336,857.2303 423.7181,838.439 386.1698,868.4777 385.3308,868.3288 309.7402,743.6044"/>
    <polygon points="309.1182,738.3297 479.1969,700.5344 485.4046,705.6428 481.625,856.8239 474.8081,861.5015 424.5755,843.5613 389.003,872.0193 381.4521,870.6795 305.8615,745.9551"/>
    <polygon points="406.414,763.909 406.414,798.3027 440.8077,798.3027 440.8077,763.909"/>
    <polygon points="407.5479,765.0429 407.5479,797.1688 439.6739,797.1688 439.6739,765.0429"/>
    <polygon points="437.4061,767.3106 409.8156,767.3106 409.8156,794.9011 437.4061,794.9011"/>
    <polygon points="438.54,766.1767 408.6817,766.1767 408.6817,796.035 438.54,796.035"/>
    <polygon points="441.9416,762.7751 405.2802,762.7751 405.2802,799.4366 441.9416,799.4366"/>
    <polygon points="442.5085,761.6413 443.0754,762.2082 443.0754,800.0035 442.5085,800.5704 404.7132,800.5704 404.1463,800.0035 404.1463,762.2082 404.7132,761.6413"/>
    <polygon points="442.5085,759.3736 445.3432,762.2082 445.3432,800.0035 442.5085,802.8381 404.7132,802.8381 401.8786,800.0035 401.8786,762.2082 404.7132,759.3736"/>
    <polygon points="442.5085,801.7043 404.7132,801.7043 403.0124,800.0035 403.0124,762.2082 404.7132,760.5074 442.5085,760.5074 444.2093,762.2082 444.2093,800.0035"/>
    <polygon points="404.7132,803.972 400.7447,800.0035 400.7447,762.2082 404.7132,758.2397 442.5085,758.2397 446.477,762.2082 446.477,800.0035 442.5085,803.972"/>
    <polygon points="404.7132,805.1058 399.6109,800.0035 399.6109,762.2082 404.7132,757.1058 442.5085,757.1058 447.6109,762.2082 447.6109,800.0035 442.5085,805.1058"/>
    <polygon points="386.5662,863.8044 421.8401,835.5853 424.5643,835.1293 473.7884,852.7093 477.3794,709.0689 314.6972,745.2205"/>
    <polygon points="387.5864,870.2485 383.3914,869.5042 307.8009,744.7798 309.6101,740.5434 479.6889,702.7481 483.1375,705.5861 479.358,856.7672 475.5709,859.3659 424.1468,841.0002"/>
    <polygon points="472.6941,851.1145 476.2097,710.4904 316.4861,745.9845 386.8664,862.1121 421.1318,834.6999 424.9456,834.0615"/>
    <polygon points="474.8827,854.3041 478.5492,707.6475 312.9083,744.4566 386.266,865.4966 422.5484,836.4707 424.1829,836.1971"/>
    <polygon points="475.0399,711.9119 318.275,746.7485 387.1667,860.4199 420.4235,833.8145 425.327,832.9936 471.5997,849.5196"/>
    <polygon points="479.7189,706.226 311.1195,743.6926 385.9657,867.1889 423.2567,837.3561 423.8015,837.2649 475.9771,855.899"/>
    <polygon points="479.4429,701.6413 484.271,705.6145 480.4915,856.7956 475.1895,860.4337 424.3611,842.2807 388.2947,871.1339 382.4217,870.0919 306.8312,745.3675 309.3642,739.4366"/>
    <polygon points="566.7421,739.8726 750.1346,699.1187 746.0157,863.8732 689.1424,843.5613 649.0314,875.6501"/>
    <polygon points="572.1087,742.1646 746.6253,703.3831 742.7327,859.0887 688.4993,839.7196 649.9322,870.5733"/>
    <polygon points="579.2641,745.2205 651.1331,863.8044 687.6419,834.5974 738.3553,852.7093 741.9463,709.0689"/>
    <polygon points="668.7132,761.6413 707.6424,761.6413 707.6424,800.5704 668.7132,800.5704"/>
    <polygon points="674.3825,767.3106 674.3825,794.9011 701.9731,794.9011 701.9731,767.3106"/>
    <polygon points="703.1069,766.1767 673.2487,766.1767 673.2487,796.035 703.1069,796.035"/>
    <polygon points="704.2408,797.1688 704.2408,765.0429 672.1148,765.0429 672.1148,797.1688"/>
    <polygon points="708.7762,801.7043 667.5794,801.7043 667.5794,760.5074 708.7762,760.5074"/>
    <polygon points="709.9101,802.8381 666.4455,802.8381 666.4455,759.3736 709.9101,759.3736"/>
    <polygon points="670.9809,798.3027 705.3747,798.3027 705.3747,763.909 670.9809,763.909"/>
    <polygon points="669.8471,799.4366 706.5085,799.4366 706.5085,762.7751 669.8471,762.7751"/>
    <polygon points="665.3117,803.972 665.3117,758.2397 711.0439,758.2397 711.0439,803.972"/>
    <polygon points="664.1778,805.1058 664.1778,757.1058 712.1778,757.1058 712.1778,805.1058"/>
    <polygon points="688.0706,837.1585 740.544,855.899 744.2858,706.226 575.6864,743.6926 650.5326,867.1889"/>
    <polygon points="688.9281,842.2807 649.3317,873.9578 568.5309,740.6366 748.9648,700.5402 744.9214,862.2783"/>
    <polygon points="650.8329,865.4966 687.8563,835.8779 739.4497,854.3041 743.1161,707.6475 577.4753,744.4566"/>
    <polygon points="650.2324,868.8811 573.8975,742.9286 745.4556,704.8046 741.6384,857.4938 688.285,838.439"/>
    <polygon points="736.1666,849.5196 739.6068,711.9119 582.8419,746.7485 651.7336,860.4199 687.2132,832.0362"/>
    <polygon points="743.827,860.6835 688.7137,841.0002 649.6319,872.2656 570.3198,741.4006 747.7951,701.9616"/>
    <polygon points="740.7766,710.4904 581.053,745.9845 651.4334,862.1121 687.4275,833.3168 737.261,851.1145"/>
    <polygon points="668.7889,637.816 586.2813,472.8009 751.2964,514.0547"/>
    <polygon points="668.9292,635.5614 588.398,474.4988 749.4605,514.7645"/>
    <polygon points="669.4907,626.5428 742.1168,517.6036 596.8646,481.2905"/>
    <polygon points="669.6311,624.2881 740.2809,518.3134 598.9812,482.9884"/>
    <polygon points="745.7887,516.184 669.21,631.0521 592.6313,477.8947"/>
    <polygon points="753.1323,513.3449 668.6485,640.0706 584.1647,471.103"/>
    <polygon points="749.9731,408.2554 588.5872,408.2554 588.5872,246.8696 749.9731,246.8696"/>
    <polygon points="747.7054,405.9877 590.855,405.9877 590.855,249.1373 747.7054,249.1373"/>
    <polygon points="598.792,398.0507 739.7684,398.0507 739.7684,257.0743 598.792,257.0743"/>
    <polygon points="597.6581,399.1846 740.9022,399.1846 740.9022,255.9405 597.6581,255.9405"/>
    <polygon points="594.2565,402.5862 744.3038,402.5862 744.3038,252.5389 594.2565,252.5389"/>
    <polygon points="593.1227,403.72 593.1227,251.4051 745.4376,251.4051 745.4376,403.72"/>
    <polygon points="590.5146,476.1968 747.6246,515.4742 669.0696,633.3067"/>
    <polygon points="594.7479,479.5926 669.3503,628.7974 743.9528,516.8938"/>
    <polygon points="601.0979,484.6863 669.7715,622.0335 738.445,519.0231"/>
    <polygon points="603.2145,486.3843 669.9118,619.7788 736.6091,519.7329"/>
    <polygon points="479.3858,516.8938 330.181,479.5926 404.7834,628.7974"/>
    <polygon points="477.5499,517.6036 332.2977,481.2905 404.9238,626.5428"/>
    <polygon points="479.7369,402.5862 479.7369,252.5389 329.6896,252.5389 329.6896,402.5862"/>
    <polygon points="478.603,253.6728 330.8235,253.6728 330.8235,401.4523 478.603,401.4523"/>
    <polygon points="482.0046,251.972 482.0046,403.1531 480.3038,404.8539 329.1227,404.8539 327.4219,403.1531 327.4219,251.972 329.1227,250.2712 480.3038,250.2712"/>
    <polygon points="480.3038,246.8696 485.4061,251.972 485.4061,403.1531 480.3038,408.2554 329.1227,408.2554 324.0203,403.1531 324.0203,251.972 329.1227,246.8696"/>
    <polygon points="595.3904,253.6728 595.3904,401.4523 743.1699,401.4523 743.1699,253.6728"/>
    <polygon points="596.5243,254.8066 596.5243,400.3184 742.0361,400.3184 742.0361,254.8066"/>
    <polygon points="746.5715,250.2712 746.5715,404.8539 591.9888,404.8539 591.9888,250.2712"/>
    <polygon points="748.8392,248.0035 748.8392,407.1216 589.7211,407.1216 589.7211,248.0035"/>
    <polygon points="405.3449,619.7788 472.0422,519.7329 338.6476,486.3843"/>
    <polygon points="405.2045,622.0335 473.8781,519.0231 336.531,484.6863"/>
    <polygon points="404.2062,630.1783 328.6156,478.9972 329.2602,478.1936 480.4413,515.9889 480.7755,516.8534 405.1849,630.2392"/>
    <polygon points="403.192,630.6854 327.6015,479.5043 329.5352,477.0936 480.7163,514.8889 481.7189,517.4823 406.1284,630.8682"/>
    <polygon points="402.1778,631.1924 326.5873,480.0113 329.8102,475.9936 480.9913,513.7889 482.6624,518.1113 407.0718,631.4971"/>
  </g>
</svg>
