<?xml version="1.0" encoding="utf-8" ?>
<svg xmlns="http://www.w3.org/2000/svg" xmlns:cc="http://creativecommons.org/ns#" xmlns:dc="http://purl.org/dc/elements/1.1/" xmlns:ev="http://www.w3.org/2001/xml-events" xmlns:inkscape="http://www.inkscape.org/namespaces/inkscape" xmlns:rdf="http://www.w3.org/1999/02/22-rdf-syntax-ns#" xmlns:sodipodi="http://sodipodi.sourceforge.net/DTD/sodipodi-0.dtd" xmlns:xlink="http://www.w3.org/1999/xlink" baseProfile="tiny" height="14.8cm" version="1.2" viewBox="0 0 793.7007874015749 559.3700787401575" width="21.0cm">
  <metadata>
    <rdf:RDF>
      <cc:Work>
        <dc:format>image/svg+xml</dc:format>
        <dc:source>Generated with vsketch</dc:source>
        <dc:date>2020-08-16T11:10:55.281877</dc:date>
      </cc:Work>
    </rdf:RDF>
  </metadata>
  <defs/>
  <g fill="none" id="layer1" inkscape:groupmode="layer" inkscape:label="1" stroke="#00f" style="display:inline">
    <path d="M151.18098432022504,279.68503937007875 L151.17722506549478,279.30812036478807 L151.16594879694023,278.9313513184043 L151.14716000087515,278.5548821301726 L151.1208661525058,278.17886258003807 L151.08707771295704,277.80344226905544 L151.04580812511017,277.4287705598694 L150.99707380825473,277.05499651729014 L150.940894151556,276.68226884898706 L150.87729150634087,276.310735846325 L150.8062911772054,275.94054532536575 L150.72792141194708,275.5718445680587 L150.64221339032648,275.2047802636442 L150.54920121166214,274.8394984502924 L150.44892188126414,274.4761444570016 L150.34141529571116,274.1148628457782 L150.22672422697767,273.75579735412214 L150.10489430541674,273.39909083784033 L149.9759740016059,273.04488521421086 L149.8400146070629,272.6933214055204 L149.69707021383903,272.3445392829979 L149.5471976929986,271.998677611166 L149.39045667199224,271.655873992633 L149.2269095109341,271.31626481334706 L149.0566212777914,270.9799851883345 L148.87965972249708,270.64716890794364 L148.6960952499949,270.3179483846155 L148.5060008922288,269.99245460020336 L148.30945227908663,269.67081705386073 L148.10652760831053,269.35316371051954 L147.89730761438557,269.0396209499788 L147.68187553641928,268.730313516624 L147.46031708502446,268.42536446979653 L147.23272040821888,268.12489513483456 L146.99917605635534,267.8290250548027 L146.75977694609549,267.53787194293153 L146.51461832344287,267.25155163578495 L146.26379772584866,266.9701780471738 L146.00741494340602,266.69386312283495 L145.74557197914808,266.4227167958931 L145.47837300846578,266.15684694312347 L145.205924337661,265.89635934203244 L144.92833436165228,265.6413576287737 L144.6457135208493,265.3919432569158 L144.35817425721382,265.1482154570788 L144.06583096952394,264.91027119745456 L143.76879996786025,264.6782051452278 L143.4671994273312,264.45210962891224 L143.16114934105667,264.23207460161706 L142.85077147242814,264.0181876052591 L142.5361893066646,263.8105337357335 L142.2175280016834,263.6091956090582 L141.89491433830565,263.4142533285046 L141.5684766698158,263.22578445272836 L141.23834487089587,263.0438639649121 L140.90465028595412,262.8685642429329 L140.56752567686902,262.6999550305669 L140.22710517016958,262.53810340974115 L139.8835242036723,262.38307377384456 L139.5369194725967,262.2349278021091 L139.18742887518053,262.09372443507016 L138.83519145781636,261.95951985111697 L138.48034735973127,261.83236744414165 L138.1230377572319,261.7123178022963 L137.76340480753692,261.59941868786626 L137.40159159221884,261.4937150182675 L137.03774206027873,261.3952488481764 L136.6720009708753,261.30405935279776 L136.30451383573174,261.2201828122789 L135.93542686124337,261.1436525972755 L135.56488689030877,261.0744991556748 L135.19304134390757,261.01275000048196 L134.82003816244844,260.9584296988737 L134.44602574691038,260.91155986242416 L134.07115289980055,260.87215913850685 L133.69556876595274,260.84024320287534 L133.31942277318933,260.8158247534271 L132.94286457287072,260.79891350515095 L132.566043980356,260.7895161862626 L132.18911091539812,260.7876365355271 L131.8122153424977,260.793275300772 L131.43550721123893,260.80643023858937 L131.05913639663163,260.82709611522847 L130.68325263948256,260.85526470867825 L130.30800548682058,260.89092481193813 L129.93354423239856,260.93406223747706 L129.5600178572963,260.9846598228779 L129.18757497064763,261.04269743766577 L128.81636375051576,261.10815199131673 L128.44653188493982,261.1809974424448 L128.0782265131766,261.2612048091624 L127.71159416716046,261.3487421806111 L127.3467807132051,261.4435747296573 L126.98393129396987,261.54566472674856 L126.62319027071413,261.65497155492426 L126.2647011658625,261.77145172597545 L125.90860660590386,261.8950588977467 L125.55504826464664,262.0257438925736 L125.20416680685348,262.16345471684815 L124.85610183227688,262.3081365817049 L124.510991820119,262.4597319248188 L124.168974073937,262.61818043330663 L123.83018466701624,262.7834190677228 L123.49475838823291,262.95538208713975 L123.16282868842768,263.1340010753035 L122.83452762731166,263.3192049678531 L122.5099858209259,263.5109200805942 L122.1893323896752,263.7090701388142 L121.87269490695697,263.91357630762894 L121.56019934840555,264.1243572233473 L121.25197004177232,264.3413290258421 L120.94812961746132,264.56440539191425 L120.64879895974016,264.79349756963677 L120.35409715864573,265.0285144136653 L120.06414146260363,265.2693624215005 L119.77904723178045,265.5159457706885 L119.49892789218715,265.76816635694433 L119.22389489055202,266.0259238331832 L118.9540576499811,266.28911564944366 L118.68952352642376,266.55763709368824 L118.4303977659606,266.83138133346296 L118.17678346293087,267.1102394584014 L117.92878151891586,267.3941005235551 L117.68649060259482,267.68285159353366 L117.4500071104892,267.97637778743626 L117.21942512861077,268.2745623245579 L116.99483639502918,268.5772865708509 L116.77633026337355,268.88443008612404 L116.56399366728265,269.19587067196017 L116.357911085818,269.51148442033355 L116.1581645098536,269.8311457629071 L115.96483340945534,270.1547275209904 L115.77799470226353,270.48210095613797 L115.59772272289099,270.81313582136903 L115.42408919334851,271.1477004129863 L115.25716319451004,271.4856616229753 L115.09701113862853,271.8268849919616 L114.94369674291354,272.1712347627064 L114.79728100418102,272.5185739341179 L114.65782217458546,272.8687643157581 L114.5253757384441,273.221666582822 L114.3999943901621,273.5771403315693 L114.28172801326795,273.93504413518383 L114.17062366056705,274.29523560004156 L114.06672553542151,274.6575714223621 L113.97007497416374,275.02190744522284 L113.88071042965043,275.3880987159126 L113.79866745596415,275.75599954360143 L113.72397869426777,276.1254635573046 L113.65667385981818,276.49634376411694 L113.59677973014388,276.86849260769435 L113.5443201343914,277.24176202696003 L113.49931594384485,277.6160035150111 L113.4617850636221,277.99106817820285 L113.43174242555119,278.3668067953866 L113.40919998222967,278.7430698772782 L113.39416670226908,279.11970772593264 L113.3866485667269,279.4965704943025 L113.3866485667269,279.87350824585496 L113.39416670226908,280.25037101422487 L113.40919998222967,280.62700886287934 L113.43174242555119,281.00327194477086 L113.4617850636221,281.37901056195466 L113.49931594384485,281.75407522514644 L113.5443201343914,282.1283167131975 L113.59677973014388,282.50158613246316 L113.65667385981818,282.87373497604057 L113.72397869426777,283.24461518285284 L113.79866745596415,283.6140791965561 L113.88071042965043,283.98198002424493 L113.97007497416372,284.3481712949347 L114.06672553542151,284.7125073177954 L114.17062366056705,285.07484314011595 L114.28172801326795,285.4350346049737 L114.39999439016209,285.7929384085882 L114.5253757384441,286.1484121573355 L114.65782217458546,286.5013144243994 L114.797281004181,286.8515048060396 L114.94369674291353,287.19884397745113 L115.09701113862853,287.5431937481959 L115.25716319451003,287.8844171171822 L115.4240891933485,288.22237832717116 L115.59772272289099,288.5569429187885 L115.77799470226353,288.88797778401954 L115.96483340945532,289.21535121916713 L116.15816450985359,289.5389329772504 L116.357911085818,289.8585943198239 L116.56399366728263,290.17420806819734 L116.77633026337355,290.48564865403347 L116.99483639502918,290.7927921693066 L117.21942512861075,291.0955164155996 L117.45000711048918,291.39370095272125 L117.68649060259482,291.68722714662385 L117.92878151891584,291.9759782166024 L118.17678346293086,292.2598392817561 L118.4303977659606,292.53869740669455 L118.68952352642376,292.81244164646927 L118.9540576499811,293.0809630907138 L119.223894890552,293.3441549069743 L119.49892789218714,293.6019123832132 L119.77904723178045,293.854132969469 L120.06414146260363,294.100716318657 L120.35409715864571,294.34156432649223 L120.64879895974016,294.57658117052074 L120.94812961746132,294.80567334824326 L121.25197004177232,295.02874971431544 L121.56019934840555,295.2457215168102 L121.87269490695697,295.45650243252857 L122.1893323896752,295.6610086013433 L122.5099858209259,295.8591586595633 L122.83452762731164,296.0508737723044 L123.16282868842767,296.236077664854 L123.49475838823291,296.41469665301776 L123.83018466701624,296.58665967243473 L124.168974073937,296.7518983068509 L124.510991820119,296.9103468153387 L124.85610183227688,297.0619421584526 L125.20416680685346,297.20662402330936 L125.55504826464664,297.3443348475839 L125.90860660590384,297.4750198424108 L126.26470116586249,297.59862701418206 L126.62319027071412,297.71510718523325 L126.98393129396986,297.82441401340895 L127.34678071320509,297.9265040105002 L127.71159416716046,298.0213365595464 L128.07822651317656,298.1088739309951 L128.44653188493982,298.18908129771273 L128.81636375051576,298.2619267488408 L129.18757497064763,298.32738130249174 L129.5600178572963,298.3854189172796 L129.93354423239853,298.43601650268045 L130.30800548682058,298.4791539282194 L130.68325263948253,298.51481403147926 L131.05913639663163,298.54298262492904 L131.4355072112389,298.56364850156814 L131.81221534249767,298.5768034393855 L132.18911091539812,298.5824422046304 L132.566043980356,298.58056255389494 L132.94286457287075,298.57116523500656 L133.3194227731893,298.55425398673043 L133.69556876595274,298.52983553728217 L134.07115289980052,298.49791960165066 L134.44602574691038,298.45851887773335 L134.82003816244844,298.4116490412838 L135.19304134390757,298.35732873967555 L135.56488689030877,298.2955795844827 L135.93542686124337,298.226426142882 L136.3045138357317,298.1498959278786 L136.67200097087527,298.06601938735974 L137.03774206027873,297.97482989198113 L137.40159159221884,297.87636372189 L137.76340480753692,297.77066005229125 L138.1230377572319,297.6577609378612 L138.48034735973127,297.53771129601586 L138.83519145781634,297.41055888904054 L139.18742887518053,297.27635430508735 L139.53691947259668,297.1351509380484 L139.8835242036723,296.98700496631295 L140.22710517016958,296.83197533041636 L140.56752567686902,296.6701237095906 L140.9046502859541,296.5015144972246 L141.23834487089587,296.32621477524543 L141.5684766698158,296.14429428742915 L141.89491433830563,295.9558254116529 L142.2175280016834,295.7608831310993 L142.53618930666457,295.559545004424 L142.85077147242814,295.35189113489844 L143.16114934105664,295.13800413854045 L143.4671994273312,294.91796911124527 L143.76879996786025,294.6918735949297 L144.06583096952394,294.45980754270295 L144.35817425721382,294.22186328307873 L144.6457135208493,293.9781354832417 L144.92833436165228,293.72872111138383 L145.205924337661,293.47371939812507 L145.47837300846578,293.21323179703404 L145.74557197914808,292.9473619442644 L146.00741494340602,292.67621561732255 L146.26379772584866,292.3999006929837 L146.51461832344287,292.11852710437256 L146.75977694609549,291.832206797226 L146.9991760563553,291.5410536853548 L147.23272040821888,291.24518360532295 L147.46031708502443,290.944714270361 L147.68187553641926,290.6397652235336 L147.89730761438557,290.3304577901787 L148.1065276083105,290.016915029638 L148.30945227908663,289.6992616862968 L148.5060008922288,289.37762413995415 L148.6960952499949,289.05213035554203 L148.87965972249708,288.72290983221393 L149.0566212777914,288.390093551823 L149.2269095109341,288.05381392681045 L149.39045667199224,287.71420474752455 L149.5471976929986,287.3714011289915 L149.69707021383903,287.0255394571596 L149.84001460706287,286.6767573346371 L149.9759740016059,286.32519352594664 L150.10489430541674,285.9709879023172 L150.22672422697767,285.6142813860354 L150.34141529571116,285.2552158943793 L150.44892188126414,284.8939342831559 L150.54920121166214,284.53058028986516 L150.64221339032648,284.1652984765133 L150.72792141194708,283.79823417209883 L150.8062911772054,283.42953341479176 L150.87729150634087,283.05934289383254 L150.940894151556,282.6878098911705 L150.99707380825473,282.3150822228674 L151.04580812511014,281.9413081802881 L151.08707771295704,281.5666364711021 L151.1208661525058,281.19121616011944 L151.14716000087515,280.8151966099849 L151.16594879694023,280.4387274217532 L151.17722506549478,280.06195837536944 L151.18098432022504,279.68503937007875"/>
    <path d="M170.07862211550062,279.68503937007875 L170.0767364599871,279.307502373337 L170.07107968160213,278.93000304822004 L170.0616523447938,278.55257906259357 L170.0484553902463,278.17526807680576 L170.03149013478617,277.79810773992943 L170.01075827125072,277.42113568600524 L169.98626186831936,277.0443895302865 L169.95800337030693,276.6679068654856 L169.92598559691996,276.2917252580234 L169.89021174297523,275.91588224428045 L169.8506853780811,275.5404153268513 L169.80741044628115,275.16536197080285 L169.76039126566084,274.79075959993577 L169.70963252791637,274.4166455930501 L169.65513929788688,274.0430572802157 L169.5969170130487,273.6700319390474 L169.53497148297308,273.29760679098524 L169.4693088887463,272.92581899758034 L169.39993578235305,272.55470565678695 L169.32685908602252,272.1843037992607 L169.2500860915378,271.81465038466354 L169.1696244595082,271.4457822979759 L169.08548221860494,271.07773634581605 L168.9976677647599,270.7105492527676 L168.90618986032803,270.34425765771493 L168.8110576332128,269.9788981101873 L168.71228057595565,269.6145070667119 L168.60986854478853,269.251120887176 L168.50383175865068,268.8887758311989 L168.3941807981687,268.527508054514 L168.28092660460104,268.16735360536086 L168.16408047874603,267.8083484208883 L168.04365407981447,267.4505283235687 L167.919659424266,267.09392901762305 L167.79210888461034,266.7385860854589 L167.66101518817243,266.38453498411934 L167.52639141582273,266.0318110417454 L167.38825100067186,265.6804494540506 L167.2466077267302,265.33048528080917 L167.1014757275325,264.98195344235774 L166.95286948472753,264.63488871611077 L166.8008038266333,264.2893257330905 L166.64529392675715,263.94529897447137 L166.48635530228188,263.6028427681392 L166.32400381251736,263.2619912852663 L166.15825565731805,262.92277853690103 L165.98912737546652,262.5852383705749 L165.81663584302316,262.2494044669249 L165.64079827164235,261.91531033633237 L165.46163220685486,261.5829893155798 L165.2791555263172,261.25247456452405 L165.09338643802778,260.9237990627878 L164.90434347851007,260.59699560646845 L164.71204551096284,260.272096804866 L164.5165117233781,259.9491350772291 L164.31776162662638,259.6281426495199 L164.11581505250996,259.30915155119874 L163.9106921517839,258.99219361202825 L163.70241339214544,258.677300458897 L163.49099955619164,258.3645035126639 L163.2764717393456,258.0538339850227 L163.05885134775156,257.7453228753882 L162.83816009613898,257.43900096780214 L162.61442000565566,257.1348988278623 L162.3876534016705,256.83304679967216 L162.1578829115458,256.53347500281313 L161.92513146237948,256.2362133293393 L161.68942227871725,255.94129144079463 L161.4507788802353,255.64873876525317 L161.20922507939343,255.3585844943828 L160.96478497905895,255.07085758053228 L160.71748297010168,254.78558673384236 L160.4673437289601,254.5028004193811 L160.2143922151791,254.22252685430337 L159.95865366891948,253.94479400503542 L159.7001536084394,253.6696295844842 L159.43891782754812,253.39706104927222 L159.17497239303214,253.12711559699778 L158.90834364205435,252.8598201635211 L158.63905817952585,252.59520142027662 L158.36714287545138,252.33328577161168 L158.09262486224813,252.07409935215182 L157.8155315320384,251.81766802419295 L157.53589053391624,251.56401737512078 L157.25372977118874,251.31317271485767 L156.96907739859165,251.06515907333707 L156.68196181947994,250.82000119800603 L156.3924116829939,250.57772355135577 L156.10045588120013,250.33835030848087 L155.80612354620894,250.10190535466685 L155.50944404726718,249.86841228300702 L155.2104469878279,249.6378943920481 L154.90916220259638,249.41037468346562 L154.60561975455306,249.18587585976857 L154.29984993195396,248.96442032203427 L153.99188324530823,248.746030167673 L153.68175042433396,248.5307271882231 L153.36948241489162,248.31853286717654 L153.05511037589648,248.10946837783533 L152.73866567620922,247.90355458119865 L152.42017989150617,247.70081202388135 L152.0996848011283,247.50126093606383 L151.77721238491037,247.30492122947334 L151.45279481998986,247.11181249539706 L151.12646447759633,246.92195400272743 L150.79825391982112,246.73536469603926 L150.46819589636848,246.5520631936995 L150.1363233412875,246.37206778600944 L149.80266936968604,246.19539643337959 L149.46726727442635,246.02206676453764 L149.13015052280286,245.85209607476932 L148.79135275320309,245.6855013241927 L148.45090777175074,245.52229913606587 L148.10884954893268,245.36250579512816 L147.7652122162092,245.20613724597527 L147.4200300626083,245.05320909146826 L147.07333753130416,244.9037365911767 L146.7251692161805,244.75773465985586 L146.37555985837844,244.61521786595873 L146.02454434283024,244.4762004301821 L145.67215769477812,244.3406962240478 L145.3184350762796,244.2087187685184 L144.96341178269867,244.0802812326481 L144.60712323918418,243.9553964322687 L144.24960499713487,243.83407682871086 L143.89089273065196,243.71633452756052 L143.5310222329796,243.60218127745114 L143.17002941293327,243.4916284688913 L142.80795029131662,243.38468713312818 L142.4448209973274,243.2813679410467 L142.0806777649522,243.18168120210495 L141.71555692935115,243.08563686330535 L141.34949492323202,242.99324450820217 L140.9825282732151,242.9045133559452 L140.61469359618846,242.81945226035987 L140.24602759565408,242.73806970906384 L139.87656705806558,242.66037382262002 L139.50634884915755,242.5863723537263 L139.13540991026707,242.51607268644193 L138.7637872546475,242.44948183545085 L138.39151796377516,242.38660644536156 L138.01863918364938,242.32745279004422 L137.64518812108597,242.2720267720046 L137.27120204000445,242.22033392179517 L136.89671825771,242.17237939746312 L136.52177414116963,242.12816798403574 L136.14640710328376,242.08770409304304 L135.77065459915298,242.05099176207744 L135.3945541223407,242.01803465439093 L135.018143201132,241.98883605852953 L134.6414593947888,241.96339888800517 L134.26454028980234,241.941725681005 L133.88742349614247,241.92381860013805 L133.51014664350495,241.90967943221943 L133.13274737755674,241.89930958809222 L132.7552633561794,241.89271010248643 L132.37773224571163,241.8898816339159 L132.00019171719086,241.89082446461265 L131.62267944259418,241.8955385004985 L131.24523309107954,241.90402327119475 L130.86789032522685,241.91627793006882 L130.49068879728,241.932301254319 L130.11366614538971,241.95209164509617 L129.73685998985815,241.9756471276637 L129.36030792938476,242.00296535159416 L128.98404753731475,242.03404359100398 L128.60811635788997,242.06887874482555 L128.2325519025025,242.10746733711647 L127.8573916459518,242.14980551740655 L127.48267302270523,242.19588906108183 L127.1084334231629,242.24571336980637 L126.73471018992667,242.29927347198088 L126.36154061407403,242.35656402323883 L125.98896193143709,242.41757930697992 L125.6170113188871,242.48231323494014 L125.24572589062481,242.55075934779958 L124.8751426944772,242.6229108158269 L124.50529870820067,242.69876043956071 L124.13623083579131,242.778300650528 L123.76797590380264,242.8615235119994 L123.40057065767074,242.948420719781 L123.03405175804792,243.03898360304316 L122.6684557771445,243.13320312518556 L122.30381919507954,243.23106988473884 L121.94017839624081,243.3325741163029 L121.57756966565424,243.4377056915212 L121.21602918536331,243.5464541200913 L120.85559303081864,243.65880855081187 L120.49629716727844,243.77475777266517 L120.13817744621967,243.89429021593588 L119.78126960176073,244.0173939533655 L119.42560924709579,244.14405670134255 L119.07123187094132,244.27426582112818 L118.71817283399477,244.4080083201173 L118.36646736540632,244.54527085313507 L118.01615055926354,244.68603972376843 L117.66725737108966,244.83030088573295 L117.31982261435563,244.97803994427414 L116.97388095700626,245.12924215760404 L116.62946691800107,245.28389243837196 L116.28661486386977,245.4419753551702 L115.94535900528325,245.60347513407362 L115.60573339363977,245.76837566021365 L115.2677719176673,245.9366604793864 L114.93150830004213,246.10831279969435 L114.59697609402367,246.28331549322192 L114.26420868010669,246.46165109774464 L113.93323926269034,246.6433018184714 L113.60410086676501,246.8282495298203 L113.27682633461706,247.016475777227 L112.95144832255156,247.20796177898632 L112.62799929763392,247.4026884281264 L112.30651153445022,247.600636294315 L111.98701711188671,247.80178562579854 L111.66954790992891,248.00611635137292 L111.35413560648054,248.21360808238617 L111.04081167420267,248.42424011477306 L110.72960737737326,248.63799143112078 L110.42055376876749,248.85484070276635 L110.11368168655927,249.07476629192476 L109.80902175124413,249.29774625384795 L109.50660436258386,249.5237583390146 L109.20645969657306,249.75277999535027 L108.90861770242815,249.98478837047767 L108.61310809959895,250.21976031399691 L108.31996037480324,250.45767237979558 L108.02920377908444,250.6985008283881 L107.74086732489283,250.94222162928475 L107.4549797831908,251.18881046338925 L107.17156968058167,251.43824272542562 L106.89066529646362,251.6904935263931 L106.61229466020764,251.9455376960499 L106.33648554836076,252.20334978542454 L106.06326548187444,252.46390406935532 L105.79266172335844,252.72717454905725 L105.5247012743605,252.99313495471625 L105.25941087267208,253.26175874811045 L104.99681698966035,253.5330191252581 L104.73694582762678,253.8068890190924 L104.47982331719274,254.08334110216208 L104.22547511471188,254.36234778935835 L103.97392659971027,254.64388124066738 L103.72520287235383,254.9279133639482 L103.47932875094382,255.2144158177358 L103.23632876944038,255.5033600140693 L102.9962271750145,255.79471712134423 L102.75904792562856,256.0884580671897 L102.52481468764574,256.3845535413692 L102.29355083346854,256.6829739987051 L102.06527943920658,256.9836896620271 L101.84002328237406,257.2866705251431 L101.61780483961697,257.5918863558336 L101.39864628447019,257.89930669886814 L101.18256948514514,258.2089008790442 L100.96959600234754,258.5206380042484 L100.75974708712619,258.83448696853833 L100.55304367875229,259.1504164552472 L100.34950640263028,259.4683949401079 L100.14915556823964,259.78839069439914 L99.95201116710834,260.1103717881113 L99.75809287081819,260.43430609313225 L99.5674200290418,260.76016128645347 L99.38001166761187,261.08790485339506 L99.19588648662277,261.4175040908505 L99.01506285856456,261.74892611054946 L98.83755882648975,262.08213784233976 L98.66339210221295,262.417106037487 L98.49258006454349,262.7537972719922 L98.32513975755131,263.09217794992736 L98.16108788886629,263.43221430678705 L98.00044082801114,263.77387241285817 L97.84321460476795,264.117118176605 L97.68942490757873,264.46191734807144 L97.53908708197999,264.8082355222981 L97.39221612907144,265.1560381427558 L97.24882670401931,265.5052905047932 L97.10893311459384,265.8559577591001 L96.97254931974166,266.20800491518463 L96.83968892819306,266.5613968448647 L96.71036519710387,266.91609828577333 L96.58459103073278,267.27207384487696 L96.46237897915367,267.62928800200723 L96.34374123700329,267.9877051134053 L96.22868964226456,268.3472894152784 L96.11723567508517,268.70800502736836 L96.00939045663227,269.0698159565321 L95.90516474798258,269.43268610033283 L95.80456894904879,269.7965792506426 L95.70761309754162,270.16145909725515 L95.6143068679685,270.52728923150914 L95.52465957066796,270.89403314992114 L95.43868015088083,271.26165425782784 L95.35637718785749,271.6301158730377 L95.27775889400196,271.9993812294912 L95.20283311405234,272.3694134809294 L95.13160732429805,272.74017570457056 L95.06408863183391,273.11163090479454 L95.0002837738509,273.483742016834 L94.94019911696387,273.85647191047315 L94.88384065657641,274.2297833937525 L94.83121401628242,274.60363921668005 L94.78232444730517,274.9780020749482 L94.73717682797314,275.352834613656 L94.69577566323339,275.7280994310365 L94.65812508420194,276.10375908218913 L94.6242288477516,276.4797760828154 L94.59409033613716,276.8561129129598 L94.56771255665775,277.2327320207534 L94.54509814135695,277.60959582616067 L94.52624934675997,277.9866667247298 L94.51116805364865,278.36390709134446 L94.49985576687368,278.7412792839785 L94.4923136152045,279.1187456474517 L94.48854235121662,279.4962685171873 L94.48854235121662,279.8738102229702 L94.4923136152045,280.2513330927058 L94.49985576687368,280.628799456179 L94.51116805364865,281.00617164881305 L94.52624934675997,281.38341201542767 L94.54509814135695,281.7604829139968 L94.56771255665775,282.13734671940415 L94.59409033613716,282.5139658271977 L94.6242288477516,282.8903026573421 L94.65812508420193,283.2663196579683 L94.69577566323338,283.6419793091209 L94.73717682797314,284.0172441265015 L94.78232444730517,284.3920766652093 L94.83121401628242,284.76643952347746 L94.8838406565764,285.140295346405 L94.94019911696387,285.51360682968436 L95.0002837738509,285.8863367233235 L95.06408863183391,286.258447835363 L95.13160732429805,286.62990303558695 L95.20283311405232,287.0006652592281 L95.27775889400195,287.3706975106663 L95.35637718785749,287.7399628671198 L95.43868015088083,288.10842448232967 L95.52465957066795,288.47604559023637 L95.61430686796848,288.84278950864837 L95.70761309754161,289.20861964290236 L95.80456894904877,289.5734994895149 L95.90516474798258,289.9373926398247 L96.00939045663227,290.3002627836254 L96.11723567508517,290.6620737127891 L96.22868964226454,291.0227893248791 L96.34374123700329,291.3823736267522 L96.46237897915366,291.7407907381503 L96.58459103073278,292.09800489528055 L96.71036519710387,292.4539804543842 L96.83968892819306,292.8086818952928 L96.97254931974166,293.1620738249729 L97.10893311459384,293.51412098105743 L97.24882670401931,293.8647882353643 L97.39221612907144,294.21404059740166 L97.53908708197997,294.56184321785935 L97.68942490757873,294.9081613920861 L97.84321460476795,295.2529605635525 L98.00044082801114,295.59620632729934 L98.16108788886629,295.9378644333704 L98.32513975755131,296.27790079023015 L98.49258006454349,296.61628146816525 L98.66339210221297,296.95297270267054 L98.83755882648975,297.28794089781775 L99.01506285856455,297.621152629608 L99.19588648662275,297.952574649307 L99.38001166761187,298.2821738867624 L99.56742002904181,298.60991745370404 L99.75809287081819,298.93577264702526 L99.95201116710834,299.2597069520462 L100.14915556823962,299.5816880457583 L100.34950640263028,299.9016838000496 L100.55304367875229,300.2196622849103 L100.75974708712619,300.5355917716191 L100.96959600234754,300.8494407359091 L101.18256948514512,301.1611778611133 L101.39864628447019,301.47077204128937 L101.61780483961697,301.7781923843239 L101.84002328237408,302.0834082150144 L102.06527943920656,302.3863890781304 L102.29355083346853,302.6871047414524 L102.52481468764573,302.9855251987883 L102.75904792562855,303.2816206729678 L102.9962271750145,303.57536161881325 L103.23632876944038,303.8667187260882 L103.47932875094382,304.1556629224217 L103.72520287235383,304.44216537620935 L103.97392659971028,304.7261974994901 L104.22547511471188,305.00773095079916 L104.47982331719274,305.28673763799543 L104.73694582762677,305.5631897210651 L104.99681698966033,305.8370596148994 L105.25941087267209,306.1083199920471 L105.5247012743605,306.37694378544126 L105.79266172335844,306.64290419110023 L106.06326548187442,306.90617467080216 L106.33648554836076,307.166728954733 L106.61229466020762,307.4245410441076 L106.89066529646362,307.6795852137644 L107.17156968058167,307.9318360147319 L107.45497978319077,308.1812682767682 L107.74086732489285,308.42785711087276 L108.02920377908444,308.6715779117694 L108.31996037480323,308.9124063603619 L108.61310809959895,309.1503184261606 L108.90861770242812,309.3852903696798 L109.20645969657303,309.6172987448072 L109.50660436258386,309.8463204011429 L109.80902175124413,310.07233248630956 L110.11368168655927,310.2953124482328 L110.42055376876748,310.51523803739116 L110.72960737737327,310.73208730903673 L111.04081167420266,310.94583862538445 L111.35413560648053,311.1564706577713 L111.6695479099289,311.36396238878456 L111.98701711188669,311.56829311435894 L112.30651153445021,311.7694424458425 L112.62799929763392,311.9673903120311 L112.95144832255156,312.1621169611712 L113.27682633461704,312.3536029629305 L113.60410086676502,312.5418292103372 L113.93323926269031,312.7267769216861 L114.26420868010668,312.9084276424129 L114.59697609402367,313.08676324693556 L114.93150830004214,313.2617659404632 L115.2677719176673,313.4334182607711 L115.60573339363975,313.60170307994383 L115.94535900528325,313.7666036060839 L116.28661486386976,313.9281033849873 L116.62946691800106,314.0861863017855 L116.97388095700624,314.24083658255347 L117.31982261435562,314.39203879588337 L117.66725737108966,314.5397778544245 L118.01615055926354,314.6840390163891 L118.36646736540632,314.8248078870225 L118.71817283399477,314.9620704200402 L119.07123187094132,315.0958129190293 L119.42560924709578,315.22602203881496 L119.78126960176071,315.352684786792 L120.13817744621967,315.4757885242216 L120.49629716727843,315.59532096749234 L120.85559303081862,315.7112701893456 L121.2160291853633,315.8236246200662 L121.57756966565425,315.9323730486363 L121.9401783962408,316.0375046238546 L122.30381919507954,316.13900885541864 L122.66845577714447,316.23687561497195 L123.03405175804791,316.33109513711435 L123.4005706576707,316.4216580203765 L123.76797590380264,316.5085552281581 L124.13623083579131,316.5917780896295 L124.50529870820066,316.6713183005968 L124.8751426944772,316.7471679243306 L125.2457258906248,316.8193193923579 L125.6170113188871,316.8877655052174 L125.98896193143706,316.9524994331776 L126.36154061407404,317.0135147169187 L126.73471018992666,317.0708052681766 L127.10843342316286,317.12436537035114 L127.48267302270523,317.17418967907565 L127.85739164595178,317.22027322275096 L128.2325519025025,317.26261140304103 L128.60811635788997,317.30119999533196 L128.98404753731475,317.33603514915353 L129.36030792938476,317.3671133885634 L129.73685998985812,317.3944316124938 L130.11366614538974,317.41798709506133 L130.49068879728,317.4377774858385 L130.86789032522682,317.4538008100887 L131.24523309107954,317.46605546896274 L131.62267944259418,317.474540239659 L132.00019171719086,317.47925427554486 L132.37773224571163,317.4801971062416 L132.75526335617937,317.4773686376711 L133.13274737755677,317.47076915206526 L133.51014664350495,317.4603993079381 L133.88742349614245,317.4462601400195 L134.26454028980234,317.4283530591525 L134.6414593947888,317.4066798521523 L135.01814320113198,317.381242681628 L135.39455412234068,317.3520440857666 L135.770654599153,317.31908697808007 L136.14640710328376,317.28237464711447 L136.5217741411696,317.24191075612174 L136.89671825771,317.19769934269436 L137.27120204000445,317.1497448183623 L137.64518812108597,317.0980519681529 L138.01863918364936,317.0426259501133 L138.39151796377513,316.98347229479594 L138.7637872546475,316.92059690470666 L139.13540991026707,316.8540060537156 L139.50634884915758,316.7837063864312 L139.87656705806558,316.70970491753747 L140.24602759565406,316.6320090310937 L140.61469359618846,316.55062647979764 L140.9825282732151,316.4655653842123 L141.34949492323202,316.37683423195534 L141.71555692935115,316.28444187685216 L142.08067776495218,316.1883975380526 L142.4448209973274,316.0887107991108 L142.80795029131662,315.9853916070293 L143.17002941293325,315.8784502712662 L143.5310222329796,315.76789746270634 L143.89089273065193,315.653744212597 L144.24960499713484,315.53600191144665 L144.60712323918415,315.4146823078888 L144.9634117826987,315.28979750750943 L145.3184350762796,315.1613599716391 L145.6721576947781,315.0293825161097 L146.02454434283024,314.8938783099754 L146.37555985837844,314.7548608741988 L146.7251692161805,314.6123440803016 L147.07333753130416,314.46634214898086 L147.42003006260828,314.31686964868925 L147.7652122162092,314.16394149418227 L148.10884954893265,314.0075729450294 L148.45090777175074,313.84777960409167 L148.79135275320309,313.6845774159648 L149.13015052280284,313.5179826653882 L149.46726727442632,313.3480119756199 L149.80266936968604,313.1746823067779 L150.13632334128752,312.99801095414807 L150.46819589636846,312.818015546458 L150.7982539198211,312.63471404411825 L151.12646447759633,312.4481247374301 L151.45279481998986,312.2582662447605 L151.77721238491034,312.0651575106842 L152.0996848011283,311.8688178040937 L152.42017989150617,311.6692667162762 L152.73866567620922,311.46652415895886 L153.05511037589645,311.2606103623222 L153.36948241489162,311.05154587298097 L153.68175042433393,310.83935155193444 L153.9918832453082,310.6240485724845 L154.29984993195396,310.4056584181232 L154.60561975455306,310.18420288038897 L154.90916220259638,309.9597040566919 L155.21044698782788,309.7321843481094 L155.50944404726718,309.5016664571505 L155.80612354620894,309.2681733854906 L156.10045588120013,309.03172843167664 L156.3924116829939,308.7923551888017 L156.68196181947994,308.5500775421515 L156.96907739859162,308.30491966682047 L157.25372977118874,308.05690602529984 L157.53589053391624,307.8060613650367 L157.8155315320384,307.5524107159645 L158.09262486224813,307.2959793880057 L158.36714287545135,307.03679296854585 L158.63905817952585,306.7748773198809 L158.90834364205432,306.51025857663643 L159.17497239303214,306.2429631431597 L159.43891782754812,305.9730176908853 L159.7001536084394,305.7004491556733 L159.95865366891945,305.4252847351221 L160.21439221517906,305.14755188585417 L160.4673437289601,304.8672783207764 L160.71748297010168,304.58449200631514 L160.96478497905895,304.2992211596253 L161.20922507939343,304.0114942457747 L161.45077888023528,303.7213399749043 L161.68942227871725,303.42878729936285 L161.92513146237945,303.1338654108182 L162.1578829115458,302.8366037373444 L162.3876534016705,302.53703194048535 L162.61442000565566,302.2351799122952 L162.838160096139,301.93107777235537 L163.05885134775156,301.6247558647693 L163.27647173934557,301.3162447551348 L163.4909995561916,301.0055752274937 L163.70241339214544,300.69277828126053 L163.9106921517839,300.37788512812926 L164.11581505250996,300.0609271889588 L164.31776162662635,299.7419360906377 L164.5165117233781,299.42094366292844 L164.71204551096284,299.0979819352915 L164.90434347851007,298.77308313368906 L165.0933864380278,298.4462796773697 L165.2791555263172,298.11760417563346 L165.46163220685483,297.7870894245777 L165.64079827164232,297.45476840382514 L165.81663584302316,297.12067427323257 L165.9891273754665,296.7848403695826 L166.15825565731802,296.44730020325653 L166.32400381251736,296.10808745489123 L166.48635530228188,295.7672359720183 L166.64529392675715,295.42477976568614 L166.80080382663328,295.080753007067 L166.95286948472753,294.7351900240468 L167.1014757275325,294.38812529779983 L167.2466077267302,294.0395934593484 L167.3882510006719,293.6896292861069 L167.52639141582273,293.3382676984121 L167.66101518817243,292.98554375603817 L167.79210888461031,292.63149265469866 L167.919659424266,292.27614972253446 L168.04365407981447,291.91955041658883 L168.16408047874603,291.5617303192692 L168.280926604601,291.2027251347967 L168.3941807981687,290.84257068564347 L168.50383175865068,290.4813029089586 L168.60986854478853,290.1189578529815 L168.71228057595565,289.7555716734456 L168.8110576332128,289.3911806299702 L168.90618986032803,289.0258210824426 L168.9976677647599,288.65952948738993 L169.08548221860494,288.29234239434146 L169.1696244595082,287.9242964421816 L169.2500860915378,287.555428355494 L169.32685908602252,287.1857749408968 L169.39993578235305,286.81537308337056 L169.4693088887463,286.4442597425772 L169.53497148297308,286.07247194917227 L169.5969170130487,285.7000468011101 L169.65513929788688,285.3270214599418 L169.70963252791637,284.9534331471075 L169.76039126566084,284.57931914022174 L169.80741044628115,284.20471676935466 L169.8506853780811,283.82966341330626 L169.89021174297523,283.4541964958771 L169.92598559691996,283.0783534821341 L169.95800337030693,282.70217187467193 L169.98626186831936,282.3256892098711 L170.01075827125072,281.94894305415227 L170.03149013478617,281.571971000228 L170.0484553902463,281.19481066335175 L170.0616523447938,280.81749967756394 L170.07107968160213,280.44007569193747 L170.0767364599871,280.0625763668205 L170.07862211550062,279.68503937007875"/>
    <path d="M207.87389770605182,279.68503937007875 L207.87295337168842,279.30719731539955 L207.87012039219303,278.92936470129797 L207.86539883834902,278.55155096811603 L207.85878882812688,278.1737655557236 L207.85029052668108,277.7960179032833 L207.83990414634604,277.4183174490141 L207.8276299466308,277.0406736299558 L207.81346823421256,276.663095881733 L207.797419362929,276.28559363831965 L207.77948373376935,275.908176331803 L207.75966179486457,275.5308533921483 L207.73795404147592,275.1536342469629 L207.71436101598283,274.7765283212607 L207.6888833078691,274.3995450372269 L207.66152155370835,274.0226938139824 L207.63227643714808,273.64598406734854 L207.60114868889252,273.2694252096116 L207.56813908668445,272.89302664928795 L207.53324845528573,272.516797790889 L207.4964776664567,272.14074803468577 L207.4578276389344,271.7648867764745 L207.41729933840958,271.3892234073417 L207.37489377750265,271.0137673134296 L207.33061201573832,270.63852787570124 L207.28445515951915,270.26351446970676 L207.23642436209786,269.8887364653486 L207.18652082354862,269.51420322664757 L207.13474579073696,269.13992411150895 L207.0811005572886,268.7659084714885 L207.02558646355726,268.3921656515591 L206.96820489659112,268.0187049898769 L206.90895729009804,267.6455358175482 L206.84784512440987,267.2726674583965 L206.78486992644548,266.900109228729 L206.7200332696725,266.5278704371044 L206.65333677406812,266.15596038410007 L206.58478210607848,265.78438836207954 L206.51437097857712,265.4131636549605 L206.44210515082233,265.04229553798285 L206.3679864284128,264.6717932774769 L206.29201666324286,264.30166613063193 L206.21419775345618,263.9319233452645 L206.13453164339813,263.5625741595881 L206.05302032356735,263.1936278019817 L205.969665830566,262.8250934907594 L205.8844702470489,262.45698043394015 L205.79743570167145,262.0892978290177 L205.70856436903642,261.72205486273066 L205.6178584696397,261.35526071083314 L205.52532026981476,260.9889245378652 L205.43095208167603,260.6230554969243 L205.33475626306108,260.2576627294362 L205.2367352174719,259.89275536492676 L205.13689139401455,259.52834252079384 L205.0352272873383,259.16443330207943 L204.931745437573,258.8010368012422 L204.8264484302658,258.4381620979302 L204.71933889631646,258.0758182587542 L204.61041951191174,257.71401433706114 L204.49969299845827,257.3527593727076 L204.38716212251495,256.99206239183445 L204.27282969572337,256.63193240664083 L204.15669857473802,256.27237841515927 L204.03877166115444,255.91340940103095 L203.91905190143726,255.55503433328087 L203.797542286846,255.1972621660941 L203.67424585336084,254.84010183859195 L203.54916568160647,254.48356227460852 L203.42230489677516,254.12765238246783 L203.29366666854872,253.77238105476127 L203.1632542110194,253.41775716812532 L203.0310707826093,253.06378958301988 L202.8971196859893,252.71048714350678 L202.76140426799634,252.35785867702882 L202.62392791954977,252.00591299418926 L202.48469407556672,251.65465888853166 L202.34370621487628,251.30410513632017 L202.20096786013252,250.95426049632027 L202.0564825777265,250.60513370957986 L201.9102539776972,250.25673349921098 L201.7622857136413,249.9090685701717 L201.61258148262172,249.5621476090488 L201.4611450250756,249.2159792838405 L201.3079801247206,248.8705722437402 L201.15309060846033,248.5259351189201 L200.99648034628888,248.18207652031566 L200.83815325119406,247.8390050394105 L200.67811327905963,247.49672924802172 L200.51636442856642,247.15525769808565 L200.35291074109256,246.81459892144426 L200.18775630061225,246.474761429632 L200.02090523359402,246.135753713663 L199.85236170889746,245.7975842438192 L199.68212993766903,245.46026146943825 L199.51021417323693,245.12379381870295 L199.33661871100475,244.78818969843022 L199.16134788834432,244.45345749386135 L198.98440608448703,244.11960556845227 L198.80579772041472,243.78664226366476 L198.62552725874912,243.45457589875787 L198.44359920364013,243.1234147705802 L198.26001810065372,242.79316715336262 L198.07478853665793,242.4638412985113 L197.88791513970853,242.13544543440184 L197.69940257893325,241.80798776617348 L197.50925556441524,241.48147647552412 L197.31747884707522,241.15591972050606 L197.124077218553,240.83132563532186 L196.92905551108743,240.50770233012145 L196.73241859739613,240.1850578907992 L196.53417139055324,239.86340037879208 L196.33431884386704,239.54273783087814 L196.13286595075598,239.2230782589758 L195.92981774462405,238.9044296499435 L195.72517929873487,238.58679996538038 L195.51895572608507,238.2701971414271 L195.31115217927652,237.95462908856783 L195.10177385038747,237.64010369143233 L194.890825970843,237.32662880859908 L194.67831381128414,237.01421227239905 L194.4642426814363,236.70286188871967 L194.24861792997658,236.39258543681018 L194.03144494440005,236.083390669087 L193.81272915088527,235.77528531094012 L193.59247601415862,235.46827706054012 L193.37069103735777,235.1623735886457 L193.14737976189426,234.85758253841215 L192.92254776731488,234.55391152520033 L192.69620067116253,234.25136813638645 L192.46834412883553,233.94995993117232 L192.23898383344658,233.6496944403967 L192.0081255156804,233.35057916634707 L191.77577494365062,233.05262158257204 L191.54193792275552,232.75582913369487 L191.30662029553312,232.46020923522718 L191.06982794151514,232.16576927338397 L190.83156677708013,231.8725166048988 L190.59184275530552,231.58045855684014 L190.35066186581918,231.28960242642825 L190.10803013464934,230.99995548085286 L189.86395362407438,230.71152495709163 L189.6184384324713,230.42431806172925 L189.3714906941631,230.13834197077742 L189.12311657926583,229.85360382949563 L188.8733222935343,229.57011075221246 L188.62211407820692,229.287869822148 L188.36949820984992,229.0068880912368 L188.11548100020048,228.72717257995163 L187.86006879600896,228.44873027712813 L187.6032679788804,228.17156813979022 L187.34508496511506,227.89569309297616 L187.08552620554812,227.62111202956558 L186.82459818538837,227.34783181010738 L186.56230742405637,227.0758592626481 L186.29866047502145,226.80520118256146 L186.03366392563794,226.53586433237854 L185.7673243969807,226.2678554416188 L185.49964854367965,226.00118120662194 L185.23064305375328,225.7358482903807 L184.9603146484419,225.47186332237413 L184.68867008203952,225.2092328984022 L184.41571614172506,224.94796358042092 L184.14145964739282,224.68806189637826 L183.86590745148214,224.42953434005122 L183.58906643880607,224.17238737088357 L183.31094352637948,223.9166274138243 L183.03154566324605,223.66226085916728 L182.75087983030488,223.40929406239138 L182.46895304013583,223.15773334400197 L182.18577233682453,222.90758498937268 L181.90134479578623,222.65885524858862 L181.61567752358903,222.41155033629002 L181.32877765777639,222.16567643151706 L181.04065236668873,221.9212396775555 L180.75130884928438,221.6782461817831 L180.46075433495966,221.43670201551708 L180.16899608336823,221.1966132138625 L179.87604138423984,220.95798577556127 L179.581897557198,220.72082566284246 L179.2865719515773,220.48513880127322 L178.99007194623948,220.25093107961078 L178.6924049493895,220.0182083496553 L178.39357839839005,219.7869764261037 L178.0935997595759,219.55724108640425 L177.79247652806734,219.32900807061233 L177.49021622758292,219.10228308124707 L177.1868264102514,218.8770717831487 L176.88231465642312,218.6533798033371 L176.57668857448056,218.4312127308712 L176.26995580064832,218.2105761167094 L175.96212399880216,217.99147547357077 L175.6532008602777,217.77391627579735 L175.34319410367814,217.55790395921736 L175.03211147468147,217.34344392100945 L174.7199607458469,217.1305415195678 L174.4067497164205,216.91920207436812 L174.09248621214078,216.70943086583503 L173.7771780850427,216.5012331352098 L173.4608332132616,216.29461408441963 L173.14345950083657,216.0895788759476 L172.82506487751272,215.88613263270364 L172.5056572985432,215.68428043789658 L172.1852447444903,215.48402733490707 L171.8638352210262,215.2853783271618 L171.5414367587328,215.08833837800813 L171.21805741290126,214.89291241059038 L170.89370526333047,214.69910530772663 L170.56838841412545,214.5069219117869 L170.24211499349468,214.31636702457192 L169.91489315354707,214.12744540719342 L169.58673107008826,213.94016177995502 L169.25763694241635,213.75452082223424 L168.9276189931171,213.57052717236573 L168.59668546785838,213.3881854275253 L168.26484463518423,213.207500143615 L167.93210478630817,213.0284758351495 L167.59847423490618,212.85111697514296 L167.26396131690882,212.6754279949976 L166.92857439029314,212.50141328439275 L166.5923218348736,212.32907719117532 L166.25521205209296,212.15842402125105 L165.91725346481218,211.98945803847698 L165.57845451710008,211.822183464555 L165.2388236740223,211.6566044789261 L164.8983694214298,211.49272521866635 L164.55710026574684,211.33054977838316 L164.21502473375847,211.17008221011312 L163.8721513723975,211.01132652322084 L163.52848874853086,210.85428668429864 L163.18404544874562,210.69896661706753 L162.83883007913445,210.54537020227912 L162.49285126508065,210.39350127761867 L162.1461176510424,210.24336363760926 L161.7986379003371,210.09496103351685 L161.45042069492473,209.94829717325672 L161.10147473519086,209.80337572130074 L160.7518087397295,209.66020029858572 L160.401431445125,209.51877448242317 L160.05035160573397,209.37910180640964 L159.69857799346642,209.24118576033868 L159.3461193975666,209.10502979011346 L158.99298462439356,208.97063729766086 L158.6391824972008,208.83801164084628 L158.2847218559162,208.70715613338982 L157.92961155692072,208.57807404478348 L157.57386047282756,208.45076860020959 L157.21747749226017,208.32524298045996 L156.8604715196303,208.20150032185668 L156.50285147491542,208.07954371617362 L156.14462629343592,207.95937621055913 L155.7858049256319,207.84100080746003 L155.42639633683945,207.7244204645466 L155.06640950706662,207.60963809463848 L154.70585343076917,207.49665656563215 L154.34473711662577,207.3854787004291 L153.98306958731294,207.2761072768654 L153.62085987927952,207.16854502764215 L153.25811704252104,207.0627946402574 L152.89485014035347,206.95885875693887 L152.5310682491869,206.85673997457798 L152.16678045829858,206.7564408446649 L151.80199586960597,206.6579638732249 L151.43672359743937,206.56131152075562 L151.0709727683139,206.46648620216578 L150.7047525207019,206.37349028671463 L150.3380720048042,206.28232609795276 L149.97094038232171,206.19299591366436 L149.60336682622653,206.10550196580988 L149.23536052053265,206.0198464404705 L148.86693066006657,205.93603147779356 L148.49808645023742,205.85405917193884 L148.1288371068072,205.7739315710266 L147.75919185566028,205.69565067708595 L147.38915993257302,205.61921844600533 L147.018750582983,205.54463678748317 L146.64797306175797,205.4719075649806 L146.27683663296463,205.4010325956745 L145.90535056963716,205.33201365041242 L145.53352415354564,205.26485245366808 L145.16136667496386,205.1995506834985 L144.78888743243755,205.1361099715019 L144.41609573255175,205.07453190277707 L144.04300088969848,205.01481801588363 L143.66961222584396,204.95696980280377 L143.29593907029556,204.90098870890472 L142.921990759469,204.8468761329029 L142.5477766366547,204.79463342682877 L142.1733060517847,204.74426189599316 L141.79858836119874,204.6957627989546 L141.42363292741075,204.64913734748802 L141.0484491188747,204.60438670655418 L140.67304630975062,204.56151199427086 L140.29743387967048,204.5205142818847 L139.9216212135036,204.48139459374462 L139.54561770112244,204.44415390727613 L139.16943273716777,204.4087931529569 L138.793075720814,204.3753132142935 L138.41655605553441,204.34371492779943 L138.03988314886612,204.31399908297405 L137.6630664121751,204.28616642228303 L137.28611526042096,204.26021764113966 L136.9090391119217,204.23615338788755 L136.5318473881185,204.2139742637845 L136.15454951334019,204.19368082298723 L135.7771549145679,204.17527357253778 L135.3996730211994,204.1587529723508 L135.02211326481356,204.14411943520196 L134.64448507893474,204.13137332671764 L134.26679789879702,204.12051496536594 L133.88906116110854,204.1115446224486 L133.5112843038155,204.10446252209428 L133.13347676586673,204.0992688412528 L132.75564798697744,204.09596370969103 L132.37780740739365,204.09454720998932 L131.9999644676562,204.09501937753967 L131.62212860836496,204.0973802005447 L131.24430926994282,204.10162962001812 L130.8665158923999,204.10776752978592 L130.48875791509766,204.11579377648928 L130.11104477651313,204.12570815958833 L129.73338591400295,204.1375104313671 L129.3557907635677,204.1512002969398 L128.97826875961607,204.16677741425806 L128.6008293347291,204.18424139411968 L128.2234819194246,204.20359180017812 L127.84623594192145,204.22482814895352 L127.46910082790407,204.24794990984483 L127.0920860002869,204.27295650514301 L126.71520087897895,204.2998473100454 L126.33845488064843,204.32862165267147 L125.96185741848755,204.35927881407946 L125.58541790197721,204.3918180282845 L125.20914573665198,204.42623848227757 L124.83305032386511,204.46253931604596 L124.45714106055351,204.50071962259474 L124.08142733900317,204.54077844796933 L123.70591854661423,204.58271479127944 L123.33062406566668,204.62652760472395 L122.95555327308578,204.67221579361723 L122.58071554020782,204.71977821641647 L122.20612023254603,204.76921368475013 L121.83177670955641,204.82052096344756 L121.45769432440409,204.87369877057017 L121.0838824237295,204.92874577744308 L120.7103503474149,204.9856606086886 L120.33710742835093,205.04444184226045 L119.96416299220355,205.10508800947932 L119.591526357181,205.1675975950696 L119.21920683380083,205.2319690371972 L118.84721372465752,205.29820072750857 L118.47555632418984,205.36629101117097 L118.10424391844876,205.43623818691364 L117.73328578486533,205.50804050707058 L117.36269119201897,205.58169617762388 L116.99246939940583,205.65720335824884 L116.62262965720745,205.7345601623598 L116.2531812060597,205.8137646571572 L115.8841332768217,205.89481486367623 L115.5154950903455,205.9777087568358 L115.14727585724539,206.06244426548938 L114.77948477766796,206.14901927247686 L114.41213104106214,206.2374316146772 L114.0452238259496,206.3276790830627 L113.67877229969552,206.41975942275397 L113.31278561827936,206.51367033307648 L112.94727292606628,206.60940946761792 L112.58224335557847,206.70697443428688 L112.21770602726721,206.80636279537256 L111.85367004928476,206.90757206760577 L111.4901445172569,207.01059972222083 L111.1271385140557,207.11544318501893 L110.76466110957247,207.22209983643233 L110.40272136049128,207.33056701158986 L110.04132831006254,207.44084200038344 L109.68049098787714,207.55292204753584 L109.32021840964083,207.6668043526696 L108.96051957694893,207.78248607037682 L108.60140347706142,207.89996431029044 L108.24287908267841,208.01923613715627 L107.88495535171597,208.14029857090654 L107.52764122708224,208.26314858673416 L107.17094563645405,208.38778311516842 L106.81487749205388,208.51419904215166 L106.45944569042707,208.64239320911702 L106.10465911221971,208.77236241306747 L105.75052662195651,208.90410340665568 L105.39705706781959,209.03761289826534 L105.04425928142723,209.17288755209324 L104.6921420776132,209.3099239882327 L104.34071425420662,209.44871878275802 L103.98998459181206,209.58926846781 L103.6399618535902,209.73156953168262 L103.29065478503883,209.87561841891076 L102.94207211377437,210.021411530359 L102.59422254931386,210.1689452233116 L102.24711478285717,210.3182158115635 L101.90075748707011,210.4692195655125 L101.55515931586746,210.62195271225215 L101.21032890419698,210.7764114356665 L100.86627486782353,210.93259187652495 L100.52300580311383,211.0904901325791 L100.18053028682165,211.25010225865992 L99.83885687587363,211.41142426677646 L99.49799410715534,211.5744521262156 L99.15795049729802,211.73918176364253 L98.81873454246579,211.9056090632027 L98.48035471814352,212.07372986662463 L98.14281947892476,212.24353997332372 L97.80613725830077,212.41503514050726 L97.47031646844965,212.58821108328044 L97.13536550002627,212.7630634747535 L96.80129272195249,212.93958794614963 L96.46810648120817,213.1177800869143 L96.13581510262262,213.29763544482535 L95.8044268886665,213.4791495261044 L95.47395011924442,213.66231779552896 L95.14439305148818,213.8471356765457 L94.81576391955029,214.033598551385 L94.48807093439828,214.2217017611763 L94.16132228360962,214.41144060606428 L93.83552613116714,214.60281034532645 L93.51069061725491,214.7958061974917 L93.18682385805499,214.99042334045953 L92.86393394554469,215.1866569116208 L92.54202894729417,215.38450200797888 L92.2211169062651,215.58395368627254 L91.90120584060952,215.78500696309925 L91.58230374346971,215.98765681503957 L91.26441858277825,216.191898178783 L90.94755830105902,216.39772595125416 L90.6317308152289,216.60513498974052 L90.31694401639975,216.81412011202076 L90.00320576968129,217.02467609649435 L89.69052391398466,217.2367976823119 L89.37890626182664,217.45047956950668 L89.06836059913417,217.66571641912708 L88.75889468505007,217.88250285336989 L88.45051625173909,218.10083345571474 L88.14323300419464,218.3207027710595 L87.83705262004648,218.5421053058564 L87.53198274936868,218.76503552824948 L87.2280310144885,218.98948786821273 L86.92520500979617,219.2154567176891 L86.62351230155483,219.44293643073098 L86.32296042771165,219.6719213236409 L86.02355689770951,219.9024056751138 L85.72530919229936,220.13438372637978 L85.42822476335314,220.36784968134825 L85.1323110336779,220.60279770675234 L84.83757539683002,220.8392219322951 L84.54402521693072,221.07711645079587 L84.25166782848197,221.31647531833795 L83.96051053618318,221.55729255441722 L83.67056061474878,221.79956214209133 L83.38182530872638,222.04327802813035 L83.09431183231584,222.28843412316766 L82.808027369189,222.53502430185242 L82.52297907231008,222.78304240300244 L82.23917406375718,223.03248222975807 L81.95661943454408,223.28333754973727 L81.67532224444321,223.53560209519108 L81.39528952180939,223.78926956316025 L81.11652826340388,224.04433361563292 L80.83904543421984,224.3007878797028 L80.56284796730817,224.55862594772847 L80.28794276360443,224.8178413774934 L80.01433669175623,225.078427692367 L79.74203658795173,225.34037838146648 L79.47104925574882,225.6036868998193 L79.20138146590511,225.868346668527 L78.9330399562088,226.13435107492944 L78.66603143131019,226.40169347276992 L78.40036256255442,226.6703671823614 L78.13603998781451,226.94036549075327 L77.87307031132572,227.21168165189926 L77.6114601035204,227.48430888682577 L77.3512159008639,227.75824038380136 L77.09234420569123,228.033469298507 L76.83485148604454,228.30998875420693 L76.5787441755117,228.58779184192056 L76.32402867306527,228.8668716205952 L76.07071134290285,229.14722111727926 L75.81879851428803,229.42883332729667 L75.56829648139212,229.71170121442177 L75.319211503137,229.9958177110552 L75.07154980303872,230.28117571840045 L74.82531756905203,230.5677681066412 L74.58052095341569,230.8555877151195 L74.33716607249877,231.1446273525147 L74.09525900664796,231.43487979702303 L73.85480580003546,231.7263377965382 L73.6158124605081,232.01899406883243 L73.3782849594371,232.31284130173856 L73.14222923156906,232.6078721533326 L72.90765117487753,232.90407925211727 L72.67455665041564,233.20145519720617 L72.44295148216979,233.4999925585086 L72.21284145691399,233.79968387691537 L71.98423232406535,234.100521664485 L71.75712979554038,234.402498404631 L71.53153954561239,234.7056065523094 L71.30746721076957,235.00983853420757 L71.08491838957421,235.31518674893331 L70.86389864252291,235.62164356720461 L70.64441349190747,235.92920133204066 L70.42646842167707,236.23785235895272 L70.21006887730117,236.54758893613652 L69.99522026563349,236.85840332466458 L69.78192795477688,237.1702877586799 L69.57019727394919,237.4832344455898 L69.36003351335023,237.79723556626058 L69.15144192402944,238.1122832752131 L68.94442771775473,238.4283697008186 L68.73899606688234,238.7454869454955 L68.53515210422754,239.0636270859066 L68.33290092293635,239.38278217315718 L68.13224757635837,239.7029442329936 L67.93319707792048,240.02410526600232 L67.7357544010016,240.34625724781014 L67.53992447880835,240.6693921292844 L67.34571220425183,240.99350183673425 L67.15312242982546,241.31857827211215 L66.96215996748363,241.64461331321655 L66.77282958852146,241.97159881389462 L66.5851360234557,242.29952660424564 L66.39908396190641,242.6283884908255 L66.21467805247987,242.95817625685115 L66.03192290265237,243.28888166240594 L65.85082307865518,243.6204964446455 L65.67138310536036,243.9530123180043 L65.49360746616775,244.28642097440255 L65.31750060289298,244.62071408345378 L65.14306691565643,244.95588329267304 L64.97031076277331,245.29192022768558 L64.79923646064479,245.62881649243613 L64.62984828365013,245.96656366939848 L64.46215046403992,246.30515331978606 L64.29614719183023,246.64457698376268 L64.13184261469806,246.98482618065376 L63.96924083787762,247.32589240915848 L63.808345924057775,247.66776714756207 L63.64916189328052,248.01044185394866 L63.49169272284061,248.35390796641477 L63.33594234718612,248.69815690328326 L63.1819146578201,249.04318006331778 L63.02961350320348,249.38896882593744 L62.87904268865877,249.73551455143257 L62.7302059762751,250.08280858118033 L62.58310708481409,250.43084223786107 L62.43774968961709,250.7796068256752 L62.29413742251323,251.12909363056045 L62.15227387172874,251.47929392040962 L62.01216258179724,251.83019894528863 L61.87380705347128,252.1817999376553 L61.73721074363472,252.53408811257842 L61.60237706521649,252.88705466795702 L61.46930938710527,253.2406907847405 L61.33801103406533,253.59498762714895 L61.2084852866534,253.94993634289395 L61.08073538113679,254.3055280633995 L60.954764509412456,254.66175390402398 L60.830575818927315,255.0186049642819 L60.708172412599524,255.37607232806633 L60.58755734874104,255.73414706387163 L60.46873364098117,256.09282022501674 L60.35170425819123,256.45208284986853 L60.236472124410454,256.81192596206597 L60.123040118772835,257.17234057074415 L60.01141107543528,257.53331767075906 L59.90158778350673,257.8948482429125 L59.79357298697853,258.25692325417754 L59.687369384655824,258.61953365792414 L59.582979630090094,258.9826703941453 L59.48040633151301,259.3463243896831 L59.379652051771046,259.7104865584559 L59.280719308261624,260.0751478016849 L59.18361057287014,260.4402990081217 L59.08832827190818,260.8059310542761 L58.99487478605296,261.1720348046435 L58.903252450287795,261.538601111934 L58.81346355384379,261.9056208173 L58.72551034014259,262.2730847505659 L58.63939500674043,262.6409837304567 L58.5551197052731,263.00930856482734 L58.47268654140227,263.37805005089297 L58.39209757476286,263.7471989754581 L58.31335481891156,264.1167461151474 L58.23646024127659,264.4866822366359 L58.161415763108394,264.8569980968797 L58.08822325943183,265.22768444334685 L58.01688455899914,265.5987320142487 L57.947401444244406,265.9701315387713 L57.879775651238916,266.34187373730674 L57.81400886964781,266.7139493216855 L57.750102742687886,267.08634899540795 L57.68805886708655,267.45906345387715 L57.62787879304189,267.832083384631 L57.56956402418392,268.205399467575 L57.5131160175371,268.57900237521517 L57.45853618348386,268.95288277289114 L57.40582588572934,269.32703131900917 L57.35498644126743,269.7014386652758 L57.30601912034773,270.0760954569313 L57.258925146443886,270.4509923329833 L57.213705696223016,270.8261199264409 L57.17036189951631,271.20146886454876 L57.12889483929075,271.57702976902084 L57.08930555162216,271.95279325627513 L57.0515950256692,272.328749937668 L57.015764203648715,272.7048904197288 L56.98181398081218,273.08120530439453 L56.94974520542337,273.45768518924456 L56.919558678737076,273.83432066773565 L56.89125515497918,274.2111023294371 L56.86483534132773,274.58802076026564 L56.84029989789536,274.96506654272076 L56.81764943771272,275.34223025612 L56.79688452671314,275.71950247683446 L56.778005683718646,276.0968737785239 L56.76101338042679,276.4743347323727 L56.74590804139898,276.85187590732517 L56.732690044049875,277.2294878703212 L56.72135971863794,277.607161186532 L56.71191734825716,277.9848864195959 L56.70436316883,278.36265413185413 L56.69869736910154,278.74045488458637 L56.69492009063464,279.1182792382469 L56.6930314278066,279.4961177527003 L56.6930314278066,279.8739609874572 L56.69492009063464,280.2517995019106 L56.69869736910154,280.62962385557114 L56.70436316883,281.0074246083034 L56.71191734825716,281.3851923205616 L56.72135971863794,281.7629175536255 L56.732690044049875,282.1405908698364 L56.74590804139898,282.51820283283234 L56.76101338042679,282.8957440077848 L56.778005683718646,283.2732049616336 L56.79688452671314,283.6505762633231 L56.81764943771272,284.02784848403746 L56.84029989789536,284.40501219743675 L56.86483534132773,284.7820579798919 L56.89125515497918,285.1589764107204 L56.919558678737076,285.53575807242186 L56.94974520542337,285.91239355091295 L56.98181398081219,286.288873435763 L57.015764203648715,286.6651883204287 L57.0515950256692,287.0413288024895 L57.08930555162216,287.41728548388244 L57.12889483929075,287.7930489711367 L57.17036189951631,288.16860987560875 L57.213705696223016,288.54395881371653 L57.258925146443886,288.91908640717423 L57.30601912034773,289.2939832832262 L57.35498644126743,289.6686400748817 L57.40582588572934,290.04304742114834 L57.45853618348386,290.41719596726637 L57.5131160175371,290.79107636494234 L57.56956402418392,291.16467927258253 L57.62787879304189,291.53799535552656 L57.68805886708655,291.91101528628036 L57.750102742687886,292.28372974474956 L57.81400886964781,292.656129418472 L57.879775651238916,293.0282050028507 L57.947401444244406,293.3999472013862 L58.01688455899915,293.7713467259088 L58.08822325943183,294.1423942968107 L58.16141576310841,294.5130806432779 L58.23646024127659,294.8833965035216 L58.31335481891158,295.25333262501016 L58.39209757476286,295.62287976469946 L58.47268654140227,295.9920286892646 L58.5551197052731,296.3607701753302 L58.63939500674043,296.72909500970087 L58.725510340142606,297.0969939895916 L58.81346355384379,297.4644579228575 L58.90325245028781,297.8314776282236 L58.994874786052975,298.198043935514 L59.088328271908196,298.5641476858815 L59.18361057287015,298.92977973203585 L59.28071930826164,299.29493093847265 L59.379652051771046,299.65959218170167 L59.48040633151301,300.0237543504744 L59.58297963009011,300.38740834601225 L59.687369384655824,300.7505450822334 L59.79357298697853,301.11315548598 L59.90158778350674,301.4752304972451 L60.01141107543529,301.8367610693985 L60.12304011877285,302.19773816941336 L60.236472124410454,302.55815277809154 L60.35170425819125,302.917995890289 L60.46873364098117,303.27725851514083 L60.58755734874104,303.6359316762859 L60.708172412599524,303.9940064120912 L60.8305758189273,304.3514737758756 L60.954764509412456,304.7083248361335 L61.08073538113679,305.064550676758 L61.20848528665341,305.4201423972636 L61.33801103406533,305.77509111300856 L61.46930938710527,306.129387955417 L61.60237706521649,306.4830240722005 L61.737210743634705,306.83599062757906 L61.87380705347127,307.18827880250217 L62.01216258179724,307.53987979486885 L62.15227387172874,307.8907848197479 L62.29413742251323,308.24098510959703 L62.43774968961708,308.5904719144823 L62.58310708481409,308.93923650229647 L62.73020597627509,309.28727015897715 L62.87904268865877,309.6345641887249 L63.02961350320348,309.98110991422004 L63.181914657820116,310.32689867683973 L63.33594234718612,310.6719218368742 L63.49169272284061,311.0161707737427 L63.64916189328052,311.3596368862089 L63.80834592405776,311.70231159259544 L63.96924083787762,312.044186330999 L64.13184261469806,312.3852525595037 L64.29614719183023,312.72550175639486 L64.46215046403992,313.0649254203714 L64.62984828365013,313.403515070759 L64.79923646064479,313.7412622477214 L64.97031076277331,314.07815851247193 L65.14306691565643,314.4141954474845 L65.31750060289298,314.74936465670373 L65.49360746616776,315.083657765755 L65.67138310536036,315.4170664221532 L65.85082307865518,315.74958229551197 L66.03192290265238,316.0811970777516 L66.21467805247987,316.41190248330633 L66.39908396190641,316.741690249332 L66.58513602345569,317.07055213591184 L66.77282958852146,317.3984799262629 L66.96215996748361,317.72546542694096 L67.15312242982544,318.05150046804533 L67.34571220425183,318.37657690342326 L67.53992447880832,318.7006866108731 L67.7357544010016,319.02382149234734 L67.93319707792048,319.3459734741552 L68.13224757635837,319.66713450716395 L68.33290092293633,319.9872965670003 L68.5351521042275,320.3064516542509 L68.73899606688235,320.624591794662 L68.94442771775473,320.9417090393389 L69.15144192402943,321.2577954649444 L69.36003351335023,321.5728431738969 L69.5701972739492,321.8868442945677 L69.78192795477688,322.1997909814776 L69.99522026563349,322.5116754154929 L70.21006887730118,322.822489804021 L70.42646842167707,323.13222638120476 L70.64441349190747,323.4408774081169 L70.8638986425229,323.74843517295284 L71.08491838957423,324.0548919912242 L71.30746721076956,324.36024020594994 L71.53153954561236,324.6644721878481 L71.75712979554038,324.9675803355265 L71.98423232406532,325.2695570756725 L72.21284145691396,325.57039486324214 L72.44295148216978,325.8700861816489 L72.67455665041565,326.16862354295137 L72.90765117487751,326.4659994880402 L73.14222923156906,326.7622065868249 L73.37828495943711,327.05723743841895 L73.6158124605081,327.3510846713251 L73.85480580003545,327.6437409436193 L74.09525900664795,327.9351989431345 L74.3371660724988,328.22545138764286 L74.58052095341569,328.514491025038 L74.82531756905203,328.8023106335163 L75.07154980303875,329.08890302175706 L75.31921150313701,329.37426102910234 L75.56829648139214,329.6583775257358 L75.81879851428808,329.9412454128609 L76.0707113429029,330.2228576228783 L76.3240286730653,330.5032071195623 L76.5787441755117,330.782286898237 L76.83485148604458,331.06008998595064 L77.09234420569125,331.3366094416505 L77.3512159008639,331.61183835635615 L77.61146010352044,331.8857698533318 L77.87307031132576,332.15839708825825 L78.13603998781454,332.42971324940424 L78.40036256255442,332.69971155779615 L78.66603143131022,332.96838526738765 L78.9330399562088,333.23572766522807 L79.20138146590514,333.5017320716305 L79.47104925574885,333.76639184033826 L79.74203658795176,334.02970035869106 L80.01433669175624,334.29165104779054 L80.28794276360443,334.55223736266413 L80.5628479673082,334.81145279242907 L80.83904543421984,335.0692908604547 L81.1165282634039,335.3257451245246 L81.39528952180942,335.58080917699726 L81.67532224444325,335.83447664496646 L81.95661943454405,336.08674119042024 L82.23917406375716,336.3375965103994 L82.5229790723101,336.5870363371551 L82.80802736918898,336.83505443830506 L83.09431183231587,337.0816446169899 L83.38182530872635,337.32680071202714 L83.67056061474875,337.57051659806615 L83.9605105361832,337.8127861857403 L84.25166782848196,338.0536034218195 L84.54402521693072,338.29296228936164 L84.83757539682998,338.5308568078624 L85.13231103367787,338.76728103340514 L85.42822476335314,339.0022290588093 L85.72530919229932,339.2356950137777 L86.02355689770951,339.4676730650437 L86.32296042771166,339.6981574165166 L86.6235123015548,339.92714230942653 L86.92520500979617,340.1546220224684 L87.22803101448854,340.38059087194483 L87.53198274936867,340.605043211908 L87.83705262004649,340.8279734343011 L88.14323300419468,341.04937596909804 L88.45051625173906,341.2692452844428 L88.75889468505008,341.4875758867876 L89.0683605991342,341.70436232103043 L89.37890626182661,341.9195991706508 L89.69052391398469,342.13328105784564 L90.00320576968124,342.34540264366314 L90.31694401639972,342.55595862813675 L90.63173081522892,342.764943750417 L90.94755830105899,342.9723527889033 L91.26441858277822,343.1781805613745 L91.58230374346971,343.38242192511797 L91.90120584060949,343.58507177705826 L92.22111690626508,343.7861250538849 L92.54202894729417,343.98557673217863 L92.86393394554466,344.1834218285367 L93.18682385805499,344.379655399698 L93.51069061725491,344.5742725426658 L93.83552613116711,344.76726839483104 L94.16132228360964,344.95863813409323 L94.48807093439824,345.14837697898116 L94.81576391955028,345.3364801887725 L95.1443930514882,345.5229430636118 L95.47395011924439,345.70776094462855 L95.80442688866648,345.8909292140531 L96.13581510262263,346.07244329533216 L96.46810648120815,346.2522986532432 L96.80129272195248,346.4304907940079 L97.13536550002628,346.607015265404 L97.47031646844964,346.78186765687707 L97.80613725830077,346.95504359965025 L98.14281947892479,347.12653876683385 L98.4803547181435,347.2963488735329 L98.81873454246582,347.4644696769548 L99.15795049729797,347.630896976515 L99.49799410715532,347.7956266139419 L99.83885687587366,347.95865447338105 L100.18053028682164,348.1199764814976 L100.52300580311382,348.2795886075784 L100.86627486782355,348.43748686363256 L101.21032890419696,348.593667304491 L101.55515931586746,348.74812602790536 L101.90075748707012,348.900859174645 L102.24711478285715,349.051862928594 L102.59422254931386,349.2011335168459 L102.9420721137744,349.3486672097985 L103.29065478503881,349.4944603212467 L103.6399618535902,349.6385092084749 L103.98998459181203,349.7808102723475 L104.3407142542066,349.9213599573995 L104.69214207761321,350.0601547519248 L105.0442592814272,350.19719118806427 L105.39705706781959,350.33246584189214 L105.75052662195652,350.46597533350183 L106.10465911221974,350.59771632709004 L106.45944569042713,350.7276855310405 L106.81487749205388,350.8558796980059 L107.17094563645409,350.9822956249891 L107.52764122708223,351.1069301534234 L107.88495535171597,351.22978016925094 L108.24287908267844,351.35084260300124 L108.60140347706141,351.47011442986707 L108.96051957694894,351.5875926697807 L109.32021840964086,351.7032743874879 L109.68049098787714,351.81715669262167 L110.04132831006255,351.92923673977407 L110.40272136049131,352.0395117285677 L110.76466110957247,352.1479789037252 L111.12713851405572,352.2546355551386 L111.49014451725695,352.3594790179367 L111.85367004928476,352.46250667255174 L112.21770602726724,352.563715944785 L112.58224335557846,352.66310430587066 L112.94727292606628,352.7606692725396 L113.31278561827939,352.85640840708106 L113.67877229969551,352.95031931740357 L114.04522382594956,353.0423996570948 L114.41213104106211,353.1326471254803 L114.77948477766795,353.2210594676807 L115.14727585724535,353.30763447466813 L115.51549509034547,353.3923699833217 L115.8841332768217,353.4752638764813 L116.25318120605964,353.55631408300025 L116.62262965720744,353.6355185777977 L116.99246939940583,353.7128753819087 L117.36269119201893,353.7883825625336 L117.7332857848653,353.86203823308693 L118.10424391844876,353.93384055324384 L118.4755563241898,354.00378772898654 L118.84721372465751,354.07187801264894 L119.21920683380077,354.1381097029603 L119.59152635718095,354.2024811450879 L119.96416299220355,354.26499073067816 L120.33710742835088,354.3256368978971 L120.71035034741486,354.3844181314689 L121.08388242372949,354.44133296271445 L121.45769432440405,354.49637996958734 L121.83177670955638,354.54955777670995 L122.20612023254601,354.6008650554074 L122.58071554020779,354.650300523741 L122.95555327308577,354.6978629465403 L123.33062406566668,354.74355113543356 L123.70591854661419,354.78736394887807 L124.08142733900314,354.8293002921882 L124.4571410605536,354.8693591175628 L124.83305032386514,354.9075394241115 L125.20914573665203,354.94384025787997 L125.58541790197728,354.978260711873 L125.96185741848757,355.01079992607805 L126.33845488064847,355.04145708748604 L126.71520087897895,355.07023143011213 L127.09208600028693,355.09712223501447 L127.46910082790413,355.1221288303127 L127.84623594192145,355.145250591204 L128.22348191942461,355.1664869399794 L128.60082933472916,355.18583734603783 L128.97826875961607,355.2033013258995 L129.35579076356774,355.2188784432177 L129.733385914003,355.2325683087904 L130.11104477651315,355.2443705805692 L130.4887579150977,355.2542849636682 L130.86651589239995,355.2623112103716 L131.24430926994285,355.2684491201394 L131.62212860836502,355.2726985396128 L131.9999644676562,355.27505936261787 L132.37780740739368,355.2755315301682 L132.75564798697746,355.2741150304665 L133.13347676586673,355.2708098989047 L133.51128430381553,355.2656162180632 L133.88906116110857,355.2585341177089 L134.26679789879705,355.24956377479157 L134.64448507893476,355.2387054134399 L135.0221132648136,355.22595930495555 L135.3996730211994,355.21132576780667 L135.77715491456792,355.19480516761973 L136.15454951334024,355.1763979171703 L136.5318473881185,355.156104476373 L136.90903911192174,355.13392535226996 L137.28611526042096,355.10986109901785 L137.66306641217514,355.0839123178745 L138.03988314886618,355.05607965718343 L138.41655605553441,355.0263638123581 L138.79307572081402,354.994765525864 L139.16943273716782,354.9612855872006 L139.54561770112247,354.9259248328814 L139.92162121350364,354.88868414641286 L140.29743387967054,354.8495644582728 L140.67304630975065,354.80856674588665 L141.04844911887471,354.76569203360333 L141.4236329274108,354.7209413926695 L141.79858836119877,354.67431594120285 L142.17330605178472,354.6258168441643 L142.5477766366547,354.5754453133287 L142.921990759469,354.5232026072546 L143.29593907029562,354.4690900312528 L143.66961222584396,354.41310893735374 L144.04300088969853,354.3552607242739 L144.4160957325518,354.2955468373804 L144.78888743243755,354.2339687686556 L145.1613666749639,354.170528056659 L145.53352415354567,354.1052262864894 L145.90535056963716,354.0380650897451 L146.27683663296463,353.969046144483 L146.647973061758,353.8981711751769 L147.018750582983,353.82544195267434 L147.38915993257305,353.7508602941522 L147.75919185566025,353.67442806307156 L148.1288371068072,353.5961471691309 L148.49808645023745,353.51601956821867 L148.86693066006654,353.43404726236395 L149.23536052053268,353.35023229968704 L149.60336682622656,353.26457677434763 L149.97094038232171,353.1770828264932 L150.3380720048042,353.08775264220475 L150.70475252070193,352.9965884534429 L151.0709727683139,352.9035925379917 L151.43672359743937,352.8087672194019 L151.80199586960603,352.7121148669326 L152.16678045829858,352.6136378954926 L152.53106824918692,352.51333876557953 L152.89485014035347,352.41121998321864 L153.25811704252104,352.30728409990013 L153.62085987927955,352.20153371251536 L153.9830695873129,352.0939714632921 L154.3447371166258,351.9846000397284 L154.7058534307692,351.87342217452533 L155.0664095070666,351.760440645519 L155.42639633683945,351.6456582756109 L155.78580492563196,351.5290779326974 L156.14462629343592,351.4107025295984 L156.50285147491542,351.2905350239839 L156.86047151963032,351.1685784183008 L157.21747749226017,351.04483575969755 L157.57386047282756,350.9193101399479 L157.9296115569207,350.79200469537403 L158.2847218559162,350.66292260676767 L158.63918249720084,350.53206709931123 L158.99298462439356,350.39944144249665 L159.34611939756664,350.26504895004405 L159.69857799346644,350.12889297981883 L160.05035160573397,349.9909769337479 L160.401431445125,349.85130425773434 L160.75180873972954,349.70987844157173 L161.10147473519086,349.56670301885674 L161.45042069492473,349.4217815669008 L161.79863790033716,349.27511770664063 L162.1461176510424,349.12671510254825 L162.49285126508067,348.97657746253884 L162.83883007913445,348.8247085378784 L163.18404544874562,348.67111212309 L163.52848874853086,348.51579205585887 L163.87215137239747,348.3587522169367 L164.21502473375847,348.19999653004436 L164.55710026574684,348.03952896177435 L164.89836942142978,347.87735352149116 L165.2388236740223,347.7134742612314 L165.5784545171001,347.5478952756025 L165.91725346481218,347.3806207016805 L166.25521205209296,347.21165471890646 L166.59232183487364,347.0410015489822 L166.92857439029314,346.86866545576476 L167.26396131690885,346.6946507451599 L167.59847423490615,346.5189617650146 L167.93210478630817,346.341602905008 L168.26484463518423,346.1625785965425 L168.59668546785835,345.9818933126322 L168.92761899311708,345.7995515677918 L169.25763694241635,345.6155579179233 L169.5867310700882,345.4299169602025 L169.91489315354704,345.2426333329641 L170.2421149934947,345.05371171558556 L170.56838841412545,344.8631568283706 L170.89370526333047,344.67097343243086 L171.21805741290126,344.4771663295671 L171.5414367587328,344.2817403621494 L171.8638352210262,344.08470041299574 L172.18524474449026,343.88605140525044 L172.50565729854318,343.685798302261 L172.82506487751272,343.48394610745385 L173.14345950083654,343.2804998642099 L173.4608332132616,343.0754646557379 L173.7771780850427,342.8688456049477 L174.09248621214078,342.66064787432254 L174.4067497164205,342.4508766657894 L174.7199607458469,342.23953722058974 L175.03211147468147,342.02663481914806 L175.34319410367814,341.81217478094015 L175.6532008602777,341.59616246436013 L175.96212399880213,341.37860326658677 L176.2699558006483,341.15950262344813 L176.57668857448053,340.93886600928636 L176.8823146564231,340.7166989368204 L177.1868264102514,340.49300695700884 L177.4902162275829,340.2677956589105 L177.79247652806734,340.0410706695452 L178.0935997595759,339.81283765375326 L178.39357839839,339.58310231405386 L178.6924049493895,339.3518703905022 L178.99007194623948,339.11914766054673 L179.28657195157723,338.8849399388843 L179.581897557198,338.64925307731505 L179.87604138423984,338.41209296459624 L180.1689960833682,338.17346552629505 L180.46075433495963,337.9333767246404 L180.75130884928433,337.6918325583745 L181.0406523666887,337.448839062602 L181.32877765777639,337.20440230864045 L181.615677523589,336.95852840386755 L181.9013447957862,336.7112234915689 L182.18577233682453,336.4624937507848 L182.4689530401358,336.21234539615557 L182.75087983030485,335.9607846777661 L183.03154566324605,335.70781788099026 L183.31094352637945,335.4534513263332 L183.58906643880607,335.19769136927397 L183.86590745148214,334.94054440010626 L184.1414596473928,334.6820168437793 L184.41571614172503,334.4221151597366 L184.68867008203947,334.16084584175536 L184.96031464844188,333.8982154177834 L185.23064305375328,333.63423044977685 L185.4996485436796,333.3688975335356 L185.7673243969807,333.1022232985388 L186.03366392563794,332.834214407779 L186.2986604750214,332.5648775575961 L186.56230742405634,332.29421947750944 L186.82459818538837,332.02224693005013 L187.0855262055481,331.74896671059196 L187.34508496511506,331.4743856471814 L187.6032679788804,331.1985106003673 L187.86006879600893,330.9213484630294 L188.11548100020048,330.6429061602059 L188.36949820984987,330.36319064892075 L188.6221140782069,330.08220891800954 L188.87332229353427,329.7999679879451 L189.1231165792658,329.51647491066194 L189.37149069416307,329.2317367693801 L189.6184384324713,328.94576067842826 L189.86395362407438,328.65855378306594 L190.1080301346493,328.37012325930465 L190.35066186581915,328.08047631372926 L190.5918427553055,327.7896201833174 L190.8315667770801,327.4975621352587 L191.06982794151514,327.20430946677357 L191.3066202955331,326.9098695049304 L191.54193792275552,326.61424960646264 L191.7757749436506,326.3174571575855 L192.00812551568038,326.0194995738105 L192.23898383344658,325.72038429976084 L192.46834412883555,325.42011880898514 L192.69620067116253,325.11871060377104 L192.92254776731494,324.81616721495715 L193.14737976189426,324.51249620174536 L193.3706910373578,324.2077051515118 L193.59247601415865,323.90180167961734 L193.81272915088527,323.59479342921736 L194.03144494440008,323.2866880710705 L194.2486179299766,322.9774933033473 L194.46424268143633,322.66721685143784 L194.67831381128417,322.35586646775846 L194.89082597084303,322.04344993155837 L195.10177385038747,321.7299750487252 L195.31115217927655,321.41544965158965 L195.5189557260851,321.09988159873035 L195.72517929873487,320.7832787747771 L195.92981774462407,320.46564909021396 L196.13286595075598,320.14700048118175 L196.33431884386704,319.8273409092793 L196.5341713905533,319.5066783613654 L196.73241859739613,319.1850208493583 L196.92905551108748,318.86237641003606 L197.124077218553,318.5387531048356 L197.31747884707522,318.21415901965145 L197.50925556441524,317.88860226463333 L197.6994025789333,317.56209097398397 L197.88791513970853,317.23463330575566 L198.07478853665793,316.90623744164617 L198.26001810065372,316.57691158679484 L198.44359920364013,316.2466639695773 L198.62552725874912,315.91550284139964 L198.80579772041472,315.58343647649275 L198.98440608448703,315.2504731717052 L199.16134788834432,314.91662124629613 L199.33661871100477,314.58188904172727 L199.51021417323693,314.24628492145456 L199.68212993766906,313.9098172707192 L199.8523617088975,313.5724944963383 L200.02090523359405,313.23432502649445 L200.18775630061228,312.89531731052546 L200.35291074109256,312.55547981871325 L200.51636442856645,312.21482104207183 L200.67811327905966,311.87334949213573 L200.83815325119406,311.531073700747 L200.99648034628888,311.1880022198418 L201.15309060846033,310.84414362123744 L201.3079801247206,310.49950649641727 L201.46114502507564,310.15409945631694 L201.61258148262172,309.8079311311087 L201.7622857136413,309.4610101699858 L201.91025397769727,309.1133452409465 L202.0564825777265,308.7649450305776 L202.20096786013255,308.41581824383724 L202.3437062148763,308.0659736038373 L202.48469407556672,307.7154198516259 L202.62392791954977,307.36416574596825 L202.76140426799637,307.01222006312867 L202.89711968598934,306.6595915966507 L203.03107078260933,306.3062891571376 L203.16325421101936,305.9523215720322 L203.29366666854872,305.59769768539627 L203.42230489677516,305.2424263576897 L203.54916568160647,304.886516465549 L203.67424585336087,304.52997690156553 L203.79754228684604,304.17281657406335 L203.91905190143723,303.81504440687667 L204.03877166115447,303.45666933912656 L204.15669857473802,303.0977003249982 L204.27282969572337,302.7381463335167 L204.38716212251495,302.37801634832306 L204.4996929984583,302.01731936744983 L204.61041951191174,301.65606440309637 L204.7193388963165,301.2942604814032 L204.8264484302658,300.9319166422273 L204.931745437573,300.5690419389153 L205.0352272873383,300.205645438078 L205.13689139401455,299.84173621936367 L205.2367352174719,299.47732337523075 L205.33475626306108,299.1124160107213 L205.43095208167603,298.74702324323323 L205.52532026981476,298.3811542022923 L205.6178584696397,298.0148180293244 L205.70856436903642,297.64802387742685 L205.79743570167145,297.2807809111398 L205.8844702470489,296.9130983062173 L205.969665830566,296.5449852493981 L206.05302032356735,296.1764509381758 L206.13453164339813,295.80750458056934 L206.21419775345618,295.438155394893 L206.2920166632429,295.0684126095256 L206.3679864284128,294.6982854626806 L206.44210515082233,294.32778320217466 L206.51437097857715,293.956915085197 L206.58478210607848,293.585690378078 L206.65333677406812,293.21411835605744 L206.7200332696725,292.84220830305304 L206.78486992644548,292.46996951142853 L206.84784512440987,292.097411281761 L206.90895729009804,291.72454292260926 L206.96820489659112,291.35137375028063 L207.02558646355726,290.9779130885984 L207.0811005572886,290.60417026866895 L207.13474579073693,290.23015462864856 L207.18652082354862,289.8558755135099 L207.23642436209786,289.4813422748089 L207.28445515951915,289.10656427045075 L207.33061201573832,288.7315508644562 L207.37489377750265,288.356311426728 L207.41729933840958,287.9808553328158 L207.4578276389344,287.60519196368296 L207.4964776664567,287.2293307054718 L207.53324845528573,286.85328094926854 L207.56813908668448,286.4770520908695 L207.60114868889252,286.10065353054597 L207.63227643714808,285.724094672809 L207.66152155370835,285.34738492617504 L207.68888330786908,284.9705337029306 L207.71436101598283,284.5935504188968 L207.73795404147592,284.2164444931947 L207.75966179486457,283.8392253480092 L207.77948373376935,283.4619024083545 L207.797419362929,283.0844851018379 L207.81346823421256,282.7069828584245 L207.8276299466308,282.32940511020166 L207.83990414634602,281.9517612911434 L207.85029052668108,281.5740608368742 L207.85878882812688,281.19631318443385 L207.86539883834902,280.81852777204153 L207.87012039219303,280.44071403885954 L207.87295337168842,280.06288142475796 L207.87389770605182,279.68503937007875"/>
    <path d="M415.74791345408335,279.68503937007875 L408.6327601033822,264.91027119745456 L392.6451556470348,261.2612048091624 L379.8240923283683,271.4856616229753 L379.8240923283683,287.88441711718224 L392.6451556470348,298.1088739309951 L408.6327601033822,294.45980754270295 L415.74791345408335,279.68503937007875"/>
    <path d="M434.64555124935885,279.68503937007875 L430.31633017168497,262.1206990093694 L418.32043931478836,248.5801373520508 L401.40599270782775,242.16533389235704 L383.4478862272788,244.34584279614182 L368.5601056491913,254.62213575152902 L360.1532620867995,270.6400378851947 L360.1532620867995,288.73004085496285 L368.5601056491913,304.7479429886285 L383.4478862272788,315.0242359440157 L401.40599270782775,317.2047448478005 L418.32043931478836,310.7899413881067 L430.31633017168497,297.2493797307881 L434.64555124935885,279.68503937007875"/>
    <path d="M472.4408268399101,279.68503937007875 L470.2443028028242,261.5950364003106 L463.7823846845622,244.55635864866002 L453.43061567804057,229.55923213297928 L439.7906029707691,217.47523533402284 L423.6550545218655,209.0066462222049 L405.9617097568479,204.64562841463533 L387.7388415607675,204.64562841463533 L370.0454967957499,209.0066462222049 L353.90994834684636,217.47523533402284 L340.2699356395749,229.55923213297928 L329.91816663305326,244.55635864866005 L323.4562485147912,261.5950364003106 L321.2597244777054,279.68503937007875 L323.4562485147912,297.7750423398469 L329.91816663305326,314.8137200914975 L340.2699356395749,329.81084660717823 L353.9099483468463,341.89484340613467 L370.04549679574984,350.3634325179526 L387.7388415607676,354.7244503255222 L405.96170975684777,354.7244503255222 L423.6550545218655,350.3634325179526 L439.7906029707691,341.89484340613467 L453.43061567804057,329.81084660717823 L463.7823846845622,314.81372009149743 L470.2443028028242,297.77504233984683 L472.4408268399101,279.68503937007875"/>
    <path d="M680.3148425879416,279.68503937007875 L651.9683858950282,263.3192049678531 L651.9683858950282,296.0508737723044 L680.3148425879416,279.68503937007875"/>
    <path d="M699.2124803832172,279.68503937007875 L661.417204792666,241.88976377952758 L623.6219292021148,279.68503937007875 L661.417204792666,317.4803149606299 L699.2124803832172,279.68503937007875"/>
    <path d="M737.0077559737683,279.68503937007875 L708.547142570964,220.58596667958204 L644.5967247455745,205.98970112641337 L593.3124714709083,246.8875283816649 L593.3124714709083,312.4825503584926 L644.5967247455745,353.38037761374414 L708.547142570964,338.7841120605755 L737.0077559737683,279.68503937007875"/>
  </g>
</svg>
