<?xml version="1.0" encoding="utf-8" ?>
<svg xmlns="http://www.w3.org/2000/svg" xmlns:cc="http://creativecommons.org/ns#" xmlns:dc="http://purl.org/dc/elements/1.1/" xmlns:ev="http://www.w3.org/2001/xml-events" xmlns:inkscape="http://www.inkscape.org/namespaces/inkscape" xmlns:rdf="http://www.w3.org/1999/02/22-rdf-syntax-ns#" xmlns:sodipodi="http://sodipodi.sourceforge.net/DTD/sodipodi-0.dtd" xmlns:xlink="http://www.w3.org/1999/xlink" baseProfile="tiny" height="21.0cm" version="1.2" viewBox="0 0 1122.5196850393702 793.7007874015749" width="29.7cm">
  <metadata>
    <rdf:RDF>
      <cc:Work>
        <dc:format>image/svg+xml</dc:format>
        <dc:source>Generated with vsketch</dc:source>
        <dc:date>2020-08-08T10:26:18.594112</dc:date>
      </cc:Work>
    </rdf:RDF>
  </metadata>
  <defs/>
  <g fill="none" id="layer1" inkscape:groupmode="layer" inkscape:label="1" stroke="black" style="display:inline">
    <path d="M561.2598425196851,381.732283464567 L574.3525100414656,404.40944881889766 L548.1671749979046,404.40944881889766 L561.2598425196851,381.732283464567"/>
    <path d="M561.2598425196851,366.6141732283465 L591.4960629921261,396.85039370078744 L561.2598425196851,427.0866141732284 L531.0236220472441,396.85039370078744 L561.2598425196851,366.6141732283465"/>
    <path d="M561.2598425196851,351.496062992126 L604.394374282363,382.8351347433095 L587.918449237832,433.54281801259606 L534.6012358015382,433.54281801259606 L518.1253107570072,382.8351347433095 L561.2598425196851,351.496062992126"/>
    <path d="M561.2598425196851,336.37795275590554 L613.6305126068071,366.6141732283465 L613.6305126068071,427.0866141732284 L561.2598425196851,457.32283464566933 L508.88917243256316,427.0866141732284 L508.8891724325631,366.61417322834654 L561.2598425196851,336.37795275590554"/>
    <path d="M561.2598425196851,321.2598425196851 L620.3589152101819,349.72045592248946 L634.9551807633505,413.67087374787894 L594.0573535080989,464.9551270225451 L528.4623315312713,464.9551270225451 L487.56450427601965,413.67087374787894 L502.1607698291883,349.72045592248946 L561.2598425196851,321.2598425196851"/>
    <path d="M561.2598425196851,306.1417322834646 L625.4005521202287,332.7096841002439 L651.9685039370079,396.85039370078744 L625.4005521202287,460.99110330133095 L561.2598425196851,487.5590551181103 L497.1191329191416,460.991103301331 L470.55118110236225,396.85039370078744 L497.1191329191415,332.7096841002439 L561.2598425196851,306.1417322834646"/>
    <path d="M561.2598425196851,291.0236220472441 L629.2839801117094,315.7823833423696 L665.4788677203471,378.47376765477526 L652.9085151721486,449.76377952755905 L597.4547301283228,496.29503010521745 L525.0649549110474,496.29503010521745 L469.6111698672217,449.7637795275591 L457.04081731902306,378.4737676547753 L493.2357049276608,315.7823833423696 L561.2598425196851,291.0236220472441"/>
    <path d="M561.2598425196851,275.90551181102364 L632.3494604347433,299.00392886929774 L676.2852605534927,359.47636981417963 L676.2852605534927,434.22441758739524 L632.3494604347433,494.69685853227713 L561.2598425196851,517.7952755905512 L490.1702246046269,494.69685853227713 L446.2344244858775,434.22441758739524 L446.2344244858775,359.47636981417963 L490.1702246046269,299.00392886929774 L561.2598425196851,275.90551181102364"/>
    <path d="M561.2598425196851,260.7874015748032 L634.8210498081318,282.386920887222 L685.0270935411503,340.32778405769614 L695.9379095724609,416.21417642017616 L664.0893909042645,485.952704587201 L599.593217182834,527.401878614634 L522.9264678565363,527.401878614634 L458.4302941351057,485.9527045872011 L426.58177546690933,416.21417642017616 L437.4925914982199,340.32778405769614 L487.6986352312384,282.386920887222 L561.2598425196851,260.7874015748032"/>
    <path d="M561.2598425196851,245.6692913385827 L636.8503937007874,265.9237184829825 L692.18651773749,321.2598425196851 L712.4409448818899,396.85039370078744 L692.18651773749,472.4409448818898 L636.8503937007875,527.7770689185924 L561.2598425196851,548.0314960629921 L485.66929133858275,527.7770689185924 L430.33316730188017,472.4409448818899 L410.07874015748035,396.85039370078744 L430.3331673018801,321.25984251968515 L485.66929133858264,265.92371848298257 L561.2598425196851,245.6692913385827"/>
    <path d="M561.2598425196851,230.55118110236222 L638.5429401068063,249.59975384412763 L698.1214113990081,302.3816736144724 L726.3465466216608,376.805238685099 L716.7523074450077,455.82090719951464 L671.536618441304,521.3271417430997 L601.057849053175,558.3172534176238 L521.4618359861952,558.3172534176239 L450.9830665980663,521.3271417430998 L405.76737759436253,455.82090719951464 L396.1731384177094,376.8052386850992 L424.39827364036205,302.38167361447245 L483.9767449325638,249.5997538441277 L561.2598425196851,230.55118110236222"/>
    <path d="M561.2598425196851,215.43307086614175 L639.9738688918783,233.399033728569 L703.0976169768772,283.7385430328723 L738.1286543044821,356.48124158776784 L738.1286543044821,437.21954581380703 L703.0976169768772,509.96224436870256 L639.9738688918783,560.3017536730058 L561.2598425196851,578.2677165354331 L482.5458161474919,560.3017536730058 L419.42206806249294,509.9622443687026 L384.3910307348881,437.21954581380703 L384.3910307348881,356.4812415877679 L419.4220680624929,283.7385430328723 L482.54581614749185,233.39903372856904 L561.2598425196851,215.43307086614175"/>
    <path d="M561.2598425196851,200.31496062992127 L641.1980048123778,217.30634155307627 L707.314132629258,265.34252019907797 L748.1761468246224,336.11760488504973 L756.7186339243474,417.39394049732783 L731.4645203028315,495.1181102362205 L676.7804716316547,555.8508990519582 L602.1218567150495,589.0910560182346 L520.3978283243208,589.0910560182347 L445.73921340771557,555.8508990519582 L391.05516473653876,495.11811023622056 L365.80105111502286,417.393940497328 L374.3435382147478,336.11760488504973 L415.2055524101121,265.342520199078 L481.32168022699227,217.30634155307632 L561.2598425196851,200.31496062992127"/>
    <path d="M561.2598425196851,185.1968503937008 L642.2561469446742,201.30801705587885 L710.9214982542867,247.1887379661859 L756.8022191645937,315.85408927579834 L772.9133858267717,396.85039370078744 L756.8022191645937,477.8466981257765 L710.9214982542867,546.5120494353889 L642.2561469446742,592.392770345696 L561.2598425196851,608.5039370078741 L480.263538094696,592.392770345696 L411.59818678508356,546.512049435389 L365.7174658747765,477.84669812577664 L349.60629921259846,396.85039370078744 L365.7174658747765,315.8540892757983 L411.5981867850835,247.1887379661859 L480.2635380946959,201.30801705587888 L561.2598425196851,185.1968503937008"/>
    <path d="M561.2598425196851,170.07874015748033 L643.1792124896851,185.39212435554768 L714.0349176143375,229.2641195594096 L764.2575022915418,295.76956971366695 L787.064128167693,375.9265452555662 L779.3746340423402,458.90940247303934 L742.2275287060702,533.5108466749809 L680.6397345737627,589.6555394410464 L602.9290245127341,619.7608289046959 L519.5906605266362,619.7608289046959 L441.8799504656075,589.6555394410464 L380.29215633330006,533.510846674981 L343.14505099703,458.90940247303934 L335.45555687167723,375.9265452555663 L358.26218274782843,295.76956971366684 L408.4847674250327,229.2641195594096 L479.34047254968505,185.39212435554768 L561.2598425196851,170.07874015748033"/>
    <path d="M561.2598425196851,154.96062992125985 L643.9910141965713,169.5483676335189 L716.7435855871693,211.5520843101181 L770.742522868173,275.90551181102364 L799.4747572640554,354.84667702418824 L799.4747572640554,438.85411037738663 L770.742522868173,517.7952755905512 L716.7435855871693,582.1487030914568 L643.9910141965713,624.152419768056 L561.2598425196851,638.740157480315 L478.52867084279893,624.152419768056 L405.7760994522009,582.1487030914568 L351.77716217119723,517.7952755905513 L323.0449277753147,438.85411037738663 L323.0449277753147,354.8466770241883 L351.77716217119723,275.90551181102364 L405.77609945220087,211.55208431011812 L478.52867084279876,169.54836763351892 L561.2598425196851,154.96062992125985"/>
    <path d="M561.2598425196851,139.8425196850394 L644.7101627940227,153.76791520386837 L719.117346001502,194.03506908111586 L776.4182192951885,256.28041038491324 L810.4033439390532,333.7586905490104 L817.3899043443914,418.07393571824355 L796.6207982836306,500.08928079270015 L750.3466806643388,570.9170905343638 L683.5820701474811,622.8820727510222 L603.5619482422296,650.3530152997233 L518.9577367971406,650.3530152997233 L438.9376148918892,622.8820727510222 L372.1730043750315,570.9170905343639 L325.8988867557397,500.0892807927003 L305.12978069497876,418.07393571824366 L312.11634110031696,333.75869054901045 L346.1014657441816,256.28041038491335 L403.40233903786805,194.0350690811159 L477.80952224534747,153.76791520386837 L561.2598425196851,139.8425196850394"/>
    <path d="M561.2598425196851,124.7244094488189 L645.3513962645527,138.04320312472043 L721.211482828566,176.6958478299356 L781.4143883905369,236.89875339190652 L820.0670330957521,312.7588399559198 L833.3858267716537,396.85039370078744 L820.0670330957521,480.94194744565505 L781.4143883905369,556.8020340096683 L721.211482828566,617.0049395716393 L645.3513962645527,655.6575842768544 L561.2598425196851,668.9763779527559 L477.16828877481754,655.6575842768545 L401.3082022108042,617.0049395716393 L341.10529664883325,556.8020340096684 L302.4526519436181,480.94194744565505 L289.13385826771656,396.8503937007875 L302.45265194361804,312.7588399559199 L341.10529664883325,236.89875339190655 L401.30820221080415,176.6958478299356 L477.1682887748175,138.04320312472043 L561.2598425196851,124.7244094488189"/>
    <path d="M561.2598425196851,109.6062992125984 L645.9265256890535,122.36774838520938 L723.0702025052043,159.51818514135834 L785.8363187435727,217.75663014325517 L828.6478295318157,291.9083419772749 L847.7007442611769,375.3846156375374 L841.3021278456137,460.76821787973506 L810.0205254335144,540.472440944882 L756.6354446762452,607.4152148374179 L685.8903842756578,655.6483803234667 L604.0713533079279,680.8862089818323 L518.4483317314422,680.8862089818323 L436.6293007637125,655.6483803234667 L365.88424036312495,607.4152148374178 L312.49915960585565,540.4724409448818 L281.21755719375653,460.7682178797351 L274.8189407781933,375.3846156375373 L293.8718555075546,291.9083419772748 L336.68336629579744,217.7566301432552 L399.44948253416595,159.51818514135832 L476.5931593503168,122.36774838520932 L561.2598425196851,109.6062992125984"/>
    <path d="M561.2598425196851,94.48818897637796 L646.4451195489048,106.73598278112837 L724.7291920495666,142.4871207817531 L789.7699500409726,198.8452583976461 L836.2981781229411,271.2445944939178 L860.5444359702979,353.8197654354792 L860.5444359702979,439.88102196609566 L836.2981781229411,522.456192907657 L789.7699500409726,594.8555290039287 L724.7291920495667,651.2136666198218 L646.4451195489047,686.9648046204466 L561.2598425196851,699.2125984251969 L476.0745654904655,686.9648046204466 L397.7904929898036,651.2136666198218 L332.74973499839757,594.8555290039288 L286.2215069164291,522.4561929076569 L261.9752490690724,439.8810219660957 L261.97524906907233,353.8197654354792 L286.22150691642906,271.24459449391793 L332.74973499839757,198.84525839764603 L397.7904929898036,142.4871207817531 L476.0745654904654,106.73598278112837 L561.2598425196851,94.48818897637796"/>
  </g>
</svg>
