<?xml version="1.0" encoding="utf-8" ?>
<svg xmlns="http://www.w3.org/2000/svg" xmlns:cc="http://creativecommons.org/ns#" xmlns:dc="http://purl.org/dc/elements/1.1/" xmlns:ev="http://www.w3.org/2001/xml-events" xmlns:inkscape="http://www.inkscape.org/namespaces/inkscape" xmlns:rdf="http://www.w3.org/1999/02/22-rdf-syntax-ns#" xmlns:sodipodi="http://sodipodi.sourceforge.net/DTD/sodipodi-0.dtd" xmlns:xlink="http://www.w3.org/1999/xlink" baseProfile="tiny" height="29.7cm" version="1.2" viewBox="0 0 793.7007874015749 1122.5196850393702" width="21.0cm">
  <metadata>
    <rdf:RDF>
      <cc:Work>
        <dc:format>image/svg+xml</dc:format>
        <dc:source>Generated with vsketch</dc:source>
        <dc:date>2020-08-06T19:20:04.840852</dc:date>
      </cc:Work>
    </rdf:RDF>
  </metadata>
  <defs/>
  <g fill="none" id="layer1" inkscape:groupmode="layer" inkscape:label="1" stroke="black" style="display:inline">
    <path d="M396.85039370078744,546.1417322834646 L409.9430612225679,568.8188976377953 L383.75772617900697,568.8188976377953 L396.85039370078744,546.1417322834646"/>
    <path d="M396.85039370078744,531.0236220472441 L427.0866141732284,561.2598425196851 L396.85039370078744,591.4960629921261 L366.6141732283465,561.2598425196851 L396.85039370078744,531.0236220472441"/>
    <path d="M396.85039370078744,515.9055118110236 L439.9849254634653,547.2445835622071 L423.50900041893425,597.9522668314937 L370.1917869826406,597.9522668314937 L353.7158619381096,547.2445835622071 L396.85039370078744,515.9055118110236"/>
    <path d="M396.85039370078744,500.7874015748032 L449.2210637879094,531.0236220472441 L449.22106378790943,591.496062992126 L396.85039370078744,621.732283464567 L344.4797236136655,591.4960629921261 L344.47972361366544,531.0236220472442 L396.85039370078744,500.7874015748032"/>
    <path d="M396.85039370078744,485.66929133858275 L455.9494663912842,514.1299047413871 L470.5457319444529,578.0803225667765 L429.64790468920125,629.3645758414427 L364.0528827123736,629.3645758414427 L323.155055457122,578.0803225667765 L337.75132101029067,514.1299047413871 L396.85039370078744,485.66929133858275"/>
    <path d="M396.85039370078744,470.55118110236225 L460.991103301331,497.1191329191416 L487.5590551181103,561.2598425196851 L460.991103301331,625.4005521202287 L396.85039370078744,651.9685039370079 L332.7096841002439,625.4005521202287 L306.1417322834646,561.2598425196851 L332.70968410024386,497.1191329191416 L396.85039370078744,470.55118110236225"/>
    <path d="M396.85039370078744,455.43307086614175 L464.87453129281175,480.19183216126726 L501.06941890144947,542.883216473673 L488.4990663532509,614.1732283464568 L433.04528130942515,660.704478924115 L360.6555060921497,660.704478924115 L305.20172104832403,614.1732283464568 L292.6313685001254,542.883216473673 L328.8262561087631,480.19183216126726 L396.85039370078744,455.43307086614175"/>
    <path d="M396.85039370078744,440.3149606299213 L467.9400116158456,463.4133776881954 L511.875811734595,523.8858186330773 L511.875811734595,598.6338664062929 L467.9400116158456,659.1063073511748 L396.85039370078744,682.2047244094489 L325.76077578572927,659.1063073511748 L281.82497566697987,598.6338664062929 L281.82497566697987,523.8858186330773 L325.76077578572927,463.4133776881954 L396.85039370078744,440.3149606299213"/>
    <path d="M396.85039370078744,425.19685039370086 L470.4116009892341,446.79636970611966 L520.6176447222526,504.7372328765938 L531.5284607535632,580.6236252390738 L499.67994208536686,650.3621534060987 L435.1837683639363,691.8113274335317 L358.5170190376386,691.8113274335317 L294.02084531620807,650.3621534060987 L262.1723266480117,580.6236252390738 L273.08314267932224,504.7372328765938 L323.28918641234077,446.79636970611966 L396.85039370078744,425.19685039370086"/>
    <path d="M396.85039370078744,410.07874015748035 L472.4409448818898,430.33316730188017 L527.7770689185924,485.66929133858275 L548.0314960629921,561.2598425196851 L527.7770689185924,636.8503937007874 L472.4409448818899,692.18651773749 L396.85039370078744,712.4409448818899 L321.2598425196851,692.18651773749 L265.9237184829825,636.8503937007875 L245.6692913385827,561.2598425196851 L265.92371848298245,485.6692913385828 L321.259842519685,430.3331673018802 L396.85039370078744,410.07874015748035"/>
    <path d="M396.85039370078744,394.96062992125985 L474.13349128790867,414.0092026630253 L533.7119625801105,466.79112243337005 L561.937097802763,541.2146875039967 L552.34285862611,620.2303560184123 L507.1271696224063,685.7365905619973 L436.6484002342774,722.7267022365215 L357.0523871672975,722.7267022365215 L286.5736177791686,685.7365905619974 L241.3579287754649,620.2303560184123 L231.7636895988118,541.2146875039969 L259.9888248214644,466.7911224333701 L319.56729611366615,414.00920266302535 L396.8503937007874,394.96062992125985"/>
    <path d="M396.85039370078744,379.8425196850394 L475.5644200729807,397.80848254746667 L538.6881681579796,448.14799185177 L573.7192054855844,520.8906904066655 L573.7192054855844,601.6289946327047 L538.6881681579796,674.3716931876003 L475.5644200729807,724.7112024919036 L396.85039370078744,742.6771653543308 L318.13636732859425,724.7112024919036 L255.01261924359525,674.3716931876003 L219.98158191599043,601.6289946327047 L219.98158191599043,520.8906904066655 L255.01261924359522,448.14799185177 L318.1363673285942,397.8084825474667 L396.8503937007874,379.8425196850394"/>
    <path d="M396.85039370078744,364.72440944881896 L476.78855599348014,381.7157903719739 L542.9046838103604,429.7519690179756 L583.7666980057247,500.5270537039474 L592.3091851054496,581.8033893162254 L567.0550714839338,659.5275590551181 L512.371022812757,720.2603478708559 L437.7124078961519,753.5005048371322 L355.9883795054231,753.5005048371322 L281.3297645888179,720.2603478708559 L226.6457159176411,659.5275590551182 L201.3916022961252,581.8033893162257 L209.93408939585012,500.5270537039474 L250.79610359121446,429.7519690179757 L316.9122314080946,381.715790371974 L396.8503937007874,364.72440944881896"/>
    <path d="M396.85039370078744,349.60629921259846 L477.8466981257765,365.7174658747765 L546.512049435389,411.59818678508356 L592.392770345696,480.263538094696 L608.5039370078741,561.2598425196851 L592.392770345696,642.2561469446741 L546.512049435389,710.9214982542867 L477.8466981257765,756.8022191645937 L396.85039370078744,772.9133858267717 L315.85408927579834,756.8022191645937 L247.1887379661859,710.9214982542867 L201.30801705587888,642.2561469446742 L185.1968503937008,561.2598425196851 L201.30801705587888,480.26353809469595 L247.18873796618584,411.59818678508356 L315.85408927579823,365.7174658747765 L396.8503937007874,349.60629921259846"/>
    <path d="M396.85039370078744,334.48818897637796 L478.7697636707875,349.80157317444537 L549.6254687954398,393.67356837830727 L599.8480534726441,460.1790185325646 L622.6546793487953,540.3359940744639 L614.9651852234425,623.318851291937 L577.8180798871724,697.9202954938787 L516.230285754865,754.0649882599441 L438.5195756938365,784.1702777235936 L355.18121170773844,784.1702777235936 L277.47050164670986,754.064988259944 L215.8827075144024,697.9202954938787 L178.73560217813238,623.318851291937 L171.04610805277957,540.3359940744639 L193.8527339289308,460.1790185325645 L244.07531860613508,393.67356837830727 L314.9310237307874,349.80157317444537 L396.8503937007874,334.48818897637796"/>
    <path d="M396.85039370078744,319.3700787401575 L479.58156537767366,333.9578164524165 L552.3341367682716,375.9615331290157 L606.3330740492753,440.3149606299213 L635.0653084451578,519.2561258430859 L635.0653084451578,603.2635591962843 L606.3330740492753,682.2047244094489 L552.3341367682716,746.5581519103544 L479.58156537767366,788.5618685869537 L396.85039370078744,803.1496062992127 L314.1192220239013,788.5618685869537 L241.36665063330327,746.5581519103545 L187.3677133522996,682.204724409449 L158.63547895641707,603.2635591962843 L158.63547895641707,519.256125843086 L187.3677133522996,440.3149606299213 L241.3666506333032,375.9615331290158 L314.1192220239011,333.9578164524166 L396.8503937007874,319.3700787401575"/>
    <path d="M396.85039370078744,304.25196850393706 L480.300713975125,318.177364022766 L554.7078971826045,358.4445179000135 L612.0087704762909,420.6898592038109 L645.9938951201556,498.16813936790805 L652.9804555254938,582.4833845371412 L632.211349464733,664.4987296115978 L585.9372318454411,735.3265393532614 L519.1726213285833,787.2915215699198 L439.15249942333196,814.762464118621 L354.5482879782429,814.762464118621 L274.52816607299155,787.2915215699198 L207.76355555613384,735.3265393532615 L161.489437936842,664.498729611598 L140.7203318760811,582.4833845371413 L147.70689228141933,498.1681393679081 L181.69201692528398,420.689859203811 L238.9928902189704,358.4445179000136 L313.4000734264498,318.177364022766 L396.8503937007874,304.25196850393706"/>
    <path d="M396.85039370078744,289.13385826771656 L480.94194744565505,302.4526519436181 L556.8020340096684,341.10529664883325 L617.0049395716393,401.3082022108042 L655.6575842768544,477.1682887748175 L668.9763779527559,561.2598425196851 L655.6575842768544,645.3513962645527 L617.0049395716393,721.211482828566 L556.8020340096684,781.4143883905369 L480.94194744565505,820.0670330957521 L396.85039370078744,833.3858267716537 L312.7588399559199,820.0670330957521 L236.89875339190655,781.4143883905369 L176.6958478299356,721.211482828566 L138.04320312472043,645.3513962645527 L124.7244094488189,561.2598425196851 L138.04320312472038,477.16828877481754 L176.69584782993556,401.3082022108042 L236.8987533919065,341.10529664883325 L312.7588399559198,302.4526519436181 L396.8503937007874,289.13385826771656"/>
    <path d="M396.85039370078744,274.01574803149606 L481.51707687015585,286.77719720410704 L558.6607536863066,323.927633960256 L621.4268699246751,382.1660789621528 L664.2383807129179,456.3177907961726 L683.2912954422793,539.7940644564351 L676.892679026716,625.1776666986327 L645.6110766146166,704.8818897637797 L592.2259958573476,771.8246636563156 L521.4809354567601,820.0578291423642 L439.66190448903023,845.2956578007299 L354.0388829125445,845.2956578007299 L272.2198519448148,820.0578291423642 L201.47479154422726,771.8246636563156 L148.089710786958,704.8818897637794 L116.80810837485888,625.1776666986327 L110.40949195929562,539.794064456435 L129.46240668865693,456.31779079617246 L172.27391747689978,382.1660789621528 L235.0400337152683,323.927633960256 L312.18371053141914,286.777197204107 L396.8503937007874,274.01574803149606"/>
    <path d="M396.85039370078744,258.8976377952756 L482.03567073000715,271.14543160002603 L560.319743230669,306.89656960065076 L625.360501222075,363.25470721654375 L671.8887293040434,435.6540433128155 L696.1349871514002,518.2292142543769 L696.1349871514002,604.2904707849933 L671.8887293040434,686.8656417265547 L625.360501222075,759.2649778228265 L560.319743230669,815.6231154387194 L482.0356707300071,851.3742534393442 L396.85039370078744,863.6220472440946 L311.66511667156783,851.3742534393442 L233.38104417090594,815.6231154387194 L168.3402861794999,759.2649778228265 L121.81205809753146,686.8656417265547 L97.56580025017473,604.2904707849933 L97.56580025017468,518.2292142543769 L121.8120580975314,435.6540433128156 L168.34028617949994,363.2547072165437 L233.381044170906,306.89656960065076 L311.6651166715677,271.14543160002603 L396.8503937007874,258.8976377952756"/>
  </g>
</svg>
