<?xml version="1.0" encoding="utf-8" ?>
<svg xmlns="http://www.w3.org/2000/svg" xmlns:cc="http://creativecommons.org/ns#" xmlns:dc="http://purl.org/dc/elements/1.1/" xmlns:ev="http://www.w3.org/2001/xml-events" xmlns:inkscape="http://www.inkscape.org/namespaces/inkscape" xmlns:rdf="http://www.w3.org/1999/02/22-rdf-syntax-ns#" xmlns:sodipodi="http://sodipodi.sourceforge.net/DTD/sodipodi-0.dtd" xmlns:xlink="http://www.w3.org/1999/xlink" baseProfile="tiny" height="12.5cm" version="1.2" viewBox="0 0 472.44094488188983 472.44094488188983" width="12.5cm">
  <metadata>
    <rdf:RDF>
      <cc:Work>
        <dc:format>image/svg+xml</dc:format>
        <dc:source>Generated with vsketch</dc:source>
        <dc:date>2020-08-29T10:21:46.091763</dc:date>
      </cc:Work>
    </rdf:RDF>
  </metadata>
  <defs/>
  <g fill="none" id="layer1" inkscape:groupmode="layer" inkscape:label="1" stroke="#00f" style="display:inline">
    <path d="M39.944094488189066,31.144094488188983 L34.344094488189064,31.544094488188982 L33.54409448818906,31.144094488188983 L27.944094488189062,24.144094488188983 L27.14409448818906,25.144094488188983 L27.14409448818906,26.944094488188984 L25.14409448818906,25.744094488188985 L21.744094488189063,28.544094488188982 L22.344094488189064,29.144094488188983 L26.344094488189064,29.944094488188984 L34.14409448818906,34.94409448818898 L38.944094488189066,34.344094488188986"/>
    <path d="M39.74409448818906,29.944094488188984 Z"/>
    <path d="M38.944094488189066,33.54409448818898 L39.54409448818906,31.744094488188985 L41.944094488189066,29.744094488188985 L44.944094488189066,29.544094488188982 L53.74409448818906,32.54409448818898 L57.54409448818907,33.14409448818898 L57.14409448818906,34.54409448818898 L53.944094488189066,37.54409448818898 L50.74409448818906,37.744094488188985 L43.54409448818906,35.94409448818898 L39.14409448818907,33.14409448818898"/>
    <path d="M56.74409448818906,32.54409448818898 L63.54409448818907,26.944094488188984 L66.34409448818906,25.744094488188985 L67.34409448818906,27.144094488188983 L66.34409448818906,29.144094488188983 L69.74409448818906,28.144094488188983 L72.74409448818906,28.144094488188983 L68.14409448818907,32.344094488188986 L62.54409448818907,35.14409448818898 L60.54409448818907,35.14409448818898 L57.74409448818906,33.344094488188986 L54.344094488189064,34.14409448818898"/>
    <path d="M45.344094488189064,32.54409448818898 L47.74409448818906,27.944094488188984 L46.944094488189066,25.744094488188985"/>
    <path d="M46.14409448818907,32.54409448818898 L51.14409448818907,28.744094488188985 L53.74409448818906,28.744094488188985"/>
    <path d="M44.74409448818906,32.14409448818898 L45.54409448818906,32.54409448818898 L44.74409448818906,33.54409448818898"/>
    <path d="M46.14409448818907,33.744094488188985 L46.344094488189064,33.14409448818898"/>
    <path d="M39.344094488189064,33.54409448818898 L38.944094488189066,36.54409448818898 L41.54409448818906,40.344094488188986 L47.944094488189066,43.14409448818898 L50.74409448818906,43.14409448818898 L53.344094488189064,42.14409448818898 L56.14409448818906,38.54409448818898 L56.344094488189064,36.344094488188986"/>
    <path d="M154.23228346456702,33.744094488188985 L139.23228346456705,33.344094488188986 L134.23228346456705,35.14409448818898 L132.23228346456705,36.94409448818898 L131.43228346456704,43.14409448818898 L132.63228346456702,45.344094488188986 L134.63228346456702,46.94409448818898 L141.23228346456705,48.344094488188986 L152.43228346456704,47.94409448818898 L154.43228346456704,46.94409448818898 L156.03228346456703,44.94409448818898 L157.83228346456704,37.54409448818898 L157.63228346456705,34.344094488188986 L156.63228346456705,33.14409448818898 L154.83228346456704,32.344094488188986"/>
    <path d="M154.63228346456705,46.14409448818898 L159.03228346456703,46.744094488188985 L163.23228346456702,48.54409448818899"/>
    <path d="M155.83228346456704,38.54409448818898 L163.43228346456704,39.54409448818898 L167.23228346456702,41.94409448818898"/>
    <path d="M131.43228346456704,44.744094488188985 L125.83228346456704,48.344094488188986 L122.63228346456704,49.54409448818899"/>
    <path d="M130.43228346456704,40.344094488188986 L121.83228346456703,43.54409448818899"/>
    <path d="M132.63228346456702,37.744094488188985 L129.63228346456702,36.744094488188985 L126.03228346456703,34.744094488188985"/>
    <path d="M125.83228346456704,33.744094488188985 L127.43228346456704,31.344094488188983 L127.43228346456704,26.144094488188983 L125.43228346456704,24.544094488188982 L121.23228346456703,24.144094488188983"/>
    <path d="M125.03228346456703,33.744094488188985 L119.43228346456704,33.54409448818898 L117.23228346456703,32.14409448818898 L116.23228346456703,30.144094488188983 L116.23228346456703,28.144094488188983 L117.23228346456703,27.344094488188983 L125.83228346456704,33.744094488188985"/>
    <path d="M227.320472440945,41.14409448818898 L225.320472440945,42.344094488188986 L222.720472440945,48.54409448818899 L222.520472440945,54.744094488188985 L223.120472440945,57.744094488188985 L224.520472440945,60.14409448818898 L228.720472440945,63.14409448818898 L235.120472440945,63.744094488188985 L238.520472440945,62.94409448818899 L242.320472440945,61.14409448818898 L247.520472440945,56.744094488188985 L249.320472440945,54.14409448818898 L250.520472440945,50.94409448818898 L250.720472440945,45.54409448818899 L247.320472440945,41.54409448818899 L244.720472440945,40.14409448818898 L237.320472440945,39.54409448818898 L228.320472440945,42.344094488188986"/>
    <path d="M232.320472440945,37.744094488188985 L234.320472440945,34.344094488188986 L234.320472440945,32.744094488188985 L233.320472440945,32.54409448818898 L232.120472440945,32.94409448818898 L230.520472440945,35.14409448818898 L230.520472440945,36.744094488188985 L231.320472440945,38.54409448818898 L232.92047244094502,39.344094488188986 L235.320472440945,39.54409448818898 L237.120472440945,38.94409448818898 L238.92047244094502,37.54409448818898 L239.720472440945,34.94409448818898 L239.120472440945,33.744094488188985 L235.92047244094502,31.944094488188984 L232.720472440945,32.14409448818898 L231.120472440945,33.94409448818898 L229.92047244094502,37.14409448818898"/>
    <path d="M229.320472440945,41.54409448818899 L227.720472440945,42.54409448818899 L225.120472440945,42.54409448818899 L220.320472440945,39.344094488188986 L217.920472440945,34.94409448818898 L218.120472440945,30.744094488188985 L219.120472440945,28.544094488188982"/>
    <path d="M220.320472440945,45.14409448818898 L217.520472440945,44.94409448818898 L215.920472440945,43.744094488188985 L212.320472440945,37.14409448818898 L212.120472440945,32.344094488188986 L213.320472440945,29.144094488188983"/>
    <path d="M248.720472440945,45.54409448818899 L251.520472440945,36.94409448818898 L252.520472440945,30.944094488188984"/>
    <path d="M251.720472440945,47.14409448818898 L254.720472440945,46.54409448818899 L257.32047244094497,43.54409448818899 L258.920472440945,39.744094488188985 L258.720472440945,37.344094488188986"/>
    <path d="M222.720472440945,60.344094488188986 L220.320472440945,60.344094488188986 L217.520472440945,58.54409448818898 L215.920472440945,56.14409448818898 L214.120472440945,50.94409448818898"/>
    <path d="M249.320472440945,63.14409448818898 L253.92047244094502,58.344094488188986 L255.720472440945,55.14409448818898"/>
    <path d="M252.320472440945,34.54409448818898 L250.520472440945,27.144094488188983 L250.720472440945,25.744094488188985 L252.320472440945,25.144094488188983 L252.92047244094502,26.344094488188983 L253.720472440945,32.344094488188986 L256.920472440945,27.944094488188984 L253.320472440945,34.744094488188985"/>
    <path d="M257.12047244094504,38.54409448818898 L259.12047244094504,36.94409448818898 L261.720472440945,30.744094488188985 L259.12047244094504,38.54409448818898 L257.720472440945,40.344094488188986 L256.520472440945,40.344094488188986 L256.520472440945,39.744094488188985 L257.32047244094497,38.344094488188986 L259.32047244094497,38.14409448818898 L259.720472440945,40.14409448818898 L259.32047244094497,44.14409448818898"/>
    <path d="M254.320472440945,57.344094488188986 L256.920472440945,52.744094488188985 L259.920472440945,44.94409448818898 L251.92047244094502,53.744094488188985 L256.920472440945,49.94409448818898 L259.520472440945,49.14409448818898 L261.12047244094504,55.744094488188985"/>
    <path d="M213.920472440945,43.14409448818898 L212.520472440945,41.744094488188985 L210.920472440945,37.14409448818898 L210.720472440945,31.544094488188982 L212.520472440945,24.144094488188983 L212.120472440945,27.144094488188983 L212.520472440945,30.144094488188983 L214.520472440945,34.54409448818898 L216.520472440945,35.94409448818898 L216.920472440945,35.14409448818898 L217.120472440945,30.144094488188983 L217.320472440945,31.944094488188984"/>
    <path d="M221.120472440945,26.344094488188983 L219.320472440945,35.344094488188986 L223.120472440945,30.144094488188983 L223.520472440945,30.544094488188982 L222.720472440945,33.54409448818898"/>
    <path d="M211.520472440945,56.54409448818898 L212.920472440945,50.94409448818898 L214.120472440945,59.744094488188985 L216.320472440945,61.744094488188985"/>
    <path d="M340.00866141732297,59.54409448818898 L340.00866141732297,58.94409448818899 L338.00866141732297,58.14409448818898 L330.00866141732297,56.94409448818899 L324.00866141732297,56.94409448818899 L318.80866141732304,58.744094488188985 L315.80866141732304,60.744094488188985 L314.80866141732304,63.14409448818898 L315.00866141732297,66.34409448818899 L317.80866141732304,69.74409448818898 L321.00866141732297,71.14409448818898 L333.208661417323,72.944094488189 L341.00866141732297,72.944094488189 L345.00866141732297,70.74409448818898 L347.208661417323,68.54409448818899 L347.40866141732295,65.34409448818899 L344.608661417323,60.14409448818898 L339.608661417323,56.94409448818899 L335.00866141732297,56.14409448818898"/>
    <path d="M320.40866141732295,69.74409448818898 L320.00866141732297,72.14409448818898"/>
    <path d="M323.80866141732304,71.34409448818899 L324.40866141732295,72.74409448818898"/>
    <path d="M336.208661417323,71.74409448818898 L339.00866141732297,75.14409448818898"/>
    <path d="M341.40866141732295,72.14409448818898 L343.608661417323,74.54409448818899"/>
    <path d="M324.40866141732295,72.14409448818898 L325.208661417323,72.944094488189"/>
    <path d="M321.00866141732297,71.34409448818899 L320.40866141732295,73.34409448818899"/>
    <path d="M320.208661417323,57.344094488188986 L320.208661417323,52.744094488188985 L318.80866141732304,49.14409448818898 L313.40866141732295,41.744094488188985 L311.80866141732304,40.744094488188985 L309.80866141732304,40.54409448818899 L308.208661417323,44.14409448818898 L308.208661417323,46.744094488188985 L312.00866141732297,52.94409448818898 L314.00866141732297,54.94409448818898 L317.00866141732297,56.54409448818898 L318.00866141732297,55.94409448818898"/>
    <path d="M340.40866141732295,57.744094488188985 L341.208661417323,49.14409448818898 L342.40866141732295,43.54409448818899 L343.208661417323,42.744094488188985 L344.80866141732304,43.14409448818898 L346.00866141732297,46.14409448818898 L342.208661417323,54.54409448818899 L340.208661417323,57.344094488188986 L340.208661417323,56.54409448818898"/>
    <path d="M342.208661417323,41.744094488188985 L336.608661417323,37.94409448818898 L334.608661417323,35.744094488188985 L333.80866141732304,32.744094488188985 L334.208661417323,27.144094488188983 L338.00866141732297,24.344094488188983 L339.608661417323,24.344094488188983 L342.00866141732297,28.344094488188983 L343.608661417323,40.94409448818898 L345.40866141732295,35.344094488188986 L346.608661417323,34.744094488188985 L347.208661417323,35.54409448818898 L347.00866141732297,39.54409448818898 L345.80866141732304,41.344094488188986 L343.608661417323,42.744094488188985"/>
    <path d="M311.608661417323,41.744094488188985 L314.80866141732304,35.344094488188986 L316.208661417323,28.544094488188982 L313.00866141732297,28.544094488188982 L311.00866141732297,30.144094488188983 L310.608661417323,31.944094488188984 L311.00866141732297,39.744094488188985 L310.80866141732304,36.344094488188986 L306.208661417323,31.944094488188984 L305.208661417323,35.344094488188986 L305.608661417323,38.14409448818898 L313.80866141732304,40.54409448818899"/>
    <path d="M427.4968503937009,38.54409448818898 L421.69685039370097,39.14409448818898 L415.296850393701,36.94409448818898 L413.69685039370097,35.54409448818898 L412.296850393701,33.14409448818898 L412.8968503937009,28.744094488188985 L416.296850393701,24.944094488188984 L422.69685039370097,24.144094488188983 L428.09685039370095,26.144094488188983 L432.69685039370097,29.344094488188983 L433.4968503937009,32.14409448818898 L432.69685039370097,34.744094488188985 L430.69685039370097,36.94409448818898 L427.296850393701,38.344094488188986"/>
    <path d="M418.8968503937009,38.744094488188985 L417.8968503937009,43.94409448818898"/>
    <path d="M424.4968503937009,39.14409448818898 L426.09685039370095,44.14409448818898"/>
    <path d="M434.09685039370095,31.744094488188985 L440.69685039370097,34.14409448818898 L442.8968503937009,36.14409448818898 L442.8968503937009,37.744094488188985 L442.09685039370095,39.14409448818898 L434.8968503937009,43.54409448818899 L431.4968503937009,46.54409448818899 L441.4968503937009,44.54409448818899 L439.09685039370095,48.94409448818898 L446.09685039370095,46.94409448818898 L449.09685039370095,44.744094488188985 L450.296850393701,41.54409448818899 L450.69685039370097,36.54409448818898 L449.09685039370095,31.944094488188984 L446.296850393701,29.144094488188983 L440.69685039370097,27.144094488188983 L435.69685039370097,26.944094488188984 L432.4968503937009,28.944094488188984"/>
    <path d="M413.69685039370097,26.944094488188984 L409.69685039370097,25.144094488188983 L405.296850393701,24.944094488188984 L402.09685039370095,26.344094488188983 L400.09685039370095,29.544094488188982 L399.69685039370097,33.54409448818898 L400.8968503937009,36.744094488188985 L407.69685039370097,43.14409448818898 L407.8968503937009,37.744094488188985 L408.8968503937009,37.744094488188985 L411.69685039370097,41.54409448818899 L410.09685039370095,36.94409448818898"/>
    <path d="M32.544094488189,133.23228346456696 L30.744094488189006,131.23228346456696 L29.744094488189006,128.63228346456697 L29.744094488189006,125.43228346456695 L30.744094488189006,121.63228346456695 L31.544094488189007,119.43228346456695 L32.144094488189005,119.23228346456695 L32.544094488189,119.83228346456696 L33.34409448818901,121.23228346456695 L33.744094488189006,126.23228346456695 L35.34409448818901,120.63228346456695 L36.34409448818901,119.03228346456696 L37.94409448818901,118.63228346456695 L39.744094488189006,122.43228346456695 L39.744094488189006,126.03228346456696 L38.544094488189,131.43228346456695 L39.744094488189006,135.23228346456696"/>
    <path d="M32.544094488189,132.63228346456697 L36.34409448818901,136.43228346456695 L36.744094488189006,137.63228346456697 L36.144094488189005,138.23228346456696 L21.744094488189006,138.23228346456696 L31.544094488189007,138.83228346456696"/>
    <path d="M22.944094488189005,142.23228346456696 L33.744094488189006,141.43228346456695"/>
    <path d="M26.744094488189006,146.43228346456695 L27.544094488189007,146.83228346456696 L36.34409448818901,141.83228346456696"/>
    <path d="M36.144094488189005,141.23228346456696 L40.34409448818901,142.63228346456697 L46.544094488189,142.63228346456697"/>
    <path d="M37.744094488189006,142.63228346456697 L35.144094488189005,143.63228346456697 L31.344094488189008,148.23228346456696 L30.744094488189006,149.43228346456695 L31.744094488189006,149.23228346456696"/>
    <path d="M45.544094488189,142.83228346456696 L54.744094488189006,142.63228346456697 L57.54409448818901,141.23228346456696 L59.54409448818901,143.03228346456694 L59.34409448818901,142.23228346456696 L64.744094488189,144.23228346456696"/>
    <path d="M57.34409448818901,136.63228346456697 L61.94409448818901,137.23228346456696 L68.14409448818901,140.43228346456695"/>
    <path d="M56.744094488189006,133.63228346456697 L71.344094488189,134.03228346456694"/>
    <path d="M58.744094488189006,129.23228346456696 L72.744094488189,125.23228346456695"/>
    <path d="M56.94409448818901,141.23228346456696 L57.744094488189006,131.43228346456695 L55.34409448818901,126.23228346456695"/>
    <path d="M127.63228346456698,134.23228346456696 L120.43228346456698,129.83228346456696 L117.43228346456698,125.03228346456696 L116.23228346456698,120.83228346456696 L123.43228346456698,126.43228346456695 L126.83228346456698,121.23228346456695 L127.63228346456698,121.83228346456696 L129.232283464567,130.03228346456694 L129.232283464567,131.63228346456697 L128.63228346456697,132.23228346456696"/>
    <path d="M129.03228346456697,131.63228346456697 L129.43228346456698,130.63228346456697 L131.83228346456698,129.03228346456694 L136.03228346456697,127.63228346456695 L144.03228346456697,127.83228346456696 L153.63228346456697,130.23228346456696 L151.43228346456698,130.83228346456696 L135.232283464567,130.23228346456696 L129.232283464567,131.43228346456695"/>
    <path d="M129.83228346456698,131.23228346456696 L130.03228346456697,134.83228346456696 L132.63228346456697,136.23228346456696 L139.63228346456697,136.63228346456697 L146.43228346456698,134.83228346456696 L150.83228346456698,132.03228346456694 L153.83228346456698,128.83228346456696 L154.43228346456698,123.03228346456696 L157.83228346456698,118.63228346456695 L158.83228346456698,119.03228346456696 L159.23228346456696,124.23228346456695 L160.23228346456696,124.63228346456695 L167.23228346456696,123.43228346456695 L167.03228346456697,124.83228346456696 L165.632283464567,126.63228346456695 L162.43228346456698,128.83228346456696 L159.83228346456698,129.43228346456695 L155.632283464567,129.63228346456697 L152.83228346456698,131.03228346456694"/>
    <path d="M152.83228346456698,131.03228346456694 L157.03228346456697,131.83228346456696 L158.632283464567,132.83228346456696 L165.43228346456698,139.03228346456694"/>
    <path d="M150.63228346456697,135.43228346456695 L149.83228346456698,134.63228346456697 L151.43228346456698,134.63228346456697 L155.43228346456698,135.83228346456696 L159.632283464567,138.63228346456697 L161.03228346456697,140.43228346456695"/>
    <path d="M129.63228346456697,134.43228346456695 L128.03228346456697,134.43228346456695 L125.03228346456697,135.63228346456697 L119.03228346456697,139.63228346456697"/>
    <path d="M233.52047244094496,132.63228346456697 L230.12047244094495,132.63228346456697 L225.12047244094495,134.83228346456696 L221.72047244094495,137.83228346456696 L220.72047244094495,139.63228346456697 L220.72047244094495,147.03228346456694 L222.32047244094494,149.83228346456696 L225.12047244094495,152.43228346456695 L230.32047244094494,154.83228346456696 L240.72047244094495,154.63228346456694 L247.12047244094495,151.23228346456696 L249.72047244094495,147.83228346456696 L250.72047244094495,144.43228346456695 L247.92047244094496,138.03228346456694 L244.72047244094495,135.43228346456695 L242.52047244094496,134.23228346456696 L233.52047244094496,133.03228346456694"/>
    <path d="M222.52047244094496,150.03228346456694 L218.32047244094494,151.23228346456696 L216.12047244094495,152.43228346456695 L214.72047244094495,154.03228346456694"/>
    <path d="M247.12047244094495,151.83228346456696 L250.12047244094495,152.43228346456695 L252.12047244094495,154.43228346456695"/>
    <path d="M220.32047244094494,140.43228346456695 L215.12047244094495,140.43228346456695 L210.72047244094495,142.43228346456695"/>
    <path d="M249.52047244094496,141.83228346456696 L256.1204724409449,140.43228346456695 L258.1204724409449,140.83228346456696"/>
    <path d="M245.12047244094495,135.03228346456694 L250.92047244094496,134.23228346456696 L255.72047244094495,132.03228346456694 L259.920472440945,127.23228346456695 L260.920472440945,124.83228346456696 L261.72047244094495,120.23228346456695 L259.72047244094495,118.63228346456695 L257.32047244094497,119.23228346456695 L256.72047244094495,120.43228346456695 L257.1204724409449,122.43228346456695 L254.92047244094496,120.43228346456695 L252.32047244094494,120.43228346456695 L252.92047244094496,124.43228346456695 L252.12047244094495,125.83228346456696 L247.12047244094495,130.83228346456696 L243.92047244094496,133.03228346456694 L241.52047244094496,134.23228346456696"/>
    <path d="M331.00866141732297,135.83228346456696 L325.00866141732297,137.63228346456697 L317.6086614173229,141.43228346456695 L315.40866141732295,143.83228346456696 L314.00866141732297,146.43228346456695 L314.00866141732297,149.43228346456695 L315.2086614173229,151.83228346456696 L318.2086614173229,153.63228346456694 L325.8086614173229,156.43228346456695 L334.40866141732295,157.83228346456696 L340.00866141732297,157.03228346456697 L343.00866141732297,155.43228346456695 L344.6086614173229,153.83228346456696 L346.8086614173229,150.83228346456696 L347.40866141732295,148.43228346456695 L347.40866141732295,146.43228346456695 L346.6086614173229,143.63228346456697 L342.40866141732295,139.03228346456694 L335.8086614173229,136.03228346456694 L329.2086614173229,135.43228346456695"/>
    <path d="M322.6086614173229,140.03228346456694 L321.6086614173229,142.43228346456695 L323.00866141732297,144.63228346456697 L324.8086614173229,145.23228346456696 L326.40866141732295,144.23228346456696 L326.6086614173229,142.63228346456697 L326.00866141732297,141.63228346456697 L324.2086614173229,140.43228346456695 L322.40866141732295,140.43228346456695"/>
    <path d="M335.40866141732295,139.83228346456696 L334.00866141732297,141.83228346456696 L333.8086614173229,144.03228346456694 L334.8086614173229,145.23228346456696 L337.2086614173229,145.63228346456697 L339.6086614173229,144.43228346456695 L340.2086614173229,142.23228346456696 L340.00866141732297,141.43228346456695 L336.6086614173229,139.83228346456696"/>
    <path d="M326.8086614173229,149.63228346456697 L329.6086614173229,150.03228346456694 L331.6086614173229,149.63228346456697"/>
    <path d="M314.40866141732295,142.43228346456695 L311.2086614173229,138.23228346456696 L309.2086614173229,133.63228346456697"/>
    <path d="M305.2086614173229,128.83228346456696 L306.2086614173229,132.23228346456696 L307.40866141732295,133.83228346456696 L308.6086614173229,134.03228346456694 L310.00866141732297,133.03228346456694 L311.2086614173229,130.23228346456696 L311.2086614173229,127.43228346456695 L309.6086614173229,120.43228346456695 L308.6086614173229,121.03228346456696 L306.00866141732297,127.83228346456696"/>
    <path d="M347.40866141732295,143.43228346456695 L350.00866141732297,142.43228346456695 L352.8086614173229,139.23228346456696 L354.6086614173229,134.03228346456694 L351.40866141732295,131.03228346456694 L349.8086614173229,128.63228346456697 L349.40866141732295,123.43228346456695 L351.40866141732295,119.43228346456695 L352.8086614173229,118.83228346456696 L355.00866141732297,123.63228346456695 L356.2086614173229,128.03228346456694 L356.2086614173229,135.63228346456697"/>
    <path d="M341.00866141732297,157.83228346456696 L345.40866141732295,162.63228346456694"/>
    <path d="M335.8086614173229,160.23228346456696 L334.6086614173229,166.03228346456697"/>
    <path d="M324.2086614173229,155.23228346456696 L307.8086614173229,163.43228346456695"/>
    <path d="M318.2086614173229,153.23228346456696 L317.40866141732295,152.83228346456696"/>
    <path d="M410.2968503937009,135.43228346456695 L413.09685039370083,133.23228346456696 L418.4968503937009,131.03228346456694 L423.2968503937009,130.03228346456694 L429.09685039370083,130.03228346456694 L437.09685039370083,131.83228346456696 L441.09685039370083,133.83228346456696 L443.8968503937009,136.23228346456696 L444.8968503937009,138.63228346456697 L444.69685039370086,141.03228346456694 L443.4968503937009,142.43228346456695 L437.09685039370083,146.63228346456697 L430.69685039370086,148.43228346456695 L422.2968503937009,148.63228346456697 L417.69685039370086,147.23228346456696 L412.69685039370086,144.63228346456697 L406.69685039370086,140.43228346456695 L406.2968503937009,138.63228346456697 L406.69685039370086,137.23228346456696 L410.2968503937009,134.43228346456695"/>
    <path d="M410.8968503937009,135.43228346456695 L404.69685039370086,131.23228346456696 L402.4968503937009,128.23228346456696 L399.8968503937009,122.03228346456696 L399.8968503937009,121.63228346456695 L400.2968503937009,122.03228346456696 L403.2968503937009,127.23228346456695 L403.4968503937009,121.43228346456695 L404.8968503937009,120.23228346456695 L407.69685039370086,129.03228346456694 L413.2968503937009,136.23228346456696"/>
    <path d="M440.09685039370083,133.43228346456695 L446.8968503937009,118.63228346456695 L447.2968503937009,125.63228346456695 L448.09685039370083,122.43228346456695 L449.69685039370086,121.03228346456696 L450.69685039370086,121.03228346456696 L450.69685039370086,124.23228346456695 L449.09685039370083,129.43228346456695 L444.4968503937009,134.43228346456695"/>
    <path d="M421.8968503937009,129.83228346456696 L421.09685039370083,126.03228346456696 L417.8968503937009,121.03228346456696"/>
    <path d="M426.4968503937009,129.83228346456696 L429.09685039370083,125.23228346456695 L434.2968503937009,120.43228346456695"/>
    <path d="M407.4968503937009,141.03228346456694 L405.4968503937009,143.83228346456696 L403.2968503937009,149.23228346456696"/>
    <path d="M410.69685039370086,144.83228346456696 L409.8968503937009,145.43228346456695 L408.8968503937009,148.43228346456695 L408.8968503937009,151.63228346456697"/>
    <path d="M416.09685039370083,146.23228346456696 L415.69685039370086,150.43228346456695"/>
    <path d="M436.69685039370086,144.43228346456695 L442.09685039370083,151.03228346456694"/>
    <path d="M441.4968503937009,142.23228346456696 L444.69685039370086,145.63228346456697 L446.69685039370086,146.23228346456696"/>
    <path d="M445.69685039370086,140.23228346456696 L450.2968503937009,143.23228346456696"/>
    <path d="M47.54409448818895,215.72047244094492 L41.94409448818895,214.92047244094493 L37.74409448818895,216.92047244094493 L35.74409448818895,220.92047244094493 L35.34409448818895,226.3204724409449 L36.14409448818895,228.72047244094492 L39.94409448818895,230.72047244094492 L45.54409448818895,230.92047244094493 L57.74409448818895,228.3204724409449 L58.94409448818895,226.72047244094492 L59.14409448818895,221.12047244094492 L57.74409448818895,217.72047244094492 L55.544094488188954,216.52047244094493 L51.54409448818895,215.72047244094492 L48.54409448818895,215.72047244094492 L45.74409448818895,216.72047244094492"/>
    <path d="M59.74409448818895,220.72047244094492 L62.34409448818895,218.92047244094493 L66.94409448818895,218.52047244094493 L68.34409448818894,214.52047244094493 L70.34409448818894,213.3204724409449 L71.14409448818895,213.12047244094492 L69.94409448818895,214.92047244094493 L69.14409448818895,217.52047244094493 L70.14409448818895,217.72047244094492 L72.74409448818895,216.3204724409449 L71.74409448818895,218.92047244094493 L70.54409448818896,220.12047244094492 L68.94409448818895,220.52047244094493 L67.54409448818896,219.72047244094492 L66.54409448818896,218.3204724409449"/>
    <path d="M35.54409448818895,220.92047244094493 L33.74409448818895,219.12047244094492 L28.74409448818895,217.92047244094493 L28.74409448818895,216.3204724409449 L27.94409448818895,215.52047244094493 L23.54409448818895,213.52047244094493 L22.54409448818895,213.52047244094493 L21.74409448818895,214.3204724409449 L23.94409448818895,215.12047244094492 L25.54409448818895,217.92047244094493 L24.74409448818895,219.3204724409449 L23.34409448818895,219.92047244094493 L21.94409448818895,219.72047244094492 L22.54409448818895,220.12047244094492 L26.34409448818895,220.52047244094493 L27.94409448818895,219.3204724409449 L28.74409448818895,217.72047244094492"/>
    <path d="M35.34409448818895,223.3204724409449 L31.54409448818895,224.12047244094492 L30.144094488188948,225.12047244094492"/>
    <path d="M35.14409448818895,227.52047244094493 L34.14409448818895,227.52047244094493 L31.74409448818895,229.12047244094492"/>
    <path d="M37.14409448818895,229.92047244094493 L32.54409448818895,231.92047244094493 L31.34409448818895,233.52047244094493"/>
    <path d="M56.544094488188954,229.12047244094492 L59.544094488188954,230.52047244094493"/>
    <path d="M59.34409448818895,225.92047244094493 L63.74409448818895,227.72047244094492"/>
    <path d="M59.74409448818895,223.72047244094492 L62.74409448818895,224.12047244094492"/>
    <path d="M137.6322834645669,222.52047244094493 L136.43228346456692,222.3204724409449 L133.83228346456693,225.3204724409449 L131.23228346456693,232.72047244094492 L130.43228346456692,239.52047244094493 L131.23228346456693,242.92047244094493 L132.43228346456692,245.12047244094492 L134.43228346456692,246.52047244094493 L136.6322834645669,247.32047244094494 L139.23228346456693,247.32047244094494 L142.03228346456692,246.52047244094493 L144.23228346456693,244.52047244094493 L146.43228346456692,241.52047244094493 L147.6322834645669,237.72047244094492 L148.03228346456692,233.52047244094493 L146.03228346456692,225.92047244094493 L143.43228346456692,222.3204724409449 L140.6322834645669,221.72047244094492 L139.03228346456692,222.72047244094492 L137.03228346456692,224.72047244094492 L134.83228346456693,228.72047244094492"/>
    <path d="M134.83228346456693,226.3204724409449 L132.83228346456693,225.12047244094492 L130.6322834645669,222.72047244094492 L128.03228346456692,219.12047244094492 L125.83228346456693,214.12047244094492 L125.03228346456692,215.92047244094493 L124.03228346456692,221.92047244094493 L120.03228346456692,214.92047244094493 L119.23228346456692,218.72047244094492 L118.23228346456692,218.92047244094493 L116.63228346456692,217.12047244094492 L116.43228346456692,220.12047244094492 L117.23228346456692,222.92047244094493 L120.83228346456691,227.12047244094492 L124.83228346456691,228.52047244094493 L125.83228346456693,229.52047244094493 L128.83228346456693,237.32047244094494"/>
    <path d="M148.03228346456692,226.92047244094493 L152.83228346456693,213.72047244094492 L153.83228346456693,213.12047244094492 L155.2322834645669,213.12047244094492 L155.83228346456693,214.12047244094492 L155.43228346456692,217.92047244094493 L160.43228346456692,217.12047244094492 L160.2322834645669,219.12047244094492 L162.43228346456692,218.92047244094493 L163.2322834645669,221.52047244094493 L160.43228346456692,228.12047244094492 L150.43228346456692,235.12047244094492 L149.03228346456692,237.32047244094494"/>
    <path d="M133.43228346456692,240.72047244094492 L130.23228346456693,244.12047244094492 L127.83228346456693,247.92047244094493 L125.83228346456693,253.32047244094494 L125.43228346456692,259.32047244094497 L126.83228346456693,263.32047244094497 L128.03228346456692,264.1204724409449 L129.23228346456693,263.1204724409449 L130.83228346456693,259.92047244094493 L132.23228346456693,250.72047244094492 L134.23228346456693,246.32047244094494"/>
    <path d="M145.83228346456693,244.92047244094493 L147.83228346456693,254.92047244094493 L149.23228346456693,258.5204724409449 L151.43228346456692,260.1204724409449 L152.43228346456692,257.1204724409449 L152.43228346456692,254.52047244094493 L150.83228346456693,238.32047244094494"/>
    <path d="M221.5204724409449,247.32047244094494 L235.7204724409449,248.72047244094492 L239.7204724409449,248.32047244094494 L244.32047244094488,245.72047244094492 L247.32047244094488,241.32047244094494 L248.1204724409449,238.32047244094494 L247.9204724409449,235.52047244094493 L244.7204724409449,231.52047244094493 L239.9204724409449,229.3204724409449 L233.7204724409449,229.92047244094493 L228.92047244094488,231.92047244094493 L224.1204724409449,235.72047244094492 L221.92047244094488,239.72047244094492 L221.5204724409449,242.12047244094492 L222.1204724409449,245.72047244094492"/>
    <path d="M221.7204724409449,236.72047244094492 L210.7204724409449,240.32047244094494"/>
    <path d="M221.1204724409449,246.12047244094492 L214.32047244094488,258.92047244094493"/>
    <path d="M233.5204724409449,249.72047244094492 L235.1204724409449,254.32047244094494 L237.9204724409449,258.5204724409449 L244.9204724409449,264.1204724409449"/>
    <path d="M246.5204724409449,242.52047244094493 L249.1204724409449,244.92047244094493 L253.32047244094488,247.32047244094494 L255.5204724409449,248.32047244094494 L258.32047244094485,248.32047244094494"/>
    <path d="M246.7204724409449,233.52047244094493 L253.32047244094488,234.32047244094494 L258.32047244094485,233.12047244094492"/>
    <path d="M228.92047244094488,236.92047244094493 Z"/>
    <path d="M230.1204724409449,234.12047244094492 L229.9204724409449,236.92047244094493 L231.32047244094488,237.92047244094493 L232.32047244094488,237.72047244094492 L232.9204724409449,235.32047244094494 L231.7204724409449,233.72047244094492 L230.5204724409449,233.72047244094492"/>
    <path d="M239.9204724409449,232.92047244094493 L238.32047244094488,234.72047244094492 L238.5204724409449,235.92047244094493 L240.32047244094488,237.12047244094492 L240.7204724409449,236.52047244094493 L240.1204724409449,235.12047244094492 L237.9204724409449,232.92047244094493"/>
    <path d="M228.5204724409449,230.92047244094493 L224.32047244094488,224.92047244094493 L222.92047244094488,221.3204724409449 L223.7204724409449,219.12047244094492 L228.1204724409449,217.72047244094492"/>
    <path d="M222.1204724409449,220.3204724409449 L222.92047244094488,216.52047244094493 L225.92047244094488,214.92047244094493 L229.1204724409449,214.92047244094493"/>
    <path d="M228.1204724409449,213.92047244094493 L227.5204724409449,217.12047244094492"/>
    <path d="M242.7204724409449,229.3204724409449 L245.32047244094488,228.12047244094492 L247.9204724409449,225.92047244094493 L248.9204724409449,223.52047244094493 L249.7204724409449,219.52047244094493 L247.9204724409449,215.72047244094492 L242.32047244094488,216.92047244094493"/>
    <path d="M241.32047244094488,215.92047244094493 L241.7204724409449,213.52047244094493 L243.32047244094488,213.12047244094492 L246.7204724409449,213.3204724409449 L249.5204724409449,215.3204724409449"/>
    <path d="M323.40866141732283,219.92047244094493 L320.2086614173229,224.3204724409449 L319.40866141732283,229.52047244094493 L321.6086614173229,232.92047244094493 L326.2086614173229,236.72047244094492 L329.6086614173229,238.52047244094493 L337.2086614173229,238.92047244094493 L338.6086614173229,238.32047244094494 L341.6086614173229,233.92047244094493 L342.2086614173229,226.72047244094492 L339.8086614173229,221.92047244094493 L335.00866141732286,219.12047244094492 L328.8086614173229,218.52047244094493 L324.00866141732286,220.12047244094492"/>
    <path d="M341.8086614173229,223.52047244094493 L345.8086614173229,223.3204724409449 L348.6086614173229,221.3204724409449 L349.8086614173229,218.72047244094492 L349.40866141732283,215.72047244094492 L351.00866141732286,217.12047244094492 L353.40866141732283,217.3204724409449 L355.2086614173229,215.3204724409449 L354.8086614173229,213.12047244094492 L356.2086614173229,216.3204724409449 L356.00866141732286,218.72047244094492 L354.2086614173229,220.52047244094493 L344.6086614173229,226.72047244094492 L342.40866141732283,227.52047244094493"/>
    <path d="M321.00866141732286,223.72047244094492 L312.2086614173229,223.3204724409449 L311.2086614173229,222.3204724409449 L310.8086614173229,218.92047244094493 L307.8086614173229,217.72047244094492 L305.2086614173229,218.92047244094493 L306.00866141732286,222.92047244094493 L313.00866141732286,226.72047244094492 L323.2086614173229,226.92047244094493"/>
    <path d="M320.6086614173229,230.92047244094493 L317.8086614173229,231.12047244094492 L315.6086614173229,234.12047244094492 L315.00866141732286,235.72047244094492 L316.6086614173229,234.12047244094492 L319.8086614173229,232.92047244094493"/>
    <path d="M322.00866141732286,232.92047244094493 L319.00866141732286,236.92047244094493 L324.00866141732286,233.72047244094492"/>
    <path d="M324.00866141732286,236.32047244094494 L323.6086614173229,238.92047244094493 L326.6086614173229,235.32047244094494"/>
    <path d="M422.69685039370086,216.12047244094492 L418.8968503937008,216.72047244094492 L416.2968503937009,217.72047244094492 L414.4968503937008,219.92047244094493 L414.09685039370083,221.92047244094493 L414.69685039370086,223.92047244094493 L416.2968503937009,225.52047244094493 L423.69685039370086,228.52047244094493 L430.09685039370083,229.12047244094492 L436.2968503937009,227.12047244094492 L438.2968503937009,225.3204724409449 L438.8968503937008,223.72047244094492 L438.4968503937008,219.52047244094493 L436.2968503937009,216.72047244094492 L433.2968503937009,215.52047244094493 L422.2968503937009,215.12047244094492"/>
    <path d="M437.69685039370086,217.3204724409449 L442.8968503937008,214.12047244094492 L445.69685039370086,213.12047244094492 L447.4968503937008,213.72047244094492 L450.2968503937009,216.52047244094493"/>
    <path d="M439.2968503937009,218.92047244094493 L440.2968503937009,217.3204724409449 L443.2968503937009,216.3204724409449 L450.69685039370086,216.72047244094492"/>
    <path d="M438.4968503937008,222.12047244094492 L440.8968503937008,220.3204724409449 L443.8968503937008,220.3204724409449 L446.69685039370086,221.72047244094492 L450.69685039370086,225.92047244094493"/>
    <path d="M437.2968503937009,222.3204724409449 L440.69685039370086,222.92047244094493 L447.69685039370086,225.3204724409449 L450.69685039370086,225.3204724409449"/>
    <path d="M437.2968503937009,225.92047244094493 L440.69685039370086,225.92047244094493 L443.2968503937009,226.92047244094493 L450.09685039370083,233.92047244094493"/>
    <path d="M436.09685039370083,226.92047244094493 L444.09685039370083,230.3204724409449 L448.4968503937008,233.52047244094493"/>
    <path d="M447.69685039370086,233.12047244094492 L450.09685039370083,233.72047244094492"/>
    <path d="M416.09685039370083,217.92047244094493 L411.2968503937009,217.52047244094493 L407.2968503937009,218.3204724409449 L403.69685039370086,220.52047244094493 L400.4968503937008,223.52047244094493"/>
    <path d="M415.8968503937008,219.3204724409449 L410.4968503937008,219.72047244094492 L399.8968503937008,224.3204724409449 L399.69685039370086,224.92047244094493"/>
    <path d="M414.69685039370086,222.92047244094493 L410.2968503937009,223.52047244094493 L406.2968503937009,225.12047244094492 L403.4968503937008,226.92047244094493 L401.2968503937009,229.72047244094492"/>
    <path d="M415.69685039370086,224.12047244094492 L405.4968503937008,227.3204724409449 L400.8968503937008,231.12047244094492"/>
    <path d="M415.2968503937009,226.12047244094492 L408.69685039370086,229.3204724409449 L402.69685039370086,235.12047244094492"/>
    <path d="M417.8968503937008,226.3204724409449 L414.69685039370086,229.12047244094492 L402.4968503937008,235.72047244094492"/>
    <path d="M425.09685039370083,215.3204724409449 L419.2968503937009,216.52047244094493"/>
    <path d="M46.344094488188894,326.2086614173229 L39.944094488188895,325.40866141732295 L37.74409448818889,327.00866141732286 L36.344094488188894,329.6086614173229 L37.14409448818889,331.6086614173229 L40.1440944881889,332.6086614173229 L48.1440944881889,333.40866141732295 L54.5440944881889,331.00866141732286 L56.14409448818889,328.40866141732295 L55.14409448818889,327.00866141732286 L51.1440944881889,326.6086614173229 L47.1440944881889,325.2086614173229 L45.344094488188894,325.40866141732295"/>
    <path d="M37.14409448818889,327.2086614173229 L34.344094488188894,325.2086614173229 L30.944094488188895,321.40866141732295 L30.744094488188892,322.2086614173229 L29.944094488188895,322.6086614173229 L25.344094488188894,321.40866141732295 L22.344094488188894,317.40866141732295 L21.744094488188892,314.40866141732295 L22.344094488188894,312.6086614173229 L23.344094488188894,312.40866141732295 L24.14409448818889,313.40866141732295 L24.744094488188892,316.2086614173229 L25.744094488188892,311.8086614173229 L27.14409448818889,310.40866141732295 L29.344094488188894,309.6086614173229 L32.14409448818889,310.8086614173229 L32.74409448818889,311.6086614173229 L32.944094488188895,314.2086614173229 L31.14409448818889,317.8086614173229 L30.744094488188892,321.2086614173229"/>
    <path d="M54.944094488188895,326.8086614173229 L57.344094488188894,326.8086614173229 L59.74409448818889,325.6086614173229 L63.944094488188895,320.00866141732286 L61.344094488188894,318.00866141732286 L60.344094488188894,314.8086614173229 L61.344094488188894,310.6086614173229 L63.5440944881889,308.00866141732286 L64.5440944881889,307.6086614173229 L64.74409448818889,310.2086614173229 L63.1440944881889,313.2086614173229 L70.5440944881889,308.6086614173229 L71.74409448818889,309.2086614173229 L72.74409448818889,312.8086614173229 L72.5440944881889,315.2086614173229 L68.34409448818889,320.8086614173229 L65.9440944881889,322.2086614173229 L64.34409448818889,322.2086614173229 L63.74409448818889,321.6086614173229"/>
    <path d="M145.23228346456688,315.8086614173229 L140.23228346456688,314.40866141732295 L135.83228346456687,314.40866141732295 L130.63228346456685,316.2086614173229 L129.63228346456685,318.40866141732295 L130.03228346456686,321.40866141732295 L132.63228346456685,323.00866141732286 L138.23228346456688,324.2086614173229 L147.23228346456688,324.6086614173229 L150.43228346456686,323.40866141732295 L151.03228346456686,320.8086614173229 L149.83228346456687,318.2086614173229 L144.83228346456687,315.6086614173229"/>
    <path d="M129.03228346456686,314.8086614173229 L128.03228346456686,312.8086614173229 L124.63228346456687,309.2086614173229 L120.83228346456686,307.6086614173229 L120.03228346456686,308.00866141732286 L121.83228346456686,311.8086614173229 L120.83228346456686,310.6086614173229 L119.23228346456686,310.00866141732286 L123.83228346456686,315.40866141732295 L117.43228346456686,312.40866141732295 L116.43228346456686,312.2086614173229 L116.23228346456686,313.00866141732286 L120.23228346456686,319.40866141732295 L121.63228346456687,320.40866141732295 L124.23228346456686,320.8086614173229 L127.23228346456686,320.6086614173229 L129.23228346456688,318.8086614173229 L129.43228346456686,315.6086614173229 L128.43228346456686,313.2086614173229"/>
    <path d="M154.23228346456685,324.8086614173229 L154.23228346456685,323.00866141732286 L159.03228346456686,309.40866141732295 L160.43228346456686,309.6086614173229 L161.63228346456688,312.00866141732286 L161.83228346456687,321.2086614173229 L166.63228346456688,315.6086614173229 L167.23228346456685,316.2086614173229 L167.23228346456685,317.8086614173229 L164.63228346456688,328.8086614173229 L161.63228346456688,328.8086614173229 L155.23228346456685,326.6086614173229 L153.43228346456686,324.00866141732286 L153.63228346456685,321.8086614173229 L154.63228346456688,321.00866141732286"/>
    <path d="M145.83228346456687,325.6086614173229 L146.23228346456688,325.40866141732295 L147.43228346456686,326.6086614173229 L148.63228346456685,328.8086614173229 L148.83228346456687,331.00866141732286 L147.83228346456687,332.40866141732295"/>
    <path d="M134.83228346456687,324.6086614173229 L131.23228346456688,326.8086614173229 L130.43228346456686,330.00866141732286"/>
    <path d="M140.83228346456687,326.40866141732295 L140.63228346456685,327.00866141732286 L142.63228346456685,330.00866141732286 L142.63228346456685,331.8086614173229 L141.43228346456686,333.8086614173229"/>
    <path d="M137.63228346456685,326.2086614173229 L135.43228346456686,327.8086614173229 L134.23228346456688,330.40866141732295 L134.03228346456686,332.40866141732295"/>
    <path d="M231.72047244094483,321.8086614173229 Z"/>
    <path d="M217.92047244094482,318.6086614173229 L222.12047244094484,313.00866141732286 L228.12047244094484,309.6086614173229 L229.72047244094483,311.00866141732286 L230.72047244094483,315.8086614173229 L230.12047244094484,318.2086614173229 L230.72047244094483,320.00866141732286 L231.72047244094483,320.8086614173229 L233.92047244094485,321.00866141732286 L240.32047244094483,315.8086614173229 L243.92047244094485,310.8086614173229 L238.52047244094484,312.00866141732286 L240.92047244094485,318.2086614173229 L241.32047244094483,320.40866141732295 L242.92047244094485,321.40866141732295 L244.92047244094485,321.40866141732295 L245.72047244094483,320.8086614173229 L246.92047244094485,314.6086614173229 L246.12047244094484,311.00866141732286 L246.72047244094483,314.6086614173229 L248.52047244094484,319.6086614173229 L250.92047244094485,321.2086614173229 L251.92047244094485,318.6086614173229 L251.92047244094485,314.40866141732295 L251.52047244094484,313.00866141732286 L249.32047244094483,312.00866141732286 L249.32047244094483,314.40866141732295 L251.52047244094484,317.6086614173229 L253.92047244094485,318.8086614173229 L254.32047244094483,316.40866141732295 L253.92047244094485,310.6086614173229 L252.12047244094484,308.40866141732295 L251.52047244094484,310.40866141732295 L251.92047244094485,313.8086614173229 L255.12047244094484,317.8086614173229 L257.72047244094483,318.6086614173229 L254.12047244094484,307.6086614173229"/>
    <path d="M254.32047244094483,308.00866141732286 L257.72047244094483,310.8086614173229 L261.72047244094483,317.2086614173229"/>
    <path d="M217.72047244094483,318.6086614173229 L210.72047244094483,318.00866141732286"/>
    <path d="M326.00866141732286,329.00866141732286 L324.2086614173228,329.6086614173229 L321.40866141732283,332.40866141732295 L317.8086614173228,338.6086614173229 L316.40866141732283,344.00866141732286 L317.2086614173228,350.6086614173229 L319.40866141732283,354.6086614173229 L322.2086614173228,357.00866141732297 L327.40866141732283,358.00866141732297 L333.40866141732283,357.8086614173229 L339.00866141732286,356.2086614173229 L343.40866141732283,354.2086614173229 L347.40866141732283,351.8086614173229 L350.40866141732283,348.8086614173229 L352.2086614173228,345.8086614173229 L353.2086614173228,342.00866141732286 L352.8086614173228,337.40866141732295 L351.60866141732276,334.2086614173229 L348.8086614173228,330.00866141732286 L345.00866141732286,327.00866141732286 L341.40866141732283,325.6086614173229 L335.40866141732283,324.40866141732295 L330.8086614173228,324.2086614173229 L327.60866141732276,324.8086614173229 L323.8086614173228,327.2086614173229 L321.60866141732276,330.00866141732286"/>
    <path d="M347.8086614173228,329.00866141732286 L349.60866141732276,325.8086614173229 L350.40866141732283,321.2086614173229 L347.8086614173228,319.2086614173229 L346.40866141732283,317.40866141732295 L345.60866141732276,314.6086614173229 L346.00866141732286,312.00866141732286 L347.40866141732283,309.8086614173229 L349.8086614173228,308.00866141732286 L351.2086614173228,309.40866141732295 L351.8086614173228,314.40866141732295 L355.40866141732283,310.8086614173229 L355.8086614173228,310.40866141732295 L356.2086614173228,311.00866141732286 L355.8086614173228,313.8086614173229 L354.40866141732283,317.2086614173229 L350.40866141732283,322.6086614173229"/>
    <path d="M318.60866141732276,339.00866141732286 L317.40866141732283,339.00866141732286 L314.2086614173228,337.2086614173229 L309.2086614173228,332.6086614173229 L308.40866141732283,328.40866141732295 L310.60866141732276,323.2086614173229 L308.40866141732283,322.8086614173229 L306.40866141732283,321.2086614173229 L305.2086614173228,317.2086614173229 L306.8086614173228,311.8086614173229 L308.8086614173228,309.2086614173229 L311.60866141732276,307.6086614173229 L312.40866141732283,308.2086614173229 L311.8086614173228,311.6086614173229 L312.00866141732286,314.8086614173229 L313.2086614173228,318.00866141732286 L315.8086614173228,315.6086614173229 L318.8086614173228,314.8086614173229 L317.8086614173228,318.2086614173229 L315.8086614173228,321.00866141732286 L312.8086614173228,323.8086614173229 L308.8086614173228,326.2086614173229"/>
    <path d="M324.40866141732283,322.6086614173229 L323.8086614173228,323.40866141732295 L324.2086614173228,324.2086614173229 L325.8086614173228,323.6086614173229 L326.00866141732286,322.8086614173229 L325.2086614173228,322.2086614173229 L323.60866141732276,323.6086614173229 L324.2086614173228,324.00866141732286 L325.00866141732286,322.00866141732286"/>
    <path d="M334.60866141732276,320.40866141732295 L333.60866141732276,321.8086614173229 L334.40866141732283,322.2086614173229 L335.00866141732286,321.6086614173229 L335.2086614173228,320.6086614173229 L334.40866141732283,320.00866141732286 L333.2086614173228,321.2086614173229 L333.00866141732286,321.8086614173229 L333.60866141732276,321.8086614173229"/>
    <path d="M325.40866141732283,325.6086614173229 L328.60866141732276,329.2086614173229"/>
    <path d="M409.0968503937007,312.40866141732295 L409.29685039370077,313.00866141732286 L405.0968503937007,311.8086614173229 L401.8968503937008,312.00866141732286 L399.8968503937008,317.6086614173229 L399.69685039370074,321.2086614173229 L400.8968503937008,323.2086614173229 L402.8968503937008,324.00866141732286 L406.29685039370077,323.6086614173229 L409.8968503937008,322.2086614173229"/>
    <path d="M412.29685039370077,318.40866141732295 L413.0968503937007,322.40866141732295 L412.69685039370074,321.00866141732286 L413.69685039370074,317.8086614173229"/>
    <path d="M415.29685039370077,318.2086614173229 L413.69685039370074,317.6086614173229 L412.69685039370074,318.6086614173229"/>
    <path d="M419.8968503937008,317.6086614173229 L420.29685039370077,315.8086614173229 L421.8968503937008,315.8086614173229 L424.4968503937008,319.2086614173229 L424.69685039370074,320.6086614173229 L422.29685039370077,319.40866141732295 L421.4968503937008,322.40866141732295 L423.0968503937007,322.6086614173229 L424.4968503937008,321.2086614173229"/>
    <path d="M424.4968503937008,311.6086614173229 L429.69685039370074,321.2086614173229 L429.29685039370077,318.00866141732286 L432.69685039370074,316.00866141732286 L434.29685039370077,317.40866141732295 L434.69685039370074,319.40866141732295 L434.0968503937007,320.2086614173229 L430.4968503937008,320.8086614173229"/>
    <path d="M441.0968503937007,317.40866141732295 L440.69685039370074,308.6086614173229 L441.4968503937008,307.6086614173229 L444.0968503937007,310.8086614173229 L444.8968503937008,317.8086614173229"/>
    <path d="M441.0968503937007,317.2086614173229 L439.4968503937008,316.00866141732286 L439.69685039370074,318.00866141732286"/>
    <path d="M445.0968503937007,317.6086614173229 L446.4968503937008,313.6086614173229 L447.4968503937008,314.2086614173229 L447.8968503937008,316.00866141732286 L448.29685039370077,313.6086614173229 L449.69685039370074,314.40866141732295 L450.4968503937008,315.8086614173229 L450.69685039370074,318.00866141732286 L447.4968503937008,322.8086614173229 L446.4968503937008,322.8086614173229 L442.29685039370077,321.00866141732286 L439.4968503937008,318.40866141732295 L438.69685039370074,316.2086614173229"/>
    <path d="M31.544094488188836,415.4968503937008 L38.94409448818884,412.8968503937009 L50.94409448818884,412.4968503937008 L57.144094488188834,414.09685039370083 L58.54409448818884,415.4968503937008 L58.744094488188836,418.09685039370083 L57.744094488188836,420.4968503937008 L55.744094488188836,422.09685039370083 L44.54409448818883,423.2968503937009 L36.34409448818884,421.2968503937009 L32.144094488188834,417.8968503937009 L31.544094488188836,416.2968503937009"/>
    <path d="M58.34409448818884,415.4968503937008 L59.94409448818884,412.8968503937009 L63.14409448818884,410.09685039370083 L63.54409448818884,411.4968503937008 L62.744094488188836,412.8968503937009 L60.94409448818884,415.4968503937008 L59.34409448818884,416.2968503937009"/>
    <path d="M62.94409448818884,409.4968503937008 L61.54409448818884,404.2968503937009 L63.94409448818884,406.09685039370083 L65.34409448818883,409.4968503937008 L67.74409448818884,407.09685039370083 L70.14409448818884,405.69685039370086 L72.34409448818883,405.2968503937009 L72.74409448818884,406.2968503937009 L71.54409448818885,407.8968503937009 L69.54409448818885,409.09685039370083 L62.34409448818884,411.4968503937008"/>
    <path d="M32.744094488188836,414.69685039370086 L31.344094488188837,411.09685039370083 L28.944094488188835,408.4968503937008 L28.144094488188834,413.69685039370086 L29.544094488188836,416.69685039370086 L29.94409448818884,416.8968503937009 L29.94409448818884,416.4968503937008"/>
    <path d="M29.544094488188836,408.09685039370083 L33.54409448818883,403.4968503937008 L32.54409448818883,403.4968503937008 L25.944094488188835,407.2968503937009 L25.344094488188837,403.69685039370086 L24.544094488188836,402.09685039370083 L21.944094488188835,408.8968503937009 L25.144094488188834,411.09685039370083 L31.344094488188837,413.4968503937008"/>
    <path d="M35.94409448818884,421.8968503937009 L34.54409448818883,422.2968503937009 L34.54409448818883,423.4968503937008"/>
    <path d="M153.6322834645668,431.09685039370083 L140.4322834645668,433.09685039370083 L134.8322834645668,431.69685039370086 L131.6322834645668,429.69685039370086 L130.23228346456682,425.8968503937009 L132.23228346456682,421.69685039370086 L137.8322834645668,419.2968503937009 L143.6322834645668,418.4968503937008 L151.8322834645668,421.2968503937009 L161.0322834645668,426.4968503937008 L164.0322834645668,429.09685039370083 L164.4322834645668,431.2968503937009 L161.63228346456683,432.4968503937008 L158.2322834645668,432.4968503937008 L156.2322834645668,431.4968503937008 L149.6322834645668,430.69685039370086"/>
    <path d="M158.2322834645668,425.09685039370083 L165.8322834645668,419.69685039370086 L166.8322834645668,417.69685039370086 L167.2322834645668,414.69685039370086 L165.8322834645668,412.4968503937008 L164.63228346456683,411.69685039370086 L161.2322834645668,416.09685039370083 L159.0322834645668,417.4968503937008 L157.63228346456683,417.2968503937009 L155.63228346456683,414.69685039370086 L154.8322834645668,410.2968503937009 L156.63228346456683,409.2968503937009 L164.2322834645668,411.09685039370083 L163.8322834645668,406.09685039370083 L165.4322834645668,405.8968503937009 L166.4322834645668,406.4968503937008 L166.63228346456683,408.2968503937009 L165.2322834645668,411.8968503937009"/>
    <path d="M133.8322834645668,420.69685039370086 L131.0322834645668,420.09685039370083 L128.23228346456682,418.69685039370086 L124.2322834645668,414.4968503937008 L122.63228346456681,411.2968503937009 L121.0322834645668,411.69685039370086 L118.63228346456681,411.09685039370083 L116.43228346456681,407.8968503937009 L116.2322834645668,405.09685039370083 L118.0322834645668,402.09685039370083 L119.2322834645668,402.2968503937009 L120.0322834645668,403.2968503937009 L122.2322834645668,409.69685039370086 L126.63228346456681,403.09685039370083 L127.83228346456681,402.4968503937008 L128.23228346456682,407.8968503937009 L124.2322834645668,412.2968503937009 L122.43228346456681,412.69685039370086"/>
    <path d="M227.92047244094476,406.8968503937009 L245.32047244094477,406.69685039370086 L249.12047244094478,407.4968503937008 L251.72047244094477,408.8968503937009 L252.5204724409448,411.4968503937008 L251.12047244094478,413.4968503937008 L248.72047244094477,414.4968503937008 L241.12047244094478,415.8968503937009 L229.12047244094478,414.69685039370086 L227.5204724409448,411.8968503937009 L226.92047244094476,408.69685039370086 L227.72047244094477,406.8968503937009 L229.32047244094477,406.2968503937009"/>
    <path d="M250.9204724409448,408.09685039370083 L256.92047244094476,405.09685039370083 L259.92047244094476,404.69685039370086 L260.7204724409448,405.4968503937008 L261.7204724409448,409.2968503937009"/>
    <path d="M250.5204724409448,412.8968503937009 Z"/>
    <path d="M250.5204724409448,412.8968503937009 L259.1204724409448,412.4968503937008 L260.32047244094474,414.4968503937008 L261.1204724409448,418.09685039370083"/>
    <path d="M245.12047244094478,416.09685039370083 L253.5204724409448,415.4968503937008 L254.12047244094478,416.09685039370083 L254.72047244094477,419.8968503937009"/>
    <path d="M226.72047244094477,407.09685039370083 L214.92047244094476,402.09685039370083 L210.72047244094477,407.8968503937009 L212.5204724409448,408.8968503937009"/>
    <path d="M225.92047244094476,410.69685039370086 L217.5204724409448,409.69685039370086 L211.32047244094477,415.4968503937008 L213.12047244094478,415.2968503937009"/>
    <path d="M229.72047244094477,414.2968503937009 L219.12047244094478,413.4968503937008 L218.12047244094478,416.8968503937009 L219.12047244094478,416.4968503937008"/>
    <path d="M234.12047244094478,405.8968503937009 L234.9204724409448,403.69685039370086"/>
    <path d="M241.72047244094477,406.4968503937008 L241.9204724409448,404.09685039370083"/>
    <path d="M243.12047244094478,402.8968503937009 L242.5204724409448,403.4968503937008"/>
    <path d="M235.72047244094477,402.69685039370086 L235.32047244094477,402.8968503937009"/>
    <path d="M252.5204724409448,408.2968503937009 L254.9204724409448,407.4968503937008"/>
    <path d="M335.8086614173228,418.2968503937009 L329.8086614173228,417.4968503937008 L323.2086614173228,417.8968503937009 L319.2086614173228,423.8968503937009 L319.00866141732274,430.8968503937009 L321.2086614173228,435.2968503937009 L326.4086614173227,438.2968503937009 L332.00866141732274,439.4968503937008 L334.8086614173228,439.4968503937008 L337.2086614173228,438.4968503937008 L340.4086614173227,435.2968503937009 L341.8086614173228,430.4968503937008 L341.60866141732276,427.69685039370086 L340.60866141732276,424.4968503937008 L338.8086614173228,421.69685039370086 L337.00866141732274,420.2968503937009 L333.8086614173228,419.4968503937008"/>
    <path d="M320.4086614173227,420.09685039370083 L319.00866141732274,417.2968503937009 L319.2086614173228,412.09685039370083 L321.8086614173228,408.8968503937009 L330.4086614173227,402.4968503937008 L332.2086614173228,402.09685039370083 L333.2086614173228,402.8968503937009 L333.60866141732276,405.2968503937009 L329.00866141732274,405.2968503937009 L328.00866141732274,406.2968503937009 L328.00866141732274,408.4968503937008 L332.4086614173227,408.4968503937008 L334.00866141732274,407.09685039370083 L335.00866141732274,407.09685039370083 L335.8086614173228,407.4968503937008 L336.2086614173228,409.2968503937009 L334.60866141732276,411.09685039370083 L328.60866141732276,411.69685039370086 L325.4086614173227,413.2968503937009 L324.60866141732276,414.8968503937009 L324.4086614173227,417.09685039370083 L325.00866141732274,417.69685039370086 L325.8086614173228,416.8968503937009"/>
    <path d="M339.00866141732274,420.69685039370086 L341.60866141732276,420.09685039370083 L343.00866141732274,418.4968503937008 L343.8086614173228,413.4968503937008 L343.8086614173228,411.8968503937009 L339.60866141732276,410.8968503937009 L339.60866141732276,408.2968503937009 L344.4086614173227,408.4968503937008 L344.8086614173228,407.69685039370086 L344.2086614173228,406.09685039370083 L341.00866141732274,404.69685039370086 L341.00866141732274,403.4968503937008 L342.4086614173227,402.8968503937009 L345.60866141732276,402.8968503937009 L348.4086614173227,404.8968503937009 L349.8086614173228,407.2968503937009 L348.8086614173228,419.69685039370086 L346.2086614173228,424.4968503937008 L342.8086614173228,425.4968503937008"/>
    <path d="M341.60866141732276,429.69685039370086 L351.00866141732274,431.4968503937008 L353.2086614173228,432.4968503937008 L356.2086614173228,435.09685039370083"/>
    <path d="M341.2086614173228,436.09685039370083 L344.4086614173227,436.2968503937009 L348.4086614173227,437.69685039370086 L351.60866141732276,439.69685039370086 L353.2086614173228,441.69685039370086"/>
    <path d="M337.4086614173227,437.2968503937009 L340.4086614173227,438.2968503937009 L343.2086614173228,441.09685039370083 L350.60866141732276,446.4968503937009 L351.60866141732276,448.2968503937009"/>
    <path d="M321.00866141732274,422.8968503937009 L309.00866141732274,422.69685039370086 L306.4086614173227,424.8968503937009 L305.4086614173227,427.69685039370086 L305.2086614173228,429.8968503937009"/>
    <path d="M318.60866141732276,427.2968503937009 L316.60866141732276,427.09685039370083 L314.00866141732274,427.8968503937009 L310.00866141732274,430.8968503937009 L308.4086614173227,433.8968503937009"/>
    <path d="M319.8086614173228,433.8968503937009 L317.2086614173228,433.8968503937009 L311.2086614173228,437.69685039370086"/>
    <path d="M412.69685039370074,412.4968503937008 L412.29685039370077,410.8968503937009 L409.8968503937007,407.8968503937009 L404.8968503937007,404.2968503937009 L403.69685039370074,404.2968503937009 L403.69685039370074,405.2968503937009 L407.69685039370074,410.4968503937008 L402.8968503937007,408.69685039370086 L399.69685039370074,408.4968503937008 L402.69685039370074,412.2968503937009 L406.0968503937007,414.8968503937009 L409.69685039370074,415.2968503937009 L412.69685039370074,413.09685039370083"/>
    <path d="M443.4968503937007,402.09685039370083 L439.8968503937007,408.69685039370086 L441.4968503937007,404.69685039370086 L444.29685039370077,402.8968503937009 L444.4968503937007,408.4968503937008 L450.29685039370077,404.8968503937009 L450.69685039370074,405.4968503937008 L449.69685039370074,407.2968503937009 L447.29685039370077,409.2968503937009 L441.4968503937007,411.8968503937009 L439.29685039370077,411.09685039370083 L439.0968503937007,408.69685039370086 L439.8968503937007,407.4968503937008"/>
    <path d="M439.4968503937007,409.4968503937008 L436.29685039370077,412.8968503937009 L429.0968503937007,417.69685039370086"/>
    <path d="M412.4968503937007,414.4968503937008 L417.29685039370077,420.4968503937008 L419.8968503937007,418.09685039370083 L424.8968503937007,416.2968503937009 L439.0968503937007,416.09685039370083 L441.4968503937007,417.69685039370086 L441.29685039370077,419.09685039370083 L440.29685039370077,420.4968503937008 L431.8968503937007,425.4968503937008 L429.29685039370077,426.4968503937008 L421.29685039370077,427.69685039370086 L417.8968503937007,427.69685039370086 L414.29685039370077,425.2968503937009 L414.0968503937007,423.09685039370083 L416.29685039370077,420.09685039370083 L417.69685039370074,419.2968503937009"/>
    <path d="M421.8968503937007,417.4968503937008 L420.4968503937007,416.69685039370086 L418.4968503937007,409.69685039370086"/>
    <path d="M434.29685039370077,417.2968503937009 L434.29685039370077,409.09685039370083 L431.0968503937007,407.2968503937009 L429.4968503937007,405.09685039370083 L430.8968503937007,403.09685039370083 L434.4968503937007,403.09685039370083 L435.0968503937007,403.8968503937009 L433.29685039370077,406.2968503937009 L431.69685039370074,406.2968503937009 L430.69685039370074,404.69685039370086"/>
    <path d="M419.8968503937007,408.4968503937008 L418.4968503937007,408.09685039370083 L418.0968503937007,407.2968503937009 L419.8968503937007,405.4968503937008 L421.29685039370077,405.69685039370086 L421.0968503937007,407.8968503937009 L418.8968503937007,408.09685039370083 L417.29685039370077,407.4968503937008"/>
    <path d="M415.8968503937007,428.09685039370083 L413.4968503937007,427.8968503937009 L411.29685039370077,429.2968503937009"/>
    <path d="M416.8968503937007,427.09685039370083 L414.29685039370077,431.8968503937009"/>
    <path d="M415.4968503937007,422.4968503937008 L411.0968503937007,423.69685039370086"/>
    <path d="M442.4968503937007,415.69685039370086 L447.29685039370077,412.8968503937009"/>
    <path d="M441.0968503937007,419.09685039370083 L444.0968503937007,419.09685039370083"/>
    <path d="M442.0968503937007,422.8968503937009 L444.29685039370077,422.69685039370086"/>
  </g>
</svg>
