<?xml version="1.0" encoding="utf-8" ?>
<svg xmlns="http://www.w3.org/2000/svg" xmlns:cc="http://creativecommons.org/ns#" xmlns:dc="http://purl.org/dc/elements/1.1/" xmlns:ev="http://www.w3.org/2001/xml-events" xmlns:inkscape="http://www.inkscape.org/namespaces/inkscape" xmlns:rdf="http://www.w3.org/1999/02/22-rdf-syntax-ns#" xmlns:sodipodi="http://sodipodi.sourceforge.net/DTD/sodipodi-0.dtd" xmlns:xlink="http://www.w3.org/1999/xlink" baseProfile="tiny" height="21.0cm" version="1.2" viewBox="0 0 1122.5196850393702 793.7007874015749" width="29.7cm">
  <metadata>
    <rdf:RDF>
      <cc:Work>
        <dc:format>image/svg+xml</dc:format>
        <dc:source>Generated with vsketch</dc:source>
        <dc:date>2020-08-16T11:12:01.566998</dc:date>
      </cc:Work>
    </rdf:RDF>
  </metadata>
  <defs/>
  <g fill="none" id="layer1" inkscape:groupmode="layer" inkscape:label="1" stroke="#00f" style="display:inline">
    <path d="M257.070829200985,172.35807417502087 L301.50184039789633,309.1026658758043 L185.17994292985526,224.58986042699334 L328.9617154721147,224.58986042699334 L212.63981800407362,309.1026658758043 L257.070829200985,172.35807417502087"/>
    <path d="M408.2519315631897,187.47618441124132 L443.7967405207188,296.87185777186806 L350.7392225462859,229.26161341281932 L465.76464058009344,229.26161341281932 L372.70712260566063,296.87185777186806 L408.2519315631897,187.47618441124132"/>
    <path d="M559.4330339253944,199.5706726002177 L587.8688810914177,287.0872112887191 L513.4228667118714,232.99901580148008 L605.4432011389174,232.99901580148008 L530.9971867593711,287.0872112887191 L559.4330339253944,199.5706726002177"/>
    <path d="M710.6141362875992,209.2462631513988 L733.3628140204178,279.25949410219994 L673.8060025167807,235.98893771240873 L747.4222700584176,235.98893771240873 L687.8654585547805,279.25949410219994 L710.6141362875992,209.2462631513988"/>
    <path d="M861.7952386498039,216.98673559234368 L879.9941808360586,272.99732035298456 L832.3487316331491,238.3808752411516 L891.2417456664587,238.3808752411516 L843.5962964635489,272.99732035298456 L861.7952386498039,216.98673559234368"/>
    <path d="M257.070829200985,474.7202788994303 L301.50184039789633,611.4648706002138 L185.17994292985526,526.9520651514028 L328.9617154721147,526.9520651514027 L212.63981800407362,611.4648706002138 L257.070829200985,474.7202788994303"/>
    <path d="M413.52486186195824,474.90441368293966 L448.30882082806187,614.4152530970814 L338.1655929502672,521.9941112081488 L481.5971203210603,532.0238206493766 L359.66326185460093,608.2165517651167 L413.52486186195824,474.90441368293966"/>
    <path d="M569.953205336549,475.4559209473116 L594.9206481202334,617.0533252887665 L491.49269656734714,517.1741134728543 L633.8751947830101,537.1846686190954 L506.9234248198324,604.6861220746355 L569.953205336549,475.4559209473116"/>
    <path d="M726.3302955935085,476.37211380459144 L741.3595833232503,619.3662347527293 L645.1507986786967,512.5155544899815 L785.7905945201614,542.4094659280171 L654.4394093223789,600.890781427344 L726.3302955935085,476.37211380459144"/>
    <path d="M882.6308183021124,477.6485286552739 L887.6487297988308,621.342713226554 L799.1278315905251,508.04113029061796 L937.3397421095149,547.6727578888475 L802.2290714480359,596.8490203413699 L882.6308183021124,477.6485286552739"/>
  </g>
</svg>
