<?xml version="1.0" encoding="utf-8" ?>
<svg xmlns="http://www.w3.org/2000/svg" xmlns:cc="http://creativecommons.org/ns#" xmlns:dc="http://purl.org/dc/elements/1.1/" xmlns:ev="http://www.w3.org/2001/xml-events" xmlns:inkscape="http://www.inkscape.org/namespaces/inkscape" xmlns:rdf="http://www.w3.org/1999/02/22-rdf-syntax-ns#" xmlns:sodipodi="http://sodipodi.sourceforge.net/DTD/sodipodi-0.dtd" xmlns:xlink="http://www.w3.org/1999/xlink" baseProfile="tiny" height="21.0cm" version="1.2" viewBox="0 0 1122.5196850393702 793.7007874015749" width="29.7cm">
  <metadata>
    <rdf:RDF>
      <cc:Work>
        <dc:format>image/svg+xml</dc:format>
        <dc:source/>
        <dc:date>2021-02-08T22:35:08.485615</dc:date>
      </cc:Work>
    </rdf:RDF>
  </metadata>
  <defs/>
  <g fill="none" id="layer1" inkscape:groupmode="layer" inkscape:label="1" stroke="#00f" style="display:inline">
    <polyline points="139.202,377.9526 158.0996,340.1574 195.8949,340.1574 195.8949,415.7479 158.0996,415.7479 158.0996,340.1574"/>
    <polygon points="163.9378,334.9188 161.4902,332.0603 159.6576,328.7735 158.5126,325.1888 158.1006,321.4482 158.4379,317.7001 159.3717,314.4434 161.0718,311.0862 163.4034,308.1323 166.2741,305.699 169.57,303.8828 173.1604,302.7557 176.903,302.3623 180.6493,302.7183 184.2508,303.8096 187.5647,305.5929 190.1923,307.7315 192.6112,310.6143 194.411,313.9192 195.5202,317.5152 195.8949,321.2597 195.5202,325.0042 194.411,328.6002 192.8204,331.5916 190.4595,334.522 187.8751,336.7127 184.5974,338.5617 181.0184,339.7246 177.28,340.1552 173.9015,339.9021 170.269,338.919 166.9032,337.2357"/>
    <line x1="195.8949" x2="214.7925" y1="340.1574" y2="377.9526"/>
    <polyline points="248.7103,373.2149 271.4854,340.1574 307.0415,345.1544 297.0474,416.2666 261.4913,411.2695 271.4854,340.1574"/>
    <polygon points="305.2817,336.6897 302.6732,339.1344 299.632,341.0137 296.6244,342.1596 293.1036,342.7804 289.5297,342.6913 286.0443,341.8958 282.7856,340.4254 279.8829,338.3385 277.6704,336.0011 275.7457,332.9883 274.4562,329.654 273.853,326.1302 273.96,322.5567 274.7728,319.0754 276.2594,315.8241 278.1252,313.2015 280.7092,310.7309 283.7315,308.8213 287.0723,307.5485 290.599,306.9628 294.1719,307.0876 297.6492,307.9178 300.893,309.4206 303.7748,311.5364 305.9639,313.8957 307.8584,316.9275 309.1146,320.2746 309.6826,323.8042 309.5401,327.3764 308.8082,330.5106 307.3541,333.7766"/>
    <line x1="307.0415" x2="319.8225" y1="345.1544" y2="383.2091"/>
    <line x1="297.0474" x2="297.72" y1="416.2666" y2="488.8779"/>
    <line x1="337.4264" x2="366.0672" y1="468.4922" y2="405.7351"/>
    <line x1="398.856" x2="389.8886" y1="415.1371" y2="483.5355"/>
    <line x1="436.6554" x2="471.8967" y1="454.6161" y2="399.3637"/>
    <line x1="501.4999" x2="484.0205" y1="412.5439" y2="475.7044"/>
    <line x1="538.5577" x2="579.0163" y1="439.6903" y2="392.3708"/>
    <line x1="605.1231" x2="580.3285" y1="408.6841" y2="465.7916"/>
    <line x1="643.1138" x2="687.4318" y1="424.1305" y2="384.9637"/>
    <line x1="709.8349" x2="678.9589" y1="403.7622" y2="454.2081"/>
    <line x1="634.4897" x2="637.7497" y1="390.734" y2="356.4707"/>
    <polygon points="645.9063,343.4173 644.2401,345.617 641.9623,347.668 639.3232,349.2269 636.4275,350.2321 633.3901,350.6435 630.3314,350.445 627.3727,349.6443 624.6313,348.2732 622.4399,346.596 620.4003,344.308 618.8546,341.6612 617.8639,338.7605 617.4798,336.0279 617.6326,332.9666 618.389,329.9962 619.7189,327.2346 621.5696,324.7913 623.8678,322.7631 626.5223,321.2305 629.1292,320.3256 632.1624,319.8839 635.2229,320.0519 638.1895,320.8231 640.9444,322.1668 643.3785,324.0297 645.3951,326.338 646.7868,328.7208 647.8063,331.6114 648.2329,334.6468 648.0496,337.7064 647.2637,340.6691"/>
    <polyline points="611.6429,340.1574 579.0163,392.3708 605.1231,408.6841 637.7497,356.4707 611.6429,340.1574 582.2763,358.1074"/>
    <polygon points="534.4504,338.536 532.8511,341.3382 530.7283,343.7679 528.1661,345.7289 525.5682,347.0282 522.4623,347.9021 519.2449,348.1432 516.0434,347.742 512.985,346.7144 510.1908,345.1012 507.7716,342.9663 505.8235,340.3943 504.4235,337.4874 503.6274,334.3607 503.4537,331.4612 503.8708,328.2618 504.9137,325.2085 506.5408,322.4224 508.6877,320.0139 510.9944,318.2485 513.8801,316.8052 516.9946,315.9624 520.2142,315.7534 523.0964,316.1146 526.165,317.1116 528.709,318.5135 531.191,320.5751 533.2152,323.0876 534.7014,325.9513 535.5908,329.0528 535.8479,332.269 535.4627,335.4724"/>
    <line x1="527.8603" x2="529.4817" y1="353.3376" y2="389.5308"/>
    <polyline points="498.2571,340.1574 471.8967,399.3637 501.4999,412.5439 527.8603,353.3376 498.2571,340.1574 470.2753,363.1705"/>
    <line x1="424.6525" x2="417.6601" y1="387.0493" y2="349.5594"/>
    <polyline points="384.8713,340.1574 366.0672,405.7351 398.856,415.1371 417.6601,349.5594 384.8713,340.1574 359.0748,368.2452"/>
    <polygon points="392.5796,317.8969 394.9389,315.4538 397.4392,313.6938 400.5349,312.2969 403.846,311.5412 407.2413,311.4565 410.5859,312.0463 413.7475,313.2871 416.3324,314.9203 418.8105,317.2427 420.7792,320.0102 422.1606,323.1128 422.8999,326.4277 422.9676,329.8233 422.3612,333.165 421.1046,336.3203 419.2478,339.164 416.8643,341.5834 414.3466,343.3184 411.2371,344.6843 407.9185,345.407 404.5226,345.4578 401.5115,344.9269 398.3378,343.7177 395.4666,341.9036 393.0117,339.5565 391.0707,336.7696 389.7203,333.6533 389.0548,330.669 388.9532,327.2743 389.5262,323.9267 390.7513,320.759"/>
    <line x1="261.4913" x2="240.8303" y1="411.2695" y2="480.8826"/>
    <line x1="207.2335" x2="195.8949" y1="491.3385" y2="415.7479"/>
    <line x1="158.0996" x2="146.761" y1="415.7479" y2="491.3385"/>
    <polyline points="695.0287,353.1613 725.0288,340.1574 747.4319,358.9559 709.8349,403.7622 687.4318,384.9637 725.0288,340.1574"/>
    <polygon points="738.5723,325.5481 741.2499,324.4037 744.1011,323.8125 747.013,323.798 749.8699,324.3607 752.5588,325.4784 754.9729,327.1067 756.8312,328.9558 758.4715,331.3617 759.6026,334.0449 760.1796,336.8991 760.1796,339.811 759.6026,342.6651 758.4715,345.3484 756.8312,347.7543 754.7466,349.7875 752.3006,351.3673 749.59,352.4311 747.013,352.9121 744.3915,352.9251 741.529,352.3909 738.8291,351.3001 736.399,349.696 734.3348,347.6421 732.7186,345.2199 731.6143,342.5256 731.0658,339.6658 731.0658,337.0443 731.6143,334.1845 732.7186,331.4901 734.3348,329.068 736.1746,327.2004"/>
    <line x1="747.4319" x2="739.835" y1="358.9559" y2="390.7583"/>
    <line x1="750.2503" x2="797.121" y1="408.3251" y2="377.3383"/>
    <line x1="815.7114" x2="779.995" y1="397.9851" y2="441.36"/>
    <line x1="845.6535" x2="857.005" y1="389.718" y2="360.8042"/>
    <polyline points="838.4146,340.1574 797.121,377.3383 815.7114,397.9851 857.005,360.8042 838.4146,340.1574 808.4726,348.4244"/>
    <polygon points="863.8726,328.581 866.2544,329.9879 868.3101,331.8389 869.9583,334.0606 871.1337,336.5648 871.7895,339.2522 871.8998,342.0163 871.4603,344.7474 870.6085,347.0877 869.1897,349.4624 867.3284,351.5089 865.0986,353.1461 862.5886,354.3089 860.1721,354.9114 857.41,355.063 854.6725,354.6644 852.0684,353.7312 849.7008,352.3006 847.6636,350.4292 846.0376,348.1912 844.8873,345.6754 844.2969,343.256 844.159,340.4931 844.5713,337.7577 845.5174,335.1582 846.9598,332.7978 848.8414,330.7699 851.0875,329.1551 853.6089,328.0174 856.0313,327.439 858.7948,327.3149 861.5281,327.7409"/>
    <line x1="908.0374" x2="859.8467" y1="369.6759" y2="392.6299"/>
    <line x1="883.4615" x2="922.7967" y1="427.6403" y2="391.5574"/>
    <line x1="952.0578" x2="966.5597" y1="387.7389" y2="362.0389"/>
    <polygon points="957.9096,348.7231 957.1601,346.2043 956.9245,343.5869 957.2122,340.9747 957.9096,338.7139 959.1434,336.3935 960.8124,334.3636 962.8506,332.7047 965.1771,331.4825 967.4414,330.7964 970.055,330.5217 972.6712,330.7703 974.9422,331.4338 977.2807,332.6327 979.3354,334.2712 981.0246,336.2844 982.2814,338.5923 983.056,341.1036 983.3177,343.7185 983.056,346.3334 982.2814,348.8446 981.0246,351.1526 979.3354,353.1657 977.5004,354.6592 975.1862,355.9045 972.6712,356.6666 970.055,356.9152 967.4414,356.6405 965.1771,355.9545 962.8506,354.7323 960.8124,353.0734 959.1434,351.0435"/>
    <polyline points="951.8004,340.1574 908.0374,369.6759 922.7967,391.5574 966.5597,362.0389 951.8004,340.1574 922.5393,343.9759"/>
  </g>
</svg>
