<?xml version="1.0" encoding="utf-8" ?>
<svg xmlns="http://www.w3.org/2000/svg" xmlns:cc="http://creativecommons.org/ns#" xmlns:dc="http://purl.org/dc/elements/1.1/" xmlns:ev="http://www.w3.org/2001/xml-events" xmlns:inkscape="http://www.inkscape.org/namespaces/inkscape" xmlns:rdf="http://www.w3.org/1999/02/22-rdf-syntax-ns#" xmlns:sodipodi="http://sodipodi.sourceforge.net/DTD/sodipodi-0.dtd" xmlns:xlink="http://www.w3.org/1999/xlink" baseProfile="tiny" height="29.7cm" version="1.2" viewBox="0 0 793.7007874015749 1122.5196850393702" width="21.0cm">
  <metadata>
    <rdf:RDF>
      <cc:Work>
        <dc:format>image/svg+xml</dc:format>
        <dc:source/>
        <dc:date>2021-02-08T21:12:44.606200</dc:date>
      </cc:Work>
    </rdf:RDF>
  </metadata>
  <defs/>
  <g fill="none" id="layer1" inkscape:groupmode="layer" inkscape:label="1" stroke="#00f" style="display:inline">
    <polyline points="113.1033,303.2268 88.9113,270.3611 80.5846,258.1228 74.5183,248.3238 70.3697,240.4749 67.8701,234.0388 67.087,229.1815 67.3033,227.226 68.0338,225.4015 69.0756,224.1362 70.706,223.0369 74.8095,221.8903 80.7192,221.7276 88.5739,222.5691 97.9547,224.2819 109.8301,226.9691 153.1729,238.1428"/>
    <polyline points="156.8045,238.1882 108.7761,226.9275 97.1847,224.5218 88.4264,223.0684 80.5732,222.3449 74.6638,222.6196 70.6082,223.8901 69.267,224.8369 68.2189,226.0956 67.4725,227.9138 67.2396,229.8655 67.9921,234.7268 70.4606,241.1615 74.9128,249.5931 81.1541,259.6549 89.4701,271.8876 114.387,305.824"/>
    <polyline points="115.3101,308.3556 89.9679,273.4766 81.5221,260.9223 75.1597,250.5476 70.7467,242.0849 68.2107,235.3158 67.544,230.4446 67.8284,228.4964 68.6298,226.7032 69.7146,225.4731 71.0722,224.5554 75.1466,223.3165 81.0527,223.0413 88.5957,223.6931 106.7307,226.8999 160.7611,238.6077"/>
    <polyline points="165.1102,239.4334 105.1981,227.1288 89.3249,224.4177 81.7881,223.7611 75.8828,224.0109 71.795,225.195 70.4139,226.0763 69.2867,227.2665 68.4165,229.0263 68.0665,230.9609 68.1373,233.2586 68.6992,236.1608 71.1869,242.9511 75.5218,251.4322 81.9711,262.1295 90.5078,275.0107 116.1773,310.8321"/>
    <polyline points="116.8629,313.2626 102.3148,292.9287 91.1216,276.6853 82.3521,263.1724 76.0163,252.402 71.6418,243.5646 69.2769,236.7388 68.7794,233.8246 68.7689,231.5286 69.1759,229.6057 70.0986,227.8701 71.2526,226.7071 72.6504,225.8454 76.7455,224.6927 82.3259,224.4522 89.8564,225.0951 104.1219,227.494 145.9729,236.205 169.8942,240.6783"/>
    <polyline points="175.1027,242.3383 148.9123,237.5137 104.2037,228.0701 91.2422,225.8558 83.7174,225.1645 78.1353,225.3433 74.0085,226.389 72.303,227.3704 71.1251,228.5087 70.1491,230.2127 69.6367,232.4465 69.6313,234.7451 70.0917,237.6644 72.478,244.8283 76.7483,253.7168 83.1198,264.8416 91.7381,278.4475 103.1282,295.3431 117.4808,315.8085"/>
    <polyline points="117.9371,318.1149 103.7977,297.5 92.597,280.479 83.9675,266.4894 77.5815,254.9913 73.3109,245.7406 71.0468,238.536 70.6272,235.6099 70.6874,232.9857 71.2698,230.769 72.2864,229.0875 73.4784,227.9633 75.1869,226.987 79.3131,225.9342 85.2219,225.767 92.7456,226.5092 108.2682,229.3495 156.1187,239.8327 180.6864,244.391"/>
    <polyline points="186.5746,246.7961 160.4236,241.6889 111.0632,230.2943 95.2459,227.2112 87.4027,226.3319 81.1611,226.411 76.6969,227.4693 74.9639,228.4072 73.7269,229.484 72.6174,231.1078 71.9,233.2859 71.695,235.904 71.9796,238.8484 74.1044,246.4416 78.1643,255.7871 84.3291,267.4062 92.9068,281.828 104.0556,299.2902 118.1336,320.3581"/>
    <polyline points="118.1613,322.5507 104.3525,301.3201 93.452,283.7102 84.9469,268.8784 78.8594,256.8589 74.9046,247.1089 73.0275,239.4634 72.8502,236.5131 73.1486,233.9016 73.9258,231.7423 75.2785,229.8929 76.8305,228.6844 78.6058,227.834 83.4225,226.8409 89.9907,226.8809 98.4666,227.9625 114.8784,231.3913 165.9808,243.8964 192.688,249.4978"/>
    <polyline points="198.9472,252.4282 173.2801,246.5907 120.0995,232.7775 102.1237,228.7527 93.0091,227.4543 86.1081,227.2791 80.9325,228.1634 78.8156,229.0617 77.1951,230.1835 75.6925,231.9181 74.7161,233.9951 74.1936,236.5676 74.1816,239.8578 74.6915,243.4336 75.7289,247.5803 79.5004,257.7545 85.4664,270.2225 93.6947,285.211 104.4922,303.2907 118.0154,324.7218"/>
    <polyline points="117.6939,326.9164 104.5045,305.314 94.0242,287.0732 85.9462,271.6429 80.2868,259.0623 76.7969,248.8011 75.8802,244.6287 75.4546,240.7097 75.5919,237.4315 76.1934,234.8763 77.3806,232.5419 79.182,230.6405 81.1347,229.4335 83.283,228.621 89.1257,227.7786 96.6677,228.1235 106.404,229.6648 123.6768,233.7266 176.2697,248.2387 205.2787,255.5138"/>
    <polyline points="211.6192,258.6808 184.001,251.1812 131.258,235.8286 110.839,230.728 100.1379,228.917 91.9347,228.4627 88.332,228.7483 85.4363,229.3524 82.9787,230.2859 81.0232,231.4926 79.1748,233.3538 77.8774,235.6329 77.0687,238.4768 76.7999,241.7468 77.0671,245.6874 77.8247,249.8883 81.0932,260.5738 86.4454,273.3091 94.2002,288.9227 104.351,307.3667 117.2006,329.1923"/>
    <polyline points="116.5449,331.6154 104.0883,309.5756 94.3188,290.9442 86.9342,275.1673 81.8242,261.994 80.1056,256.3377 78.9236,251.2125 78.2965,246.6545 78.2231,242.7184 78.7304,239.1427 79.7274,236.3623 81.3614,233.9082 83.3187,232.1621 85.6126,230.8846 88.4125,229.9471 91.6513,229.38 95.2557,229.1686 104.4307,229.8048 115.7469,231.8559 126.6042,234.5066 140.2136,238.3273 193.3186,254.6317 217.9184,261.8613"/>
    <polyline points="224.1419,264.9992 149.6272,241.0964 134.1812,236.5258 121.4447,233.2405 108.8562,230.813 99.0371,230.0031 95.0926,230.1591 91.5196,230.6948 88.3746,231.6397 85.742,232.9813 83.4644,234.8581 81.7048,237.2284 80.4272,240.2492 79.7336,243.7917 79.6125,248.0596 80.0534,252.6397 81.0383,257.8105 82.5551,263.5239 87.2553,276.8573 94.3601,293.121 103.7156,311.9665 115.7423,334.2535"/>
    <polyline points="114.8139,337.1696 103.2706,314.6222 94.2391,295.2515 87.5946,278.7857 83.2499,264.9866 81.9011,258.8872 81.1706,253.6804 80.9789,249.0841 81.3513,244.8289 82.2561,241.3299 83.6885,238.3767 85.7585,235.833 88.3773,233.8572 91.3554,232.4753 94.5251,231.6006 98.4304,231.0632 103.0311,230.9415 113.8271,231.9754 127.0378,234.6611 141.3305,238.5028 159.2359,244.042 230.2733,268.0554"/>
    <polyline points="236.3149,271.0118 167.5175,246.6529 147.7921,240.3335 131.9512,235.9564 118.113,233.0792 111.9212,232.2676 106.6731,231.9328 101.7464,232.0347 97.511,232.5863 93.711,233.6285 90.7298,235.0076 87.8258,237.1476 85.6927,239.64 84.0036,242.8301 82.8935,246.6102 82.3714,250.849 82.4015,255.7775 82.9537,261.0034 84.092,267.1432 87.9827,281.0665 94.2602,298.0191 102.7863,317.614 113.7852,340.4173"/>
    <polyline points="112.6848,344.0347 102.0066,320.3326 93.9271,300.1778 88.2026,283.0151 86.176,275.3842 84.7628,268.6222 83.8911,262.4341 83.577,256.8527 83.8213,251.9275 84.5877,247.7233 85.9049,244.0076 87.932,240.6287 90.4279,238.0189 93.4219,235.998 96.7413,234.568 100.8856,233.525 105.4609,233.0031 110.3947,232.9467 115.9728,233.3319 122.4898,234.218 137.6052,237.4623 154.687,242.3412 175.6114,249.2757 200.6877,258.3001 242.2887,273.8721"/>
    <polyline points="248.2355,276.66 209.0238,261.4059 182.2177,251.4519 160.1212,243.944 142.1316,238.7087 126.7222,235.3415 119.8905,234.3826 113.9887,233.9489 108.7314,233.9851 103.8349,234.5192 99.3688,235.6158 95.7411,237.1513 92.4631,239.3311 89.923,241.8957 87.7755,245.195 86.1808,249.1518 85.184,253.6409 84.7421,258.8783 84.8631,264.4616 85.558,270.9954 86.8136,278.1169 88.6039,285.8011 93.9036,303.4219 101.5185,324.0815 111.5434,348.0408"/>
    <polyline points="110.3928,352.4339 100.8088,327.586 93.6011,306.0774 88.7837,287.9726 87.1974,279.9096 86.2027,272.75 85.7483,266.1882 85.8499,260.2749 86.5029,255.0597 87.6614,250.6079 89.3625,246.6931 91.7596,243.1646 94.5847,240.4209 98.1803,238.1243 102.1379,236.526 106.6165,235.4711 111.8425,234.9245 117.432,234.9123 123.6557,235.3998 130.8144,236.4401 146.8489,240.0282 165.7548,245.6551 188.42,253.5386 216.3744,264.1958 254.2118,279.3802"/>
    <polyline points="260.2845,282.1396 222.5586,266.6263 194.0515,255.527 170.4929,247.1782 150.9737,241.2709 134.298,237.479 126.8148,236.3742 120.2605,235.8539 114.3401,235.8723 109.109,236.4199 104.309,237.5425 100.3396,239.1211 96.6994,241.3531 93.5607,244.2459 91.0476,247.6979 89.0626,251.8452 87.6653,256.5755 86.8065,262.0943 86.524,268.0101 86.7883,274.9066 87.6098,282.4286 88.96,290.5368 93.4068,309.4234 100.1042,331.4516 109.2135,357.1917"/>
    <polyline points="108.1317,362.2722 99.4287,335.3662 93.0781,312.2229 89.0845,292.9099 87.9092,284.4427 87.2716,276.5806 87.1959,269.6787 87.6606,263.4499 88.6588,257.9557 90.2648,252.9518 92.3322,248.8436 95.0944,245.1713 98.263,242.3124 102.1957,239.9345 106.4828,238.2746 111.2905,237.1834 116.8477,236.6272 123.0914,236.645 129.9685,237.2362 137.4425,238.3811 145.8096,240.1278 154.7305,242.3992 174.8359,248.5981 199.268,257.4114 228.611,269.0415 266.5212,284.9178"/>
    <polyline points="272.9243,287.6942 233.8757,271.1549 203.6707,259.0507 178.6596,249.9249 157.9526,243.4592 148.7239,241.0769 140.0439,239.2398 132.25,238.0313 125.3737,237.4269 119.1293,237.3819 113.2425,237.9395 108.1146,239.0893 103.8219,240.7331 99.8614,243.0635 96.4035,246.0896 93.5754,249.7111 91.2713,254.0629 89.5548,259.0289 88.3615,264.8203 87.7306,271.3616 87.6579,278.5918 88.1208,286.4684 89.136,295.2833 90.7163,305.0157 92.8623,315.6479 98.8234,339.5663 107.1366,367.6165"/>
    <polyline points="106.2566,373.3536 98.2292,343.8579 92.56,318.8601 90.5717,307.8629 89.1356,297.7766 88.2556,288.6176 87.9251,280.4092 88.1406,272.8561 88.8812,266.3265 90.1417,260.5492 92.0093,255.289 94.3331,250.9465 97.3667,247.0701 100.8196,244.0388 105.0565,241.531 109.661,239.784 114.7912,238.6497 120.678,238.0896 127.2498,238.1374 134.4485,238.786 142.561,240.0708 151.2369,241.932 160.7806,244.4188 182.0926,251.1299 208.0064,260.6549 239.097,273.1906 279.6214,290.4409"/>
    <polyline points="286.5417,293.1248 243.8802,274.971 211.565,261.9295 185.0309,252.1537 163.0891,245.217 153.5506,242.7146 144.5517,240.7642 136.4391,239.4568 128.9115,238.7543 122.3375,238.6814 116.1198,239.2473 110.6674,240.4515 106.062,242.2031 101.8137,244.6946 98.1001,247.9283 95.0473,251.7927 92.5398,256.4109 90.6303,261.6602 89.239,267.7471 88.3964,274.596 88.0927,282.1497 88.3204,290.6945 89.0969,300.1992 90.4214,310.6329 92.286,321.9894 97.7239,348.0573 105.518,378.9852"/>
    <polyline points="104.9471,384.6393 97.2639,352.0002 92.0136,324.892 90.2503,313.191 89.0161,302.4129 88.3406,292.9049 88.181,284.0329 88.5591,276.1529 89.4952,268.9873 90.9187,262.9071 92.9586,257.3574 95.4717,252.7441 98.7297,248.6242 102.4443,245.3926 106.9777,242.7416 111.9017,240.9099 117.3637,239.7447 123.5821,239.1999 130.4814,239.297 138.0088,240.0196 146.4397,241.3957 155.4346,243.3593 165.6024,246.0428 188.1595,253.2101 215.6052,263.3379 249.1438,276.8568 293.6368,295.7119"/>
    <polyline points="300.8427,298.1713 253.5468,278.2783 218.7432,264.3247 190.6554,253.9946 167.4582,246.6349 156.9634,243.8694 147.6449,241.8438 139.2055,240.4744 131.3476,239.7315 124.4462,239.6503 118.2225,240.2025 112.4426,241.4539 107.5248,243.3141 102.996,245.9785 99.274,249.2061 95.9883,253.3084 93.2899,258.197 91.2189,263.7396 89.6816,270.1304 88.6953,277.2974 88.2357,285.5047 88.3157,294.3825 88.9441,304.56 90.1144,315.6799 91.8577,328.0543 96.9997,356.1994 104.5718,390.2334"/>
    <polyline points="104.3611,395.6858 96.7818,359.9864 91.7135,330.8335 90.0203,318.1233 88.8926,306.6724 88.3065,296.169 88.2734,286.9644 88.7971,278.4331 89.8742,270.95 91.4474,264.5704 93.6673,258.7363 96.3985,253.8654 99.6936,249.7743 103.6766,246.3497 108.2194,243.7121 113.1392,241.8617 118.9162,240.605 125.4625,240.0243 132.6939,240.1285 140.5457,240.8879 149.3041,242.3215 158.9383,244.4308 169.4278,247.2018 193.2461,254.7469 222.2642,265.3786 258.0022,279.6135 308.0816,300.479"/>
    <polyline points="315.3026,302.6117 261.797,280.5679 225.0985,266.0813 195.4368,255.2898 171.2937,247.6771 160.4848,244.8297 150.528,242.6593 141.7667,241.2308 133.5865,240.4452 126.356,240.3479 119.8095,240.9226 114.0272,242.1578 108.7953,244.1098 103.9817,246.9341 100.0224,250.3861 96.5564,254.7608 93.8632,259.6533 91.6588,265.4939 90.0153,272.1953 88.9046,280.005 88.3786,288.5349 88.3934,298.0682 88.9683,308.9025 90.0864,320.686 91.7656,333.7316 96.8371,363.88 104.4433,400.9207"/>
    <polyline points="104.7747,405.8712 97.0174,367.2006 91.9087,336.0676 90.2356,322.6935 89.126,310.5837 88.577,299.7529 88.5757,289.8952 89.1362,281.0417 90.2528,273.2353 91.9771,266.2158 94.1815,260.3784 97.0374,255.204 100.5145,250.8396 104.7381,247.1946 109.5703,244.4052 114.8073,242.4717 120.915,241.1928 127.461,240.6451 135.0173,240.7719 143.1927,241.5778 152.2731,243.0726 162.2249,245.2491 173.3472,248.1769 198.1154,255.9656 228.4019,266.9214 266.0497,281.6537 322.3677,304.5834"/>
    <polyline points="329.219,306.3887 269.4275,282.3563 231.1035,267.5177 200.1544,256.4226 175.3642,248.6786 163.9177,245.6768 153.6369,243.4397 144.554,241.951 136.0503,241.1181 128.4917,240.9966 121.6153,241.5833 115.5099,242.882 110.2751,244.8229 105.4374,247.6071 101.1969,251.2348 97.6889,255.5761 94.6501,261.0266 92.335,267.1764 90.6194,274.1983 89.4615,282.3318 88.9018,291.1894 88.897,301.3829 89.4564,312.5435 90.5861,324.9855 92.2833,338.6887 97.4979,370.8146 105.3553,410.485"/>
    <polyline points="106.175,414.7288 98.1766,374.0847 92.8767,341.3114 91.1388,327.2843 89.974,314.5154 89.3905,303.028 89.3792,292.8364 89.9683,283.3245 91.1237,275.1899 92.9179,267.8482 95.2376,261.7022 98.2676,256.2483 101.7561,251.8913 105.9693,248.2325 111.0776,245.2623 116.6253,243.2238 122.7349,241.9502 129.6101,241.3732 137.1675,241.491 145.6749,242.31 155.0827,243.8376 165.6852,246.1357 177.1337,249.1233 202.5618,257.0171 233.8438,268.1421 272.2168,282.841 335.7795,308.0538"/>
    <polyline points="341.9863,309.6168 274.6518,283.2584 235.9274,268.59 204.3054,257.4565 178.8626,249.6275 167.4114,246.6586 156.8104,244.3682 147.0778,242.7917 138.5743,241.9748 130.6899,241.8563 123.8159,242.443 117.7071,243.7157 112.1557,245.7409 107.0338,248.6842 102.7935,252.3099 99.0808,256.9061 96.0454,262.3543 93.6128,268.8095 91.8306,276.1498 90.6742,284.2826 90.0743,293.7924 90.0767,304.3106 90.6515,315.7961 91.835,328.8895 93.6051,343.2437 99.049,376.9851 107.218,418.5895"/>
    <polyline points="108.4683,422.0747 100.1492,379.8175 94.6202,345.7427 92.79,331.0628 91.582,317.9689 90.9617,306.1484 90.9259,295.6308 91.4762,286.1132 92.6243,277.6457 94.4428,269.9732 96.8384,263.5018 99.8249,258.0237 103.4795,253.3789 107.9304,249.4929 113.0341,246.5151 118.5731,244.4484 124.9994,243.0829 131.8736,242.4849 139.763,242.5844 148.2701,243.377 158.0114,244.9237 168.6217,247.1797 180.4044,250.1982 206.1902,258.0595 238.162,269.2115 276.6472,283.6316 347.7951,311.1254"/>
    <polyline points="353.1823,312.6342 278.2151,284.0172 240.2896,269.9542 208.2803,258.8856 182.7894,251.1584 170.6826,248.0651 160.0687,245.8115 150.3289,244.2566 141.4892,243.4239 133.602,243.3169 126.7225,243.8969 120.2873,245.2306 114.7315,247.2536 109.5933,250.1771 105.0909,254.0056 101.3728,258.601 98.1785,264.3412 95.7531,270.8036 93.9016,278.4699 92.7207,286.9351 92.1285,296.782 92.1598,307.6328 92.7772,319.4526 94.0132,332.8781 95.8412,347.5629 101.4691,382.2956 109.9102,425.2123"/>
    <polyline points="111.529,428.049 103.0416,384.8123 97.3651,349.7615 95.4962,334.7534 94.2576,321.3293 93.6201,309.1805 93.5865,298.3313 94.1678,288.4873 95.3879,279.6982 97.242,272.0306 99.662,265.5687 102.8433,259.8226 106.5435,255.213 111.0245,251.3609 116.1432,248.4057 121.6857,246.3472 128.1114,244.9754 135.3141,244.3473 143.2021,244.447 152.0393,245.2671 161.7826,246.8056 172.4004,249.039 184.5124,252.1068 210.0134,259.7728 242.0497,270.7567 279.0884,284.3582 358.1475,314.2011"/>
    <polyline points="362.7125,315.8855 280.1573,285.0153 244.0053,271.843 212.2539,261.0227 186.7389,253.3848 174.6231,250.3242 163.6802,248.0324 153.9332,246.5078 145.0916,245.6997 137.2037,245.6103 129.9991,246.2471 123.5736,247.6249 118.0305,249.6863 112.6428,252.8317 108.1971,256.7267 104.5331,261.3657 101.384,267.1316 98.987,273.6045 97.1483,281.2746 95.9341,290.0673 95.3515,299.9145 95.378,310.7677 96.0031,322.9179 97.2603,336.6729 99.1178,351.6864 104.7544,386.7478 113.3165,430.6489"/>
    <polyline points="115.2809,433.0971 106.8013,389.1858 101.1671,353.7942 99.3289,338.7804 98.0835,325.0264 97.4614,312.8782 97.4371,301.7001 98.0246,291.8538 99.2366,283.0607 101.0655,275.3877 103.5792,268.6108 106.7485,262.8574 110.4293,258.2315 114.8872,254.3518 120.2827,251.2213 125.8286,249.171 132.2561,247.8015 139.4588,247.1701 147.3468,247.2619 156.1877,248.0697 165.9327,249.5911 176.8757,251.8769 188.9924,254.9283 214.199,262.4382 245.9648,273.2019 280.9036,285.8446 366.924,317.7444"/>
    <polyline points="370.8517,319.8284 281.9934,287.095 247.9628,274.8481 216.4993,264.232 191.285,256.7466 179.1679,253.7074 168.5462,251.4922 158.8025,249.9644 149.9655,249.1474 142.0776,249.0431 134.8737,249.6585 128.4441,251.0087 122.8902,253.0382 117.4811,256.1444 113.0044,260.0021 109.302,264.6086 106.1066,270.3475 103.5654,277.1142 101.7086,284.7812 100.468,293.5673 99.8501,303.4088 99.8412,314.5862 100.4281,326.7362 101.6339,340.492 103.4286,355.5093 109.0159,391.2398 117.4357,435.4931"/>
    <polyline points="119.7894,437.9369 111.4596,393.3488 105.9874,357.6131 104.238,342.596 103.0719,328.8417 102.5186,316.6944 102.557,305.5211 103.1995,295.6848 104.461,286.9048 106.3352,279.2448 108.8908,272.4863 112.0977,266.7566 115.8085,262.1595 120.2912,258.312 125.7038,255.2165 131.2591,253.1961 137.6879,251.8548 144.8905,251.2471 152.7745,251.358 161.6084,252.1804 171.3486,253.712 181.9665,255.9291 194.0786,258.9679 218.9708,266.3449 250.4347,276.9311 374.5755,322.1752"/>
    <polyline points="378.1745,324.8045 253.3436,279.3703 222.179,268.8905 197.2763,261.5071 185.1573,258.4637 174.5378,256.2429 164.7963,254.7072 155.9575,253.8802 148.069,253.7648 140.8655,254.3675 134.4301,255.704 128.8715,257.7179 123.4512,260.8058 118.9585,264.645 115.2337,269.235 112.0085,274.9587 109.4312,281.7115 107.5326,289.366 106.2421,298.1463 105.5672,307.9855 105.4922,319.1634 106.0054,331.3182 107.1255,345.0816 108.824,360.1106 114.172,395.8806 122.3397,440.5174"/>
    <polyline points="125.0717,443.3036 117.0758,398.642 111.8515,362.8585 110.2007,347.8263 109.1217,334.0616 108.6425,321.9069 108.7468,310.7307 109.4455,300.8942 110.7556,292.1178 112.6695,284.468 115.2584,277.7209 118.4916,272.0032 122.2216,267.4181 126.7174,263.5837 132.1392,260.5004 137.6985,258.4901 144.1333,257.1574 151.3368,256.5584 159.2237,256.6773 168.0614,257.5079 177.8012,259.0469 188.4185,261.2705 200.5353,264.3165 225.4329,271.7027 256.5929,282.1832 381.7175,327.7203"/>
    <polyline points="385.2562,330.9125 260.4318,285.3831 228.9524,274.7746 204.0509,267.3741 191.9325,264.3203 181.3127,262.0887 171.5682,260.5411 162.7294,259.7019 154.8415,259.5735 147.6324,260.162 141.1941,261.4829 135.6276,263.4812 130.1957,266.5508 125.6868,270.373 121.9414,274.948 118.6902,280.657 116.0807,287.3991 114.1445,295.0469 112.81,303.8232 112.084,313.6617 111.9484,324.8414 112.3925,337.002 113.43,350.7743 115.0334,365.8166 120.1352,401.6306 127.9594,446.3383"/>
    <polyline points="130.968,449.6345 123.2689,404.5859 118.2993,368.7631 116.748,353.7189 115.7569,339.9445 115.3538,327.7873 115.5277,316.6108 116.2887,306.7792 117.6571,298.0109 119.6267,290.3724 122.2697,283.645 125.553,277.9558 129.3251,273.4058 133.8563,269.6121 139.3037,266.5727 144.8771,264.5994 151.3182,263.3002 158.5251,262.7291 166.4137,262.8708 175.2471,263.72 184.9862,265.2751 195.9225,267.5872 208.0329,270.6571 233.2371,278.1813 264.6929,288.8172 298.4142,300.9553 388.8197,334.2429"/>
    <polyline points="392.4118,338.0771 304.24,305.3257 269.3081,292.6492 237.244,281.7263 211.7373,274.0598 199.6282,270.9691 188.6936,268.6374 178.6292,267.0207 169.7926,266.1746 161.9022,266.0407 154.6959,266.6245 148.2558,267.9417 142.6893,269.9361 137.2547,273.0014 132.7414,276.8182 128.9888,281.3864 125.7245,287.0887 123.197,293.51 121.2016,301.1416 119.8061,309.9075 119.0167,319.7398 118.8091,330.5893 119.18,343.0793 120.1304,356.8584 121.635,371.9118 126.4813,407.7588 134.0586,453.1732"/>
    <polyline points="137.1926,456.9058 129.6906,410.8081 124.9716,374.9426 123.5159,359.8864 122.6084,346.1028 122.2775,333.9394 122.5022,323.0905 123.3034,313.2588 124.7061,304.4934 126.7052,296.8612 129.2341,290.4382 132.4976,284.7357 136.2495,280.167 140.7634,276.3501 146.1997,273.2874 151.7688,271.2982 158.2104,269.9897 165.4185,269.4174 173.6362,269.5856 182.4717,270.4718 192.5306,272.1274 203.4582,274.4965 215.5562,277.6245 241.3554,285.4685 273.6934,296.6066 310.1254,309.982 396.0102,342.2905"/>
    <polyline points="399.6859,346.9048 316.1781,314.9735 278.2984,300.8481 245.4118,289.3472 219.3487,281.2953 206.9518,278.0368 196.0397,275.63 185.9933,273.9385 177.1692,273.0197 168.9585,272.819 161.7501,273.3614 155.3078,274.6421 149.7335,276.6077 144.2898,279.6484 139.7678,283.4492 136.0075,288.0077 132.737,293.7019 130.2026,300.1154 128.196,307.74 126.7832,316.4983 125.9681,326.323 125.7249,337.1655 126.031,349.3219 126.9055,363.0987 128.32,378.1536 132.9659,414.3359 140.3361,460.7582"/>
    <polyline points="143.4633,464.7089 136.1809,417.6121 131.6488,381.412 130.2459,366.0315 129.4092,352.2516 129.1344,340.0946 129.4054,329.2533 130.2474,319.4313 131.6885,310.678 133.7271,303.0624 136.2986,296.6636 139.6142,290.9964 143.4217,286.4786 147.9913,282.7355 153.1741,279.9001 158.7575,277.9618 165.2063,276.7168 172.4177,276.2159 180.6269,276.464 189.4448,277.4328 199.4812,279.1795 210.6986,281.7246 223.0757,285.0607 249.7115,293.4755 282.8313,305.2963 321.8471,320.1334 403.2959,351.9068"/>
    <polyline points="406.8814,357.2457 326.8588,325.3168 287.0187,309.8226 253.3531,297.527 226.7655,288.9089 214.411,285.4724 203.2096,282.8292 193.1854,280.9867 184.3721,279.9247 176.1606,279.5794 168.9415,279.9841 162.4716,281.1338 156.5522,283.1125 151.3503,285.9189 146.765,289.6468 142.9488,294.1616 139.6322,299.832 137.0648,306.2367 135.0324,313.8585 133.5962,322.618 132.7554,332.4451 132.4799,343.2917 132.743,355.4537 133.5343,368.911 134.8974,384.3076 139.3585,420.8616 146.5593,468.6633"/>
    <polyline points="149.6204,472.5846 142.4878,423.7709 138.1543,387.1948 136.8336,371.7979 136.0723,358.3345 135.8312,346.169 136.122,335.3214 136.9742,325.4942 138.3521,317.0583 140.3611,309.4296 142.9045,303.0152 146.2005,297.3318 150.0052,292.8076 154.5907,289.0787 159.8009,286.2875 165.7311,284.3422 172.2115,283.2403 179.4338,282.896 187.6416,283.3129 196.7704,284.5052 206.7766,286.4523 217.952,289.2041 230.276,292.7538 257.1002,301.7107 290.6654,314.2912 330.9941,330.3604 410.4496,362.8354"/>
    <polyline points="413.9902,368.5613 334.5419,335.2898 294.0656,318.7519 260.3194,305.7599 233.5887,296.5587 220.9888,292.8022 209.843,289.9511 199.8581,287.9145 190.7431,286.6418 182.5412,286.1564 175.3189,286.4477 168.837,287.5138 163.2068,289.3172 157.9738,292.0605 153.369,295.7609 149.5537,300.2735 146.3999,305.6573 143.8211,312.0549 141.7842,319.6735 140.3834,328.1022 139.5076,337.9245 139.1904,348.7679 139.3993,360.9286 140.1427,374.7135 141.4199,390.1134 145.6582,427.0184 152.653,476.4955"/>
    <polyline points="155.8338,480.4062 148.9258,429.9051 144.8163,392.977 143.579,377.5735 142.8622,363.7802 142.6688,351.6155 142.992,340.7703 143.8664,330.9469 145.2614,322.514 147.2905,314.8922 149.8656,308.4902 153.0242,303.1075 156.856,298.6081 161.2132,295.12 166.4494,292.3797 172.088,290.6033 178.58,289.5873 185.808,289.3649 194.0071,289.9358 203.1098,291.3058 213.074,293.448 224.194,296.4151 236.4463,300.1967 263.4067,309.7583 297.0418,323.0599 337.0797,339.8253 417.4744,374.2913"/>
    <polyline points="420.8594,379.8866 338.6416,343.869 299.3525,327.0361 266.1427,313.568 239.5858,303.8682 227.3715,299.9637 216.2845,296.8834 206.3438,294.6386 197.2567,293.1764 189.3959,292.5385 182.1666,292.6651 175.6625,293.5991 170.0057,295.3142 164.7501,298.014 160.381,301.4858 156.5491,305.9846 153.4019,311.3723 150.8436,317.7794 148.8304,325.406 147.446,333.8386 146.5736,343.6627 146.2421,354.5056 146.4155,366.6675 147.0985,380.4596 148.2873,395.866 152.2859,433.1321 159.03,484.3121"/>
    <polyline points="162.4015,488.1936 155.7944,436.0186 151.9267,398.4191 150.7974,383.0106 150.1613,369.2221 150.0233,357.0607 150.3814,346.2207 151.2736,336.4024 152.7419,327.6542 154.702,320.3559 157.2806,313.959 160.4575,308.5907 164.0926,304.3575 168.4678,300.8971 173.7389,298.2328 179.4122,296.575 185.5953,295.7427 192.8222,295.6734 200.6774,296.3857 209.4244,297.8739 219.3429,300.2036 230.3982,303.3832 242.57,307.3974 268.7269,317.2125 301.5124,330.8225 339.4554,347.4213 424.0938,385.2144"/>
    <polyline points="427.1243,390.1589 338.8258,350.0871 302.7969,334.039 270.7155,320.4497 245.2502,310.671 233.1079,306.5614 222.393,303.39 212.8142,301.0547 204.0807,299.4926 196.2335,298.7267 189.3333,298.7467 183.1442,299.5386 177.4692,301.1824 172.4832,303.6862 168.096,307.1305 164.4619,311.3639 161.2971,316.7389 158.7355,323.1424 156.79,330.4443 155.3298,339.1943 154.4354,349.0126 154.0636,359.852 154.175,372.0133 154.7702,385.8038 155.8701,401.544 159.5807,439.159 166.0007,492.0181"/>
    <polyline points="169.8648,495.7429 163.6352,442.1836 160.0887,404.5421 159.0447,388.7927 158.4889,374.9982 158.4017,362.833 158.7838,351.9907 159.6752,342.1686 161.0521,333.7348 162.9393,326.4167 165.4287,319.9821 168.5172,314.5599 172.087,310.269 176.4287,306.7656 181.3941,304.2209 186.7468,302.6317 192.933,301.8134 199.8332,301.8025 207.3565,302.5606 215.7628,304.0917 225.3335,306.4706 236.0325,309.7085 247.8415,313.7918 272.6368,323.4954 303.7398,336.8932 429.9017,394.6314"/>
    <polyline points="432.3854,398.5754 304.3872,339.3722 274.2623,326.2167 250.7444,316.8621 239.2761,312.8148 228.9153,309.6033 219.681,307.2358 211.2851,305.6442 203.7701,304.8481 197.1987,304.8288 191.3326,305.5583 185.9679,307.1006 180.9924,309.6227 176.8869,312.8959 173.2857,317.159 170.1757,322.5673 167.6719,328.9951 165.7726,336.3088 164.3391,345.0668 163.4461,354.886 163.0489,365.7258 163.1145,378.2147 164.627,407.7593 168.0458,445.7373 174.0101,499.3194"/>
    <polyline points="178.4292,502.6975 172.6936,448.7603 169.4415,410.7696 168.0202,380.8946 167.9863,368.733 168.3927,357.895 169.2796,348.0748 170.691,339.3144 172.5567,331.9899 175.0161,325.5449 177.895,320.3828 181.4108,316.0509 185.4552,312.7026 190.3964,310.1158 195.4293,308.609 201.2886,307.8342 207.8607,307.8464 215.0465,308.6182 223.1176,310.1634 232.0254,312.4713 242.0612,315.6179 253.5136,319.7154 276.0707,328.8102 304.3368,341.2901 434.5455,401.9659"/>
    <polyline points="436.3626,404.8022 303.5574,342.6413 277.1222,330.8903 256.1102,322.3472 245.2905,318.4313 235.5766,315.3449 226.9924,313.0885 219.2502,311.5782 212.0623,310.7932 205.82,310.7822 200.2837,311.5035 195.2483,313.0043 190.5922,315.4314 186.5375,318.7671 183.0239,323.1019 180.0203,328.5708 177.6161,335.038 175.7932,342.3742 174.4509,350.8124 173.5572,360.6332 173.1329,371.4733 173.1373,383.6373 174.4595,413.5255 177.5874,451.8598 183.0918,505.8296"/>
    <polyline points="187.9486,508.6754 182.6715,454.9967 179.6671,416.6329 178.4135,386.7341 178.428,374.2372 178.8651,363.3928 179.7609,353.5686 181.095,345.1266 182.9023,337.7825 185.2855,331.3051 188.0887,326.0995 191.5445,321.7145 195.5604,318.3296 200.2009,315.8696 204.9139,314.4328 210.4486,313.6863 216.3651,313.686 223.2311,314.424 230.653,315.8662 238.9218,318.0432 248.3189,321.0442 258.8241,324.8739 278.3068,332.8435 302.929,343.8395 396.3347,387.8836 437.8223,407.0913"/>
    <polyline points="438.9167,408.8367 393.5509,387.9162 302.0295,344.661 279.5296,334.5945 261.5922,327.2339 251.7176,323.6141 242.6435,320.6985 234.7019,318.597 227.2831,317.1614 220.7469,316.481 214.8352,316.522 209.6365,317.2773 204.9467,318.7743 200.6303,321.1377 196.6554,324.5648 193.257,328.9879 190.5108,334.2229 188.1826,340.7137 186.4166,348.061 185.1091,356.504 184.2268,366.3217 183.7892,377.1587 183.7612,389.6481 184.9515,419.5282 187.8477,457.8705 192.9351,511.2037"/>
    <polyline points="197.9752,513.3944 193.0551,460.6923 190.2555,422.657 189.1005,392.7638 189.1309,380.2712 189.5592,369.4338 190.4194,359.6073 191.6905,351.1592 193.4071,343.795 195.67,337.2789 198.3451,332.005 201.6715,327.5255 205.5912,324.0326 209.8787,321.6145 214.2398,320.1612 219.4321,319.3492 225.0167,319.2689 231.2316,319.8727 238.3363,321.2091 245.9692,323.2011 254.7398,326.002 264.3076,329.5041 280.7343,336.2366 301.1492,345.352 391.518,388.0351 439.6518,410.0592"/>
    <polyline points="439.2968,410.6085 414.6767,400.4496 388.7159,389.2451 304.8048,351.3841 290.5611,345.3924 278.5892,340.8025 263.2228,335.9784 256.4861,334.4764 250.6295,333.6335 245.3789,333.3756 240.4618,333.7137 236.2845,334.5991 232.3056,336.1444 228.156,338.7907 224.6503,342.2469 221.661,346.567 219.1003,351.8964 217.0202,358.131 215.3442,365.5024 214.0951,373.9575 213.2429,383.7821 212.8115,394.6225 212.7683,406.7865 213.8592,436.0287 216.5408,472.4231 221.0727,519.5518"/>
    <polyline points="224.7592,520.0761 220.2728,474.6052 217.5623,438.5552 216.4757,409.9822 216.513,397.8219 216.9436,386.9855 217.7986,377.1632 219.0516,368.7128 220.7306,361.3447 222.8105,355.1105 225.364,349.7789 228.337,345.4493 231.8178,341.9699 235.9389,339.2813 239.8969,337.687 244.061,336.7478 248.9713,336.3489 254.2252,336.5475 260.0861,337.331 266.5161,338.6938 281.6118,343.2597 293.3158,347.6215 307.2999,353.363 389.6711,389.7718 414.8049,400.3773 438.8953,410.073"/>
    <polyline points="439.0421,410.3102 398.7507,395.0768 323.9632,365.1324 307.9203,359.2195 294.7921,354.9323 286.8739,352.7333 279.4965,351.0652 272.6821,349.9697 266.784,349.4881 261.1969,349.5703 256.3111,350.2191 251.8765,351.4375 247.9778,353.1783 243.8969,355.9347 240.182,359.6479 237.1618,363.9494 234.5075,369.2338 232.298,375.4242 230.4788,382.7615 229.1374,390.8709 228.201,400.0282 227.6672,410.2062 227.5244,421.7136 228.4416,448.6563 231.0083,481.7697 235.2924,521.987"/>
    <polyline points="236.9845,522.7569 232.8503,483.8476 230.4132,451.725 229.5957,425.4381 229.7867,413.9304 230.3774,403.7587 231.3799,394.6066 232.7921,386.5146 234.5917,379.5084 236.8384,373.3332 239.514,368.0597 242.7431,363.5054 246.4731,359.8065 250.5434,357.0346 254.7312,355.1366 259.1572,353.8884 264.3633,353.1537 269.948,353.0204 275.8499,353.4292 282.6788,354.4296 290.079,355.9902 298.3438,358.1643 312.4574,362.5966 329.4842,368.6839 402.7093,397.1945 440.0093,411.0249"/>
    <polyline points="440.0502,410.8051 389.7323,388.0568 300.8045,346.2212 282.1808,337.9526 267.2673,331.8708 258.0033,328.4957 249.8601,325.9094 242.5443,324.0085 235.7619,322.7386 229.8745,322.1632 224.2913,322.2415 219.424,322.9953 215.0594,324.432 210.7725,326.848 206.8635,330.3508 203.7283,334.563 201.032,339.8223 198.751,346.333 197.0204,353.6881 195.7333,362.1365 194.8558,371.9547 194.4072,382.7926 194.3532,395.2804 195.4523,425.1703 198.1889,463.1961 202.9857,515.2406"/>
    <polyline points="207.8806,516.7496 203.2104,465.9974 200.5082,428.2837 199.4107,398.3842 199.4589,385.8911 199.8952,375.0511 200.7525,365.2235 202.0094,356.7704 203.699,349.4037 205.9266,342.8699 208.5619,337.5774 211.8539,333.071 215.4891,329.751 219.7422,327.2734 224.0934,325.7925 228.6317,325.0412 233.8856,324.899 239.7786,325.415 246.2491,326.5797 253.2606,328.357 261.1057,330.8081 270.0745,334.0407 284.0948,339.7125 300.9444,347.1359 388.8048,388.2365 440.1512,411.1425 417.6489,401.5525 389.4163,388.9724 301.0981,348.0476 285.4157,341.2352 272.5831,336.1287 263.9018,333.0607 256.3513,330.7665 249.6446,329.1332 243.4844,328.0918 237.9131,327.6651 232.6611,327.877 228.138,328.7174 224.124,330.1709 219.9114,332.718 216.3331,336.1 213.2749,340.3723 210.657,345.6742 208.446,352.2129 206.7682,359.5866 205.5206,368.0429 204.6701,377.8679 204.2378,388.7103 204.1925,401.2093 205.2782,430.7822 207.9622,468.1703 212.5761,517.9442"/>
    <polyline points="216.9952,518.8616 212.4612,470.7264 209.766,433.666 208.671,404.417 208.7042,391.9226 209.1233,381.0797 209.9573,371.2497 211.1833,362.7887 212.8315,355.4087 215.0021,348.8555 217.5709,343.5282 220.5737,339.216 224.0973,335.7762 228.2653,333.1569 232.2572,331.6404 236.7671,330.7435 241.69,330.4794 246.9407,330.7999 253.1119,331.7603 259.8346,333.3332 275.4784,338.3823 288.0327,343.2981 302.8438,349.6458 388.3539,388.8193 414.5463,400.3349 439.6986,410.944"/>
    <polyline points="438.4689,409.7202 416.3657,401.2193 392.8769,391.7464 314.3919,358.6207 299.9924,353.0036 287.887,348.763 272.9991,344.6199 266.5326,343.4097 260.6488,342.775 255.3897,342.7152 250.4882,343.2425 246.3439,344.2812 242.4128,345.9503 238.3164,348.6839 234.8373,352.1711 231.676,356.7748 229.1198,362.1098 227.0222,368.3398 225.3168,375.7095 224.0779,383.8347 223.2075,393.3322 222.7492,403.8502 222.6827,415.6868 223.7388,443.621 226.4134,478.0515 230.8563,520.914"/>
    <polyline points="233.2682,521.383 228.8842,479.8444 226.2672,446.4087 225.2473,418.8016 225.3349,407.2959 225.8213,396.7818 226.7295,387.2892 228.012,379.172 229.7672,371.8154 231.9137,365.6042 234.5143,360.2902 237.7068,355.7094 241.1959,352.2338 245.2847,349.4884 249.2003,347.7851 253.6529,346.6321 258.5505,346.0707 263.81,346.0779 269.7016,346.6443 276.1778,347.7741 291.1121,351.7343 303.573,355.9455 318.3352,361.5356 396.5038,393.6734 420.6845,403.1703 438.5884,409.8041 415.3328,400.6583 391.02,390.625 310.4479,355.7838 296.4073,350.1618 284.6586,345.9137 269.8266,341.6006 263.3812,340.3101 257.5067,339.5987 252.2507,339.4704 247.3462,339.938 243.1934,340.9347 239.2536,342.5777 235.1549,345.304 231.6891,348.8005 228.7198,353.1354 226.16,358.4677 224.0696,364.6962 222.3765,372.0629 221.1104,380.5156 220.2668,390.014 219.8192,400.8536 219.7713,412.6863 220.8435,440.9374 223.5527,476.3448 228.0238,520.5046"/>
    <polyline points="238.4213,523.6789 234.4629,485.7456 232.1933,454.2709 231.549,428.3114 231.8297,417.1394 232.4952,407.2986 233.5488,398.4874 235.0475,390.4094 236.9322,383.4279 239.2601,377.284 242.0035,372.0458 245.2792,367.5245 249.0248,363.8422 253.3717,360.8941 257.5575,358.9922 262.2944,357.6374 267.495,356.8709 273.0779,356.6748 279.3133,357.0312 286.1527,357.9469 293.8932,359.4775 302.1836,361.5474 317.2915,366.1015 335.6197,372.4505 407.8748,399.786 441.5534,412.0314"/>
    <polyline points="443.7593,413.3362 414.0353,402.7472 342.1444,376.3467 322.5117,369.767 306.4116,365.1129 297.7734,363.073 290.0182,361.6399 282.8405,360.7662 276.6043,360.4777 270.6974,360.741 265.5029,361.5439 260.7656,362.8969 256.2732,364.9155 251.9026,367.8275 248.097,371.4479 244.7272,375.8981 241.8688,381.0717 239.4115,387.1662 237.3976,394.1086 235.7709,402.1594 234.6,410.9575 233.8268,420.7846 233.4459,431.9526 233.892,457.2523 235.9234,487.7502 239.6378,524.7095"/>
    <polyline points="240.8908,525.7976 237.4597,489.7978 235.685,459.9393 235.3902,446.7945 235.4945,434.9629 236.0013,424.1253 236.8809,414.6352 238.1898,405.8595 239.885,398.1545 242.0224,391.2491 244.5961,385.2049 247.5554,380.0845 250.9997,375.6909 255.1047,371.9099 259.5138,369.054 264.0143,367.051 269.0667,365.6041 274.5857,364.7459 280.4936,364.4557 287.062,364.71 294.2459,365.5153 302.3443,366.9204 311.0025,368.8584 327.794,373.4969 348.7503,380.2693 446.6698,414.9468"/>
    <polyline points="450.2774,417.0017 355.4504,384.3709 333.4789,377.5248 315.6795,372.8257 306.6703,370.9273 298.5563,369.62 291.0329,368.8626 284.4619,368.6736 278.2287,369.0311 272.7131,369.9205 267.6566,371.3604 262.8432,373.4716 258.4062,376.2875 254.236,379.9996 250.6952,384.3186 247.4655,389.6584 244.7886,395.6624 242.5407,402.5338 240.7348,410.2122 239.3575,418.6482 238.3575,428.1324 237.7482,438.6326 237.5279,450.1366 237.6966,462.9621 239.2098,492.1816 242.3083,526.8967"/>
    <polyline points="244.0035,527.9714 241.2259,494.2333 240.0007,465.6699 239.9718,453.1774 240.3222,442.0098 241.0496,431.8507 242.1965,422.3878 243.7313,413.9829 245.7085,406.352 248.0132,399.8481 250.8377,393.9154 254.2049,388.6645 257.8514,384.4368 262.0953,380.8121 266.5673,378.0553 271.3889,375.9672 276.7605,374.4411 282.5975,373.5 288.8277,373.1195 295.7255,373.271 303.2528,373.9606 311.7013,375.2293 320.7294,377.0215 339.2139,381.6589 362.2045,388.5242 454.5217,419.207"/>
    <polyline points="459.2935,421.7324 368.775,392.7841 345.0606,386.0181 325.8686,381.4548 316.4918,379.7161 308.0258,378.5476 300.1582,377.914 293.2549,377.8286 286.6971,378.2815 280.8618,379.2564 275.4871,380.781 270.6464,382.833 265.8608,385.7118 261.5678,389.2831 257.6448,393.7091 254.3735,398.6362 251.4341,404.5138 249.0125,410.9781 246.9886,418.2645 245.3716,426.3248 244.1152,435.4418 243.2437,445.5967 242.7721,456.4387 242.6692,468.6045 243.601,496.2104 246.0596,529.0007"/>
    <polyline points="248.5215,529.9787 246.3686,498.1611 245.7181,471.2096 245.9608,459.3784 246.5636,448.8739 247.5619,439.0616 248.9284,430.2926 250.7094,422.2726 252.8055,415.3521 255.3904,408.9512 258.3278,403.4417 261.7185,398.5967 265.7427,394.266 270.1048,390.7796 274.9278,387.9656 280.0916,385.8379 285.4752,384.3478 291.636,383.3329 298.1936,382.8712 305.4265,382.9278 313.2928,383.5059 321.7709,384.5902 331.1655,386.2172 350.733,390.6029 375.1638,397.2291 401.6282,405.1302 464.4432,424.5779"/>
    <polyline points="469.792,427.7392 409.588,409.9278 381.7672,402.0101 356.9431,395.6141 337.0073,391.3872 327.6024,389.8525 318.7889,388.7985 310.5923,388.2565 303.363,388.2363 296.8073,388.7002 290.6412,389.6793 284.9261,391.1995 279.7332,393.2533 274.5761,396.1426 270.1492,399.5442 266.2413,403.532 262.7043,408.2706 259.6139,413.6924 256.8742,420.0232 254.6363,426.897 252.7859,434.564 251.3274,442.9838 250.2193,452.4526 249.4849,462.9419 249.1344,474.1105 249.5215,500.0742 251.3928,530.9146"/>
    <polyline points="254.6384,531.8321 253.0382,502.283 252.8804,477.2987 253.3372,466.4584 254.1772,456.3021 255.3803,447.1774 256.9155,439.1037 258.819,431.7868 261.1949,424.9585 263.936,418.9837 267.1465,413.6284 270.7942,408.9735 274.7931,405.0751 279.2882,401.7612 284.4894,398.9469 289.7014,396.9372 295.4223,395.4328 301.5874,394.4401 308.4719,393.9232 315.7038,393.8993 323.9069,394.3682 332.7319,395.3254 342.4843,396.7993 362.7969,400.8459 387.7121,406.9147 416.281,414.6304 475.1468,431.208"/>
    <polyline points="480.3159,434.9731 422.8352,419.6059 393.538,412.1118 368.5487,406.3671 347.8734,402.5049 329.2748,400.2585 321.07,399.8442 313.839,399.893 306.9568,400.4047 300.4645,401.4255 294.7342,402.8907 289.4973,404.8338 284.5271,407.3798 279.9298,410.5488 275.7993,414.3063 271.9956,418.8332 268.7829,423.7983 265.8535,429.679 263.4036,436.1295 261.3264,443.3963 259.6426,451.4381 258.3511,460.2179 257.4382,469.7061 256.8725,480.2103 256.8125,504.2017 258.1911,532.7682"/>
    <polyline points="261.9612,533.7718 260.7919,506.8374 261.0105,483.8295 261.6549,473.6599 262.6424,464.5088 264.0021,456.0714 265.7402,448.3769 267.8474,441.4601 270.426,435.0597 273.3308,429.5331 276.6523,424.6399 280.3295,420.4362 284.5175,416.7421 289.1554,413.6313 294.4515,411.0 299.7085,409.1131 305.4474,407.6798 311.9415,406.6648 318.8234,406.1325 326.3828,406.0461 334.5925,406.4099 353.2137,408.4849 373.9353,412.1083 398.9965,417.5353 428.394,424.6446 485.122,439.0218"/>
    <polyline points="489.4153,443.3412 434.0869,430.0005 404.2653,423.1602 378.8039,417.9615 358.0265,414.5746 339.3726,412.6896 331.1544,412.3955 323.5905,412.533 316.7065,413.0962 310.2096,414.1214 304.4648,415.5431 299.1909,417.3996 293.8645,419.9772 289.1792,423.0238 284.927,426.6497 281.1746,430.7909 277.7703,435.6313 274.9267,440.8222 272.3554,446.8758 270.2225,453.446 268.4333,460.7972 267.0085,468.8952 265.9494,477.7123 265.247,487.225 264.8575,508.9294 265.8472,534.9007"/>
    <polyline points="269.7465,536.2182 268.9371,511.5605 269.484,490.8463 270.2693,481.6685 271.4117,473.1926 272.9142,465.4432 274.7659,458.4493 277.0575,451.935 279.6607,446.2567 282.6652,441.1564 286.0264,436.6907 289.9048,432.6675 294.2654,429.1727 299.0326,426.256 304.1106,423.9185 309.4027,422.1219 315.4809,420.6753 321.985,419.6916 328.872,419.1428 336.4347,418.9951 344.6537,419.2558 363.3188,421.0098 384.126,424.202 409.3197,429.0643 439.5361,435.6386 493.0844,447.9187"/>
    <polyline points="496.0633,452.7391 444.341,441.422 414.0711,435.1617 388.8382,430.5568 368.0082,427.5636 349.3369,425.9614 341.1192,425.7521 333.5597,425.9334 326.6794,426.4965 320.176,427.4752 314.0936,428.8953 308.7882,430.6478 303.6837,432.9217 298.8719,435.7598 294.6952,438.9541 290.7088,442.8676 287.2325,447.2406 284.1102,452.2654 281.5243,457.5883 279.2066,463.7394 277.3037,470.3759 275.731,477.7743 274.5502,485.5747 273.6676,494.4079 272.9395,514.4504 273.5643,537.7898"/>
    <polyline points="277.2222,539.6777 276.7922,517.6561 277.6803,498.6189 278.5988,490.4502 279.8937,482.6702 281.5254,475.6267 283.4635,469.3451 285.7861,463.5513 288.493,458.291 291.5518,453.6187 295.1251,449.3264 298.9464,445.7171 303.4423,442.4044 308.3049,439.6566 313.4387,437.4579 318.7616,435.7597 324.8495,434.3777 331.3531,433.4154 338.2307,432.8487 354.0046,432.8154 372.3532,434.2544 393.2009,437.0583 418.4661,441.424 448.7825,447.3989 498.3334,457.7799"/>
    <polyline points="499.9192,463.0022 452.8741,453.5098 422.5126,447.7862 397.5383,443.6906 376.6693,441.0586 358.3099,439.7558 342.5403,439.8766 335.6625,440.465 329.1633,441.4327 323.0704,442.8035 317.7408,444.4735 312.5868,446.6275 307.6915,449.314 303.4004,452.3499 299.4904,455.8625 296.013,459.8032 292.8136,464.3814 289.968,469.5652 287.6313,474.9984 285.647,480.9175 283.9399,487.6053 282.5525,495.0353 281.5389,502.8569 280.4535,520.8969 280.6644,541.9331"/>
    <polyline points="283.8603,544.5853 283.8923,524.5297 285.1816,507.4866 286.2914,500.0072 287.7662,492.9275 289.5366,486.5956 291.6734,480.7287 294.1775,475.3678 297.0233,470.5614 300.1603,466.3408 303.7431,462.4932 307.7436,459.082 312.1052,456.1461 317.0539,453.5542 322.2408,451.4773 327.5919,449.8638 333.6925,448.5358 340.2006,447.5909 347.078,447.0096 362.8534,446.8605 381.2241,448.091 402.1089,450.6225 427.112,454.5976 457.1848,460.1289 500.7264,468.7574"/>
    <polyline points="501.112,474.0996 460.4518,466.2451 430.68,460.9671 405.9839,457.232 385.0829,454.872 367.041,453.805 351.2726,454.0471 344.0746,454.6925 337.5732,455.6682 331.4773,457.0121 326.1301,458.6239 320.9373,460.6828 316.2562,463.0737 311.8452,465.9307 307.7743,469.2547 304.1031,473.0153 300.8656,477.1566 297.9085,481.8925 295.4228,486.8942 293.2559,492.3988 291.3377,498.6816 289.7887,505.4076 288.589,512.5361 287.0819,528.8949 286.8031,547.6244"/>
    <polyline points="289.5375,550.9558 290.1102,532.8749 291.8493,517.5165 293.1529,510.7343 294.7859,504.3648 296.7611,498.4346 299.0756,492.9867 301.7098,488.0576 304.622,483.6759 307.9664,479.6149 311.7296,475.9396 315.6032,472.8869 320.0474,470.0715 325.0471,467.5738 330.2589,465.5512 335.9367,463.8732 342.042,462.5499 355.4253,460.9328 371.2049,460.5835 389.2701,461.5104 409.8802,463.6706 434.2978,467.1783 463.4822,472.1696 500.9779,479.2473"/>
    <polyline points="500.397,484.2837 465.7972,477.8571 437.5685,473.18 413.7793,469.9273 393.1572,467.9316 375.0886,467.1646 359.3137,467.6505 345.9446,469.3577 339.8428,470.7046 334.1682,472.3866 328.9516,474.3931 323.9342,476.8527 319.4555,479.6125 315.5312,482.5987 311.9212,485.958 308.457,489.9154 305.4112,494.2038 302.6285,499.0517 300.2857,504.1272 298.2381,509.6792 296.4982,515.6789 295.0037,522.4208 292.9592,537.4046 292.1017,554.4848"/>
    <polyline points="294.5213,558.1404 295.7084,541.7353 298.036,527.4563 299.6393,521.075 301.4469,515.4372 303.654,509.9439 306.1512,504.942 308.9004,500.4557 312.0532,496.2436 315.6071,492.364 319.2814,489.0725 323.5237,485.9607 328.045,483.2697 333.0886,480.8587 338.3165,478.8766 343.9937,477.1973 350.0926,475.8333 363.7855,474.0161 379.2298,473.4268 396.9826,474.0202 417.2974,475.8113 440.4603,478.8126 467.4224,483.1418 499.4591,489.0139"/>
    <polyline points="498.446,493.3497 468.9776,488.0144 443.2924,484.0182 420.7563,481.263 400.7469,479.683 382.9857,479.2805 367.5452,480.051 353.8711,482.0192 347.7829,483.4378 342.1152,485.1541 336.8921,487.153 331.8436,489.5595 327.3046,492.2236 323.0257,495.2878 319.0589,498.7461 315.6615,502.324 312.406,506.4591 309.5385,510.8724 306.9055,515.8062 304.6713,520.9333 302.6984,526.5172 301.0018,532.5346 298.3979,546.0993 296.8619,561.8177"/>
    <polyline points="299.1974,565.559 301.0932,550.5541 304.036,537.4059 305.8174,531.762 307.9577,526.2453 310.3477,521.1931 313.1274,516.3446 316.1179,512.018 319.4754,507.9698 322.9457,504.467 326.9648,501.0748 331.2721,498.0567 335.8211,495.4153 340.8651,493.0087 346.3858,490.8796 352.0427,489.1405 358.1157,487.6803 371.7597,485.5827 387.182,484.6487 404.2762,484.85 423.6301,486.1803 445.5168,488.682 469.901,492.3519 497.094,497.2197"/>
    <polyline points="495.7044,500.5764 470.4316,496.1142 447.3141,492.7657 426.3768,490.551 407.6602,489.467 390.8832,489.4811 375.7943,490.5964 362.4943,492.7946 356.428,494.3045 350.4677,496.1845 345.258,498.2177 340.2059,500.6134 335.3565,503.3962 331.0228,506.3809 326.9553,509.7192 323.417,513.157 319.962,517.1264 316.8515,521.3711 314.0866,525.8486 311.5148,530.8138 309.1761,536.2533 307.1971,541.8337 303.8903,554.5631 301.6073,568.8555"/>
    <polyline points="304.1739,571.7877 306.9405,557.9233 310.647,545.6518 315.2351,535.1043 317.9698,530.2298 320.8702,525.8414 324.094,521.6849 327.6366,517.7966 331.4822,514.2076 335.6047,510.9396 339.9693,508.0047 344.832,505.2499 355.0841,500.8077 366.7565,497.4014 380.0269,495.0314 394.7617,493.7433 411.2007,493.5223 429.2663,494.3748 448.9015,496.2779 470.7256,499.2991 494.3824,503.3999"/>
    <polyline points="493.2253,505.6978 471.1821,501.9673 450.6502,499.2657 431.9874,497.631 414.5793,497.0114 398.8099,497.4299 384.4231,498.8835 371.5129,501.3528 359.8749,504.8652 349.646,509.3494 344.7808,512.0959 340.3994,515.0019 336.241,518.2205 332.3361,521.7422 328.7088,525.5489 325.3746,529.6148 319.4409,538.6852 314.4632,549.0497 310.3708,560.8465 307.0939,574.2546"/>
    <polyline points="310.202,576.174 314.1778,562.9557 318.7046,551.6725 323.9368,541.8029 330.1459,532.9172 337.272,525.1914 345.4064,518.5355 354.6595,512.8913 364.8621,508.3462 376.4648,504.7198 389.0221,502.1588 403.0643,500.5541 418.1672,499.9614 434.6,500.3504 452.6192,501.7501 471.8668,504.139 492.3059,507.4887"/>
    <polyline points="491.638,508.7994 472.1227,505.7494 454.1358,503.6957 437.3877,502.5831 421.5919,502.4079 407.1334,503.178 393.7547,504.8951 381.5326,507.5474 370.265,511.1887 360.0711,515.7944 351.0722,521.2558 343.088,527.5982 335.7532,535.1469 329.2256,543.8204 323.5601,553.4657 318.4506,564.5164 313.6709,577.4856"/>
    <polyline points="317.5725,578.1543 323.5314,564.971 329.2507,554.2354 335.3432,544.866 341.9532,536.6844 349.2092,529.5329 357.259,523.2872 365.9827,518.0275 375.8456,513.5108 386.7544,509.8632 398.6067,507.1362 411.3008,505.3298 425.0813,504.4011 439.8717,504.3623 455.9608,505.2317 472.9659,506.9949 491.1892,509.6792"/>
    <polyline points="490.9048,510.2083 473.9468,507.8911 457.8901,506.4119 443.0955,505.7874 428.9455,505.9926 415.8236,507.0399 403.4717,508.9581 392.2793,511.6715 381.7034,515.3125 372.4468,519.5917 363.9746,524.6517 356.1055,530.6049 348.7014,537.6167 342.2677,545.1014 336.139,553.6626 330.2877,563.1992 322.0019,578.1724"/>
    <polyline points="327.0478,577.5611 344.6892,551.3866 350.5905,543.8974 356.6007,537.3657 363.6648,530.9642 371.0687,525.4978 379.2723,520.6438 387.9172,516.6265 397.8377,513.124 408.67,510.379 420.0174,508.4726 432.4561,507.3037 445.6048,506.9236 459.7386,507.3221 474.8129,508.5126 490.8105,510.4993"/>
    <polyline points="490.6833,510.6928 475.98,509.0533 461.8723,508.1122 448.7253,507.8975 436.2524,508.402 424.805,509.5975 413.8054,511.5514 403.6356,514.2208 394.0516,517.6784 386.0215,521.4484 378.652,525.7727 371.7159,530.764 365.0281,536.5933 359.9718,541.7625 354.8259,547.743 338.9234,569.0968 332.7682,576.3692"/>
    <polyline points="339.1754,574.6713 342.6847,571.6962 346.5644,567.674 363.9752,545.8119 369.0293,540.1869 373.9611,535.3523 379.9974,530.2707 386.4504,525.7348 393.2818,521.7852 400.4236,518.4349 409.0622,515.2564 418.577,512.6583 428.9117,510.7047 439.689,509.4529 451.1804,508.8444 463.6745,508.8884 476.8092,509.5965 490.5622,510.95"/>
    <polyline points="490.4193,511.4412 477.6156,510.3339 465.4489,509.8144 454.2519,509.8796 443.4138,510.5353 433.2792,511.7833 423.906,513.6013 415.0196,516.0461 406.6858,519.1263 400.1296,522.2073 394.131,525.6424 388.4327,529.5559 383.0705,533.9181 378.287,538.4404 373.3639,543.7538 360.3463,559.9045 356.014,564.8624 351.1879,569.335 346.2295,572.5638"/>
    <polyline points="353.8391,570.1589 356.6012,569.0997 359.4885,567.5319 362.1636,565.622 365.1079,562.9997 369.7492,557.891 382.7779,541.7873 387.5223,536.7724 392.1283,532.5538 397.0436,528.7013 401.9724,525.4246 407.1355,522.5287 412.7939,519.8874 420.1852,517.1328 428.4113,514.8239 437.1215,513.082 446.5695,511.8574 456.7393,511.1729 467.2639,511.0365 478.4403,511.4235 490.2434,512.3336"/>
    <polyline points="490.0413,513.7783 479.1984,513.0072 468.6732,512.6963 458.8055,512.8718 449.6179,513.5239 441.1372,514.633 433.0716,516.2401 425.472,518.3634 418.6878,520.8807 413.0294,523.5377 407.6173,526.6644 402.7697,530.0578 397.9789,534.0743 391.3403,540.9191 378.6584,556.8978 373.1309,562.5223 370.4784,564.4647 367.886,565.89 365.1215,566.9459 361.9106,567.6566"/>
    <polyline points="370.1893,565.0306 373.794,564.7444 376.984,563.9626 379.9921,562.6488 383.0025,560.6531 387.6806,556.047 398.8657,541.4261 405.826,533.9952 410.1063,530.4001 414.6967,527.2187 419.5604,524.4656 424.6372,522.1379 430.8184,519.9065 437.7975,518.0207 444.8981,516.6517 452.7348,515.6583 461.2495,515.0796 470.1324,514.9315 479.6524,515.2005 489.8372,515.898"/>
    <polyline points="489.6724,518.7772 471.5684,517.8296 463.3357,517.9204 455.7842,518.3745 448.5833,519.2132 442.1018,520.388 436.046,521.9361 430.4381,523.8614 425.6224,525.9958 421.0285,528.5628 416.9703,531.3824 413.2094,534.5826 407.229,541.1535 397.3516,554.7343 392.8959,559.1069 389.798,560.9725 386.3765,562.1398 382.7874,562.6158 378.511,562.4686"/>
    <polyline points="386.6693,560.075 391.5617,560.712 395.8274,560.5812 399.3385,559.7325 402.5432,558.0719 404.5805,556.4114 406.788,553.9759 415.3006,541.4753 420.5172,535.5662 423.7708,532.7936 427.5773,530.2043 431.632,528.0333 436.183,526.1396 441.2072,524.5564 446.656,523.3019 452.4975,522.3738 459.0391,521.7385 473.1772,521.4539 489.6039,522.4546"/>
    <polyline points="489.7035,526.921 474.9172,525.8198 462.0923,525.8246 450.9676,526.9343 441.6985,529.1245 437.6953,530.6255 433.8638,532.5271 430.5563,534.6728 427.5329,537.2064 423.0551,542.4511 415.8923,553.8743 414.1449,555.8372 412.0745,557.4531 408.7606,558.8781 404.8614,559.413 400.2648,559.125 394.464,557.9328"/>
    <polyline points="401.7161,556.0971 408.0758,557.8221 413.2681,558.6375 417.527,558.5689 420.974,557.5589 422.8916,556.3017 424.674,554.3761 430.3008,544.3585 432.2269,541.6964 434.2437,539.5394 436.7836,537.4619 439.8691,535.5822 443.4737,533.9823 447.2226,532.7848 455.6245,531.2155 465.4504,530.6018 476.947,530.9045 490.0544,532.1227"/>
    <polyline points="490.7478,537.9723 478.9478,536.6167 468.8092,536.0407 459.9118,536.2299 452.7425,537.1583 448.9235,538.1169 445.8553,539.259 442.9568,540.8095 440.609,542.6087 438.8179,544.5312 437.3444,546.707 433.0304,555.5594 431.4297,557.1958 429.7,558.1207 426.1563,558.7244 421.5828,558.3404 415.8134,557.0161 408.2798,554.5912"/>
    <polyline points="414.053,553.406 422.1295,556.385 428.7258,558.3986 433.569,559.3732 437.1849,559.4448 439.37,558.7884 440.8495,557.5025 441.7803,555.7675 443.7574,550.1776 446.0182,546.9535 449.2272,544.6757 453.218,543.18 460.0395,542.064 468.5872,541.8882 479.0977,542.6352 491.8754,544.3652"/>
    <polyline points="493.5197,551.3202 481.7815,549.3772 472.002,548.2958 464.0889,548.0556 457.8816,548.6663 454.1378,549.8088 451.6573,551.4234 449.9998,553.8426 448.3388,559.8403 447.0765,560.8469 445.1379,561.1575 441.2321,560.6217 435.8755,559.0781 418.9826,552.5045"/>
    <polyline points="423.0652,551.8363 443.6554,560.75 449.5475,562.8476 453.0751,563.6168 454.3773,563.5253 455.155,562.9674 455.6205,558.7436 456.7015,556.7422 458.945,555.4043 462.4598,554.6555 468.0832,554.5203 475.584,555.1695 484.7155,556.5779 495.7379,558.7782"/>
    <polyline points="498.5405,566.7042 479.5046,562.4772 472.3355,561.403 467.0863,561.0731 463.8059,561.3642 461.7216,562.2747 461.0245,563.7111 461.4168,566.6319 460.2151,566.8487 457.0977,565.803 451.0824,563.1744 426.341,551.3565"/>
    <polyline points="428.8815,551.1916 466.8319,570.9355 467.0487,570.8713 466.0715,569.1585 466.1431,568.5173 466.6184,568.0883 468.5259,567.7122 472.1378,567.9164 484.0895,570.2529 501.8918,575.0438"/>
    <polyline points="505.7226,583.7244 489.3623,578.5189 477.9505,575.3444 473.0953,574.361 470.8269,574.3671 470.8504,574.9048 471.6632,575.4686 472.1669,575.4867 469.0481,573.0661 461.5284,568.3796 430.7672,551.0703"/>
    <polyline points="432.0024,551.1348 453.9026,564.0287 468.5913,573.388 474.6918,577.9193 476.1192,579.2732 476.8117,580.3674 476.4607,580.8289 475.1523,580.7056 486.364,584.1393 509.9496,592.6589"/>
    <polyline points="505.2618,595.0346 521.4127,606.9806 535.4325,617.8954 547.5768,627.9819 557.5848,637.0144 565.9245,645.4243 572.3114,652.9478 576.907,659.7604 579.6662,665.7145 580.6733,669.868 580.7406,673.8021 579.7961,677.6237 577.9283,681.0921 575.6522,683.9005 572.5556,686.8483 559.5072,696.864 554.389,701.4984 552.0191,704.2316 550.1542,706.9399 548.6475,709.861 547.6522,712.6492 546.9379,716.192 546.7596,719.8001 547.1038,723.7326 547.9073,727.5914 549.1877,731.6765 551.0623,736.2333 556.408,746.0639"/>
    <polyline points="556.7294,742.3486 550.7008,732.1458 548.4896,727.3754 546.8994,723.0484 545.751,718.5933 545.2272,714.6845 545.2194,711.0662 545.7417,707.4902 546.5895,704.6556 547.9577,701.6667 551.7789,696.327 556.7598,691.5452 569.0537,681.6336 571.8341,678.8313 574.0161,675.949 575.7278,672.4019 576.4526,668.8658 576.2799,664.9335 575.1905,660.8037 572.3518,654.8691 567.7209,648.0873 561.3259,640.5764 553.2321,632.383 543.2456,623.3008 531.407,613.3708 517.715,602.5831 502.1643,590.9232"/>
    <polyline points="498.7897,587.3164 514.2513,599.0699 527.607,609.7336 539.1291,619.5158 548.8214,628.4198 556.6526,636.3979 562.8354,643.6513 567.5057,650.4057 570.4087,656.2902 571.5789,660.3966 571.8522,664.3223 571.2243,667.8743 569.763,671.1732 567.884,673.8669 565.1996,676.7554 553.6486,686.517 549.0329,691.1932 547.0611,693.8224 545.4318,696.6758 544.2309,699.7327 543.5593,702.6105 543.2633,706.2124 543.5306,710.1485 544.3811,714.328 545.795,718.7055 547.7331,723.2406 550.3133,728.195 557.0714,738.7113"/>
    <polyline points="557.4027,735.1753 549.6972,724.0985 546.7375,718.965 544.4446,714.2361 542.6883,709.62 541.6022,705.4884 541.0843,701.5827 541.1335,697.9649 541.6904,694.7249 542.6278,691.9199 543.9502,689.2737 545.7945,686.5514 550.0282,681.9604 561.1046,672.1403 563.4801,669.4121 565.249,666.6435 566.5258,663.2669 566.9287,659.682 566.5072,656.0952 565.2158,652.0181 562.1963,646.1805 557.6526,639.7259 551.4476,632.4811 543.6205,624.5065 534.1938,615.8075 522.9319,606.1694 509.8885,595.6481 495.0059,584.1974"/>
    <polyline points="491.0268,581.5277 517.818,602.8569 528.7844,612.3107 537.963,620.805 545.5881,628.5398 551.8438,635.7357 556.4784,642.1195 559.6517,647.8808 561.1091,651.9041 561.7463,655.7942 561.4878,659.3942 560.4667,662.5142 559.0005,665.0838 556.7336,667.9031 546.1224,677.7511 542.2733,682.2449 540.5803,685.064 539.4514,687.7995 538.7555,690.6733 538.4976,693.624 538.7184,697.2334 539.5901,701.4163 541.0742,705.7712 543.1148,710.2719 545.8138,715.1636 549.1853,720.4324 557.6995,731.7452"/>
    <polyline points="557.9466,728.4054 548.4356,716.6436 541.567,706.2263 539.1405,701.5486 537.3972,697.2939 536.2306,693.1901 535.7001,689.2855 535.7567,686.3286 536.2732,683.4197 537.2646,680.6369 538.6815,678.0432 542.1771,673.6936 552.0895,664.0899 554.0643,661.4658 555.4221,658.8423 556.2667,655.6742 556.3079,652.0708 555.5719,648.5375 554.0151,644.5619 550.7522,638.8635 546.2678,632.7804 540.2185,625.8313 532.6312,618.1017 523.4789,609.5748 512.8306,600.3091 486.711,579.2502"/>
    <polyline points="482.0665,577.0684 507.2827,597.682 517.654,606.7904 526.5289,615.0957 533.9179,622.5985 540.003,629.49 544.579,635.514 547.991,641.1298 549.7115,645.0367 550.7059,648.8414 550.8503,652.4492 550.1603,655.6528 548.8947,658.3213 547.1834,660.7318 538.1689,669.8423 535.0001,674.0296 533.7093,676.6876 532.9712,679.2102 532.6352,682.1443 532.7787,685.0939 533.5662,688.954 534.9771,692.9867 537.0947,697.445 539.911,702.2641 547.6043,712.9334 558.1359,725.1215"/>
    <polyline points="558.5266,721.8413 546.9464,709.2702 538.415,698.4116 535.1816,693.4687 532.8061,689.1455 531.0014,684.9159 529.9396,681.1224 529.5739,678.1891 529.7021,675.2398 530.2968,672.6838 531.3359,670.2724 534.1771,666.2561 542.2974,657.6598 543.8973,655.1761 544.8823,652.7438 545.3699,649.5052 545.0653,646.239 543.9326,642.4648 541.9508,638.3226 538.4029,632.7839 533.7557,626.8398 527.8314,620.2186 520.446,612.7477 501.7205,595.7276 477.1355,575.4041"/>
    <polyline points="471.9959,573.9003 495.7171,593.6975 514.1955,610.5278 521.3881,617.7485 527.3603,624.3032 532.1066,630.1796 535.7976,635.6198 537.9504,639.6799 539.3043,643.3768 539.8628,646.6135 539.6503,649.8809 538.837,652.3759 537.348,654.9259 530.0852,662.972 527.5757,666.8143 526.6958,669.288 526.3295,671.887 526.4471,674.5067 527.0424,677.4039 528.373,681.1134 530.4324,685.2291 533.2023,689.6954 536.8566,694.7501 546.217,705.7859 558.6027,718.4986"/>
    <polyline points="558.6573,715.0172 545.2404,701.9192 535.0887,690.7041 528.2417,681.4776 525.7848,677.2005 524.2204,673.5823 523.4251,670.738 523.1271,668.1257 523.2903,665.8343 523.9026,663.621 526.0465,659.9414 532.6464,652.1881 533.8459,649.852 534.4851,647.3099 534.4791,644.3546 533.6566,640.847 532.1102,637.22 529.8085,633.2363 525.9921,627.8889 521.1576,622.0788 515.1172,615.5629 507.8888,608.3714 489.9109,591.9894 466.7568,572.5092"/>
    <polyline points="461.5497,571.1812 483.9146,590.0945 501.6774,606.2382 514.8211,619.5904 519.76,625.3081 523.7346,630.5463 526.3762,634.7116 528.2451,638.5521 529.2813,642.0068 529.4992,644.952 529.1197,647.2153 528.0826,649.6258 522.1539,657.0782 520.5136,660.2858 520.0692,662.5381 520.1255,664.8332 521.5884,669.8674 523.3829,673.3776 526.0642,677.5163 533.7169,686.9579 544.4493,698.0852 558.6536,711.3167"/>
    <polyline points="558.5356,707.2586 543.782,694.1145 532.2436,682.8308 524.0021,673.4336 521.1145,669.4307 519.11,666.0309 517.2954,661.1073 517.0923,658.8184 517.3645,656.8678 518.729,653.8894 523.6519,647.3096 524.5746,644.8523 524.7922,642.5632 524.3583,639.6441 523.1134,636.2448 521.0819,632.4892 518.1204,628.1386 514.0145,622.9869 508.9723,617.3328 495.9433,604.305 478.3814,588.4068 456.5178,569.8687"/>
    <polyline points="451.8033,568.5308 472.8888,586.3939 490.018,601.7708 503.1695,614.6507 512.5369,625.2305 515.6678,629.4547 518.0787,633.3675 519.5828,636.646 520.3887,639.8286 520.4048,642.124 519.8208,644.3415 518.7145,646.3555 515.4289,650.8728 514.4032,653.6294 514.333,655.5951 514.696,657.528 516.7032,662.0149 519.07,665.5728 522.1404,669.4288 530.697,678.5207 542.7403,689.7173 558.2317,702.9854"/>
    <polyline points="557.6625,698.3639 541.6652,685.1645 529.1082,674.03 520.2608,665.2066 514.4855,658.0426 512.2022,653.6857 511.7178,651.7767 511.6677,650.1384 512.4157,647.6336 516.0219,641.763 516.4851,639.5177 516.3124,637.2278 515.3176,634.1025 513.4913,630.5973 510.7365,626.5187 507.2631,622.1387 497.6757,611.7421 484.62,599.2102 467.8943,584.3338 447.5338,567.1365"/>
    <polyline points="443.8111,565.6693 463.7382,582.3873 480.0468,596.7269 492.9852,608.9029 502.5394,618.895 506.5449,623.6775 509.4458,627.6798 511.4347,631.0884 512.6465,634.1403 513.0272,636.4043 512.7684,638.6805 511.9983,640.4941 509.7822,644.1488 509.2336,646.3688 509.8793,649.5719 512.3598,653.8156 518.1685,660.5242 527.4877,669.3432 540.2729,680.216 556.749,693.3593"/>
    <polyline points="558.7217,695.3113 577.7258,706.5061 594.1592,716.8431 607.9838,726.3141 618.956,734.7347 627.5048,742.4288 633.3443,749.1099 635.3394,752.1273 636.7982,755.0744 637.6482,757.9039 637.8486,760.5185 637.0033,764.0143 634.9718,766.9885 631.4092,769.8911 626.4597,772.4777 620.6006,774.6547 613.3212,776.7209 581.4894,783.6041 568.8039,787.0906 562.9694,789.3346 558.3059,791.7679 554.8771,794.3117 552.3017,797.2868"/>
    <polyline points="554.2203,795.1661 556.0889,792.0874 558.9788,789.4147 563.1907,786.8546 568.6264,784.511 580.5888,780.9077 611.3232,773.6657 618.5463,771.421 624.0288,769.1841 628.8602,766.39 632.0121,763.5155 633.8546,760.4217 634.484,756.8806 634.1665,754.278 633.2309,751.4695 631.7209,748.5565 629.4921,745.3007 623.3412,738.4642 614.7053,730.8415 603.435,722.3224 589.8149,713.1102 573.3285,702.857 554.2757,691.763"/>
    <polyline points="555.4226,687.9413 538.4767,674.8827 525.4924,664.2785 516.2011,655.9212 510.1749,649.4165 507.8204,645.8592 506.8764,642.7401 507.2737,640.4925 509.7394,635.5016 509.8609,633.2135 509.3424,630.9791 507.826,627.7025 505.5025,624.1184 498.1238,615.297 488.413,605.4898 475.5935,593.6863 459.6919,579.9056 440.7007,564.1292"/>
    <polyline points="438.2259,562.5336 459.8455,580.3317 477.2658,595.4114 490.4952,607.7755 499.7336,617.5962 504.1242,623.349 506.5611,628.0066 507.0458,629.9161 507.0451,631.8813 506.5781,633.4536 504.8251,636.9858 504.7388,639.2614 506.4278,642.8034 510.2421,647.3258 516.7083,653.4101 526.0637,661.2046 553.6334,682.0872"/>
    <polyline points="551.3561,675.7835 523.1925,655.2287 513.9629,647.8287 507.6426,642.0968 504.1832,638.1369 502.5927,634.9187 502.6453,632.9672 504.538,628.4369 504.5354,626.4734 504.0225,624.5747 501.5063,619.9733 496.8122,614.0454 487.4357,604.3632 474.3511,592.395 457.3092,577.8981 436.3656,560.9174"/>
    <polyline points="435.0591,559.3292 455.672,575.748 472.3412,589.6711 485.102,601.1115 494.3703,610.4532 498.9581,616.041 501.6138,620.5864 502.1965,622.4682 502.2654,624.4308 500.55,628.683 500.4874,630.3102 501.9309,633.238 505.2336,636.8977 511.4318,642.2998 520.5586,649.3284 548.5918,669.0271"/>
    <polyline points="545.3649,661.8215 517.5622,643.0502 508.8478,636.6102 502.7972,631.5463 499.8713,628.4477 498.4597,625.8742 498.4586,624.2498 499.8361,621.2733 500.1207,619.9957 500.0107,618.3631 499.3977,616.4942 496.8594,612.2799 492.2125,606.7548 483.078,597.7635 470.4812,586.7186 454.195,573.4055 434.2162,557.8228"/>
    <polyline points="433.7368,556.4421 453.1525,571.212 469.0952,583.926 481.3474,594.408 490.1487,602.8468 494.8717,608.3147 497.4247,612.5332 497.9202,614.0986 497.9985,615.7341 496.4325,619.3313 496.3326,620.9478 497.3912,622.9701 500.1119,625.8327 505.7392,630.3864 514.333,636.4794 541.713,654.1772"/>
    <polyline points="537.6791,646.1205 511.0571,629.741 502.878,624.2309 497.4169,620.0198 495.1018,617.6994 494.037,615.6844 494.1967,614.3991 495.78,611.1779 495.721,609.5431 495.2042,607.9928 492.563,603.8475 487.946,598.7079 479.272,590.6569 467.3967,580.7973 452.0488,568.9031 433.5319,555.2056"/>
    <polyline points="433.512,554.1187 451.4464,566.9834 466.1791,578.0589 477.7309,587.3694 486.0308,594.8587 490.4898,599.7025 492.9683,603.5644 493.4362,605.1304 493.3997,606.4399 491.7551,609.2651 491.5677,610.2194 492.2409,611.695 494.326,613.7878 499.3687,617.5015 507.1211,622.4462 533.3221,637.6952"/>
    <polyline points="528.7215,628.963 502.9679,614.9162 495.6198,610.5345 491.0264,607.3493 489.3765,605.7552 488.8658,604.5682 490.8451,601.2436 490.8063,599.9392 490.3711,598.7029 487.9626,595.1638 483.6269,590.661 475.6861,583.7705 464.7741,575.2837 450.6531,565.0274 433.5731,553.187"/>
    <polyline points="433.5988,552.4164 463.0006,572.4921 473.3087,580.1925 480.913,586.4961 485.3541,590.8975 487.6038,594.1186 487.9842,595.3751 487.8916,596.3478 485.879,598.8523 486.3104,599.7144 487.5422,600.7949 491.4288,603.2677 498.3671,607.068 523.9736,620.0009"/>
    <polyline points="517.407,622.199 535.3911,634.3648 550.8996,645.4727 564.1865,655.7004 575.2291,665.0356 584.0197,673.4595 590.7305,681.1317 595.2954,687.945 596.88,691.2029 597.9479,694.3089 598.5709,698.5263 598.0284,702.7486 596.4385,706.3468 593.607,709.9634 590.4246,712.8144 586.4092,715.6772 569.9429,725.303 563.9182,729.3032 558.6984,733.8155 555.067,738.4735 553.7158,741.1037 552.7601,743.9008 552.2309,746.8089 552.1305,750.0945 552.4853,753.3572 553.3082,756.8775 556.2369,764.2045"/>
    <polyline points="556.5573,767.4926 553.9483,760.7454 553.2607,757.5282 553.0083,754.5811 553.1698,751.6307 553.6969,749.0543 554.723,746.2798 556.1624,743.6955 559.971,739.1764 565.3474,734.8496 571.4922,731.0254 588.4935,721.6581 592.8572,718.7147 596.1149,715.9495 599.0644,712.4225 600.8829,708.5691 601.4619,704.3505 600.8457,700.1301 599.7694,697.0259 598.1679,693.7735 593.556,686.9881 586.783,679.365 577.9197,671.0104 566.7898,661.763 553.4071,651.6466 537.5236,640.4889 519.4158,628.4869"/>
    <polyline points="521.4101,634.8568 539.6139,646.6777 555.3225,657.4884 569.0524,667.6589 580.2582,676.7899 589.4277,685.28 596.2507,692.8449 600.9008,699.5943 602.5156,702.8369 603.5979,705.9351 604.2054,710.1527 603.5907,714.3613 601.7203,718.185 598.4782,721.8859 594.8834,724.7555 590.4442,727.5715 572.936,736.6513 566.6872,740.2868 561.1636,744.4181 557.3837,748.5177 555.8211,751.0269 554.7887,753.4427 554.1451,755.9877 553.903,758.6021 554.0771,761.5536 554.653,764.4557 556.9786,770.5967"/>
    <polyline points="557.4438,773.5144 555.3733,767.9713 554.7876,762.7556 555.111,760.1444 555.7641,757.9383 556.9047,755.5685 558.394,753.4009 562.3483,749.455 567.7493,745.7024 574.1058,742.237 592.1557,733.4427 596.9554,730.5714 600.6338,727.8001 604.0105,724.2103 606.0454,720.4645 606.8296,716.2797 606.2561,711.726 605.1732,708.6155 603.5556,705.3844 598.8612,698.6418 591.9716,691.1082 582.984,682.8997 571.6985,673.8345 557.8703,663.7572 541.7777,652.8845 523.4405,641.2126"/>
    <polyline points="525.5575,647.4669 544.2564,659.146 560.4243,669.881 574.3188,679.845 585.6592,688.8246 594.9213,697.2028 601.805,704.7279 606.4412,711.4949 608.0007,714.76 608.9113,717.5743 609.3764,721.8059 608.53,725.9758 606.421,729.6764 602.7199,733.4036 598.6903,736.2439 593.8143,738.974 575.2656,747.4429 568.8177,750.7243 563.3011,754.2971 559.4377,757.8558 556.7647,761.979 556.0172,764.1538 555.6539,766.4231 556.0203,770.9979 557.9072,776.2494"/>
    <polyline points="558.3183,778.8098 556.6973,774.1534 556.4701,769.8999 556.8521,767.966 557.6911,765.8246 560.3673,762.0961 564.3832,758.7002 569.7405,755.4841 576.2803,752.3758 595.3495,744.235 600.5931,741.4795 604.7071,738.7548 608.5463,735.1676 610.9565,731.2629 611.883,727.109 611.4542,722.8705 610.5468,720.0534 608.9777,716.7897 604.2989,710.0447 597.3522,702.5645 588.2688,694.4651 576.8583,685.5594 562.8792,675.6938 546.6153,665.079 527.8088,653.5438"/>
    <polyline points="530.2379,659.382 548.8436,670.6008 565.1789,681.0834 579.2262,690.8368 590.6988,699.6521 599.8344,707.679 606.8173,715.0979 611.5317,721.8277 613.0967,725.0764 613.9947,727.9001 614.3714,732.1388 613.3474,736.2687 610.8309,740.1014 606.9025,743.5919 602.4465,746.3842 596.8412,749.144 577.2839,756.935 570.6678,759.8616 565.2117,762.9056 561.3201,765.9274 558.6292,769.234 557.2366,772.9027 557.2264,776.8291 558.6251,781.2073"/>
    <polyline points="558.7756,783.4558 557.6927,779.6646 557.8443,776.0711 559.268,772.7642 562.0981,769.5776 566.1109,766.714 571.367,763.988 578.056,761.2212 598.7188,753.5351 604.3922,750.9053 608.928,748.2372 612.9797,744.8939 615.6758,741.1788 616.5147,739.0384 616.8922,737.1044 616.6505,732.8547 615.8027,730.0198 614.4154,727.0311 612.3471,723.6833 609.7646,720.2764 602.7674,712.8449 593.6027,704.8519 582.082,696.0941 567.973,686.4209 551.5664,676.0377 532.8822,664.9366"/>
    <polyline points="535.7719,670.1795 554.5186,681.1797 570.9809,691.4768 584.8719,700.8919 596.4414,709.5889 605.6443,717.5426 612.4383,724.6944 615.0423,728.0948 617.1238,731.4447 618.5012,734.421 619.3308,737.2677 619.4931,741.5193 619.0583,743.4419 618.1464,745.5523 615.3249,749.172 610.8991,752.5761 606.2831,755.1047 600.2397,757.7141 572.33,767.6157 566.9902,770.1667 562.8558,772.8576 560.0542,775.6248 558.3506,778.7975 557.9474,782.0421 558.7208,785.57"/>
    <polyline points="558.4163,787.6943 558.0392,785.759 558.0511,783.7906 559.2017,780.3893 561.7131,777.3694 566.0043,774.3419 570.4155,772.147 576.2262,769.8585 597.2027,763.1402 604.6319,760.4836 610.9322,757.6671 615.7066,754.7744 618.9153,751.9612 621.1659,748.7398 622.2264,745.2999 622.1053,741.3788 621.3026,738.5299 619.9323,735.551 618.0357,732.4796 615.4466,729.0791 608.6446,721.937 599.6794,714.2291 588.0979,705.5786 574.1865,696.2265 557.7001,686.0079 538.9286,675.0988"/>
    <polyline points="542.3631,679.6972 561.1783,690.5656 577.7036,700.7517 591.6449,710.0826 603.2418,718.7263 612.2179,726.4671 618.7601,733.4071 621.3107,736.8266 623.1566,739.9409 624.3307,742.6586 625.0487,745.5225 625.0365,749.1263 623.856,752.5289 621.4829,755.6659 617.6308,758.7414 612.7331,761.4278 606.0335,764.1641 577.0757,772.9807 571.201,775.1162 566.7078,777.1575 562.2587,779.9503 559.4848,782.7434 557.9316,785.987 557.8237,789.5814"/>
    <polyline points="556.9128,791.4028 557.487,788.1814 559.3926,785.1275 562.6287,782.3437 567.5174,779.6378 572.395,777.653 578.3339,775.6945 607.8102,767.4366 614.5913,764.8998 619.8818,762.2506 623.878,759.3597 626.4484,756.3787 627.8679,753.0669 628.0844,749.4733 627.5643,746.8967 626.3509,743.8418 624.5434,740.7114 622.2064,737.5205 615.7069,730.5539 606.7437,722.8097 595.3902,714.3484 581.4354,705.0167 564.9009,694.8427 546.0746,683.9897"/>
    <polyline points="550.0519,688.0012 569.1418,699.0384 585.3871,709.0651 599.3342,718.4213 610.6616,726.9069 619.5721,734.6843 625.7995,741.4836 628.0813,744.6995 629.6698,747.5711 630.7263,750.3425 631.2317,753.2489 630.8032,756.8254 629.158,760.0286 626.1572,763.0592 622.0078,765.7237 616.6147,768.1729 609.7671,770.5219 579.4912,778.321 568.2496,782.046 563.2182,784.484 559.4665,787.1473 556.9423,790.1626 555.8108,793.2336"/>
    <polyline points="550.0976,799.6611 553.309,796.8488 557.5183,794.2792 562.9269,791.8665 569.1616,789.752 582.5698,786.411 615.174,779.94 622.5025,778.0488 628.4364,776.0731 633.8069,773.5931 637.5783,770.9554 640.0991,767.938 641.2762,764.5416 641.2843,761.9181 640.6985,759.3534 639.4008,756.3393 637.5088,753.247 631.8028,746.4445 623.5931,738.8623 612.718,730.3449 598.9382,720.7447 582.5874,710.2986 563.3629,698.8034"/>
    <polyline points="568.1706,702.3103 587.3111,713.9447 603.5886,724.515 617.0162,734.0199 627.8337,742.63 635.9727,750.3018 639.0156,753.7511 641.5612,757.1901 643.3664,760.3284 644.4493,763.0726 644.951,765.658 644.8252,768.2779 643.4733,771.6089 640.8214,774.516 636.6852,777.1898 630.9322,779.6298 624.6352,781.5498 616.9487,783.3647 583.2771,789.5188 569.1617,792.7373 562.2344,794.8511 556.413,797.1307 551.4437,799.6949 547.6704,802.3261"/>
    <polyline points="545.0978,805.2869 549.6622,802.6871 555.0741,800.3029 561.5977,798.0505 568.8875,796.0472 584.0053,792.887 618.6841,787.0344 626.714,785.2945 633.0469,783.5382 639.1873,781.2013 643.74,778.5924 646.8191,775.6482 648.4297,772.4377 648.7586,769.8387 648.4195,767.2403 647.459,764.4464 645.9276,761.5395 643.6962,758.2963 640.7472,754.7593 632.769,746.9533 622.0835,738.2223 608.7698,728.5923 592.5997,717.8837 573.3092,705.9396"/>
    <polyline points="578.5029,709.7791 597.7202,721.8786 613.8192,732.7308 627.0549,742.4983 637.4073,751.1563 645.065,758.8542 647.9514,762.4377 650.1107,765.7338 651.5532,768.6958 652.3882,771.5321 652.5688,774.15 652.0505,776.72 651.191,778.4931 650.004,780.068 646.7351,782.8046 641.7752,785.3758 635.249,787.6396 628.5502,789.3402 620.4823,790.9519 584.3927,796.598 568.5584,799.6346 560.5732,801.6191 553.6528,803.7437 547.8111,805.9677 542.4692,808.5173"/>
    <polyline points="539.8806,811.9642 545.6632,809.6016 552.2167,807.4196 567.8614,803.552 584.3826,800.6408 621.8225,795.21 637.2796,792.0177 644.1796,789.8361 649.5413,787.337 653.471,784.3772 655.7137,781.1573 656.4176,778.6314 656.4096,776.007 655.7201,773.1329 654.3912,770.1265 652.32,766.7722 649.7183,763.3867 642.4368,755.7813 632.2195,746.9978 619.0852,737.1014 603.0759,726.1206 583.9469,713.8883"/>
    <polyline points="589.6453,718.2934 608.7032,730.6561 624.6186,741.7634 637.3924,751.5946 647.4925,760.5265 654.5968,768.2937 657.0795,771.7742 658.979,775.2304 660.0832,778.3233 660.4676,780.9218 660.2265,783.5334 659.2797,785.9792 656.5561,789.2476 652.4656,791.9885 646.4119,794.5592 638.8262,796.7371 622.3386,799.8411 583.8547,804.992 566.9638,807.7142 550.5821,811.3414 537.4292,815.5531"/>
    <polyline points="535.2081,819.1958 549.154,815.3306 565.6187,812.0923 582.8747,809.568 622.7201,804.6746 640.5503,801.5819 648.8149,799.3811 655.2411,796.8614 659.9909,793.927 661.6727,792.3564 663.0587,790.5217 664.1149,788.1205 664.49,785.5235 664.2296,782.9111 663.2443,779.7758 661.6137,776.5487 659.2359,772.9955 652.2892,765.0976 642.5493,756.2561 629.8592,746.2994 614.2945,735.2753 595.5796,722.9857"/>
    <polyline points="601.7073,727.924 620.0753,740.1176 635.5537,751.2512 648.11,761.3361 657.4542,770.1205 660.9735,774.0341 663.9774,777.9408 666.0615,781.2919 667.5628,784.5773 668.3328,787.4317 668.479,790.3776 667.9336,792.944 666.5579,795.5528 665.0577,797.2938 663.0422,798.9834 657.8952,801.8813 650.7866,804.4508 641.523,806.7098 622.3605,809.7317 581.1755,814.3106 563.8933,816.5745 547.3686,819.4371 533.299,822.7977"/>
    <polyline points="531.7667,826.2645 545.2985,823.5176 561.5567,821.0767 578.8716,819.0902 621.4152,814.9022 642.2465,811.9361 652.5117,809.64 660.3038,807.0412 666.1321,804.0112 668.2236,802.4168 670.0482,800.5277 671.5981,798.0175 672.3584,795.5063 672.4581,792.5595 671.889,789.6613 670.5645,786.3014 668.6156,782.8739 665.9291,779.138 662.2906,774.8917 653.0788,765.9776 641.1327,756.1855 625.9985,745.1326 607.9643,733.0376"/>
    <polyline points="614.2712,738.2331 631.9748,750.2346 646.7597,761.2146 658.5819,771.1659 667.3716,780.0398 670.4825,783.866 673.0628,787.6763 674.8825,791.1737 676.0401,794.5913 676.4321,797.5192 676.1338,800.4573 675.0654,803.2072 673.341,805.6042 671.1723,807.6119 668.7305,809.2838 662.1928,812.3596 653.3819,815.0161 642.4219,817.2217 632.0042,818.7232 619.5825,820.0919 558.3128,825.4406 543.3022,827.3259 530.6524,829.4326"/>
    <polyline points="529.9701,832.3757 554.4588,829.5785 616.7603,825.2246 630.5081,823.9467 641.9227,822.5131 654.21,820.2972 663.7203,817.6929 671.259,814.4557 674.0409,812.7082 676.3123,810.8178 678.4053,808.2905 679.6901,805.6355 680.2535,802.7414 680.1104,799.7939 679.1872,796.3008 677.5501,792.7173 675.12,788.8174 672.1211,784.9063 663.7459,776.1002 652.3144,766.2109 637.8968,755.3055 620.541,743.4008"/>
    <polyline points="626.6878,748.4234 643.703,760.2528 657.7561,771.1037 668.7949,780.9483 673.1348,785.4399 676.7504,789.6991 679.6243,793.7024 681.8909,797.7074 683.3226,801.381 683.9566,804.6005 683.8685,807.8772 683.051,810.7126 681.5736,813.269 679.357,815.6889 676.7554,817.6933 673.6304,819.5103 665.3908,822.7904 654.8714,825.4345 641.5637,827.5845 629.7965,828.8707 616.0292,829.9452 554.9442,832.9939 529.7054,834.9701"/>
    <polyline points="529.816,837.1851 550.5133,836.2377 610.0209,834.5808 626.441,833.6678 640.5283,832.4214 655.1804,830.3477 666.718,827.7108 675.6649,824.4318 679.1415,822.5743 682.0958,820.4871 684.4439,818.1902 686.272,815.4669 687.2918,812.6964 687.6304,809.4329 687.2178,806.1765 685.9923,802.4343 684.0632,798.621 681.3411,794.5036 677.8498,790.1411 673.6112,785.5552 662.9724,775.7552 649.295,764.9514 632.6335,753.1839"/>
    <polyline points="638.3128,757.576 654.8567,769.4914 668.1256,780.2706 678.3314,790.044 682.4453,794.7358 685.6016,798.9428 688.168,803.1577 689.9099,807.0571 690.9028,810.8638 691.0763,814.1431 690.4886,817.3684 689.2841,820.0641 687.324,822.6944 684.3826,825.3176 681.0634,827.4397 677.2189,829.3087 672.6075,831.0467 667.243,832.621 654.3561,835.2197 638.6868,837.0822 622.2848,838.1676 602.8969,838.7741 530.2373,839.0163"/>
    <polyline points="530.8923,840.4841 572.6535,841.8808 596.6673,842.3397 618.7111,842.1812 637.4446,841.3272 654.1379,839.6538 668.0516,837.1243 673.7696,835.578 679.0446,833.7216 683.2256,831.8004 686.8819,829.582 689.9073,827.0536 692.1826,824.25 693.6269,821.3023 694.3264,818.0959 694.2428,814.4875 693.4363,810.9657 691.8244,807.0067 689.5556,802.9988 686.5182,798.6974 682.7284,794.1501 672.7126,784.1747 659.8383,773.415 643.6739,761.5138"/>
    <polyline points="648.6744,764.9434 664.4318,776.839 677.1339,787.7953 682.518,793.1069 686.9319,797.9898 690.5895,802.649 693.4684,807.0545 695.5544,811.1562 696.9431,815.1913 697.5156,818.7622 697.3339,822.3677 696.4086,825.5164 694.6027,828.6425 692.17,831.3128 688.7763,833.9101 684.7572,836.1535 679.9063,838.189 674.2648,839.9849 668.192,841.4628 653.2488,843.8405 635.5421,845.2478 614.8214,845.7328 591.1375,845.3036 564.5199,843.9926 531.7062,841.6335"/>
    <polyline points="532.6272,842.5319 560.4061,845.6536 587.2905,847.7876 611.9353,848.8278 633.9698,848.7568 652.6791,847.6035 668.3056,845.4019 675.0435,843.8936 681.0305,842.1098 686.2294,840.0554 690.5918,837.754 694.0667,835.2688 696.8409,832.4732 698.8114,829.4465 700.0281,826.0497 700.4063,822.461 700.0283,818.8671 698.8361,814.7686 696.9215,810.5871 694.1972,806.0873 690.6765,801.3261 686.3838,796.3382 681.3464,791.1459 668.8534,779.9638 653.2702,767.854"/>
    <polyline points="657.4127,770.281 672.562,782.4069 684.8581,793.7976 689.7894,799.0922 693.9651,804.1771 697.358,809.0275 699.9446,813.6047 701.7159,817.8463 702.7571,821.9892 702.9885,825.9205 702.4212,829.4844 701.0578,832.8257 698.9998,835.7923 696.1784,838.5434 692.4044,841.1705 687.7197,843.5583 682.1864,845.6554 675.8583,847.4464 668.7771,848.9308 660.977,850.1131 652.144,851.0269 632.7661,851.9068 609.752,851.5494 584.8136,849.9246 558.6611,847.0839 533.6339,843.2628"/>
    <polyline points="534.7118,843.7147 557.6228,848.1612 582.6984,851.6445 607.5872,853.8602 630.9136,854.6924 651.2892,854.1292 660.4609,853.3326 668.6061,852.235 676.0306,850.8098 682.708,849.0495 688.5902,846.9514 693.6207,844.5234 697.4697,842.0051 700.6328,839.1407 702.9949,835.9892 704.4952,832.7069 705.2434,829.1765 705.2235,825.238 704.3935,821.053 702.6756,816.4307 700.2345,811.7792 696.9788,806.8405 692.9301,801.6577 688.1145,796.257 676.029,784.6406 661.0701,772.2885"/>
    <polyline points="664.2366,773.9582 679.2444,786.7495 685.6624,792.8848 691.1042,798.5974 695.7943,804.1025 699.7082,809.3825 702.8199,814.4077 705.1116,819.1353 706.5838,823.4948 707.3123,827.6992 707.2557,831.6342 706.3598,835.4671 704.6181,838.9956 702.1722,842.0841 698.9667,844.8984 694.8116,847.5441 689.7568,849.9188 683.5457,852.0717 676.5375,853.8435 668.7757,855.2454 660.2931,856.2872 650.7864,856.9927 630.0857,857.2836 606.4534,856.0644 581.6213,853.3572 557.3019,849.3407 546.0495,846.9506 535.8473,844.3972"/>
    <polyline points="537.0284,845.2117 546.8308,848.0077 557.3793,850.5581 568.9783,852.9393 580.9717,855.009 605.4393,858.121 617.5682,859.1151 629.3931,859.7049 640.2451,859.8761 650.7671,859.6467 660.2865,859.0331 669.1105,858.0309 677.2091,856.6312 684.2384,854.9085 690.4719,852.8151 695.8527,850.3579 700.0463,847.7633 703.5473,844.7807 706.2278,841.4599 708.0061,837.9455 708.9755,834.1292 709.1339,830.1891 708.5264,825.9665 707.0622,821.2586 704.7095,816.192 701.6687,811.1174 697.8322,805.7749 693.2219,800.1959 687.8604,794.4003 681.5275,788.1736 666.9333,775.3861"/>
    <polyline points="669.2086,776.6781 683.8668,789.8817 690.1019,796.2074 695.3639,802.0898 699.8721,807.7477 703.6051,813.1596 706.5429,818.2915 708.792,823.4061 710.1622,828.14 710.6971,832.3721 710.4403,836.6341 709.3882,840.4281 707.5632,843.918 704.8653,847.2241 701.3655,850.2073 696.8917,852.9675 691.5044,855.4097 684.951,857.5838 677.5972,859.3372 669.4864,860.6821 660.661,861.6268 650.8125,862.1885 640.2911,862.3285 629.4431,862.058 617.9544,861.3735 605.8396,860.2514 593.4404,858.7018 581.4211,856.8153 569.4692,854.545 558.2411,852.0105 547.7553,849.2188 538.3503,846.2557"/>
    <polyline points="539.5851,847.5355 548.9228,850.6932 559.0365,853.5838 570.2186,856.2955 581.8105,858.6653 593.8017,860.6997 605.8523,862.3419 617.9506,863.5866 629.7568,864.3917 640.5985,864.7397 651.1167,864.6674 660.9648,864.1642 670.1198,863.2282 678.2291,861.9132 685.59,860.1876 692.149,858.0472 697.8444,855.4936 702.3263,852.7495 705.8474,849.7955 708.5941,846.5288 710.6253,842.7797 711.7293,838.9992 712.0696,834.7497 711.5704,830.1788 710.2686,825.4317 708.0994,820.2793 705.2461,815.1028 701.6027,809.6367 696.9752,803.6594 691.789,797.7142 685.6341,791.3153 671.1356,777.9456"/>
    <polyline points="672.8083,779.4182 687.1803,792.9287 693.2718,799.39 698.6054,805.6455 703.1539,811.6813 706.7227,817.196 709.507,822.418 711.6043,827.5978 712.8464,832.3607 713.3014,836.9387 712.9401,841.1875 711.7148,845.2742 709.6482,849.0054 706.8899,852.2624 703.3671,855.2194 698.8907,857.974 693.203,860.5436 686.6476,862.7017 679.2897,864.4412 670.8519,865.8075 661.6947,866.7256 651.8441,867.2039 641.3239,867.2424 630.4818,866.8511 618.6775,865.9887 606.5847,864.6734 594.544,862.948 582.5672,860.8163 570.9948,858.3362 560.1603,855.5885 550.0781,852.5815 540.7812,849.301"/>
    <polyline points="542.0462,851.5126 551.3167,854.8589 561.3754,857.9337 572.1896,860.7466 583.7454,863.2873 595.7092,865.4716 607.7401,867.2397 619.4985,868.557 631.2968,869.4537 642.4636,869.8746 652.9806,869.838 662.8284,869.3526 671.983,868.4189 680.4125,867.0304 687.7616,865.2641 694.3044,863.0764 699.9795,860.476 704.4401,857.6986 708.1804,854.4963 710.8891,851.2006 712.9114,847.4454 714.1104,843.3536 714.4723,839.1033 714.043,834.5278 712.8423,829.7491 710.8041,824.5544 707.9145,819.0136 704.3896,813.4721 699.895,807.4011 694.6189,801.1016 688.5865,794.589 674.3341,780.9586"/>
    <polyline points="675.823,782.7791 690.213,796.7587 696.1867,803.3283 701.4017,809.6798 705.8331,815.7969 709.3043,821.3874 712.13,826.9587 714.1104,832.1771 715.3146,837.2975 715.6517,841.8814 715.2089,846.1272 713.9456,850.2024 711.8831,853.9383 708.9222,857.4551 705.4086,860.4209 700.9492,863.205 695.2776,865.8199 688.7386,868.0257 681.389,869.8113 672.9575,871.2173 663.801,872.1643 653.9493,872.658 643.427,872.6968 632.5834,872.2899 620.78,871.3934 609.0167,870.0681 596.9817,868.2841 585.0171,866.0777 573.4605,863.5101 562.6495,860.6695 552.5923,857.5688 543.3229,854.2054"/>
    <polyline points="544.6337,857.3936 553.9126,860.7308 564.2897,863.9086 575.1052,866.731 586.6651,869.2833 598.3073,871.42 610.3432,873.1967 622.1075,874.5105 633.5836,875.3717 644.4268,875.7698 654.9478,875.7178 664.7987,875.207 673.9545,874.2395 682.3829,872.8104 689.7224,871.003 696.2577,868.7737 701.9176,866.1415 706.3702,863.3458 710.1142,860.1428 713.034,856.5924 715.0605,852.8372 716.2997,848.7538 716.7347,844.5086 716.4054,839.9213 715.2244,834.8005 713.272,829.5659 710.4835,823.9811 706.8655,818.0931 702.4547,811.9603 697.2648,805.5892 691.3181,798.9958 676.9857,784.9577"/>
    <polyline points="678.689,787.5025 692.9432,801.6101 698.8495,808.2345 703.9982,814.6334 708.371,820.7949 711.9487,826.7017 714.7006,832.2994 716.6251,837.5456 717.7863,842.6666 718.1123,847.2543 717.6275,851.8215 716.3606,855.8951 714.3253,859.644 711.4124,863.1975 707.6844,866.4157 703.2504,869.2366 697.6073,871.905 691.0902,874.1735 683.762,876.023 675.3457,877.495 666.1985,878.504 656.6815,879.0436 646.1644,879.1472 635.3234,878.7953 623.8481,877.9772 612.0838,876.7034 600.047,874.9649 588.4024,872.8646 576.8386,870.3514 566.0159,867.5725 555.6262,864.4502 546.018,861.0683"/>
    <polyline points="547.5137,865.1969 557.1499,868.5047 567.5568,871.5699 578.7148,874.3777 590.2912,876.8376 602.2719,878.9392 613.9932,880.5752 625.7644,881.7967 637.2457,882.5597 648.0903,882.8543 658.2801,882.7011 667.7946,882.114 676.9368,881.0542 685.3446,879.5303 692.6641,877.6299 699.1623,875.3143 704.7875,872.601 709.2006,869.7462 712.9078,866.5027 715.8052,862.9357 717.8367,859.183 719.114,855.1128 719.6258,850.5466 719.2887,845.6304 718.1264,840.5088 716.2112,835.2577 713.4754,829.6513 709.9177,823.7313 705.5666,817.5532 700.4396,811.1347 694.5542,804.4887 680.5824,790.56"/>
    <polyline points="682.6608,794.0807 696.5928,808.0712 702.4492,814.7492 707.5404,821.1992 711.8561,827.419 715.3633,833.3678 718.0465,839.01 719.8997,844.2842 720.9942,849.4279 721.2688,854.0196 720.7529,858.59 719.485,862.6669 717.2916,866.708 714.3763,870.2669 710.6641,873.5118 706.2532,876.3784 700.6388,879.1125 694.1424,881.4611 686.831,883.3975 678.4227,884.9637 669.604,886.0366 660.0864,886.6821 649.8904,886.8918 639.0362,886.6517 627.5445,885.9413 616.0858,884.808 604.3476,883.2306 592.3473,881.1881 580.7498,878.7883 569.5663,876.0452 559.1296,873.0539 549.1449,869.7253"/>
    <polyline points="550.9162,874.58 560.9267,877.8365 571.699,880.8535 582.8996,883.5347 594.5103,885.8762 606.1963,887.8121 617.9422,889.3423 629.7356,890.4516 640.9048,891.0839 651.7607,891.269 661.9569,891.0026 671.4729,890.2987 680.2838,889.1666 688.3585,887.613 695.6653,885.6429 702.1511,883.2694 707.7625,880.5181 712.1718,877.6484 715.8922,874.4128 718.8313,870.8739 721.0718,866.8581 722.4035,862.799 722.9988,858.2394 722.7631,853.3169 721.7027,848.1625 719.8854,842.879 717.2342,837.2167 713.7592,831.2514 709.6657,825.2774 704.6104,818.7939 698.7867,812.0892 692.2106,805.1711 684.9,798.0496"/>
    <polyline points="687.2714,802.4283 694.5613,809.5634 701.1095,816.4984 706.8967,823.2226 711.7201,829.4702 715.7818,835.4587 719.2177,841.4384 721.8271,847.119 723.5977,852.4136 724.6084,857.5742 724.8107,862.1686 724.2375,866.7284 722.8112,871.0981 720.565,875.1089 717.6351,878.6521 713.9331,881.9043 709.5461,884.8022 703.6586,887.7241 697.1831,890.1186 689.8918,892.1177 681.8256,893.7082 673.0262,894.8802 663.5206,895.6261 653.3318,895.9352 642.8102,895.803 631.6447,895.2226 620.1814,894.1982 608.4358,892.7246 596.7485,890.8418 585.1344,888.5522 573.9288,885.9242 563.1471,882.9662 552.8096,879.6729"/>
    <polyline points="554.7866,884.907 565.1302,888.1683 575.9138,891.1005 587.1198,893.7033 598.4112,895.9073 610.097,897.768 621.5144,899.1785 632.9753,900.1802 644.1374,900.7327 654.655,900.8337 664.8383,900.4906 674.3371,899.7108 683.129,898.5071 691.1862,896.8902 698.4682,894.873 704.9397,892.4716 710.8275,889.5602 715.4924,886.4887 719.1961,883.2415 722.1442,879.7154 724.4316,875.7295 725.9222,871.3838 726.5743,866.8361 726.4519,862.2387 725.5242,857.0686 723.825,851.7504 721.28,846.0466 717.8956,840.0385 713.8748,834.0267 709.0836,827.7586 703.3213,821.0174 697.0214,814.3065 689.7509,807.1567"/>
    <polyline points="556.0046,760.8396 552.7255,752.9447 551.8085,749.4491 551.2812,745.8805 551.2161,742.5909 551.611,739.3324 552.3873,736.479 553.7035,733.4702 557.2898,728.3735 562.3327,723.6699 568.5085,719.31 584.163,709.6175 588.0879,706.6351 590.9354,703.9063 593.6338,700.1913 595.0709,696.5301 595.4641,692.6191 594.7151,688.091 593.5963,685.0016 591.9818,681.7612 587.3974,674.9604 580.7042,667.2734 571.9594,658.8096 560.981,649.4052 548.0343,639.2764 532.8928,628.226 515.2992,616.0782"/>
    <polyline points="513.0808,610.227 530.3014,622.3607 545.3459,633.5564 558.2033,643.8107 568.8591,653.1057 577.304,661.3982 583.9606,669.1184 588.5394,675.9455 590.1529,679.1767 591.2857,682.2623 592.0805,686.7835 591.7533,690.7079 590.391,694.3989 587.9802,697.9198 585.2134,700.7309 581.6252,703.6158 566.4966,713.5371 560.7152,717.8844 555.8358,722.7627 552.4541,728.0 551.2522,731.0579 550.5146,734.2619 550.2417,737.5343 550.4288,741.1463 551.1224,745.0275 552.2229,748.814 555.9158,757.2536"/>
    <polyline points="555.968,753.5657 551.7993,744.6244 550.4814,740.5669 549.6338,736.7139 549.2541,733.1188 549.3364,729.5093 549.9464,725.9497 550.9808,722.831 552.2804,720.1761 554.0797,717.427 558.7444,712.3518 564.3847,707.8291 578.9791,697.7231 582.2321,694.955 584.911,692.0623 587.1812,688.4532 588.3751,684.7056 588.5398,680.7782 587.7095,676.589 584.9326,670.292 580.3542,663.4618 573.7355,655.7346 565.3361,647.404 554.7418,638.0499 542.2193,627.9176 527.5346,616.8071 510.6928,604.7257"/>
    <polyline points="514.4739,601.7502 479.1754,587.0317 478.9452,586.814 479.1794,586.6325 480.455,586.2969 480.9413,585.8688 481.0061,585.2246 480.6095,584.3221 478.2071,581.6262 473.9189,578.0444 457.9795,566.9506 433.056,551.384"/>
    <polyline points="433.4669,551.8133 460.7082,569.6436 470.3634,576.5078 477.5916,582.1517 481.965,586.1561 484.3612,589.2545 484.6949,590.1799 484.6092,591.1424 482.5968,592.7565 482.8109,593.3307 483.5752,593.9498 492.8941,598.7775 519.1864,610.8977"/>
    <polyline points="508.0969,599.6449 524.595,611.6787 538.9502,622.7101 551.4117,632.9421 561.7107,642.1565 570.0726,650.543 576.4643,658.0558 581.0478,664.8758 583.8734,671.1716 584.7592,675.3472 584.6703,679.2831 583.5569,683.0597 581.5536,686.4533 579.1903,689.1913 576.0203,692.063 562.1956,702.1459 556.6818,706.832 552.2208,712.0946 550.5598,714.9326 549.4043,717.6578 548.5421,720.8298 548.1145,724.419 548.1914,728.0412 548.7627,731.9385 549.8461,736.0833 551.4212,740.4021 556.1423,749.8189"/>
  </g>
</svg>
