<?xml version="1.0" encoding="utf-8" ?>
<svg xmlns="http://www.w3.org/2000/svg" xmlns:cc="http://creativecommons.org/ns#" xmlns:dc="http://purl.org/dc/elements/1.1/" xmlns:ev="http://www.w3.org/2001/xml-events" xmlns:inkscape="http://www.inkscape.org/namespaces/inkscape" xmlns:rdf="http://www.w3.org/1999/02/22-rdf-syntax-ns#" xmlns:sodipodi="http://sodipodi.sourceforge.net/DTD/sodipodi-0.dtd" xmlns:xlink="http://www.w3.org/1999/xlink" baseProfile="tiny" height="21.0cm" version="1.2" viewBox="0 0 1122.5196850393702 793.7007874015749" width="29.7cm">
  <metadata>
    <rdf:RDF>
      <cc:Work>
        <dc:format>image/svg+xml</dc:format>
        <dc:source/>
        <dc:date>2021-02-08T22:26:53.413939</dc:date>
      </cc:Work>
    </rdf:RDF>
  </metadata>
  <defs/>
  <g fill="none" id="layer1" inkscape:groupmode="layer" inkscape:label="1" stroke="#00f" style="display:inline">
    <polygon points="98.2677,88.821 249.4488,88.821 249.4488,240.0021 98.2677,240.0021"/>
    <polygon points="362.8346,88.821 514.0157,88.821 514.0157,240.0021 362.8346,240.0021"/>
    <polygon points="453.1606,317.0428 460.4866,318.8836 467.2433,321.3015 474.074,324.5266 480.2343,328.2076 486.3108,332.6948 491.9092,337.766 496.7337,343.0786 501.2436,349.1382 504.9476,355.2848 508.1983,362.1033 510.7523,369.2122 512.584,376.5404 513.6751,384.0149 514.0157,391.1832 513.6751,398.3514 512.584,405.8259 510.7523,413.1542 508.1983,420.2631 504.9476,427.0816 501.2436,433.2281 496.7337,439.2878 491.9092,444.6004 486.3108,449.6716 480.5486,453.949 474.4067,457.6607 467.5923,460.9199 460.4866,463.4827 453.1606,465.3236 446.0635,466.3868 438.5197,466.7737 430.9749,466.4057 423.5045,465.2865 416.1832,463.4274 409.4325,460.9926 402.9431,457.9286 396.4588,454.0541 390.3935,449.5517 385.0749,444.7339 379.9967,439.1419 375.712,433.385 371.8132,426.9152 368.5796,420.0886 366.0434,412.9734 364.3033,406.0112 363.1934,398.5395 362.8349,391.3721 363.1934,383.8269 364.2301,376.7258 366.0434,369.393 368.5796,362.2777 371.8132,355.4512 375.5019,349.2954 379.9967,343.2245 384.8079,337.8998 390.3935,332.8146 396.1451,328.5228 402.61,324.6159 409.0839,321.5195 416.1832,318.939 423.5045,317.0798 430.9749,315.9607 438.1418,315.5932 445.6875,315.9423"/>
    <polygon points="476.2205,599.0572 438.4252,599.0572 438.4252,636.8525 476.2205,636.8525"/>
    <polygon points="419.5276,704.884 457.3228,674.6477 510.2362,693.5454 514.0157,542.3643 343.937,580.1596"/>
    <polygon points="608.299,579.2372 778.3777,541.4419 779.1831,541.6347 779.5273,542.3879 775.5527,694.1207 774.4854,694.4352 722.0684,675.7149 684.6848,705.6218 684.0893,705.8288 683.4961,705.6152 607.5637,580.0752"/>
    <polygon points="700.1575,599.0572 700.8704,597.1775 701.9869,596.4068 702.9921,596.2225 740.7874,596.2225 742.6671,596.9354 743.4378,598.052 743.622,599.0572 743.622,636.8525 742.9092,638.7322 741.7926,639.5029 740.7874,639.6871 702.9921,639.6871 701.1124,638.9742 700.3417,637.8576 700.1575,636.8525"/>
    <polygon points="737.9528,601.8918 705.8268,601.8918 705.8268,634.0178 737.9528,634.0178"/>
    <polygon points="739.8425,635.9076 739.8425,600.0021 703.937,600.0021 703.937,635.9076"/>
    <polygon points="702.4367,637.6169 702.0472,636.8525 702.0472,599.0572 702.4367,598.2928 702.9921,598.1123 741.3428,598.2928 741.7323,599.0572 741.5518,637.4079 740.7874,637.7974"/>
    <polygon points="721.4218,671.852 722.8432,671.9782 772.0673,689.5583 775.6583,545.9179 612.9761,582.0695 684.8451,700.6534 720.119,672.4343"/>
    <polygon points="777.6079,543.5488 609.9947,580.7962 684.3447,703.4738 721.2995,673.9099 721.8933,673.7029 773.8912,692.2164"/>
    <polygon points="781.4164,542.4351 777.6369,693.6162 777.118,695.1814 775.8157,696.193 773.8498,696.2149 722.4257,677.8491 685.8653,707.0975 684.2853,707.7122 682.637,707.3152 681.6703,706.3532 606.0798,581.6288 605.6743,580.0431 606.2706,578.4139 607.889,577.3924 777.9678,539.5971 778.9901,539.5591 780.2483,540.0706 781.1241,541.1087"/>
    <polygon points="768.1702,434.7989 763.4917,441.0862 758.4767,446.6085 752.679,451.8604 746.6893,456.3067 739.984,460.336 732.8975,463.6827 725.874,466.196 718.2871,468.1025 710.9098,469.2077 703.083,469.6083 695.2554,469.2258 687.5189,468.0668 680.2842,466.2489 672.9188,463.6132 666.1732,460.4282 659.4579,456.4157 653.1647,451.7451 647.6362,446.737 642.368,440.9348 637.7131,434.6477 633.8789,428.2489 630.53,421.1791 627.8981,413.7973 626.0892,406.5603 624.9399,398.8224 624.5672,391.3721 624.9385,383.5581 626.016,376.1767 627.8981,368.5691 630.5246,361.2003 633.7011,354.4509 637.7131,347.7187 642.368,341.4315 647.3692,335.8967 653.1538,330.6303 659.4461,325.9585 665.8401,322.1163 672.9057,318.7586 679.9228,316.2277 687.5189,314.2996 695.2695,313.1391 703.083,312.758 710.5338,313.1214 718.2732,314.2611 725.5124,316.061 732.8975,318.6837 739.9715,322.0237 746.6893,326.0597 752.679,330.5059 758.4767,335.7578 763.4917,341.2801 768.1623,347.5557 772.0125,353.9448 775.3845,361.0193 778.0335,368.395 779.9305,375.9844 781.0264,383.363 781.4169,391.1832 781.0264,399.0033 779.9305,406.382 778.0335,413.9713 775.3845,421.347 772.1911,428.0886"/>
    <polygon points="775.3848,383.9218 774.2986,376.7329 772.5004,369.6884 770.1488,363.1938 767.02,356.631 763.4549,350.7149 759.3448,345.1636 754.4704,339.7691 749.3629,335.1192 743.5359,330.7711 737.3041,327.0262 730.7296,323.9221 724.2262,321.5949 717.175,319.823 710.344,318.7997 703.083,318.4273 696.1832,318.7466 688.9877,319.7878 682.2804,321.4376 675.4229,323.853 668.8407,326.9407 662.5995,330.6699 657.043,334.7731 651.6425,339.6406 646.7547,345.0229 642.4284,350.8662 638.707,357.112 635.7657,363.3617 633.3247,370.2101 631.6498,376.9112 630.5816,384.1027 630.2365,391.0013 630.5471,397.9016 631.5793,405.0984 633.2207,411.8077 635.6275,418.6683 638.707,425.2543 642.4284,431.5002 646.7547,437.3434 651.3855,442.4684 656.7616,447.3629 662.2975,451.4938 668.2001,455.081 674.7512,458.2344 681.5842,460.7182 688.631,462.5076 695.4594,463.5481 702.7194,463.9386 709.9821,463.6025 717.175,462.5433 724.2262,460.7715 730.7296,458.4443 737.3041,455.3401 743.5359,451.5953 749.3629,447.2472 754.4704,442.5972 759.114,437.4838 763.4549,431.6514 767.1919,425.4149 770.2878,418.8365 772.7118,411.9821 774.3699,405.2768 775.4201,398.0826 775.748,391.1832"/>
    <polygon points="750.2792,333.4259 744.589,329.2019 738.5239,325.5366 731.7946,322.3181 725.1344,319.8972 717.9091,318.0432 710.5349,316.9196 703.0854,316.5376 696.0064,316.8651 688.6239,317.9334 681.385,319.7331 674.7068,322.1041 668.2835,325.0977 661.8612,328.8918 655.8495,333.3079 650.3087,338.3019 645.2939,343.824 640.8554,349.819 637.2128,355.8978 634.0196,362.6391 631.6236,369.3084 629.7967,376.5405 628.7008,383.9188 628.3467,390.9966 628.6654,398.0761 629.7244,405.4598 631.5151,412.701 634.0196,419.7273 637.0373,426.1393 640.8554,432.5474 645.0579,438.2534 650.045,443.8005 655.5608,448.8221 661.2405,453.0603 667.6246,456.9183 674.0176,459.976 681.0281,462.5243 687.8924,464.2857 695.2637,465.4277 702.7123,465.8283 709.7921,465.5185 717.1772,464.4686 724.4206,462.687 731.45,460.1913 738.1953,457.0065 744.589,453.1644 750.5673,448.7034 755.8076,443.9326 760.8085,438.398 765.2321,432.392 768.8594,426.304 772.0358,419.5548 774.4151,412.8796 776.2239,405.6429 777.2651,398.6332 777.6378,391.1832 777.2651,383.7332 776.2239,376.7235 774.4151,369.4868 772.0358,362.8115 768.8594,356.0623 765.0253,349.6638 760.5718,343.6799 755.8076,338.4337"/>
    <polygon points="751.4782,331.9651 757.143,337.0966 762.031,342.4791 766.5945,348.6107 770.3472,354.8381 773.6383,361.742 776.224,368.9398 778.0774,376.3551 779.1824,383.923 779.5272,391.1832 779.1824,398.4434 778.0774,406.0113 776.2226,413.4311 773.6383,420.6244 770.5258,427.1953 766.5971,433.7517 762.031,439.8872 757.143,445.2697 751.4782,450.4012 745.6401,454.7349 739.0886,458.6718 732.1727,461.9375 725.327,464.3872 717.914,466.2499 710.7235,467.3271 703.0854,467.7186 695.4511,467.3462 687.8873,466.2133 680.8357,464.4414 673.6392,461.8661 667.0645,458.7618 660.5031,454.8413 654.3619,450.2828 648.9733,445.4016 643.8347,439.7432 639.2836,433.5965 635.5464,427.3598 632.2744,420.4521 629.8161,413.6095 627.9441,406.1989 626.8202,398.6338 626.4569,391.3721 626.8198,383.7373 627.87,376.5428 629.7049,369.1229 632.2726,361.9186 635.3686,355.34 639.2836,348.7698 643.8317,342.6268 648.7063,337.2321 654.3582,332.0865 660.4992,327.5277 667.0645,323.6045 673.6392,320.5002 680.8357,317.925 688.2579,316.0794 695.4511,315.0202 703.0854,314.6478 710.3475,315.002 717.9094,316.1156 725.327,317.9792 732.1727,320.4289 739.0844,323.6923 745.6401,327.6315"/>
    <polygon points="780.7044,241.8818 779.9,242.512 778.5827,242.8367 627.4016,242.8367 625.5219,242.1238 624.7511,241.0073 624.5669,240.0021 624.5669,88.821 624.7511,87.8158 625.5219,86.6992 627.4016,85.9863 778.5827,85.9863 780.4624,86.6992 781.2331,87.8158 781.4173,88.821 781.4173,240.0021"/>
    <polygon points="775.748,91.6556 630.2362,91.6556 630.2362,237.1674 775.748,237.1674"/>
    <polygon points="777.6378,89.7659 628.3465,89.7659 628.3465,239.0572 777.6378,239.0572"/>
    <polygon points="779.1381,88.0565 779.5276,88.821 779.3471,240.5575 778.5827,240.947 626.8462,240.7665 626.4567,240.0021 626.4567,88.821 626.8462,88.0565 627.4016,87.8761"/>
    <polygon points="101.4765,369.393 103.8691,362.6272 107.0685,355.7846 110.935,349.2954 115.4297,343.2245 120.241,337.8998 125.5354,333.0554 131.5781,328.5228 138.043,324.6159 144.517,321.5195 151.6162,318.939 158.9376,317.0798 166.408,315.9607 173.5749,315.5932 181.1205,315.9423 188.5937,317.0428 195.9197,318.8836 202.6764,321.3015 209.507,324.5266 215.6674,328.2076 221.451,332.4561 227.0746,337.4993 231.9256,342.7877 236.4657,348.8248 240.3807,355.2848 243.6314,362.1033 246.1853,369.2122 248.017,376.5404 249.1082,384.0149 249.4488,391.1832 249.1082,398.3514 248.017,405.8259 246.2943,412.7924 243.7759,419.914 240.7363,426.4148 236.8861,432.9136 232.4065,438.9957 227.3422,444.6004 221.7439,449.6716 215.9817,453.949 209.507,457.8397 202.6764,461.0648 195.9197,463.4827 188.5937,465.3236 181.4965,466.3868 173.9527,466.7737 166.408,466.4057 158.9376,465.2865 151.6162,463.4274 144.8656,460.9926 138.3762,457.9286 131.8919,454.0541 125.8266,449.5517 120.508,444.7339 115.4297,439.1419 111.1451,433.385 107.4257,427.2477 104.158,420.4374 101.5863,413.3349 99.7363,406.0112 98.6642,398.9154 98.268,391.3721 98.5907,384.203 99.6631,376.7258"/>
    <polygon points="173.8583,599.0572 173.8583,636.8525 211.6535,636.8525 211.6535,599.0572"/>
    <polygon points="192.7559,674.6477 245.6693,693.5454 249.4488,542.3643 79.3701,580.1596 154.9606,704.884"/>
  </g>
  <g fill="none" id="layer2" inkscape:groupmode="layer" inkscape:label="2" stroke="#080" style="display:inline">
    <polyline points="511.1811,92.6005 365.6693,92.6005 365.6693,96.38 511.1811,96.38 511.1811,100.1596 365.6693,100.1596 365.6693,103.9391 511.1811,103.9391 511.1811,107.7186 365.6693,107.7186 365.6693,111.4981 511.1811,111.4981 511.1811,115.2777 365.6693,115.2777 365.6693,119.0572 511.1811,119.0572 511.1811,122.8367 365.6693,122.8367 365.6693,126.6162 511.1811,126.6162 511.1811,130.3958 365.6693,130.3958 365.6693,134.1753 511.1811,134.1753 511.1811,137.9548 365.6693,137.9548 365.6693,141.7344 511.1811,141.7344 511.1811,145.5139 365.6693,145.5139 365.6693,149.2934 511.1811,149.2934 511.1811,153.0729 365.6693,153.0729 365.6693,156.8525 511.1811,156.8525 511.1811,160.632 365.6693,160.632 365.6693,164.4115 511.1811,164.4115 511.1811,168.1911 365.6693,168.1911 365.6693,171.9706 511.1811,171.9706 511.1811,175.7501 365.6693,175.7501 365.6693,179.5296 511.1811,179.5296 511.1811,183.3092 365.6693,183.3092 365.6693,187.0887 511.1811,187.0887 511.1811,190.8682 365.6693,190.8682 365.6693,194.6477 511.1811,194.6477 511.1811,198.4273 365.6693,198.4273 365.6693,202.2068 511.1811,202.2068 511.1811,205.9863 365.6693,205.9863 365.6693,209.7659 511.1811,209.7659 511.1811,213.5454 365.6693,213.5454 365.6693,217.3249 511.1811,217.3249 511.1811,221.1044 365.6693,221.1044 365.6693,224.884 511.1811,224.884 511.1811,228.6635 365.6693,228.6635 365.6693,232.443 511.1811,232.443 511.1811,236.2225 365.6693,236.2225"/>
    <polyline points="450.1125,319.3722 426.7391,319.3722 412.6355,323.1517 464.215,323.1517 472.5584,326.9312 404.2917,326.9312 397.9717,330.7107 478.8786,330.7107 484.0246,334.4903 392.8257,334.4903 388.4896,338.2698 488.361,338.2698 492.0839,342.0493 384.7664,342.0493 381.5359,345.8288 495.3143,345.8288 498.1322,349.6084 378.7181,349.6084 376.2568,353.3879 500.5936,353.3879 502.7394,357.1674 374.1109,357.1674 372.2499,360.947 504.6005,360.947 506.2001,364.7265 370.6501,364.7265 369.2938,368.506 507.5565,368.506 508.6838,372.2855 368.1664,372.2855 367.2576,376.0651 509.5929,376.0651 510.2919,379.8446 366.5584,379.8446 366.0632,383.6241 510.7872,383.6241 511.0826,387.4036 365.7676,387.4036 365.6695,391.1832 511.1811,391.1832 511.0826,394.9627 365.7676,394.9627 366.0632,398.7422 510.7872,398.7422 510.2919,402.5218 366.5584,402.5218 367.2576,406.3013 509.5929,406.3013 508.6838,410.0808 368.1664,410.0808 369.2938,413.8603 507.5565,413.8603 506.2001,417.6399 370.6501,417.6399 372.2499,421.4194 504.6005,421.4194 502.7394,425.1989 374.1109,425.1989 376.2568,428.9785 500.5936,428.9785 498.1322,432.758 378.7181,432.758 381.5359,436.5375 495.3143,436.5375 492.0839,440.317 384.7664,440.317 388.4896,444.0966 488.361,444.0966 484.0246,447.8761 392.8257,447.8761 397.9717,451.6556 478.8786,451.6556 472.5584,455.4351 404.2917,455.4351 412.6355,459.2147 464.215,459.2147 450.1125,462.9942 426.7391,462.9942"/>
    <polygon points="513.041,543.5488 509.3243,692.2164 457.1442,673.5806 419.7778,703.4738 345.4277,580.7962"/>
    <polyline points="511.0885,546.031 510.5827,546.031 510.9941,549.8105 493.5748,549.8105 476.5669,553.59 510.8996,553.59 510.8051,557.3696 459.559,557.3696 442.5512,561.1491 510.7106,561.1491 510.6161,564.9286 425.5433,564.9286 408.5354,568.7081 510.5216,568.7081 510.4271,572.4877 391.5275,572.4877 374.5197,576.2672 510.3326,576.2672 510.2382,580.0467 357.5118,580.0467 349.4739,583.8263 510.1437,583.8263 510.0492,587.6058 351.7645,587.6058 354.0551,591.3853 509.9547,591.3853 509.8602,595.1648 356.3457,595.1648 358.6364,598.9444 435.5906,598.9444 435.5906,602.7239 360.927,602.7239 363.2176,606.5034 435.5906,606.5034 435.5906,610.283 365.5082,610.283 367.7988,614.0625 435.5906,614.0625 435.5906,617.842 370.0895,617.842 372.3801,621.6215 435.5906,621.6215 435.5906,625.4011 374.6707,625.4011 376.9613,629.1806 435.5906,629.1806 435.5906,632.9601 379.252,632.9601 381.5426,636.7396 435.5906,636.7396"/>
    <polyline points="452.9262,674.5349 404.4488,674.5349 406.7394,678.3144 448.2018,678.3144 443.4774,682.094 409.0301,682.094 411.3207,685.8735 438.753,685.8735 434.0286,689.653 413.6113,689.653 415.9019,693.4326 429.3042,693.4326 424.5798,697.2121 418.1925,697.2121"/>
    <polyline points="383.8332,640.5192 508.7263,640.5192 508.6319,644.2987 386.1238,644.2987 388.4144,648.0782 508.5374,648.0782 508.4429,651.8578 390.7051,651.8578 392.9957,655.6373 508.3484,655.6373 508.2539,659.4168 395.2863,659.4168 397.5769,663.1963 508.1594,663.1963 508.0649,666.9759 399.8676,666.9759 402.1582,670.7554 507.9704,670.7554 507.876,674.5349 465.4349,674.5349 476.0176,678.3144 507.7815,678.3144 507.687,682.094 486.6003,682.094 497.183,685.8735 507.5925,685.8735"/>
    <polyline points="479.0551,636.7396 508.8208,636.7396 508.9153,632.9601 479.0551,632.9601 479.0551,629.1806 509.0098,629.1806 509.1043,625.4011 479.0551,625.4011 479.0551,621.6215 509.1988,621.6215 509.2933,617.842 479.0551,617.842 479.0551,614.0625 509.3878,614.0625 509.4822,610.283 479.0551,610.283 479.0551,606.5034 509.5767,606.5034 509.6712,602.7239 479.0551,602.7239 479.0551,598.9444 509.7657,598.9444"/>
    <polygon points="477.1654,637.7974 477.1654,598.1123 437.4803,598.1123 437.4803,637.7974"/>
    <polyline points="683.5783,693.0941 689.7565,693.0941 694.481,689.3146 681.2877,689.3146 678.9971,685.535 699.2054,685.535 703.9298,681.7555 676.7065,681.7555 674.4158,677.976 708.6542,677.976 713.3786,674.1964 672.1252,674.1964 669.8346,670.4169 769.7103,670.4169 769.8048,666.6374 667.544,666.6374 665.2533,662.8579 769.8993,662.8579 769.9938,659.0783 662.9627,659.0783 660.6721,655.2988 770.0883,655.2988 770.1827,651.5193 658.3815,651.5193 656.0908,647.7398 770.2772,647.7398 770.3717,643.9602 653.8002,643.9602 651.5096,640.1807 697.3228,640.1807 697.3228,636.4012 649.219,636.4012 646.9284,632.6216 697.3228,632.6216 697.3228,628.8421 644.6377,628.8421 642.3471,625.0626 697.3228,625.0626 697.3228,621.2831 640.0565,621.2831 637.7659,617.5035 697.3228,617.5035 697.3228,613.724 635.4752,613.724 633.1846,609.9445 697.3228,609.9445 697.3228,606.1649 630.894,606.1649 628.6034,602.3854 697.3228,602.3854 697.3228,598.6059 626.3128,598.6059 624.0221,594.8264 697.3228,594.8264"/>
    <polygon points="699.2126,640.632 744.5669,640.632 744.5669,595.2777 699.2126,595.2777"/>
    <polyline points="746.4567,640.1807 770.4662,640.1807 770.5607,636.4012 746.4567,636.4012 746.4567,632.6216 770.6552,632.6216 770.7497,628.8421 746.4567,628.8421 746.4567,625.0626 770.8442,625.0626 770.9386,621.2831 746.4567,621.2831 746.4567,617.5035 771.0331,617.5035 771.1276,613.724 746.4567,613.724 746.4567,609.9445 771.2221,609.9445 771.3166,606.1649 746.4567,606.1649 746.4567,602.3854 771.4111,602.3854 771.5056,598.6059 746.4567,598.6059 746.4567,594.8264 771.6001,594.8264 771.6946,591.0468 621.7315,591.0468 619.4409,587.2673 771.789,587.2673 771.8835,583.4878 619.6611,583.4878 636.6689,579.7083 771.978,579.7083 772.0725,575.9287 653.6768,575.9287 670.6847,572.1492 772.167,572.1492 772.2615,568.3697 687.6925,568.3697 704.7004,564.5901 772.356,564.5901 772.4505,560.8106 721.7083,560.8106 738.7162,557.0311 772.5449,557.0311 755.724,553.2516 772.6394,553.2516 772.7339,549.472"/>
    <polygon points="736.5415,454.6754 730.3693,457.5707 723.9504,459.8677 716.9908,461.6165 709.8913,462.662 703.0819,462.9941 695.9143,462.6445 689.1696,461.6513 682.2055,459.9199 675.7809,457.639 669.2842,454.5913 663.1241,450.9105 657.362,446.6333 652.3093,442.0563 647.7135,437.0208 643.4146,431.2749 639.8812,425.4445 636.7769,418.9747 634.4398,412.5702 632.6476,405.6216 631.5578,398.5288 631.1813,391.3627 631.4879,384.552 632.5068,377.4487 634.2295,370.4825 636.5024,364.055 639.5419,357.5545 643.215,351.3898 647.258,345.9004 652.0557,340.564 657.362,335.7331 663.1241,331.4558 669.2842,327.775 675.4491,324.8642 681.8622,322.5512 688.8175,320.785 695.9143,319.7218 702.7229,319.3727 709.8913,319.7043 716.9908,320.7498 723.9504,322.4986 730.3693,324.7956 736.8584,327.8595 743.0094,331.5556 748.4835,335.6192 753.8019,340.4369 758.6129,345.7613 762.8685,351.5393 766.5262,357.7132 769.4139,363.8889 771.7028,370.3107 773.4429,377.2726 774.4446,384.0161 774.8031,391.1832 774.4446,398.3503 773.4429,405.0938 771.7028,412.0556 769.2766,418.8091 766.1884,425.2866 762.6696,431.1259 758.3852,436.8825 753.8019,441.9295 748.4835,446.7472 742.7108,451.01"/>
    <polyline points="686.8465,459.2147 719.1373,459.2147 730.572,455.4351 675.4125,455.4351 667.8918,451.6556 738.0928,451.6556 743.9174,447.8761 662.067,447.8761 657.2851,444.0966 748.6991,444.0966 752.7398,440.317 653.2446,440.317 649.7762,436.5375 756.2081,436.5375 759.2103,432.758 646.7738,432.758 644.1663,428.9785 761.8179,428.9785 764.0812,425.1989 641.9029,425.1989 639.9465,421.4194 766.0375,421.4194 767.7146,417.6399 638.2696,417.6399 636.8506,413.8603 769.1338,413.8603 770.311,410.0808 635.6732,410.0808 634.7249,406.3013 771.2592,406.3013 771.9877,402.5218 633.9964,402.5218 633.4808,398.7422 772.5034,398.7422 772.811,394.9627 633.1733,394.9627 633.0711,391.1832 772.9134,391.1832 772.811,387.4036 633.1733,387.4036 633.4808,383.6241 772.5034,383.6241 771.9877,379.8446 633.9964,379.8446 634.7249,376.0651 771.2592,376.0651 770.311,372.2855 635.6732,372.2855 636.8506,368.506 769.1338,368.506 767.7146,364.7265 638.2696,364.7265 639.9465,360.947 766.0375,360.947 764.0812,357.1674 641.9029,357.1674 644.1663,353.3879 761.8179,353.3879 759.2103,349.6084 646.7738,349.6084 649.7762,345.8288 756.2081,345.8288 752.7398,342.0493 653.2446,342.0493 657.2851,338.2698 748.6991,338.2698 743.9174,334.4903 662.067,334.4903 667.8918,330.7107 738.0928,330.7107 730.572,326.9312 675.4125,326.9312 686.8465,323.1517 719.1373,323.1517"/>
    <polyline points="633.0709,232.443 772.9134,232.443 772.9134,228.6635 633.0709,228.6635 633.0709,224.884 772.9134,224.884 772.9134,221.1044 633.0709,221.1044 633.0709,217.3249 772.9134,217.3249 772.9134,213.5454 633.0709,213.5454 633.0709,209.7659 772.9134,209.7659 772.9134,205.9863 633.0709,205.9863 633.0709,202.2068 772.9134,202.2068 772.9134,198.4273 633.0709,198.4273 633.0709,194.6477 772.9134,194.6477 772.9134,190.8682 633.0709,190.8682 633.0709,187.0887 772.9134,187.0887 772.9134,183.3092 633.0709,183.3092 633.0709,179.5296 772.9134,179.5296 772.9134,175.7501 633.0709,175.7501 633.0709,171.9706 772.9134,171.9706 772.9134,168.1911 633.0709,168.1911 633.0709,164.4115 772.9134,164.4115 772.9134,160.632 633.0709,160.632 633.0709,156.8525 772.9134,156.8525 772.9134,153.0729 633.0709,153.0729 633.0709,149.2934 772.9134,149.2934 772.9134,145.5139 633.0709,145.5139 633.0709,141.7344 772.9134,141.7344 772.9134,137.9548 633.0709,137.9548 633.0709,134.1753 772.9134,134.1753 772.9134,130.3958 633.0709,130.3958 633.0709,126.6162 772.9134,126.6162 772.9134,122.8367 633.0709,122.8367 633.0709,119.0572 772.9134,119.0572 772.9134,115.2777 633.0709,115.2777 633.0709,111.4981 772.9134,111.4981 772.9134,107.7186 633.0709,107.7186 633.0709,103.9391 772.9134,103.9391 772.9134,100.1596 633.0709,100.1596 633.0709,96.38 772.9134,96.38"/>
    <polygon points="631.1811,92.6005 774.8031,92.6005 774.8031,236.2225 631.1811,236.2225"/>
    <polygon points="513.0709,89.7659 513.0709,239.0572 363.7795,239.0572 363.7795,89.7659"/>
    <polygon points="473.6283,325.3598 480.0221,329.2019 486.0004,333.6629 491.2406,338.4337 496.2416,343.9683 500.4584,349.6638 504.2925,356.0623 507.3262,362.4668 509.8482,369.4868 511.657,376.7235 512.7345,384.1045 513.0709,391.1832 512.7345,398.2618 511.657,405.6429 509.9557,412.5223 507.4688,419.5548 504.2925,426.304 500.4584,432.7025 496.0048,438.6864 491.2406,443.9326 486.0004,448.7034 480.0221,453.1644 473.9569,456.8297 467.2277,460.0482 460.2108,462.579 452.9764,464.3968 445.968,465.4468 438.5185,465.8288 431.068,465.4654 423.6911,464.3602 416.4612,462.5243 409.7949,460.12 403.3867,457.0943 396.9834,453.2682 390.9939,448.8221 385.7418,444.0645 380.727,438.5424 376.496,432.8575 372.8231,426.7969 369.5962,420.0717 367.0567,413.058 365.3039,406.1916 364.1711,398.8188 363.7798,391.3697 364.1338,383.9188 365.1575,376.9065 366.9482,369.6654 369.3109,362.9842 372.2964,356.5572 376.0824,350.1301 380.491,344.113 385.4781,338.5659 390.9939,333.5442 396.9834,329.0981 403.0576,325.448 409.7949,322.2464 416.8181,319.7331 424.057,317.9334 431.4394,316.8651 438.5185,316.5376 445.5967,316.8828 452.9764,317.9695 459.8537,319.6794 466.8831,322.175"/>
    <polyline points="737.4821,674.1964 769.6158,674.1964 769.5213,677.976 748.0648,677.976 758.6475,681.7555 769.4268,681.7555 769.2302,685.535"/>
    <polygon points="771.1553,688.2293 721.1752,670.3792 685.0953,699.2432 614.4668,582.7062 774.6835,547.1025"/>
  </g>
  <g fill="none" id="layer3" inkscape:groupmode="layer" inkscape:label="3" stroke="#f00" style="display:inline">
    <polyline points="1039.3701,96.38 895.748,96.38 895.748,103.9391 1039.3701,103.9391 1039.3701,111.4981 895.748,111.4981 895.748,119.0572 1039.3701,119.0572 1039.3701,126.6162 895.748,126.6162 895.748,134.1753 1039.3701,134.1753 1039.3701,141.7344 895.748,141.7344 895.748,149.2934 1039.3701,149.2934 1039.3701,156.8525 895.748,156.8525 895.748,164.4115 1039.3701,164.4115 1039.3701,171.9706 895.748,171.9706 895.748,179.5296 1039.3701,179.5296 1039.3701,187.0887 895.748,187.0887 895.748,194.6477 1039.3701,194.6477 1039.3701,202.2068 895.748,202.2068 895.748,209.7659 1039.3701,209.7659 1039.3701,217.3249 895.748,217.3249 895.748,224.884 1039.3701,224.884 1039.3701,232.443 895.748,232.443"/>
    <polyline points="990.5488,323.1517 944.5698,323.1517 928.8307,330.7107 1006.2873,330.7107 1016.1077,338.2698 919.0104,338.2698 911.8834,345.8288 1023.2347,345.8288 1028.6191,353.3879 906.4992,353.3879 902.4241,360.947 1032.6942,360.947 1035.6953,368.506 899.4228,368.506 897.3575,376.0651 1037.7604,376.0651 1038.971,383.6241 896.1472,383.6241 895.7483,391.1832 1039.3701,391.1832 1038.971,398.7422 896.1472,398.7422 897.3575,406.3013 1037.7604,406.3013 1035.6953,413.8603 899.4228,413.8603 902.4241,421.4194 1032.6942,421.4194 1028.6191,428.9785 906.4992,428.9785 911.8834,436.5375 1023.2347,436.5375 1016.1077,444.0966 919.0104,444.0966 928.8307,451.6556 1006.2873,451.6556 990.5488,459.2147 944.5698,459.2147"/>
    <polygon points="967.6535,466.7737 960.1088,466.4057 953.009,465.3602 945.6784,463.5376 938.9157,461.1366 932.4111,458.1052 925.9074,454.2631 919.8197,449.7911 914.2087,444.7339 909.1305,439.1419 904.6357,433.071 900.7693,426.5818 897.7135,420.0886 895.1773,412.9734 893.4371,406.0112 892.3273,398.5395 891.9687,391.3721 892.2915,384.203 893.3639,376.7258 895.0693,369.7551 897.5698,362.6272 900.7693,355.7846 904.6357,349.2954 909.1305,343.2245 913.9417,337.8998 919.5274,332.8146 925.2789,328.5228 931.7438,324.6159 938.2178,321.5195 945.317,318.939 952.6384,317.0798 960.1088,315.9607 967.2757,315.5932 974.8213,315.9423 982.2945,317.0428 989.6204,318.8836 996.3772,321.3015 1003.2078,324.5266 1009.3682,328.2076 1015.4447,332.6948 1021.043,337.766 1026.1073,343.3707 1030.3775,349.1382 1034.0815,355.2848 1037.3322,362.1033 1039.8861,369.2122 1041.7178,376.5404 1042.809,384.0149 1043.1496,391.1832 1042.809,398.3514 1041.7178,405.8259 1039.8861,413.1542 1037.3322,420.2631 1034.0815,427.0816 1030.3775,433.2281 1026.1073,438.9957 1021.043,444.6004 1015.4447,449.6716 1009.6825,453.949 1003.5406,457.6607 996.7261,460.9199 989.6204,463.4827 982.2945,465.3236 975.1973,466.3868"/>
    <polyline points="1039.2272,548.0336 1035.0606,548.0336 1039.0382,555.5926 1001.0448,555.5926 967.0291,563.1517 1038.8492,563.1517 1038.6602,570.7107 933.0133,570.7107 898.9976,578.2698 1038.4713,578.2698 1038.2823,585.8288 880.9263,585.8288 885.5075,593.3879 1038.0933,593.3879 1037.9043,600.947 1009.1339,600.947 1009.1339,608.506 1037.7154,608.506 1037.5264,616.0651 1009.1339,616.0651 1009.1339,623.6241 1037.3374,623.6241 1037.1484,631.1832 1009.1339,631.1832 1009.1339,638.7422 1036.9594,638.7422 1036.7705,646.3013 917.5762,646.3013 912.995,638.7422 963.7795,638.7422 963.7795,631.1832 908.4138,631.1832 903.8325,623.6241 963.7795,623.6241 963.7795,616.0651 899.2513,616.0651 894.67,608.506 963.7795,608.506 963.7795,600.947 890.0888,600.947"/>
    <polygon points="873.0709,580.1596 948.6614,704.884 986.4567,674.6477 1039.3701,693.5454 1043.1496,542.3643"/>
    <polygon points="967.5591,636.8525 1005.3543,636.8525 1005.3543,599.0572 967.5591,599.0572"/>
    <polyline points="949.645,699.2147 959.1467,691.6556 945.0637,691.6556 940.4825,684.0966 968.5955,684.0966 978.0443,676.5375 935.9012,676.5375 931.32,668.9785 1036.2035,668.9785 1036.3925,661.4194 926.7387,661.4194 922.1575,653.8603 1036.5815,653.8603 1036.0146,676.5375 1002.9854,676.5375 1024.1507,684.0966 1035.8256,684.0966"/>
    <polygon points="891.9685,88.821 1043.1496,88.821 1043.1496,240.0021 891.9685,240.0021"/>
  </g>
</svg>
