<?xml version="1.0" encoding="utf-8" ?>
<svg xmlns="http://www.w3.org/2000/svg" xmlns:cc="http://creativecommons.org/ns#" xmlns:dc="http://purl.org/dc/elements/1.1/" xmlns:ev="http://www.w3.org/2001/xml-events" xmlns:inkscape="http://www.inkscape.org/namespaces/inkscape" xmlns:rdf="http://www.w3.org/1999/02/22-rdf-syntax-ns#" xmlns:sodipodi="http://sodipodi.sourceforge.net/DTD/sodipodi-0.dtd" xmlns:xlink="http://www.w3.org/1999/xlink" baseProfile="tiny" height="25.4cm" version="1.2" viewBox="0 0 960.0 960.0" width="25.4cm">
  <metadata>
    <rdf:RDF>
      <cc:Work>
        <dc:format>image/svg+xml</dc:format>
        <dc:source/>
        <dc:date>2021-02-08T20:45:22.476927</dc:date>
      </cc:Work>
    </rdf:RDF>
  </metadata>
  <defs/>
  <g fill="none" id="layer1" inkscape:groupmode="layer" inkscape:label="1" stroke="#00f" style="display:inline">
    <polyline points="186.9559,187.2479 182.6526,186.5617 178.6445,186.3292 174.3015,186.5617 169.9981,187.2479"/>
    <polyline points="154.6689,188.7157 173.155,189.5383 179.955,190.1947 178.6449,190.3193 176.999,190.1947 183.799,189.5383 202.2851,188.7157"/>
    <polyline points="187.9576,202.9108 183.5773,193.6891 180.3807,185.0857 178.5255,177.4239 178.1958,174.1384 178.3667,172.2046 178.5874,172.2046 178.7601,173.4814 178.5273,176.755 176.6723,184.7659 173.5017,193.3944 168.9965,202.9108"/>
    <polyline points="167.214,209.326 173.5984,205.101 177.957,201.1317 179.2809,199.2284 179.8103,197.6684 179.5837,196.4108 178.477,195.7942 177.3704,196.4108 177.1438,197.6684 177.6731,199.2284 178.9971,201.1317 183.3557,205.101 189.7401,209.326"/>
    <polyline points="200.9244,211.4611 193.7054,206.7935 187.8579,202.4541 183.657,198.7861 178.6341,193.5852 177.7845,193.9527 173.5313,198.5603 168.5666,202.8766 162.7019,207.169 156.0296,211.4611"/>
    <line x1="178.462" x2="178.492" y1="172.244" y2="172.244"/>
    <line x1="178.4879" x2="178.4661" y1="167.6032" y2="167.6032"/>
    <polyline points="177.8364,167.3062 178.235,166.9209 179.0893,167.0493 179.1177,167.3062"/>
    <polyline points="179.398,167.5035 178.2178,167.7092 177.5561,167.5035"/>
    <line x1="178.166" x2="178.788" y1="164.6521" y2="164.6521"/>
    <polyline points="184.149,157.3167 184.0881,158.9924 182.9803,160.5658 180.9203,161.5824 178.3103,161.908 175.7063,161.4812 173.9738,160.5658 172.8659,158.9924 172.805,157.3167"/>
    <polyline points="169.8871,159.8617 172.7915,159.345 178.477,159.1578 184.1625,159.345 187.0669,159.8617"/>
    <polyline points="181.6094,154.1854 180.3719,153.6474 178.6498,153.3898 176.9243,153.5589 175.3447,154.1854"/>
    <polyline points="260.1126,178.728 278.477,176.823 296.8414,178.728"/>
    <polyline points="296.9129,186.767 296.5789,186.2053 295.474,185.5271 291.6564,184.5192 285.7403,183.8489 278.477,183.6095 271.2138,183.8489 265.2976,184.5192 261.48,185.5271 260.3751,186.2053 260.0412,186.767"/>
    <polyline points="267.1462,196.8667 273.9934,189.1848 276.4118,187.4677 278.3135,186.9509 280.5423,187.4677 282.7033,188.9589 285.5038,191.7706 289.8078,196.8667"/>
    <polyline points="279.246,184.738 273.7234,186.1938 270.0485,187.5072 268.0846,188.6765 267.7211,189.1726 267.7883,189.818 268.8317,190.5316 271.0941,191.1418 278.3122,191.6972 285.5471,191.1968 287.8124,190.65 289.1657,189.818 289.233,189.1726 288.8694,188.6765 286.9056,187.5072 283.2307,186.1938 277.708,184.738"/>
    <line x1="278.4247" x2="278.5293" y1="170.2779" y2="170.2779"/>
    <polyline points="279.1655,169.004 278.477,169.256 277.7886,169.004"/>
    <line x1="278.4687" x2="278.4853" y1="167.9862" y2="167.9862"/>
    <line x1="278.5107" x2="278.4433" y1="167.7953" y2="167.7953"/>
    <line x1="278.4735" x2="278.4806" y1="167.5019" y2="167.5019"/>
    <polyline points="280.7996,165.9177 278.477,168.2442 276.1545,165.9177"/>
    <polyline points="274.7686,168.8973 278.226,167.4215 280.0728,166.1166 280.3446,165.5655 280.0804,165.0184 278.477,164.6149 276.8736,165.0184 276.6095,165.5655 276.8813,166.1166 278.7281,167.4215 282.1855,168.8973"/>
    <polyline points="285.4965,157.6386 285.428,158.2874 283.8948,158.8993 278.3088,159.3564 272.6756,158.8053 271.5261,158.2874 271.4575,157.6386"/>
    <polyline points="276.7052,155.1642 276.992,155.7346 278.2345,155.9627 279.9621,155.7346 280.2489,155.1642"/>
    <polyline points="345.5504,199.616 356.1994,207.9663 364.5331,213.2841 368.3904,215.135 371.8123,216.346 375.355,217.1064 378.6418,217.3236 381.9246,217.0589 385.1417,216.346 388.5636,215.135 392.421,213.2841 400.7546,207.9663 411.4037,199.616"/>
    <polyline points="389.1605,210.5451 380.8713,184.1251 379.615,181.0872 378.477,180.002 377.339,181.0872 376.0828,184.1251 367.7936,210.5451"/>
    <polyline points="378.1495,201.5499 379.1986,183.7454 379.0593,177.1291 378.477,174.2807 377.8947,177.1291 377.7555,183.7454 378.8046,201.5499"/>
    <polyline points="380.3228,182.5962 379.7582,183.1275 378.477,183.3046 377.1958,183.1275 376.6313,182.5962"/>
    <line x1="378.4249" x2="378.5292" y1="172.0084" y2="172.0084"/>
    <polyline points="378.8404,167.7816 378.0943,168.55 378.477,168.9823 378.8597,168.55 378.1137,167.7816"/>
    <polyline points="377.2337,167.8748 377.4261,168.2549 378.236,168.4178 379.528,168.2549 379.7204,167.8748"/>
    <line x1="378.4951" x2="378.459" y1="163.9483" y2="163.9483"/>
    <line x1="378.4432" x2="378.5109" y1="163.4852" y2="163.4852"/>
    <polyline points="386.6431,158.1155 384.1288,157.5423 378.477,157.3048 372.8253,157.5423 370.311,158.1155"/>
    <polyline points="374.5058,153.7279 373.5384,155.1456 373.9251,156.2707 375.6854,157.1161 378.3086,157.4355 381.2687,157.1161 383.0289,156.2707 383.4156,155.1456 382.4483,153.7279"/>
    <line x1="380.7225" x2="376.2316" y1="151.7662" y2="151.7662"/>
    <polyline points="369.1039,149.0989 374.7893,154.5684 378.3227,159.3477 379.3987,161.7536 379.7324,163.6679 379.3094,165.2266 378.477,165.6893 377.6447,165.2266 377.2217,163.6679 377.5554,161.7536 378.6313,159.3477 382.1647,154.5684 387.8501,149.0989"/>
    <polyline points="462.3352,161.674 462.6623,164.6257 463.4689,167.1196 464.7714,169.3947 466.7618,171.5762 469.1707,173.2847 471.8613,174.5139 475.0391,175.34 478.3126,175.6289 481.5897,175.3928 484.7827,174.6212 487.4961,173.4446 489.9423,171.7901 491.9862,169.6596 493.3504,167.4152 494.2917,164.6257 494.6189,161.674"/>
    <polyline points="480.6818,169.8932 480.9764,171.9256 480.6051,173.8178 479.5588,175.0146 478.3124,175.3057 477.1273,174.831 476.228,173.5224 475.9777,171.9256 476.2723,169.8932"/>
    <line x1="478.432" x2="478.5221" y1="170.2811" y2="170.2811"/>
    <line x1="478.5018" x2="478.4522" y1="168.1202" y2="168.1202"/>
    <line x1="478.4273" x2="478.5267" y1="166.9582" y2="166.9582"/>
    <line x1="478.5846" x2="478.3694" y1="173.7324" y2="173.7324"/>
    <polyline points="477.7296,177.3122 480.4966,188.8752 481.6318,199.018 481.5175,203.6226 480.9217,207.1941 479.9116,209.6091 478.6386,210.5863 477.9947,210.4926 477.2444,209.8813 476.1236,207.5171 475.4664,203.9376 475.3074,199.6748 475.614,194.7454 476.3995,189.1994 479.2245,177.3122"/>
    <polyline points="480.5129,177.1864 478.806,170.7357 478.6273,170.2478 478.3267,170.2478 476.4412,177.1864"/>
    <polyline points="464.6707,185.1375 464.2789,180.8445 464.5312,176.9056 465.4022,173.3964 466.9898,170.136 469.3118,167.3604 471.9871,165.4412 475.0483,164.2295 478.312,163.7923 481.9057,164.2295 484.9669,165.4412 487.6422,167.3604 489.9642,170.136 491.5519,173.3964 492.4229,176.9056 492.6751,180.8445 492.2833,185.1375"/>
    <polyline points="491.0056,186.8617 485.6347,180.551 479.4696,171.6308 478.477,170.8454 477.4844,171.6308 471.3194,180.551 465.9484,186.8617"/>
    <polyline points="470.4628,193.7245 475.8784,199.0711 479.2318,203.9415 480.043,206.1254 480.1839,208.0619 479.7265,209.2938 478.6425,209.9691 477.4415,209.5412 476.7702,208.0619 476.911,206.1254 477.7222,203.9415 481.0757,199.0711 486.4912,193.7245"/>
    <polyline points="496.3491,201.1836 492.4955,199.3372 488.1022,197.9532 483.2411,197.0915 478.3124,196.8226 473.3865,197.13 468.8518,197.9532 464.4586,199.3372 460.605,201.1836"/>
    <polyline points="456.5697,184.8374 465.251,175.3328 470.4674,170.3218 474.5349,167.5278 476.3635,166.81 478.313,166.5115 480.2677,166.7259 482.1246,167.3858 486.228,170.1061 491.4779,175.0981 500.3844,184.8374"/>
    <polyline points="551.0085,179.3828 578.3127,179.7061 605.9456,179.3828"/>
    <polyline points="594.8334,183.3305 594.064,185.5086 592.841,187.4605 591.2446,189.1233 589.3741,190.4791 587.0219,191.6644 584.1999,192.5847 578.312,193.2686 572.4335,192.5024 567.5799,190.4791 565.7094,189.1233 564.113,187.4605 562.89,185.5086 562.1207,183.3305"/>
    <polyline points="562.814,177.4589 578.3191,176.2753 594.14,177.4589"/>
    <polyline points="583.5966,173.5286 585.2524,171.9437 585.2393,171.2822 584.8496,170.8055 582.4336,169.8901 578.477,169.5431 574.5204,169.8901 572.1045,170.8055 571.7148,171.2822 571.7016,171.9437 573.3574,173.5286"/>
    <polyline points="570.9253,167.7795 571.1217,166.4719 572.7308,165.3756 575.3056,164.7221 578.6435,164.4957 581.9677,164.7737 584.4991,165.493 585.8323,166.4719 586.0288,167.7795"/>
    <polyline points="581.0873,164.5503 580.4719,165.0641 578.3078,165.3041 576.4822,165.0641 575.8668,164.5503"/>
    <polyline points="574.1249,162.2053 574.4859,163.1137 575.2665,163.7649 576.8079,164.3183 578.477,164.4833 580.1462,164.3183 581.6876,163.7649 582.4681,163.1137 582.8291,162.2053"/>
    <polyline points="581.8138,159.6161 582.6155,159.612 574.3386,159.612 575.1403,159.6161"/>
    <polyline points="576.2116,153.3335 578.477,152.5892 580.7425,153.3335"/>
    <polyline points="588.675,157.2479 585.0284,162.3826 581.994,167.4584 580.026,171.6063 578.4146,176.3049 577.1641,172.199 574.9601,167.4584 571.9257,162.3826 568.2791,157.2479"/>
    <polyline points="571.0398,186.5274 576.2373,183.4487 579.3654,180.7147 580.2002,179.2931 580.2715,178.3332 579.7307,177.5365 578.477,177.1656 577.2234,177.5365 576.6825,178.3332 576.7538,179.2931 577.5886,180.7147 580.7168,183.4487 585.9143,186.5274"/>
    <polyline points="593.2218,193.1589 593.3844,191.5229 592.8613,189.9834 591.8027,188.7423 590.1726,187.6383 587.7275,186.6214 584.8664,185.9032 578.3121,185.3345 571.7694,185.9654 566.7814,187.6383 565.1514,188.7423 564.0927,189.9834 563.5697,191.5229 563.7323,193.1589"/>
    <polyline points="557.3613,194.6017 578.477,194.178 599.5927,194.6017"/>
    <polyline points="643.38,180.883 678.6418,181.712 713.574,180.883"/>
    <polyline points="691.6841,179.4067 687.4455,185.3286 684.191,189.0162 681.308,191.1969 678.477,191.9604 675.646,191.1969 672.763,189.0162 669.5085,185.3286 665.27,179.4067"/>
    <polyline points="668.6299,175.3479 669.5008,174.4277 671.6837,173.6702 678.6429,173.04 685.2704,173.6702 687.4533,174.4277 688.3242,175.3479"/>
    <polyline points="683.7383,175.3743 682.739,178.5334 681.5429,180.8846 679.9931,182.5432 678.477,183.0439 676.9609,182.5432 675.4112,180.8846 674.2151,178.5334 673.2158,175.3743"/>
    <line x1="678.4737" x2="678.4804" y1="173.736" y2="173.736"/>
    <polyline points="678.5121,171.6481 679.8002,176.8175 680.1821,181.0501 679.6672,184.2803 678.9256,185.3384 678.3121,185.4648 677.5739,184.8489 677.1631,183.9336 676.7711,180.6945 677.2119,176.4944 678.4419,171.6481"/>
    <line x1="678.4761" x2="678.478" y1="171.1016" y2="171.1016"/>
    <polyline points="680.5399,167.682 678.5364,176.6833 678.2261,180.2967 678.477,182.1996 678.728,180.2967 678.4177,176.6833 676.4142,167.682"/>
    <polyline points="676.2445,165.7864 676.0873,166.0614 676.4761,166.2631 678.7344,166.4464 680.478,166.2631 680.8668,166.0614 680.7096,165.7864"/>
    <polyline points="679.7447,164.7909 679.5524,165.1581 678.2302,165.3155 677.4017,165.1581 677.2094,164.7909"/>
    <line x1="678.0461" x2="678.908" y1="164.3399" y2="164.3399"/>
    <polyline points="680.65,162.37 682.7825,169.6349 684.2894,176.7168 685.0582,183.2233 685.0968,188.825 684.3716,194.0252 682.9161,198.0299 680.8881,200.5835 679.7588,201.2411 678.477,201.4898 677.1952,201.2411 676.066,200.5835 674.038,198.0299 672.5825,194.0252 671.8572,188.825 671.8959,183.2233 672.6647,176.7168 674.1716,169.6349 676.304,162.37"/>
    <polyline points="664.1175,198.7631 678.9369,199.7245 678.6544,199.79 678.0171,199.7245 692.8366,198.7631"/>
    <polyline points="748.8213,187.8007 759.6812,199.7601 767.123,206.7568 770.3251,209.0901 773.2113,210.6595 776.026,211.589 778.6418,211.8518 781.2521,211.5151 784.0383,210.5258 786.9066,208.9103 790.0844,206.5503 797.2729,199.7601 808.1328,187.8007"/>
    <polyline points="801.3001,176.5494 787.5381,178.4398 778.312,178.9531 769.0852,178.4049 755.6539,176.5494"/>
    <polyline points="760.6697,175.3989 771.7358,173.4086 778.6422,172.897 785.5539,173.4557 796.2843,175.3989"/>
    <polyline points="807.99,172.5817 785.6651,185.2601 781.7126,186.8839 778.477,187.3821 775.2415,186.8839 771.289,185.2601 748.9641,172.5817"/>
    <polyline points="767.8202,161.821 769.0106,163.3699 771.3099,164.6733 774.5102,165.532 778.477,165.8548 782.4438,165.532 785.6441,164.6733 787.9434,163.3699 789.1338,161.821"/>
    <polyline points="788.7417,161.5417 786.0322,163.9975 783.5507,165.5967 781.0845,166.5653 778.477,166.9134 775.8696,166.5653 773.4034,165.5967 770.9218,163.9975 768.2124,161.5417"/>
    <polyline points="776.5574,158.0899 776.8627,158.6103 778.477,158.8626 780.0914,158.6103 780.3966,158.0899"/>
    <polyline points="778.6243,163.2229 778.477,163.4154 778.3297,163.2229"/>
    <polyline points="776.1818,166.3247 778.477,166.0492 780.7722,166.3247"/>
    <polyline points="781.6454,175.9468 775.8811,174.8131 776.3135,174.4512 778.643,174.301 780.6406,174.4512 781.073,174.8131 775.3086,175.9468"/>
    <polyline points="775.9402,192.9483 782.5982,193.4557 784.1972,193.8952 778.6415,194.1567 772.7569,193.8952 774.3558,193.4557 781.0139,192.9483"/>
    <polyline points="793.9938,218.3918 786.6639,205.1053 781.4674,192.9846 779.5796,187.0095 778.4443,181.8696 778.0339,177.2723 778.2168,175.6391 778.6031,175.3342 778.9173,177.9257 778.3996,182.5072 777.2,187.6432 775.3767,193.2899 770.1402,205.4088 762.9602,218.3918"/>
    <line x1="778.0099" x2="778.9441" y1="250.0034" y2="250.0034"/>
    <polyline points="784.0355,260.5726 783.7725,261.0879 782.5325,261.5943 778.477,261.9849 774.4215,261.5943 773.1815,261.0879 772.9185,260.5726"/>
    <polyline points="776.2238,261.9891 776.1583,261.7035 776.5942,261.2732 778.6377,260.9732 780.3599,261.2732 780.7958,261.7035 780.7303,261.9891"/>
    <line x1="778.4972" x2="778.4569" y1="263.1166" y2="263.1166"/>
    <polyline points="776.8463,265.2958 775.2497,263.8689 775.1346,262.7681 776.4685,261.933 778.477,261.6777 780.4855,261.933 781.8194,262.7681 781.7044,263.8689 780.1078,265.2958"/>
    <polyline points="780.7985,265.3799 780.9111,265.6159 780.3589,265.9576 778.3199,266.1437 776.5951,265.9576 776.043,265.6159 776.1556,265.3799"/>
    <polyline points="773.932,268.681 779.0092,268.8706 778.477,268.9012 777.9449,268.8706 783.022,268.681"/>
    <line x1="778.5241" x2="778.43" y1="271.0029" y2="271.0029"/>
    <line x1="778.4736" x2="778.4805" y1="271.1605" y2="271.1605"/>
    <polyline points="780.5614,284.1581 783.3797,287.4503 785.5,290.7973 786.6274,293.8504 786.7863,296.4884 785.9322,298.9508 784.1089,300.8344 781.416,302.0624 778.477,302.4499 775.538,302.0624 772.8451,300.8344 771.0218,298.9508 770.1678,296.4884 770.3266,293.8504 771.454,290.7973 773.5744,287.4503 776.3927,284.1581"/>
    <polyline points="770.305,287.616 769.2157,289.283 768.9432,290.5745 769.2905,291.7949 770.1458,292.7575 771.553,293.5971 773.7368,294.3178 778.6411,294.8301 783.843,294.1559 785.689,293.4606 787.0511,292.5472 787.8115,291.5017 787.9977,290.2567 787.6172,289.0203 786.6491,287.616"/>
    <polyline points="800.9285,283.5353 786.0613,277.0851 781.9244,275.9237 778.3117,275.5779 774.7103,275.9884 770.5854,277.194 756.0255,283.5353"/>
    <polyline points="759.7833,300.9717 768.0418,296.0009 776.9917,289.2903 778.477,288.6492 779.9624,289.2903 788.9122,296.0009 797.1707,300.9717"/>
    <polyline points="784.1459,361.7957 784.3396,360.786 783.1812,359.8323 780.9535,359.2749 778.3144,359.1126 775.3562,359.3805 773.4626,359.9782 772.6145,360.786 772.8082,361.7957"/>
    <line x1="778.4754" x2="778.4787" y1="363.0465" y2="363.0465"/>
    <line x1="778.4843" x2="778.4698" y1="363.1476" y2="363.1476"/>
    <line x1="778.4768" x2="778.4772" y1="367.3537" y2="367.3537"/>
    <line x1="778.4772" x2="778.4769" y1="368.4384" y2="368.4384"/>
    <line x1="778.477" x2="778.477" y1="371.7285" y2="371.7285"/>
    <line x1="778.4772" x2="778.4769" y1="373.2274" y2="373.2274"/>
    <line x1="778.4721" x2="778.4819" y1="373.9439" y2="373.9439"/>
    <polyline points="784.288,376.113 780.655,379.6045 778.3403,382.7918 777.7105,384.3098 777.5621,385.5984 777.8997,386.4903 778.477,386.7697 779.0544,386.4903 779.392,385.5984 779.2436,384.3098 778.6138,382.7918 776.299,379.6045 772.666,376.113"/>
    <polyline points="768.4456,380.1866 777.5388,376.9757 780.1773,375.5952 781.6515,374.3447 781.9473,373.4594 781.3729,372.7101 778.477,372.0963 775.5811,372.7101 775.0067,373.4594 775.3026,374.3447 776.7767,375.5952 779.4153,376.9757 788.5085,380.1866"/>
    <polyline points="791.9804,389.9953 793.6616,388.3561 794.3263,386.8686 794.0811,385.6176 792.6609,384.254 790.2622,383.1948 787.0365,382.4059 778.477,381.707 769.9176,382.4059 766.6918,383.1948 764.2931,384.254 762.8729,385.6176 762.6278,386.8686 763.2924,388.3561 764.9737,389.9953"/>
    <polyline points="776.8159,397.7254 770.2924,396.7085 768.6535,396.203 768.4328,395.7945 771.3771,395.1806 778.3106,394.9164 785.2509,395.1519 788.5212,395.7945 788.3005,396.203 786.6617,396.7085 780.1381,397.7254"/>
    <polyline points="782.7887,367.9283 780.1132,372.5266 778.115,376.6722 776.6226,380.6909 775.7634,384.1997 775.4624,387.4907 775.8403,390.4196 776.8921,392.4356 778.3119,393.2072 779.8177,392.6729 781.0198,390.7189 781.4867,387.8111 781.2423,384.5077 780.3314,380.6909 778.8391,376.6722 776.8409,372.5266 774.1653,367.9283"/>
    <polyline points="702.3357,371.8499 691.6597,374.1437 683.647,376.2595 678.108,378.2604 675.6516,379.9024 675.4937,380.5057 675.9015,380.9984 678.477,381.5192 681.0526,380.9984 681.4604,380.5057 681.3025,379.9024 678.846,378.2604 673.3071,376.2595 665.2944,374.1437 654.6184,371.8499"/>
    <polyline points="663.9235,373.5247 673.6248,376.963 678.477,377.8045 683.3292,376.963 693.0306,373.5247"/>
    <polyline points="684.4466,371.4406 684.2894,370.8266 683.1658,370.1823 678.477,369.5969 673.7883,370.1823 672.6647,370.8266 672.5074,371.4406"/>
    <polyline points="677.7898,367.0378 677.327,367.4692 678.2449,367.7568 679.4682,367.613 679.5484,367.2775 679.1642,367.0378"/>
    <line x1="678.6513" x2="678.3027" y1="363.4179" y2="363.4179"/>
    <polyline points="675.9709,356.9117 676.3531,357.6087 678.477,357.9396 680.601,357.6087 680.9832,356.9117"/>
    <polyline points="685.6086,358.4023 685.6566,358.7167 685.3153,358.9512 684.0844,359.2652 678.477,359.6132 672.8697,359.2652 671.6388,358.9512 671.2974,358.7167 671.3455,358.4023"/>
    <polyline points="670.9957,361.7656 672.2843,364.4514 674.168,366.7198 676.3883,368.0816 678.6415,368.4656 680.8754,367.9558 682.7861,366.7198 684.6697,364.4514 685.9583,361.7656"/>
    <polyline points="692.3465,363.6472 692.1483,365.9479 691.5586,367.8283 690.3868,369.8035 688.7836,371.4506 686.5874,372.8946 684.1565,373.897 681.5919,374.5034 678.6417,374.7499 675.6877,374.5529 673.1135,373.994 670.6589,373.0424 668.429,371.658 666.773,370.0605 665.533,368.1294 664.8058,365.9479 664.6076,363.6472"/>
    <polyline points="677.6731,350.6611 677.4937,351.338 678.2916,351.7892 679.2918,351.5636 679.2809,350.6611"/>
    <polyline points="682.2298,381.3511 683.5652,386.8056 684.3542,391.6697 684.6667,396.2446 684.4611,400.5063 683.7541,404.0493 682.4627,407.078 680.7519,409.0512 678.6415,409.8656 676.4644,409.2351 674.667,407.3573 673.3,404.3756 672.5355,400.8445 672.284,396.5833 672.5621,391.9996 673.3888,386.8056 674.7243,381.3511"/>
    <polyline points="671.6975,397.2748 677.0247,390.9814 678.7828,388.198 680.0276,385.5312 680.6878,383.0145 680.6313,380.7369 679.9131,379.2679 678.477,378.5855 677.0409,379.2679 676.3227,380.7369 676.2662,383.0145 676.9265,385.5312 678.1713,388.198 679.9294,390.9814 685.2566,397.2748"/>
    <polyline points="695.0594,406.2389 681.9212,396.8084 680.2114,395.8272 678.6415,395.417 677.0412,395.7029 675.2915,396.6386 661.8947,406.2389"/>
    <line x1="678.4572" x2="678.4968" y1="451.2922" y2="451.2922"/>
    <polyline points="686.1782,459.9593 685.4227,458.8962 683.9107,458.2522 681.2848,457.7621 678.3085,457.6153 673.0434,458.2522 671.5314,458.8962 670.7758,459.9593"/>
    <polyline points="677.536,463.935 677.6556,464.3235 678.477,464.453 679.2984,464.3235 679.4181,463.935"/>
    <line x1="678.8173" x2="678.1367" y1="463.1396" y2="463.1396"/>
    <polyline points="677.8918,465.2491 678.477,465.01 679.0622,465.2491"/>
    <line x1="680.9991" x2="675.955" y1="465.8992" y2="465.8992"/>
    <line x1="678.3429" x2="678.6112" y1="468.162" y2="468.162"/>
    <polyline points="682.2719,476.2425 682.8492,471.3103 682.3311,467.0905 681.725,465.5692 680.7848,464.2388 679.7397,463.4629 678.477,463.1612 677.2144,463.4629 676.1692,464.2388 675.2291,465.5692 674.623,467.0905 674.1048,471.3103 674.6822,476.2425"/>
    <polyline points="670.4276,480.4247 674.0162,479.8659 678.6437,479.6851 683.2821,479.8975 686.5264,480.4247"/>
    <polyline points="690.4295,481.4085 689.8225,482.0105 687.4918,482.4808 678.3125,482.921 669.4623,482.4808 667.1316,482.0105 666.5246,481.4085"/>
    <polyline points="665.0661,486.9881 664.1049,485.6508 664.0363,484.3683 664.7921,483.3282 666.1852,482.4739 671.2659,481.1126 678.477,480.6021 685.6881,481.1126 690.7689,482.4739 692.1619,483.3282 692.9177,484.3683 692.8491,485.6508 691.8879,486.9881"/>
    <polyline points="689.0072,492.0193 687.8885,491.45 685.6117,491.0193 678.3116,490.6402 671.3424,491.0193 669.0656,491.45 667.9468,492.0193"/>
    <polyline points="651.5346,467.8247 654.7886,472.405 657.9453,476.2201 661.4217,479.7391 664.7352,482.4533 668.0771,484.5789 671.6875,486.2018 675.1928,487.1206 678.477,487.4006 681.7613,487.1206 685.2666,486.2018 688.8769,484.5789 692.2189,482.4533 695.5323,479.7391 699.0087,476.2201 702.1654,472.405 705.4194,467.8247"/>
    <polyline points="762.5924,479.5915 767.5545,469.9026 771.6569,463.5363 775.1234,460.047 776.8667,459.1395 778.477,458.8632 780.0873,459.1395 781.8306,460.047 785.2972,463.5363 789.3996,469.9026 794.3617,479.5915"/>
    <polyline points="791.1791,481.0605 791.4573,480.424 791.2257,479.8819 788.8499,478.799 784.5921,478.1225 778.6421,477.85 772.6868,478.0923 768.1042,478.799 765.7283,479.8819 765.4967,480.424 765.775,481.0605"/>
    <polyline points="772.3647,487.9978 773.6292,486.4444 775.1883,485.2227 776.6931,484.5545 778.3117,484.2905 779.9444,484.4677 781.7658,485.2227 783.3249,486.4444 784.5893,487.9978"/>
    <polyline points="781.4783,480.2429 779.4263,477.26 778.1593,474.5504 777.8332,471.9608 778.0845,471.3434 778.6428,471.1552 779.1609,472.2573 778.7948,474.5504 777.5278,477.26 775.4758,480.2429"/>
    <polyline points="776.4933,475.9285 774.9742,471.4966 774.9033,467.9343 775.4429,466.3843 776.2319,465.3369 777.3426,464.6247 778.6414,464.4147 779.9069,464.7571 780.9414,465.5634 781.6558,466.6775 782.1081,468.2691 781.9129,471.8235 780.4608,475.9285"/>
    <line x1="778.7332" x2="778.2209" y1="471.1787" y2="471.1787"/>
    <line x1="778.2849" x2="778.6691" y1="468.4072" y2="468.4072"/>
    <polyline points="780.2424,467.653 779.6888,467.1722 778.477,467.0119 777.2653,467.1722 776.7116,467.653"/>
    <polyline points="773.9188,462.8203 778.3097,463.2334 783.0353,462.8203"/>
    <polyline points="786.6962,464.4942 778.3678,466.4187 776.2253,467.2054 775.1779,467.9635 775.1768,468.2924 775.6832,468.6419 778.3091,469.0074 780.9285,468.7518 781.5689,468.4948 781.7762,467.9635 780.7287,467.2054 778.5862,466.4187 770.2578,464.4942"/>
    <polyline points="777.5795,459.7538 778.477,459.3876 779.3745,459.7538"/>
    <polyline points="786.7839,505.9539 783.2919,500.2892 779.1195,492.0046 778.477,491.3344 777.8346,492.0046 773.6622,500.2892 770.1702,505.9539"/>
    <polyline points="764.1954,518.0543 772.147,511.5517 775.3466,508.291 777.618,505.4366 779.2562,502.6212 780.0229,500.1146 779.8325,498.1544 779.2453,497.3788 778.6421,497.1295 777.9972,497.2151 777.272,497.8623 776.8968,499.7642 777.5573,502.2999 779.1475,505.1621 781.3996,508.055 784.5674,511.3263 792.7586,518.0543"/>
    <line x1="778.5859" x2="778.3682" y1="549.7601" y2="549.7601"/>
    <polyline points="775.4779,554.6416 778.4466,556.6914 778.8392,557.6609 778.3003,557.8586 778.0975,557.404 778.6437,556.5462 781.4761,554.6416"/>
    <polyline points="783.6987,559.0143 783.6635,562.7076 782.7768,565.5407 781.1052,567.5534 779.9462,568.1863 778.6422,568.4483 777.3287,568.291 776.1284,567.7467 774.3319,565.8201 773.2906,562.7076 773.2554,559.0143"/>
    <polyline points="773.5243,560.2498 773.4894,559.5786 774.504,558.8561 778.477,558.3059 782.4501,558.8561 783.4646,559.5786 783.4297,560.2498"/>
    <polyline points="778.7115,569.5991 781.1156,567.3328 781.8173,566.1019 781.9554,565.2245 781.6153,564.3002 780.8902,563.679 778.6456,563.115 776.0638,563.679 775.3387,564.3002 774.9987,565.2245 775.1368,566.1019 775.8385,567.3328 778.2425,569.5991"/>
    <line x1="778.4111" x2="778.543" y1="570.8672" y2="570.8672"/>
    <polyline points="785.8548,573.5391 786.3556,571.9012 786.4401,570.2632 786.0068,568.693 785.2803,567.5957 784.0209,566.5184 782.5389,565.7706 778.6437,565.0559 774.7232,565.6579 772.9331,566.5184 771.6738,567.5957 770.9473,568.693 770.5139,570.2632 770.5984,571.9012 771.0993,573.5391"/>
    <polyline points="767.2722,574.2184 766.8274,573.3174 767.0225,572.7393 769.0044,571.6181 773.2226,570.82 778.477,570.5552 783.7315,570.82 787.9496,571.6181 789.9315,572.7393 790.1267,573.3174 789.6818,574.2184"/>
    <polyline points="784.2964,578.3594 782.5728,579.1186 778.477,579.4212 774.3813,579.1186 772.6577,578.3594"/>
    <polyline points="774.0361,580.3614 777.5565,586.3154 779.664,591.8159 780.106,594.4305 780.0482,596.3763 779.5154,597.9265 778.477,598.6137 777.4386,597.9265 776.9059,596.3763 776.848,594.4305 777.29,591.8159 779.3976,586.3154 782.918,580.3614"/>
    <polyline points="785.2847,581.9397 779.9222,581.0926 777.9859,580.3641 778.6801,580.277 778.8924,580.5444 777.7697,580.9267 771.6694,581.9397"/>
    <polyline points="763.223,568.6742 765.9679,571.0223 769.5468,572.6943 774.0338,573.767 778.642,574.0886 783.2455,573.7169 787.7139,572.5861 791.2632,570.8446 793.7311,568.6742"/>
    <polyline points="799.8947,573.3131 781.2369,568.921 778.6418,568.5424 776.0433,568.8485 757.0593,573.3131"/>
    <polyline points="701.6943,584.5032 691.3048,586.1972 678.477,586.8079 665.6492,586.1972 655.2597,584.5032"/>
    <polyline points="669.7952,581.2942 670.1572,577.686 670.9538,575.8942 671.9477,574.5937 673.1955,573.531 674.9365,572.6109 678.477,571.9536 682.0176,572.6109 683.7586,573.531 685.0064,574.5937 686.0003,575.8942 686.7969,577.686 687.1588,581.2942"/>
    <polyline points="687.626,577.2271 686.515,572.7141 684.5676,569.2615 681.8107,566.9226 680.2768,566.3094 678.6422,566.069 676.9956,566.2306 675.4323,566.7758 672.5921,569.0133 670.439,572.7141 669.328,577.2271"/>
    <line x1="678.475" x2="678.4791" y1="573.564" y2="573.564"/>
    <line x1="678.5295" x2="678.4246" y1="570.6967" y2="570.6967"/>
    <line x1="678.1603" x2="678.7938" y1="567.872" y2="567.872"/>
    <polyline points="679.3376,565.7332 678.3119,565.4577 678.477,565.3658 678.6422,565.4577 677.6165,565.7332"/>
    <line x1="678.4759" x2="678.4781" y1="565.6156" y2="565.6156"/>
    <polyline points="678.6633,563.549 678.807,563.837 678.477,563.933 678.1471,563.837 678.2908,563.549"/>
    <line x1="678.4759" x2="678.4781" y1="563.1517" y2="563.1517"/>
    <polyline points="686.6568,560.0533 685.644,558.7809 683.8742,557.9005 681.2971,557.3075 678.3114,557.1177 675.3346,557.3557 672.7877,558.0065 671.0564,558.9836 670.2972,560.0533"/>
    <polyline points="668.8173,551.3529 673.9125,560.9371 677.3221,569.5025 678.452,573.6239 679.045,577.1942 679.0785,580.1427 678.477,581.5735 677.8756,580.1427 677.9091,577.1942 678.5021,573.6239 679.6319,569.5025 683.0416,560.9371 688.1367,551.3529"/>
    <polyline points="682.5786,588.0307 685.6632,590.5852 687.5885,592.8396 688.5396,594.8979 688.5121,596.8266 687.4683,598.4695 685.2548,599.8726 682.0856,600.7813 678.477,601.086 674.8684,600.7813 671.6992,599.8726 669.4858,598.4695 668.4419,596.8266 668.4145,594.8979 669.3655,592.8396 671.2908,590.5852 674.3755,588.0307"/>
    <polyline points="618.8057,586.8301 602.2472,581.3113 593.3316,577.9066 582.1419,573.173 578.6414,572.3422 575.1266,573.0561 557.1814,580.4042 538.1484,586.8301"/>
    <polyline points="555.3585,587.1681 574.2113,578.4356 576.3733,577.6581 578.3135,577.3548 580.2711,577.5784 582.7427,578.4356 601.5956,587.1681"/>
    <polyline points="599.1962,585.5105 593.9809,580.4565 588.8436,576.87 583.687,574.6898 578.477,573.9509 573.2671,574.6898 568.1104,576.87 562.9732,580.4565 557.7579,585.5105"/>
    <polyline points="566.2403,580.3268 565.7387,579.0815 565.8662,578.1137 566.6512,577.0874 568.0538,576.221 572.5242,574.9745 578.477,574.5267 584.4299,574.9745 588.9003,576.221 590.3028,577.0874 591.0879,578.1137 591.2154,579.0815 590.7138,580.3268"/>
    <polyline points="583.7258,591.6984 584.6438,588.868 585.1708,585.9441 585.1785,583.2949 584.7008,581.0384 583.667,578.9933 582.3094,577.5709 580.5787,576.6173 578.6419,576.2527 576.6884,576.5139 574.6447,577.5709 573.287,578.9933 572.2533,581.0384 571.7755,583.2949 571.7833,585.9441 572.3103,588.868 573.2282,591.6984"/>
    <line x1="578.4371" x2="578.517" y1="573.7743" y2="573.7743"/>
    <line x1="578.5145" x2="578.4396" y1="567.3211" y2="567.3211"/>
    <line x1="578.4742" x2="578.4799" y1="566.4309" y2="566.4309"/>
    <line x1="578.496" x2="578.458" y1="564.1626" y2="564.1626"/>
    <line x1="578.4693" x2="578.4848" y1="564.1104" y2="564.1104"/>
    <polyline points="582.7117,560.7873 579.8381,562.1547 578.477,563.3041 577.1159,562.1547 574.2424,560.7873"/>
    <line x1="578.2898" x2="578.6642" y1="557.5974" y2="557.5974"/>
    <polyline points="588.494,559.4651 585.6154,563.1457 583.0518,565.7468 580.8704,567.2095 578.6411,567.7895 576.3941,567.3492 574.1532,565.9547 571.5465,563.3848 568.46,559.4651"/>
    <polyline points="505.2942,571.0248 489.2011,574.6404 483.5526,576.3037 478.6398,578.1336 467.4221,574.553 451.6599,571.0248"/>
    <polyline points="454.4497,572.8865 472.2014,582.2525 475.5651,583.5401 478.477,583.9663 481.389,583.5401 484.7527,582.2525 502.5043,572.8865"/>
    <polyline points="492.794,565.9355 490.247,568.9446 486.9434,571.1016 482.8968,572.4857 478.6419,572.9573 474.0573,572.4857 470.0107,571.1016 466.707,568.9446 464.1601,565.9355"/>
    <polyline points="471.3037,561.4499 467.5637,563.6898 465.115,565.8155 464.0298,567.8284 464.2894,569.4081 465.9434,570.9593 468.9925,572.1889 473.2056,572.9988 478.477,573.3076 483.7485,572.9988 487.9616,572.1889 491.0107,570.9593 492.6647,569.4081 492.9243,567.8284 491.839,565.8155 489.3904,563.6898 485.6504,561.4499"/>
    <polyline points="480.1236,565.6678 479.6205,566.1581 478.2286,566.2807 477.0144,566.0355 476.8304,565.6678"/>
    <polyline points="477.0903,566.3017 477.4096,565.7471 478.7124,565.6085 479.8184,565.8858 479.8637,566.3017"/>
    <line x1="478.5533" x2="478.4007" y1="567.8736" y2="567.8736"/>
    <line x1="478.3526" x2="478.6014" y1="571.5333" y2="571.5333"/>
    <polyline points="486.6145,574.8547 481.7866,572.5745 478.7565,570.5758 477.5119,568.8159 477.7134,568.2197 478.3111,567.9477 479.2407,568.2197 479.4422,568.8159 478.1975,570.5758 475.1674,572.5745 470.3396,574.8547"/>
    <polyline points="475.7186,583.0825 474.6936,585.2106 474.7684,587.1358 476.0854,588.5576 478.3114,589.1314 480.5802,588.7031 482.0481,587.423 482.3189,585.479 481.2355,583.0825"/>
    <polyline points="493.1016,592.549 493.1142,590.5673 492.5695,589.0211 491.3633,587.468 489.7884,586.273 487.7115,585.249 484.8703,584.3733 478.6425,583.6768 475.3402,583.8365 472.0838,584.3733 469.2426,585.249 467.1656,586.273 465.5907,587.468 464.3845,589.0211 463.8399,590.5673 463.8525,592.549"/>
    <polyline points="471.2307,605.4806 472.5842,599.0099 474.2761,594.0085 476.3274,590.6927 477.3765,589.8795 478.3123,589.6019 479.2726,589.7437 480.374,590.4467 482.5439,593.7121 484.2819,598.6816 485.7233,605.4806"/>
    <polyline points="482.9182,606.2937 480.4133,581.0169 479.3552,575.4983 478.851,574.2849 478.3275,574.0572 477.3477,576.456 476.3627,582.306 474.0358,606.2937"/>
    <polyline points="462.5285,655.2651 469.188,669.2359 472.9536,676.1634 475.994,680.0491 477.364,680.9397 478.6398,681.1657 479.8954,680.7972 481.2024,679.8276 484.1661,675.8951 487.9183,668.9302 494.4256,655.2651"/>
    <polyline points="487.7577,658.6147 484.2946,657.6226 478.3099,657.2353 472.6595,657.6226 469.1963,658.6147"/>
    <polyline points="468.9266,660.8584 471.0161,663.0095 473.2173,664.4865 475.6821,665.4474 478.3109,665.8077 480.9472,665.5273 483.7367,664.4865 485.938,663.0095 488.0274,660.8584"/>
    <line x1="478.4882" x2="478.4658" y1="665.2781" y2="665.2781"/>
    <line x1="478.4432" x2="478.5108" y1="666.799" y2="666.799"/>
    <line x1="478.4878" x2="478.4662" y1="667.5442" y2="667.5442"/>
    <line x1="478.4745" x2="478.4795" y1="667.9493" y2="667.9493"/>
    <line x1="478.4782" x2="478.4758" y1="667.9786" y2="667.9786"/>
    <line x1="478.02" x2="478.934" y1="671.0607" y2="671.0607"/>
    <line x1="478.4772" x2="478.4769" y1="671.5709" y2="671.5709"/>
    <line x1="478.4311" x2="478.523" y1="672.8774" y2="672.8774"/>
    <polyline points="483.2841,695.8904 479.8844,683.8549 478.9081,678.6767 478.4772,674.4232 478.0459,678.6767 477.0697,683.8549 473.6699,695.8904"/>
    <polyline points="452.5339,706.7045 464.6255,705.0492 478.477,704.475 492.3285,705.0492 504.4202,706.7045"/>
    <polyline points="480.5596,747.7073 481.2565,758.5585 481.1446,767.753 480.1897,774.5797 479.5179,776.4356 478.6343,777.3683 477.7924,776.9866 476.9517,775.2265 475.8556,768.4157 475.6881,758.8922 476.3944,747.7073"/>
    <polyline points="476.5697,753.1787 478.4672,754.0387 480.3843,753.1787"/>
    <polyline points="478.753,753.7892 476.7184,768.4988 475.945,781.324 476.0729,786.9204 476.5228,791.1754 477.338,794.3716 478.3141,795.6288 478.9267,795.4643 479.3264,794.9618 480.2547,792.14 480.8367,787.5831 481.0132,781.9837 480.269,768.828 478.2011,753.7892"/>
    <polyline points="469.0277,758.901 478.3093,758.6953 487.9263,758.901"/>
    <polyline points="490.0438,760.8411 486.9378,764.2932 484.1447,766.6398 481.2265,768.1721 478.6425,768.6541 476.0368,768.2743 473.0757,766.8207 470.0162,764.2932 466.9103,760.8411"/>
    <polyline points="464.8721,764.7998 472.9243,766.5608 478.477,767.0579 484.0297,766.5608 492.082,764.7998"/>
    <polyline points="500.1034,768.4962 494.249,773.3433 488.9204,776.6401 483.6975,778.656 478.477,779.3427 473.2566,778.656 468.0336,776.6401 462.7051,773.3433 456.8507,768.4962"/>
    <polyline points="462.0678,778.4301 471.6702,774.9184 475.1988,774.1366 478.477,773.878 481.7553,774.1366 485.2839,774.9184 494.8863,778.4301"/>
    <polyline points="483.0446,783.4688 487.0397,781.6948 489.5144,780.0911 490.5985,778.5426 490.2346,777.3467 488.563,776.2915 486.0411,775.5648 478.477,774.8946 470.913,775.5648 468.391,776.2915 466.7195,777.3467 466.3555,778.5426 467.4396,780.0911 469.9143,781.6948 473.9094,783.4688"/>
    <polyline points="476.9375,774.5512 474.9331,776.7562 474.4787,778.6682 474.9407,779.5465 475.7144,780.1308 478.6463,780.7355 481.2397,780.1308 482.0133,779.5465 482.4753,778.6682 482.021,776.7562 480.0165,774.5512"/>
    <polyline points="478.6652,805.5746 478.7455,793.7315 478.477,788.4885 478.2086,793.7315 478.2889,805.5746"/>
    <polyline points="464.2958,808.2346 470.1269,789.3225 476.7681,764.8201 477.8598,762.0738 478.6344,761.6127 479.4,762.648 480.281,765.13 486.8271,789.3225 492.6582,808.2346"/>
    <polyline points="515.6803,794.2761 502.6847,790.5353 492.0399,786.9299 484.4588,783.7348 478.477,780.3464 472.4953,783.7348 464.9141,786.9299 454.2693,790.5353 441.2738,794.2761"/>
    <polyline points="393.2764,804.1841 390.3868,796.4809 388.8106,793.5855 386.9143,790.9028 385.1107,788.9951 382.999,787.4256 380.907,786.4913 378.6411,786.1207 376.366,786.3996 374.2391,787.264 372.0831,788.7828 370.0398,790.9028 368.1435,793.5855 366.5673,796.4809 363.6776,804.1841"/>
    <polyline points="364.6585,790.9678 374.5493,787.0251 377.5969,785.137 378.436,784.2213 378.4102,783.9 379.6301,785.3537 382.4048,787.0251 392.2956,790.9678"/>
    <polyline points="388.6844,783.3058 390.2662,779.6544 390.9609,776.4732 390.8836,773.5155 389.9457,770.7337 388.1577,768.3908 385.4719,766.5138 382.067,765.3158 378.477,764.9309 374.887,765.3158 371.4822,766.5138 368.7964,768.3908 367.0084,770.7337 366.0704,773.5155 365.9931,776.4732 366.6879,779.6544 368.2697,783.3058"/>
    <polyline points="365.8068,779.7108 365.2848,777.7992 365.4305,776.1638 366.1672,774.6996 367.5801,773.3366 369.5897,772.2131 372.4236,771.2871 378.642,770.6141 384.858,771.3682 387.3644,772.2131 389.374,773.3366 390.7869,774.6996 391.5236,776.1638 391.6693,777.7992 391.1472,779.7108"/>
    <polyline points="385.7898,777.7457 384.4105,774.3618 382.6919,771.9944 380.5458,770.4648 378.3135,770.021 376.1094,770.6065 374.047,772.2227 372.3869,774.6551 371.1642,777.7457"/>
    <polyline points="376.2651,774.1896 375.7024,781.1097 375.9403,787.0653 376.9932,791.1924 377.7476,792.2649 378.6347,792.5612 379.438,792.0277 380.1058,790.8713 381.0537,786.7346 381.2517,781.1097 380.689,774.1896"/>
    <polyline points="379.2958,769.6354 378.2227,769.9065 377.6582,769.6354"/>
    <polyline points="377.7647,759.5006 380.059,760.5641 379.6638,760.9138 378.477,761.0513 377.2903,760.9138 376.8951,760.5641 379.1893,759.5006"/>
    <polyline points="383.9168,760.3211 383.2877,765.9186 382.1165,770.3792 380.5448,773.2551 379.5644,774.1105 378.6378,774.4167 377.6756,774.2543 376.6142,773.4833 374.9506,770.67 373.7227,766.2269 373.0372,760.3211"/>
    <polyline points="375.2724,749.8432 373.3695,751.317 372.0626,752.7831 371.5449,753.9289 371.6518,755.1785 372.4805,756.1747 373.9344,756.9402 376.1698,757.486 378.477,757.6484 380.7842,757.486 383.0197,756.9402 384.4735,756.1747 385.3022,755.1785 385.4091,753.9289 384.8914,752.7831 383.5845,751.317 381.6817,749.8432"/>
    <polyline points="394.6792,757.8928 388.6284,762.55 383.7842,767.018 380.382,771.0991 378.5542,774.5983 376.3866,770.8338 372.9454,766.7868 368.3257,762.55 362.2749,757.8928"/>
    <polyline points="363.3704,767.7626 365.9279,770.3343 369.4058,772.2316 373.8607,773.4758 378.477,773.8691 383.0934,773.4758 387.5483,772.2316 391.0262,770.3343 393.5837,767.7626"/>
    <polyline points="381.441,795.2461 378.4051,798.6312 375.513,795.2461"/>
    <polyline points="291.3729,779.631 278.477,780.2398 265.5811,779.631"/>
    <polyline points="275.0459,776.242 276.4831,798.3108 277.4658,804.4796 278.0072,806.0343 278.477,806.4545 278.9469,806.0343 279.4882,804.4796 280.471,798.3108 281.9081,776.242"/>
    <line x1="278.4771" x2="278.477" y1="772.9532" y2="772.9532"/>
    <line x1="278.4758" x2="278.4783" y1="772.2359" y2="772.2359"/>
    <line x1="278.7053" x2="278.2488" y1="772.1416" y2="772.1416"/>
    <line x1="278.4763" x2="278.4777" y1="768.6747" y2="768.6747"/>
    <line x1="278.794" x2="278.1601" y1="767.7834" y2="767.7834"/>
    <line x1="278.3806" x2="278.5734" y1="767.6468" y2="767.6468"/>
    <polyline points="279.5272,768.0 278.2372,768.3535 277.4269,768.0"/>
    <polyline points="276.6266,766.3905 278.477,766.1031 280.3275,766.3905"/>
    <polyline points="281.225,762.2289 281.0251,764.2849 280.4235,765.8055 279.5588,766.7268 278.3187,767.0585 277.1147,766.5111 276.3626,765.5068 275.8657,763.9815 275.729,762.2289"/>
    <line x1="278.2573" x2="278.6967" y1="757.0461" y2="757.0461"/>
    <line x1="278.4842" x2="278.4699" y1="749.3118" y2="749.3118"/>
    <polyline points="275.3951,698.9352 280.2422,702.0491 281.6148,703.3869 282.4292,704.7692 282.406,706.0529 281.7869,706.8271 280.2961,707.5153 278.3109,707.7353 276.6579,707.5153 275.1671,706.8271 274.5481,706.0529 274.5248,704.7692 275.3393,703.3869 276.7118,702.0491 281.559,698.9352"/>
    <polyline points="283.1842,696.6841 279.1789,692.7046 276.2995,689.1662 274.263,685.7744 273.1932,682.7116 273.0761,680.0881 274.036,677.6773 276.0778,676.0654 278.6415,675.571 281.1728,676.2071 283.1022,677.9439 283.8779,680.0881 283.6915,683.0256 282.5426,686.0765 280.4715,689.4205 277.5498,692.9506 273.7699,696.6841"/>
    <polyline points="268.3933,684.3472 267.0163,685.8041 266.4613,687.0201 266.6194,688.2968 267.7293,689.4977 269.4903,690.3817 272.0352,691.0894 278.6434,691.6815 284.9188,691.0894 287.4637,690.3817 289.2247,689.4977 290.3346,688.2968 290.4928,687.0201 289.9378,685.8041 288.5608,684.3472"/>
    <polyline points="288.8271,682.6333 288.9446,683.6515 288.5573,684.8805 286.5716,686.5853 283.0946,687.7315 278.477,688.1617 273.8594,687.7315 270.3824,686.5853 268.3967,684.8805 268.0094,683.6515 268.1269,682.6333"/>
    <polyline points="266.0475,679.8526 265.6132,681.7877 265.7797,683.7625 266.6247,685.5393 267.9886,686.9658 269.9548,688.1919 272.4276,689.1244 275.3391,689.7214 278.6428,689.9252 281.6149,689.7214 284.5265,689.1244 286.9993,688.1919 288.9654,686.9658 290.3294,685.5393 291.1743,683.7625 291.3409,681.7877 290.9065,679.8526"/>
    <polyline points="291.2856,679.7793 286.3976,680.4519 278.477,680.7078 270.5565,680.4519 265.6684,679.7793"/>
    <polyline points="262.3535,677.9984 261.6375,679.854 261.7914,681.4647 262.6667,682.8407 264.5074,684.2156 267.238,685.3625 270.4371,686.1611 274.3608,686.6919 278.6418,686.8666 286.5169,686.1611 289.716,685.3625 292.4466,684.2156 294.2874,682.8407 295.1627,681.4647 295.3166,679.854 294.6005,677.9984"/>
    <polyline points="282.8971,679.5467 279.9127,676.3596 277.9492,673.2524 277.468,670.7165 277.8878,669.8391 278.477,669.5919 279.0663,669.8391 279.486,670.7165 279.0049,673.2524 277.0413,676.3596 274.0569,679.5467"/>
    <polyline points="278.3946,670.3029 278.826,669.9974 278.2943,669.8446 278.128,669.9974 278.5594,670.3029"/>
    <polyline points="278.7014,668.2105 277.3563,669.268 276.6987,670.3088 277.0237,671.1543 278.3116,671.557 279.6183,671.3406 280.2661,670.6119 279.8122,669.5012 278.2527,668.2105"/>
    <polyline points="254.7809,668.8508 270.4636,677.8738 274.7452,679.5301 278.3131,680.0622 281.8878,679.6151 286.2018,678.0098 291.422,675.2478 302.1731,668.8508"/>
    <polyline points="308.1261,667.8514 286.2985,680.0884 282.0415,681.8064 278.477,682.349 274.9125,681.8064 270.6556,680.0884 248.828,667.8514"/>
    <polyline points="255.4821,657.5316 261.5733,669.2383 264.4427,673.6679 267.2854,677.3109 270.0619,680.1168 272.7103,682.0735 275.4,683.3219 278.3124,683.8194 281.239,683.4188 283.9552,682.2434 286.6439,680.3304 289.4525,677.5564 292.3176,673.9403 295.3807,669.2383 301.4719,657.5316"/>
    <polyline points="281.1153,600.799 279.5668,595.62 278.6421,593.9597 278.089,594.1584 277.6017,595.0648 275.8387,600.799"/>
    <polyline points="261.8828,582.8118 271.6537,578.7332 278.6351,574.6361 281.5586,576.6859 285.0273,578.5985 295.0713,582.8118"/>
    <polyline points="296.0804,572.784 285.3875,578.0666 281.5954,579.206 278.3121,579.5284 275.0384,579.1382 271.5665,578.0666 260.8737,572.784"/>
    <polyline points="270.8232,571.516 277.3033,569.478 278.6581,568.6996 278.9103,568.2451 278.6462,568.0403 278.0437,568.2451 278.1179,568.5066 279.3882,569.3577 286.1309,571.516"/>
    <polyline points="279.7002,570.5282 279.4745,570.921 278.2503,571.0893 277.4796,570.921 277.2538,570.5282"/>
    <line x1="278.3836" x2="278.5704" y1="570.5533" y2="570.5533"/>
    <line x1="278.483" x2="278.471" y1="569.9208" y2="569.9208"/>
    <line x1="278.4723" x2="278.4818" y1="568.6146" y2="568.6146"/>
    <line x1="278.4775" x2="278.4766" y1="565.7373" y2="565.7373"/>
    <line x1="278.1484" x2="278.8057" y1="563.4124" y2="563.4124"/>
    <line x1="278.4775" x2="278.4766" y1="572.7987" y2="572.7987"/>
    <line x1="278.4312" x2="278.5229" y1="551.6701" y2="551.6701"/>
    <line x1="278.6813" x2="278.2727" y1="551.5064" y2="551.5064"/>
    <polyline points="258.1871,485.3654 272.6118,487.5497 276.7298,488.4894 278.477,489.2823 280.2243,488.4894 284.3422,487.5497 298.767,485.3654"/>
    <polyline points="297.2599,468.2524 288.5406,475.3274 280.0639,483.5754 279.2514,484.145 278.3167,484.3455 276.6476,483.3634 267.1796,474.245 259.6942,468.2524"/>
    <polyline points="250.5527,468.7528 267.3478,473.6816 272.8736,475.794 278.477,478.4576 284.0804,475.794 289.6062,473.6816 306.4014,468.7528"/>
    <polyline points="286.8011,459.6146 283.9357,459.0552 278.31,458.8299 273.0184,459.0552 270.1529,459.6146"/>
    <polyline points="272.5616,457.2009 272.4057,458.8343 273.4213,460.1077 275.5241,460.9949 278.477,461.334 281.4299,460.9949 283.5327,460.1077 284.5484,458.8343 284.3925,457.2009"/>
    <polyline points="283.8684,456.5871 284.1509,457.5626 283.202,458.2369 280.9535,458.7363 278.3148,458.8757 273.752,458.2369 272.8032,457.5626 273.0856,456.5871"/>
    <polyline points="275.3532,460.1206 276.5872,478.8485 277.4528,484.022 278.0051,485.5636 278.477,485.9682 278.949,485.5636 279.5013,484.022 280.3669,478.8485 281.6008,460.1206"/>
    <polyline points="279.1586,465.8684 278.7168,465.5561 277.7955,465.8684"/>
    <line x1="278.4694" x2="278.4846" y1="465.8693" y2="465.8693"/>
    <line x1="278.5845" x2="278.3695" y1="468.5104" y2="468.5104"/>
    <line x1="278.47" x2="278.484" y1="473.1072" y2="473.1072"/>
    <line x1="279.8526" x2="277.1015" y1="451.3924" y2="451.3924"/>
    <line x1="278.4748" x2="278.4792" y1="451.2771" y2="451.2771"/>
    <polyline points="282.3635,404.909 279.7422,398.5087 277.7491,392.5856 276.3605,387.1745 275.5155,382.0032 275.3024,377.3884 275.7611,373.4889 276.8787,370.7674 277.565,370.0608 278.477,369.7472 279.3891,370.0608 280.0754,370.7674 281.1929,373.4889 281.6516,377.3884 281.4386,382.0032 280.5935,387.1745 279.205,392.5856 277.2118,398.5087 274.5905,404.909"/>
    <polyline points="260.4363,392.3885 260.7104,389.4276 261.5753,386.951 263.0012,384.7421 265.1344,382.6853 267.93,380.9566 270.9958,379.7527 274.5346,378.9618 278.477,378.674 282.4194,378.9618 285.9583,379.7527 289.024,380.9566 291.8196,382.6853 293.9528,384.7421 295.3788,386.951 296.2436,389.4276 296.5178,392.3885"/>
    <polyline points="299.7762,393.7079 294.6184,397.2786 289.2815,399.886 283.8951,401.4498 278.6421,401.9712 273.0589,401.4498 267.6726,399.886 262.3356,397.2786 257.1778,393.7079"/>
    <polyline points="263.1051,381.9968 264.2868,378.5566 265.6869,375.589 267.2604,373.0823 269.1634,370.8129 271.4115,368.8931 273.6903,367.5907 276.1912,366.7789 278.477,366.5448 280.7629,366.7789 283.2638,367.5907 285.5426,368.8931 287.7907,370.8129 289.6937,373.0823 291.2671,375.589 292.6673,378.5566 293.8489,381.9968"/>
    <polyline points="291.3987,378.7232 291.1991,381.0272 290.5983,382.9093 289.6005,384.6145 288.0164,386.2853 286.1077,387.5777 283.6773,388.6094 281.1086,389.2045 278.477,389.3991 275.8454,389.2045 273.2768,388.6094 270.8464,387.5777 268.9377,386.2853 267.3536,384.6145 266.3558,382.9093 265.755,381.0272 265.5554,378.7232"/>
    <polyline points="268.1061,374.6858 272.9412,372.3999 276.6543,370.1308 278.6931,368.0879 278.9003,367.5077 278.6388,366.9323 278.0949,367.1587 278.261,368.0879 280.0438,369.9369 283.6867,372.2261 288.848,374.6858"/>
    <polyline points="288.8433,374.1085 282.988,375.6544 278.9632,377.1248 277.6153,377.9631 277.3401,378.5083 278.477,378.9933 279.6139,378.5083 279.3388,377.9631 277.9909,377.1248 273.9661,375.6544 268.1108,374.1085"/>
    <line x1="278.2006" x2="278.7534" y1="372.7072" y2="372.7072"/>
    <line x1="278.4771" x2="278.477" y1="373.9569" y2="373.9569"/>
    <polyline points="278.0914,376.712 279.1097,381.9474 279.497,386.5251 279.2103,389.7972 278.8452,390.7092 278.3122,390.9118 277.6118,389.1345 277.4747,385.8139 277.8927,381.6207 278.8627,376.712"/>
    <line x1="278.4772" x2="278.4769" y1="368.3521" y2="368.3521"/>
    <line x1="278.2571" x2="278.6969" y1="366.2272" y2="366.2272"/>
    <polyline points="294.5559,365.4542 292.568,367.1279 289.1485,368.3278 284.2599,369.1413 278.6427,369.4301 272.6941,369.1413 267.8056,368.3278 264.386,367.1279 262.3982,365.4542"/>
    <polyline points="196.3816,387.3385 187.4922,384.8408 182.9246,384.1745 178.642,383.9582 174.3586,384.1437 169.785,384.7792 165.289,385.8252 160.5725,387.3385"/>
    <polyline points="160.1015,390.308 178.477,388.9967 196.8525,390.308"/>
    <polyline points="195.1049,404.0172 185.4683,397.6692 181.7102,394.4487 178.8695,391.279 178.3299,391.0788 175.2438,394.4487 171.761,397.4559 167.2324,400.6902 161.8492,404.0172"/>
    <line x1="178.1701" x2="178.784" y1="373.4181" y2="373.4181"/>
    <line x1="178.5299" x2="178.4241" y1="371.9198" y2="371.9198"/>
    <line x1="178.4764" x2="178.4777" y1="370.4757" y2="370.4757"/>
    <line x1="178.4778" x2="178.4762" y1="368.1899" y2="368.1899"/>
    <line x1="178.4343" x2="178.5198" y1="367.3673" y2="367.3673"/>
    <line x1="178.4815" x2="178.4725" y1="366.9181" y2="366.9181"/>
    <line x1="178.4767" x2="178.4774" y1="364.7538" y2="364.7538"/>
    <line x1="178.4775" x2="178.4766" y1="364.7491" y2="364.7491"/>
    <line x1="178.4676" x2="178.4864" y1="363.0168" y2="363.0168"/>
    <line x1="178.4899" x2="178.4641" y1="350.382" y2="350.382"/>
    <polyline points="164.1764,304.2353 178.6409,303.8119 192.7777,304.2353"/>
    <polyline points="184.9826,296.8598 185.5571,290.6046 185.6929,284.9898 185.4273,280.0441 184.7361,275.4853 183.6414,271.6805 182.1553,268.7303 180.3397,266.8535 178.477,266.2601 176.6143,266.8535 174.7988,268.7303 173.3127,271.6805 172.218,275.4853 171.5268,280.0441 171.2612,284.9898 171.397,290.6046 171.9715,296.8598"/>
    <polyline points="169.8864,274.7524 175.2091,273.515 178.477,272.3862 181.7449,273.515 187.0676,274.7524"/>
    <polyline points="179.09,272.5052 178.477,272.7378 177.864,272.5052"/>
    <line x1="178.417" x2="178.537" y1="272.766" y2="272.766"/>
    <line x1="178.4778" x2="178.4763" y1="270.6426" y2="270.6426"/>
    <line x1="178.4768" x2="178.4773" y1="268.0309" y2="268.0309"/>
    <line x1="178.4777" x2="178.4764" y1="266.6967" y2="266.6967"/>
    <line x1="178.4181" x2="178.5359" y1="266.0351" y2="266.0351"/>
    <line x1="178.4992" x2="178.4549" y1="263.7103" y2="263.7103"/>
    <line x1="178.47" x2="178.484" y1="263.52" y2="263.52"/>
    <polyline points="187.7752,260.308 182.9547,263.9746 179.7653,267.1896 178.104,270.0336 178.0328,271.351 178.477,271.7602 178.9213,271.351 178.85,270.0336 177.1887,267.1896 173.9994,263.9746 169.1788,260.308"/>
    <polyline points="166.7622,262.2152 178.477,263.8481 190.1918,262.2152"/>
    <polyline points="258.0191,279.8854 263.208,273.0624 268.402,268.0492 270.8502,266.366 273.5035,265.0559 276.0246,264.3178 278.3127,264.0811 280.6048,264.259 283.1443,264.9397 285.8236,266.2021 288.2861,267.8447 293.529,272.8153 298.935,279.8854"/>
    <polyline points="286.3431,291.1789 287.0292,289.7101 286.748,289.1231 285.6952,288.3828 282.7696,287.5755 278.477,287.2587 274.1844,287.5755 271.2588,288.3828 270.206,289.1231 269.9249,289.7101 270.6109,291.1789"/>
    <polyline points="275.7486,280.7635 278.0375,277.0737 279.2448,273.9804 279.4262,271.437 279.0491,270.5284 278.477,270.2167 277.9049,270.5284 277.5279,271.437 277.7092,273.9804 278.9165,277.0737 281.2054,280.7635"/>
    <line x1="278.4776" x2="278.4764" y1="272.1832" y2="272.1832"/>
    <line x1="278.4214" x2="278.5327" y1="269.5475" y2="269.5475"/>
    <line x1="278.6331" x2="278.3209" y1="268.3174" y2="268.3174"/>
    <polyline points="277.7651,267.8549 277.7123,267.6361 278.477,267.4612 279.2418,267.6361 279.189,267.8549"/>
    <line x1="278.5069" x2="278.4472" y1="266.9295" y2="266.9295"/>
    <line x1="278.4666" x2="278.4875" y1="263.9358" y2="263.9358"/>
    <polyline points="285.6195,258.4133 283.5092,258.9759 278.477,259.1884 273.4449,258.9759 271.3346,258.4133"/>
    <polyline points="270.7002,257.49 270.976,258.0496 272.5424,258.5171 278.477,258.9252 284.4116,258.5171 285.9781,258.0496 286.2538,257.49"/>
    <polyline points="279.3858,252.2446 279.3997,252.7233 278.6974,252.9284 277.5543,252.7233 277.5682,252.2446"/>
    <polyline points="278.0338,250.9143 278.3085,251.5242 278.9027,251.3209 278.9203,250.9143"/>
    <polyline points="358.0746,272.8905 367.8787,283.5886 372.2918,289.3275 377.2359,296.7305 378.477,297.7099 379.7181,296.7305 384.6623,289.3275 389.0753,283.5886 398.8795,272.8905"/>
    <polyline points="393.1027,271.5175 385.3592,277.7938 380.2509,283.3255 378.6214,285.8588 377.6565,288.3001 377.6115,290.2539 377.9063,290.8301 378.477,291.1199 379.0478,290.8301 379.3426,290.2539 379.2976,288.3001 378.3326,285.8588 376.7032,283.3255 371.5949,277.7938 363.8513,271.5175"/>
    <polyline points="371.6147,266.6019 374.9741,270.7404 377.5878,274.5463 379.6385,278.2927 380.9466,281.6817 381.5509,284.9231 381.3315,287.5392 380.2474,289.5368 379.4388,290.1 378.477,290.3104 377.5153,290.1 376.7067,289.5368 375.6226,287.5392 375.4031,284.9231 376.0075,281.6817 377.3156,278.2927 379.3663,274.5463 381.9799,270.7404 385.3394,266.6019"/>
    <polyline points="381.4177,268.0115 380.5657,268.7213 378.477,268.9716 376.3884,268.7213 375.5364,268.0115"/>
    <polyline points="377.86,267.6911 378.477,267.9459 379.094,267.6911"/>
    <line x1="378.6931" x2="378.261" y1="266.8339" y2="266.8339"/>
    <line x1="378.4529" x2="378.5012" y1="268.5679" y2="268.5679"/>
    <line x1="378.703" x2="378.2511" y1="258.468" y2="258.468"/>
    <polyline points="371.5306,260.1785 371.8981,260.59 373.4899,261.0486 378.477,261.3927 383.4641,261.0486 385.056,260.59 385.4235,260.1785"/>
    <polyline points="393.2878,261.7067 392.8267,264.661 391.8819,267.4778 390.4185,270.061 388.6929,272.0632 386.624,273.7037 383.9766,275.0569 381.4368,275.791 378.477,276.0777 375.5172,275.791 372.9775,275.0569 370.3301,273.7037 368.2611,272.0632 366.5356,270.061 365.0722,267.4778 364.1274,264.661 363.6662,261.7067"/>
    <polyline points="376.0346,280.3776 377.0142,299.1917 377.6674,304.7388 378.3404,306.9384 378.7889,306.6721 379.0917,305.7096 379.8223,300.4825 380.9195,280.3776"/>
    <polyline points="379.2705,289.4001 377.3861,287.0025 376.6225,284.8625 377.1171,283.309 378.645,282.7562 380.0407,283.569 380.3002,285.1378 379.4208,287.2426 377.6836,289.4001"/>
    <polyline points="372.5587,293.324 371.3688,292.0342 370.7923,290.9059 370.804,289.6657 371.34,288.8278 372.376,288.0791 374.2224,287.3868 378.477,286.8869 382.7316,287.3868 384.5781,288.0791 385.6141,288.8278 386.15,289.6657 386.1618,290.9059 385.5852,292.0342 384.3953,293.324"/>
    <polyline points="380.6282,353.6698 380.813,353.9997 380.5646,354.5114 378.3244,354.9408 376.3894,354.5114 376.1411,353.9997 376.3259,353.6698"/>
    <polyline points="370.0019,359.7613 371.6035,362.3131 373.5203,364.1524 375.8579,365.3864 378.477,365.8291 381.0962,365.3864 383.4338,364.1524 385.3505,362.3131 386.9522,359.7613"/>
    <polyline points="381.4873,366.3444 381.0513,366.7171 378.477,366.8876 375.9028,366.7171 375.4667,366.3444"/>
    <polyline points="378.1107,363.7522 378.4658,364.0478 378.8433,363.7522"/>
    <line x1="378.477" x2="378.477" y1="364.0126" y2="364.0126"/>
    <line x1="378.477" x2="378.4771" y1="369.4609" y2="369.4609"/>
    <line x1="378.4779" x2="378.4761" y1="371.4592" y2="371.4592"/>
    <line x1="378.477" x2="378.4771" y1="373.4644" y2="373.4644"/>
    <line x1="378.4795" x2="378.4746" y1="373.8828" y2="373.8828"/>
    <polyline points="361.2372,370.5399 378.477,371.0495 395.7168,370.5399"/>
    <polyline points="396.3751,371.403 382.4835,380.3446 380.4077,381.3636 378.477,381.7412 376.5463,381.3636 374.4705,380.3446 360.5789,371.403"/>
    <polyline points="359.7592,378.1823 364.0347,382.7386 368.5843,385.9785 373.4397,387.9765 378.6416,388.6546 383.5144,387.9765 388.3698,385.9785 392.9194,382.7386 397.1949,378.1823"/>
    <polyline points="406.2436,373.5991 396.1205,379.8656 389.4152,383.4246 383.8587,385.4939 378.6419,386.2335 373.4181,385.5778 367.8383,383.5617 360.8335,379.8656 350.7104,373.5991"/>
    <line x1="371.0987" x2="385.8553" y1="458.6521" y2="458.6521"/>
    <polyline points="380.0459,464.8682 378.477,465.5883 376.9081,464.8682"/>
    <line x1="378.3772" x2="378.5769" y1="466.8441" y2="466.8441"/>
    <line x1="378.6467" x2="378.3073" y1="468.0779" y2="468.0779"/>
    <line x1="378.0222" x2="378.9318" y1="469.4581" y2="469.4581"/>
    <polyline points="385.279,475.6577 385.0194,471.014 383.7638,467.2693 382.6443,465.6458 381.4167,464.5514 379.9424,463.8298 378.6416,463.6079 377.3301,463.742 375.8065,464.3775 374.5267,465.4109 373.3482,466.9871 371.9944,470.7019 371.675,475.6577"/>
    <polyline points="364.9728,475.7525 369.6227,479.5827 373.3848,483.2081 376.1413,486.4743 378.477,490.0569 380.8128,486.4743 383.5692,483.2081 387.3313,479.5827 391.9812,475.7525"/>
    <polyline points="387.0045,486.9679 386.1682,478.1398 385.3168,474.2643 384.2732,471.1565 382.9512,468.5328 381.5173,466.7188 379.9073,465.6052 378.314,465.3049 376.7445,465.7492 375.2072,466.9516 373.8392,468.8004 372.5539,471.4741 370.7333,478.4516 369.9495,486.9679"/>
    <polyline points="377.5533,495.2933 378.8958,499.8422 378.9074,501.4536 378.477,502.2179 378.0466,501.4536 378.0582,499.8422 379.4008,495.2933"/>
    <polyline points="384.7543,509.0389 380.6294,487.0615 379.3178,477.2777 378.477,468.1203 377.6363,477.2777 376.3247,487.0615 372.1997,509.0389"/>
    <polyline points="366.1969,508.9729 372.3365,505.552 376.8205,502.2612 378.3905,500.5944 379.1811,499.2035 379.2801,498.2381 378.6425,497.5525 377.7949,497.9257 377.773,499.2035 378.5636,500.5944 379.8894,502.036 384.3454,505.38 390.7571,508.9729"/>
    <polyline points="401.2703,497.8387 390.5129,492.0585 385.5395,488.8881 379.9823,484.8227 378.477,484.2275 376.9717,484.8227 371.4145,488.8881 366.4412,492.0585 355.6838,497.8387"/>
    <polyline points="353.5397,487.8511 370.1486,492.1598 375.3615,494.0779 378.477,495.8506 381.5926,494.0779 386.8055,492.1598 403.4143,487.8511"/>
    <polyline points="451.6935,467.7842 452.8138,472.5948 454.6945,477.1549 457.3576,481.3002 460.5129,484.6526 464.2154,487.3844 468.6494,489.5419 473.402,490.8581 478.3124,491.3171 483.2279,490.9155 487.9961,489.656 492.4559,487.554 496.194,484.869 499.3906,481.5591 502.1068,477.4449 504.0385,472.9102 505.2606,467.7842"/>
    <polyline points="487.4266,462.5932 486.2144,461.4889 484.0901,460.5816 481.4752,460.0431 478.477,459.854 475.4789,460.0431 472.8639,460.5816 470.7396,461.4889 469.5274,462.5932"/>
    <polyline points="475.9156,465.5115 475.3216,464.4611 475.5785,463.4104 476.659,462.7602 478.6402,462.4926 480.295,462.7602 481.3756,463.4104 481.6325,464.4611 481.0384,465.5115"/>
    <polyline points="480.3873,465.5929 480.58,465.918 480.1246,466.143 478.2122,466.2931 476.5355,466.043 476.5668,465.5929"/>
    <polyline points="478.439,466.7014 478.4465,467.8363 478.5151,466.7014"/>
    <line x1="478.5178" x2="478.4363" y1="468.2584" y2="468.2584"/>
    <line x1="478.4122" x2="478.5418" y1="468.5551" y2="468.5551"/>
    <line x1="478.696" x2="478.258" y1="471.2052" y2="471.2052"/>
    <polyline points="477.8059,460.4954 478.477,460.7675 479.1481,460.4954"/>
    <line x1="478.69" x2="478.264" y1="456.7779" y2="456.7779"/>
    <line x1="478.4758" x2="478.4783" y1="449.2731" y2="449.2731"/>
    <polyline points="490.6125,482.474 492.3595,483.4484 492.9437,484.2072 492.5649,485.0402 491.3966,485.6323 486.2115,486.6149 478.6415,486.9789 470.7425,486.6149 465.5575,485.6323 464.3891,485.0402 464.0103,484.2072 464.5946,483.4484 466.3416,482.474"/>
    <polyline points="473.8148,491.3565 477.9994,492.3153 478.7492,492.6824 478.477,492.9066 478.2049,492.6824 478.9547,492.3153 483.1393,491.3565"/>
    <polyline points="494.5431,414.1081 493.6208,408.5915 492.3468,403.8229 490.6708,399.5391 488.7601,396.088 486.5319,393.2468 484.0326,391.1181 481.3846,389.8092 478.477,389.3322 475.5695,389.8092 472.9214,391.1181 470.4222,393.2468 468.194,396.088 466.2833,399.5391 464.6073,403.8229 463.3333,408.5915 462.411,414.1081"/>
    <polyline points="470.0209,386.8361 474.5187,388.9883 477.6105,390.9702 478.7544,392.0873 479.1865,392.9256 479.0697,393.5424 478.477,393.8043 477.8844,393.5424 477.7675,392.9256 478.1996,392.0873 479.3436,390.9702 482.4354,388.9883 486.9332,386.8361"/>
    <polyline points="483.5335,384.088 483.7858,384.7855 482.8997,385.5452 478.6457,386.1626 476.0318,386.0128 474.0543,385.5452 473.1683,384.7855 473.4205,384.088"/>
    <polyline points="461.7882,375.9129 466.0474,379.0851 470.1243,381.2842 474.2035,382.634 478.477,383.115 482.7505,382.634 486.8297,381.2842 490.9067,379.0851 495.1658,375.9129"/>
    <polyline points="500.3557,366.5038 499.9248,365.6282 498.6383,364.6255 493.9491,363.0433 487.072,362.0465 478.477,361.6802 469.882,362.0465 463.0049,363.0433 458.3157,364.6255 457.0293,365.6282 456.5984,366.5038"/>
    <polyline points="469.1812,358.7103 472.2876,361.7467 474.6302,363.5703 476.7001,364.6027 478.6407,364.8995 480.5633,364.4918 482.6157,363.3753 487.7729,358.7103"/>
    <polyline points="483.7699,363.0839 483.5566,361.4261 482.4637,360.2525 480.6364,359.4871 478.3111,359.2349 475.9962,359.5744 474.2165,360.4508 473.2725,361.7206 473.1841,363.0839"/>
    <polyline points="476.1922,365.319 478.477,365.7572 480.7619,365.319"/>
    <polyline points="481.5046,367.1859 478.2034,374.3917 476.4878,380.7297 476.256,383.6791 476.4967,385.9527 477.2587,387.764 478.3163,388.4832 479.485,388.0117 480.3778,386.269 480.6912,384.0141 480.5117,381.0394 478.8668,374.709 475.4495,367.1859"/>
    <line x1="478.4305" x2="478.5235" y1="366.7346" y2="366.7346"/>
    <line x1="478.7022" x2="478.2518" y1="369.3039" y2="369.3039"/>
    <line x1="478.3617" x2="478.5924" y1="363.763" y2="363.763"/>
    <line x1="479.1633" x2="477.7908" y1="363.6848" y2="363.6848"/>
    <polyline points="459.8843,302.475 465.0735,290.6736 469.6736,282.6735 471.9103,279.8271 474.0828,277.8042 476.0694,276.6367 478.312,276.1337 480.5724,276.5144 482.5986,277.6047 484.8164,279.5801 487.0962,282.4113 491.8805,290.6736 497.0697,302.475"/>
    <polyline points="486.9369,298.1829 481.9765,292.3646 480.0623,291.0509 478.477,290.6818 476.8917,291.0509 474.9776,292.3646 470.0171,298.1829"/>
    <polyline points="470.1191,293.5578 471.1609,279.3929 473.0454,268.3581 474.2768,264.2391 475.6484,261.2576 477.1199,259.4874 478.6399,258.983 480.0888,259.6996 481.623,261.8224 482.9006,264.8701 484.0612,268.9923 485.8311,279.724 486.835,293.5578"/>
    <polyline points="483.4106,292.682 478.5889,285.9163 478.121,286.1408 473.5435,292.682"/>
    <polyline points="465.5814,281.6278 465.1316,279.6983 465.2913,278.0659 466.1824,276.3228 467.6086,274.9679 469.6194,273.8283 472.1124,272.9658 475.0194,272.4055 478.3118,272.1883 481.6069,272.3655 484.5272,272.8853 487.3346,273.8283 489.3454,274.9679 490.7716,276.3228 491.6628,278.0659 491.8225,279.6983 491.3727,281.6278"/>
    <polyline points="496.1043,280.4 478.477,275.8032 460.8497,280.4"/>
    <line x1="460.6106" x2="496.3435" y1="267.5312" y2="267.5312"/>
    <polyline points="494.614,263.9126 498.0046,267.519 499.8456,270.9998 500.0132,273.9359 499.4487,275.4756 498.4931,276.8102 495.3216,279.169 490.7265,280.9477 484.8979,282.0902 478.3119,282.4773 471.7313,282.0488 465.911,280.8569 461.3339,279.0069 458.2463,276.5629 456.9408,273.9359 456.856,272.2953 457.2054,270.6933 458.9494,267.519 462.34,263.9126"/>
    <polyline points="465.1234,263.8413 466.5232,263.0884 469.4337,262.4184 478.3117,261.8229 487.2044,262.3701 490.1109,262.9841 491.8306,263.8413"/>
    <polyline points="489.065,261.8589 487.1901,264.9694 484.6853,267.551 481.8523,269.1754 478.641,269.8082 475.4146,269.2894 472.5324,267.752 469.9628,265.2274 467.8891,261.8589"/>
    <polyline points="469.6707,263.0975 470.1056,261.9015 471.7966,260.9588 474.6826,260.3067 478.643,260.0618 482.2715,260.3067 485.1575,260.9588 486.8484,261.9015 487.2833,263.0975"/>
    <polyline points="479.916,267.2368 481.7521,265.6484 482.1535,264.8407 482.1066,264.2042 480.9133,263.2332 478.6459,262.841 476.0408,263.2332 474.8474,264.2042 474.8006,264.8407 475.202,265.6484 477.0381,267.2368"/>
    <polyline points="477.7403,267.1809 478.2365,267.4512 479.2137,267.1809"/>
    <polyline points="552.7432,281.2787 568.4298,283.7038 578.6423,284.3557 588.8568,283.664 604.2109,281.2787"/>
    <polyline points="596.3138,286.3358 594.0976,285.8158 590.1738,285.4332 578.312,285.0983 566.4612,285.4553 560.6403,286.3358"/>
    <polyline points="569.7594,288.6024 572.1604,280.3459 574.3436,274.8255 576.4707,271.5465 577.5323,270.746 578.477,270.5169 579.4217,270.746 580.4834,271.5465 582.6104,274.8255 584.7936,280.3459 587.1947,288.6024"/>
    <polyline points="578.5218,281.2065 576.9663,279.6733 576.3715,278.2867 576.8892,277.226 578.477,276.7628 580.0649,277.226 580.5826,278.2867 579.9877,279.6733 578.4323,281.2065"/>
    <polyline points="578.3916,272.6818 577.9491,273.4349 578.3303,273.7576 579.0049,273.4349 578.5625,272.6818"/>
    <polyline points="580.2031,271.2933 580.7876,272.3542 580.6927,273.4604 579.6291,274.2345 578.3104,274.4088 576.9918,274.0986 576.2614,273.4604 576.1664,272.3542 576.751,271.2933"/>
    <polyline points="576.554,270.5386 578.3349,266.6015 579.2079,263.4201 579.2926,260.8696 578.9865,259.9317 578.477,259.563 577.9676,259.9317 577.6615,260.8696 577.7461,263.4201 578.6192,266.6015 580.4,270.5386"/>
    <polyline points="580.4088,270.0804 578.477,270.4419 576.5452,270.0804"/>
    <polyline points="577.1369,270.5107 578.2331,270.8807 579.554,270.7697 579.8172,270.5107"/>
    <line x1="582.5815" x2="574.3725" y1="270.5065" y2="270.5065"/>
    <polyline points="570.754,267.9824 569.6872,267.5676 569.5008,267.1943 572.3678,266.5279 578.6408,266.2831 584.8979,266.5598 587.4532,267.1943 587.2668,267.5676 586.2001,267.9824"/>
    <polyline points="581.7779,265.1497 581.7509,263.3828 581.0927,261.9077 580.0934,261.06 578.477,260.6556 576.8607,261.06 575.8613,261.9077 575.2031,263.3828 575.1761,265.1497"/>
    <polyline points="571.5265,257.3364 578.477,256.926 585.4275,257.3364"/>
    <polyline points="661.1104,267.9186 664.4831,269.9586 668.516,271.4069 673.3759,272.3499 678.3121,272.6609 683.5781,272.3499 688.4381,271.4069 692.4709,269.9586 695.8437,267.9186"/>
    <polyline points="691.6579,270.0621 689.9851,271.5949 687.2045,272.6852 683.2775,273.4275 678.6436,273.7029 674.0005,273.4648 669.7496,272.6852 666.969,271.5949 665.2961,270.0621"/>
    <polyline points="668.4311,265.5868 678.477,269.0068 688.523,265.5868"/>
    <polyline points="685.2497,272.7674 681.5742,262.5399 680.0137,260.0217 678.6353,259.1573 677.1882,259.7655 675.5392,262.2174 673.7626,266.482 671.7043,272.7674"/>
    <polyline points="669.225,274.3886 669.1863,273.714 669.5632,273.2357 671.3688,272.4304 674.6769,271.862 678.6426,271.683 682.6047,271.8964 685.9052,272.5246 687.5969,273.4363 687.729,274.3886"/>
    <polyline points="685.1703,276.6765 683.0086,277.1948 678.311,277.3966 673.9454,277.1948 671.7837,276.6765"/>
    <line x1="672.6943" x2="684.2598" y1="278.3293" y2="278.3293"/>
    <polyline points="685.4487,279.5034 684.6297,274.6128 683.0931,270.633 681.037,268.0977 679.912,267.4275 678.6399,267.1364 677.3411,267.3165 676.168,267.9116 674.0171,270.3613 672.4061,274.3092 671.5054,279.5034"/>
    <polyline points="664.7935,284.6495 664.4994,286.2637 664.8487,287.8591 665.7856,289.1917 667.3391,290.3829 669.4188,291.3552 672.2759,292.1614 678.477,292.7685 684.6782,292.1614 687.5353,291.3552 689.6149,290.3829 691.1685,289.1917 692.1053,287.8591 692.4547,286.2637 692.1606,284.6495"/>
    <polyline points="680.6409,289.4564 681.2079,300.3506 681.0155,309.584 679.9978,316.4183 679.2369,318.2556 678.477,318.8063 677.7172,318.2556 676.9562,316.4183 675.9385,309.584 675.7462,300.3506 676.3132,289.4564"/>
    <polyline points="675.7715,303.815 679.0363,298.7616 680.709,294.1227 680.8316,292.1652 680.4664,290.5651 679.6876,289.4949 678.477,289.0422 677.2664,289.4949 676.4876,290.5651 676.1224,292.1652 676.2451,294.1227 677.9178,298.7616 681.1825,303.815"/>
    <polyline points="678.5939,271.8118 680.734,270.0658 681.6267,268.3973 681.3688,267.5301 680.8547,267.0745 678.6426,266.5105 676.3662,266.9287 675.5852,267.5301 675.3354,268.1292 675.4778,268.9856 676.0491,269.872 678.3602,271.8118"/>
    <line x1="678.4507" x2="678.5034" y1="268.3295" y2="268.3295"/>
    <polyline points="602.3124,371.0721 591.2584,373.2904 582.9263,375.3706 577.3443,377.3478 575.9553,378.1487 575.3074,378.9015 575.465,379.486 576.0261,379.8238 578.6434,380.1885 580.9279,379.8238 581.4891,379.486 581.6467,378.9015 580.9987,378.1487 579.6097,377.3478 574.0277,375.3706 565.6957,373.2904 554.6416,371.0721"/>
    <polyline points="569.4553,375.9116 576.2248,378.614 578.107,379.8341 578.5264,380.3265 578.5906,380.6475 578.3635,380.6475 578.847,379.8341 580.7292,378.614 587.4988,375.9116"/>
    <polyline points="583.835,376.4123 585.1139,380.1893 585.8342,383.7447 585.9745,387.0023 585.5182,389.9526 584.5173,392.3677 582.8502,394.4019 580.5817,395.7184 578.312,396.0689 576.0647,395.6041 574.1039,394.4019 572.4368,392.3677 571.4358,389.9526 570.9796,387.0023 571.1198,383.7447 571.8401,380.1893 573.1191,376.4123"/>
    <line x1="578.462" x2="578.4921" y1="372.9484" y2="372.9484"/>
    <line x1="578.643" x2="578.311" y1="370.5966" y2="370.5966"/>
    <line x1="578.4739" x2="578.4802" y1="370.5774" y2="370.5774"/>
    <line x1="578.4789" x2="578.4751" y1="368.6368" y2="368.6368"/>
    <line x1="576.7" x2="580.2541" y1="365.0122" y2="365.0122"/>
    <polyline points="584.0161,363.2339 584.1221,363.5247 583.1791,363.742 578.6415,363.9574 573.7749,363.742 572.8319,363.5247 572.938,363.2339"/>
    <polyline points="570.1092,359.647 572.9906,359.0728 578.309,358.8478 583.9635,359.0728 586.8449,359.647"/>
    <polyline points="588.2475,359.0695 582.3094,363.8223 580.241,364.8383 578.6395,365.1391 576.7131,364.8383 574.6447,363.8223 568.7066,359.0695"/>
    <polyline points="567.2828,385.7712 576.5841,375.8457 577.5754,374.9899 578.477,374.6771 579.3787,374.9899 580.3699,375.8457 589.6713,385.7712"/>
    <polyline points="583.4319,388.1404 578.9138,387.2734 577.583,386.6128 578.6471,386.4257 579.3143,386.785 577.5572,387.394 573.5221,388.1404"/>
    <polyline points="572.1083,450.7484 573.4858,458.9001 575.0545,464.9327 576.6902,468.5175 577.5655,469.4745 578.477,469.8076 579.3885,469.4745 580.2639,468.5175 581.8995,464.9327 583.4682,458.9001 584.8457,450.7484"/>
    <line x1="578.4778" x2="578.4762" y1="451.274" y2="451.274"/>
    <line x1="578.1234" x2="578.8306" y1="465.3946" y2="465.3946"/>
    <line x1="578.4839" x2="578.4702" y1="466.831" y2="466.831"/>
    <line x1="578.0581" x2="578.8959" y1="467.5106" y2="467.5106"/>
    <line x1="578.4802" x2="578.4739" y1="467.6842" y2="467.6842"/>
    <polyline points="577.7324,470.788 578.2262,471.1138 579.2217,470.788"/>
    <line x1="578.4866" x2="578.4675" y1="472.1396" y2="472.1396"/>
    <polyline points="569.4054,475.351 570.9413,473.2169 573.2752,471.4212 575.712,470.4542 578.6414,470.1054 581.5589,470.5414 583.9634,471.5847 586.0128,473.2169 587.5486,475.351"/>
    <polyline points="588.028,481.2951 578.477,475.3346 568.9261,481.2951"/>
    <polyline points="574.8263,487.4879 577.3804,491.1262 578.477,494.1156 579.5737,491.1262 582.1277,487.4879"/>
    <polyline points="578.823,488.4488 582.7536,487.5564 584.0448,486.7777 582.2634,486.1614 578.3102,485.9545 574.3987,486.2035 572.9093,486.7777 574.2005,487.5564 578.131,488.4488"/>
    <polyline points="571.6239,493.1052 570.886,497.0063 570.5891,500.9393 570.8244,504.5299 571.5023,507.4146 572.7456,510.0838 574.4313,512.0744 576.392,513.2711 578.6415,513.665 580.8634,513.1448 582.7608,511.8598 584.3845,509.7944 585.4517,507.4146 586.1297,504.5299 586.3649,500.9393 586.068,497.0063 585.3302,493.1052"/>
    <polyline points="579.3339,661.7351 578.8736,672.7268 578.4125,675.7015 577.6201,661.7351"/>
    <line x1="577.9063" x2="579.0478" y1="664.105" y2="664.105"/>
    <line x1="578.6076" x2="578.3464" y1="668.3613" y2="668.3613"/>
    <polyline points="577.3822,668.4693 575.1401,669.6144 574.7147,670.2498 574.8231,670.5562 575.9543,671.1041 578.3134,671.3607 580.674,671.1752 582.131,670.5562 582.2394,670.2498 581.8139,669.6144 579.5719,668.4693"/>
    <polyline points="579.0478,670.6572 578.477,670.9031 577.9063,670.6572"/>
    <polyline points="572.4143,671.8916 578.6003,674.2317 584.5398,671.8916"/>
    <polyline points="586.6023,672.4335 581.5634,670.7089 578.639,670.2219 575.7283,670.6177 570.3518,672.4335"/>
    <polyline points="564.9119,672.5178 578.477,672.2173 592.0422,672.5178"/>
    <polyline points="590.3018,678.3114 590.5798,676.6896 590.318,675.4013 589.4199,674.0372 588.1436,673.0117 586.3776,672.1311 583.8667,671.376 578.3126,670.8169 572.7746,671.4481 568.8104,673.0117 567.5341,674.0372 566.636,675.4013 566.3743,676.6896 566.6522,678.3114"/>
    <polyline points="570.463,682.1375 578.477,682.8005 586.491,682.1375"/>
    <polyline points="585.5598,686.532 587.9388,688.4409 588.1513,689.3101 587.6374,690.1266 586.1861,690.896 584.2564,691.4067 578.6425,691.8977 573.0134,691.4655 569.5619,690.3128 568.9042,689.623 568.8761,688.7191 569.6893,687.6794 571.3943,686.532"/>
    <polyline points="557.3786,671.745 564.416,677.2453 570.0416,682.3368 574.2729,686.9443 578.326,692.5109 578.8698,692.2947 583.1177,686.4188 587.1451,682.108 592.8009,677.0256 599.5755,671.745"/>
    <polyline points="604.5652,664.4789 592.7786,670.5402 587.1345,673.9371 580.3137,678.5698 578.477,679.2157 576.6403,678.5698 569.8195,673.9371 564.1755,670.5402 552.3889,664.4789"/>
    <line x1="578.4661" x2="578.488" y1="749.2846" y2="749.2846"/>
    <line x1="578.9094" x2="578.0447" y1="755.8206" y2="755.8206"/>
    <line x1="578.2728" x2="578.6812" y1="764.256" y2="764.256"/>
    <polyline points="579.0488,765.5738 578.477,765.808 577.9052,765.5738"/>
    <polyline points="576.843,765.3659 577.0005,765.7314 578.2245,765.975 579.6356,765.8532 580.111,765.3659"/>
    <polyline points="579.5397,766.746 579.9395,767.0801 578.477,767.3474 577.0145,767.0801 577.4143,766.746"/>
    <polyline points="578.1406,770.1183 577.626,774.5081 577.9025,775.6911 578.6006,776.2006 579.1644,775.389 579.3526,774.1447 578.8134,770.1183"/>
    <polyline points="585.7513,767.3119 585.9964,771.5983 585.522,773.509 584.7799,774.9735 583.7283,776.232 582.1262,777.3761 580.5956,777.9786 578.642,778.2608 576.6781,778.0592 574.8279,777.3761 573.2257,776.232 572.1742,774.9735 571.432,773.509 570.9577,771.5983 571.2027,767.3119"/>
    <polyline points="566.6789,762.0398 574.4472,764.8466 578.6414,765.4919 582.8186,764.7555 590.2752,762.0398"/>
    <polyline points="604.5067,788.5452 594.6794,778.3428 582.1856,763.9181 580.1731,762.2252 578.3125,761.6899 576.5056,762.4035 574.546,764.147 562.5008,778.0932 552.4473,788.5452"/>
    <polyline points="563.8782,805.3684 572.2936,801.6122 577.9404,798.1146 579.563,796.5136 580.2376,795.0498 579.7295,793.9181 578.477,793.5485 577.2246,793.9181 576.7164,795.0498 577.391,796.5136 579.0137,798.1146 584.6605,801.6122 593.0759,805.3684"/>
    <polyline points="581.3501,810.9011 578.9722,809.0663 578.3278,808.8605 575.604,810.9011"/>
    <polyline points="574.5562,793.7053 576.7164,789.158 578.2135,784.8304 578.8336,781.2392 578.477,779.3679 578.1205,781.2392 578.7405,784.8304 580.2376,789.158 582.3978,793.7053"/>
    <polyline points="649.5003,777.0044 665.4701,781.1019 678.477,785.5324 691.484,781.1019 707.4538,777.0044"/>
    <polyline points="701.9771,776.7737 690.6387,768.84 685.5798,764.6182 679.9,759.1578 678.477,758.4358 677.054,759.1578 671.3743,764.6182 666.3154,768.84 654.977,776.7737"/>
    <polyline points="667.6415,771.0279 673.4936,776.3316 677.4633,781.1801 678.7366,783.4914 679.3399,785.3284 679.3786,786.979 678.6418,787.9776 677.8155,787.5838 677.5204,786.0048 678.094,783.7823 679.3058,781.4694 683.2279,776.5735 689.3125,771.0279"/>
    <polyline points="688.6989,761.7165 687.3652,765.1158 685.2212,767.6271 682.0622,769.4178 678.477,770.0252 674.8919,769.4178 671.7329,767.6271 669.5889,765.1158 668.2551,761.7165"/>
    <line x1="678.3358" x2="678.6183" y1="768.0431" y2="768.0431"/>
    <line x1="678.9296" x2="678.0244" y1="768.6813" y2="768.6813"/>
    <polyline points="677.7672,771.1994 678.232,771.516 679.1868,771.1994"/>
    <polyline points="687.6379,781.2833 681.0991,774.2467 679.857,773.2124 678.6414,772.7333 677.3944,773.0333 676.0724,774.041 669.3161,781.2833"/>
    <polyline points="669.2859,783.5419 678.0596,786.5268 680.6981,787.9182 681.8512,789.0176 681.9859,789.6167 681.3708,790.3379 678.477,790.8962 675.5833,790.3379 674.9682,789.6167 675.1028,789.0176 676.2559,787.9182 678.8945,786.5268 687.6682,783.5419"/>
    <polyline points="689.378,783.579 686.6419,779.8323 683.9785,777.3375 681.3826,775.8844 678.477,775.3303 675.5715,775.8844 672.9756,777.3375 670.3121,779.8323 667.576,783.579"/>
    <polyline points="667.8338,787.842 669.9661,785.3254 672.6308,783.4112 675.7001,782.248 678.6418,781.9295 681.5722,782.3266 684.6135,783.5727 686.9879,785.3254 689.1202,787.842"/>
    <polyline points="688.388,796.8079 685.0025,791.1159 682.3082,785.8328 680.3995,781.2915 678.3916,775.2977 676.8972,780.3455 674.7789,785.5447 671.9516,791.1159 668.5661,796.8079"/>
    <polyline points="670.0867,804.211 670.4577,790.0658 671.154,783.8737 672.1391,778.6992 673.4599,774.3094 675.0476,771.0541 676.801,769.1178 678.64,768.5469 680.4234,769.3219 682.08,771.331 683.6051,774.6066 684.8919,779.0262 685.8468,784.1916 686.5223,790.3955 686.8674,804.211"/>
    <polyline points="753.1389,788.5308 755.4451,784.9264 758.1483,781.6137 760.9978,778.8806 764.1701,776.5315 767.6334,774.6354 771.0162,773.3519 774.8688,772.4959 778.477,772.2388 782.0853,772.4959 785.9378,773.3519 789.3206,774.6354 792.784,776.5315 795.9563,778.8806 798.8057,781.6137 801.5089,784.9264 803.8151,788.5308"/>
    <polyline points="789.4385,796.0905 786.1642,792.7896 783.3442,790.4922 780.7319,789.1145 778.477,788.7115 776.2221,789.1145 773.6099,790.4922 770.7899,792.7896 767.5155,796.0905"/>
    <polyline points="776.0067,796.9549 773.3424,796.3249 772.4924,795.8124 774.1399,795.2327 778.477,795.0087 782.8142,795.2327 784.4616,795.8124 783.6117,796.3249 780.9473,796.9549"/>
    <polyline points="780.6716,796.3674 782.4408,799.1835 782.6589,801.4412 782.2623,802.3301 781.3185,803.229 780.1183,803.761 778.477,803.9865 776.8358,803.761 775.6356,803.229 774.6917,802.3301 774.2951,801.4412 774.5133,799.1835 776.2824,796.3674"/>
    <polyline points="777.5105,781.7474 777.789,781.3534 778.7246,781.2747 779.4412,781.511 779.4435,781.7474"/>
    <line x1="778.7805" x2="778.1736" y1="770.9125" y2="770.9125"/>
    <polyline points="778.3017,769.6503 778.477,767.2502 778.6523,769.6503"/>
    <polyline points="780.0061,768.7902 779.7672,768.43 778.477,768.2274 777.1869,768.43 776.9479,768.7902"/>
    <polyline points="774.8516,766.7359 775.5448,767.2847 778.2952,767.5676 780.9786,767.3806 781.8286,767.1338 782.1024,766.7359"/>
    <polyline points="780.0906,762.5181 779.5711,762.9596 778.2402,763.0699 777.0715,762.8492 776.8635,762.5181"/>
    <line x1="778.4331" x2="778.521" y1="763.2065" y2="763.2065"/>
    <line x1="778.6102" x2="778.3438" y1="756.4085" y2="756.4085"/>
    <line x1="778.4611" x2="778.493" y1="751.3083" y2="751.3083"/>
    <polyline points="806.9472,704.0613 789.4115,699.5976 783.5612,698.6602 778.6413,698.3701 773.7179,698.6251 767.8709,699.5321 750.0069,704.0613"/>
    <polyline points="769.1382,691.7026 774.8449,696.2537 778.5283,700.4135 779.4623,702.1272 779.8732,703.7199 779.6528,705.0046 778.6407,705.7564 777.4744,705.2711 777.074,704.0627 777.3711,702.4384 778.4258,700.4135 782.1091,696.2537 787.8158,691.7026"/>
    <polyline points="789.7398,681.5288 792.408,682.1664 792.9038,682.4508 792.838,682.7459 788.3212,683.4902 778.477,683.7856 768.6329,683.4902 764.1161,682.7459 764.0502,682.4508 764.546,682.1664 767.2142,681.5288"/>
    <line x1="778.4718" x2="778.4822" y1="672.1043" y2="672.1043"/>
    <line x1="778.478" x2="778.4761" y1="670.9006" y2="670.9006"/>
    <line x1="778.2076" x2="778.7464" y1="667.9345" y2="667.9345"/>
    <line x1="778.6053" x2="778.3488" y1="667.8392" y2="667.8392"/>
    <polyline points="778.0977,667.1224 777.0627,666.1653 776.863,665.4464 777.4059,664.8915 778.477,664.6909 779.5481,664.8915 780.0911,665.4464 779.8914,666.1653 778.8564,667.1224"/>
    <polyline points="779.0595,666.0819 778.2754,666.8037 778.477,667.2096 778.6786,666.8037 777.8945,666.0819"/>
    <line x1="778.3906" x2="778.5635" y1="663.8388" y2="663.8388"/>
    <polyline points="781.557,665.4121 778.477,665.8011 775.397,665.4121"/>
    <polyline points="774.7716,662.7852 775.0332,663.2367 775.8174,663.5641 778.477,663.8479 781.1367,663.5641 781.9208,663.2367 782.1825,662.7852"/>
    <polyline points="792.1666,665.5996 782.9401,668.6454 780.0446,670.02 778.477,671.2219 776.9095,670.02 774.0139,668.6454 764.7875,665.5996"/>
    <polyline points="700.7655,677.0244 699.7703,673.1971 698.2369,669.9167 696.1275,666.9771 693.5139,664.4744 690.2121,662.3094 686.5797,660.7581 682.7428,659.8158 678.477,659.4688 674.2113,659.8158 670.3744,660.7581 666.7419,662.3094 663.4401,664.4744 660.8265,666.9771 658.7172,669.9167 657.1838,673.1971 656.1885,677.0244"/>
    <polyline points="659.0421,673.1404 666.1432,667.1458 675.3093,658.5957 677.2088,657.2862 678.477,656.9763 679.7452,657.2862 681.6448,658.5957 690.8109,667.1458 697.912,673.1404"/>
    <polyline points="701.7661,690.4093 700.3783,689.7928 695.7898,689.3224 678.6421,688.8813 661.1643,689.3224 656.5757,689.7928 655.188,690.4093"/>
    <polyline points="674.5035,689.4159 673.6778,689.8431 674.9233,690.2785 678.6501,690.4574 682.0307,690.2785 683.2762,689.8431 682.4505,689.4159"/>
    <line x1="678.4782" x2="678.4758" y1="672.6968" y2="672.6968"/>
    <line x1="678.4216" x2="678.5324" y1="668.0502" y2="668.0502"/>
    <polyline points="679.4036,667.4974 678.477,667.8576 677.5504,667.4974"/>
    <polyline points="677.2239,667.3256 678.4683,669.0364 679.7302,667.3256"/>
    <polyline points="680.327,666.7518 680.1263,666.1982 678.477,665.9298 676.8277,666.1982 676.627,666.7518"/>
    <line x1="678.2564" x2="678.6976" y1="666.9274" y2="666.9274"/>
    <line x1="678.5634" x2="678.3906" y1="664.4679" y2="664.4679"/>
    <line x1="678.4403" x2="678.5137" y1="663.1039" y2="663.1039"/>
    <line x1="678.4984" x2="678.4557" y1="651.2986" y2="651.2986"/>
    <polyline points="397.8652,687.8252 397.3035,689.7129 396.0772,691.6488 394.1496,693.4318 391.9051,694.7919 388.8559,696.0263 385.6715,696.8509 378.477,697.5425 371.2826,696.8509 368.0982,696.0263 365.049,694.7919 362.8044,693.4318 360.8768,691.6488 359.6506,689.7129 359.0888,687.8252"/>
    <polyline points="370.795,690.3459 370.3677,687.4062 370.3726,684.4251 370.8512,681.8325 371.7188,679.7058 373.0526,677.8492 374.5758,676.5863 376.6838,675.6713 378.6417,675.4458 380.5867,675.7605 382.6569,676.7715 384.117,678.0873 385.387,679.9963 386.192,682.1543 386.6083,684.7664 386.5864,687.4062 386.1591,690.3459"/>
    <polyline points="381.1345,691.3833 383.3384,693.4227 383.7056,694.3566 383.5077,695.2426 382.7987,695.9227 381.5597,696.4646 378.312,696.8709 375.0491,696.3505 373.914,695.7519 373.3082,694.9495 373.6157,693.4227 375.8195,691.3833"/>
    <polyline points="376.0373,680.2939 378.5036,675.1974 379.8496,670.4664 379.8246,666.8824 379.3091,665.7136 378.477,665.2277 377.645,665.7136 377.1295,666.8824 377.1045,670.4664 378.4505,675.1974 380.9167,680.2939"/>
    <polyline points="380.0397,673.4174 380.1913,671.2789 379.9123,669.323 379.3355,668.2119 378.477,667.7643 377.6185,668.2119 377.0418,669.323 376.7628,671.2789 376.9144,673.4174"/>
    <line x1="378.4552" x2="378.4989" y1="671.8779" y2="671.8779"/>
    <polyline points="380.8165,667.9243 380.0091,668.4502 378.241,668.5937 376.6102,668.3546 376.1375,667.9243"/>
    <line x1="378.1966" x2="378.7575" y1="666.5999" y2="666.5999"/>
    <polyline points="381.4396,661.8961 381.2817,662.3415 380.6136,662.6584 378.477,662.9065 376.3405,662.6584 375.6723,662.3415 375.5145,661.8961"/>
    <polyline points="372.9078,658.7436 373.0337,659.3254 374.193,659.8816 378.477,660.3307 382.7611,659.8816 383.9203,659.3254 384.0462,658.7436"/>
    <polyline points="390.6091,661.3491 378.6429,661.6501 366.3449,661.3491"/>
    <polyline points="359.3602,701.4185 370.6214,697.6351 378.3126,693.9873 386.9505,697.8755 397.5938,701.4185"/>
    <polyline points="392.5544,703.9293 390.0316,694.3358 388.4348,690.3538 386.7322,687.154 384.795,684.4889 382.6152,682.4776 380.5818,681.4045 378.3125,681.0395 376.0658,681.52 374.0661,682.6782 372.159,684.4889 370.2219,687.154 368.5193,690.3538 366.9225,694.3358 364.3997,703.9293"/>
    <polyline points="375.3935,604.9489 376.581,583.1902 377.4463,576.6509 378.3309,574.2143 378.8329,574.455 379.2875,575.6868 380.2449,581.9015 380.9998,591.7583 381.5606,604.9489"/>
    <polyline points="379.4242,595.4745 376.6332,587.3599 375.8381,583.5275 375.5234,580.2402 375.6502,577.309 376.3031,574.7605 377.4227,573.1664 378.6415,572.7793 379.7698,573.3788 380.7693,575.0562 381.3415,577.6191 381.4173,580.5805 380.3209,587.3599 377.5299,595.4745"/>
    <polyline points="363.4497,592.3741 369.8961,587.7466 376.7,582.1208 378.477,581.3408 380.2541,582.1208 387.058,587.7466 393.5044,592.3741"/>
    <polyline points="392.1599,585.7825 391.8309,581.4953 390.9973,577.3044 389.8139,573.9014 388.0886,570.7148 385.988,568.1845 383.6414,566.3855 380.9184,565.2461 378.3124,564.9341 375.7191,565.3338 373.032,566.5562 370.7341,568.4138 368.6875,570.9851 367.0149,574.1962 365.8707,577.6278 365.1231,581.4953 364.7941,585.7825"/>
    <polyline points="358.6134,573.474 367.3463,584.6901 376.4694,598.4416 377.5847,599.6539 378.477,600.0111 379.3694,599.6539 380.4847,598.4416 389.6077,584.6901 398.3407,573.474"/>
    <polyline points="391.0419,564.6136 383.8424,566.9871 378.3125,567.6484 372.7893,566.9097 365.9122,564.6136"/>
    <polyline points="375.1034,567.8881 380.1884,570.398 384.0515,572.807 386.5207,574.9979 387.6496,576.9303 387.7336,577.9153 387.4129,578.8391 385.6866,580.3187 382.5677,581.3379 378.3125,581.7122 374.3863,581.3379 371.2675,580.3187 369.5412,578.8391 369.2205,577.9153 369.3044,576.9303 370.4334,574.9979 372.9026,572.807 376.7657,570.398 381.8507,567.8881"/>
    <line x1="378.9434" x2="378.0107" y1="568.1515" y2="568.1515"/>
    <line x1="378.2782" x2="378.6759" y1="568.231" y2="568.231"/>
    <polyline points="378.5521,567.3182 378.8525,567.1314 378.1015,567.1314 378.402,567.3182"/>
    <polyline points="378.0955,566.8812 378.8337,567.649 378.477,568.0808 378.1204,567.649 378.8585,566.8812"/>
    <line x1="378.5088" x2="378.4452" y1="569.8799" y2="569.8799"/>
    <line x1="378.2902" x2="378.6638" y1="563.1918" y2="563.1918"/>
    <polyline points="205.0869,600.287 198.7401,596.164 192.1669,593.1455 185.5132,591.3108 178.6416,590.6579 171.7653,591.2518 165.0968,593.0333 158.5012,596.0061 151.8672,600.287"/>
    <polyline points="154.166,597.7916 169.0351,596.3886 178.477,595.0495 187.9189,596.3886 202.7881,597.7916"/>
    <polyline points="193.0634,585.4157 186.3493,586.9545 178.477,587.4879 170.6048,586.9545 163.8907,585.4157"/>
    <polyline points="163.0841,576.9367 171.6709,573.5636 175.2014,572.7822 178.477,572.5327 181.7526,572.7822 185.2832,573.5636 193.8699,576.9367"/>
    <polyline points="192.0123,570.6021 189.9512,578.9199 188.4566,582.5886 186.8474,585.4689 184.8145,588.0517 182.8102,589.7421 180.7404,590.7647 178.477,591.1382 176.2137,590.7647 174.1439,589.7421 172.1396,588.0517 170.1067,585.4689 168.4974,582.5886 167.0029,578.9199 164.9418,570.6021"/>
    <polyline points="167.3396,562.7135 175.1131,565.5622 178.6393,566.1468 182.1597,565.4634 189.6144,562.7135"/>
    <polyline points="179.5728,565.479 179.3133,565.8046 178.477,565.9132 177.6407,565.8046 177.3812,565.479"/>
    <polyline points="177.0536,567.1881 177.0962,566.4968 178.7094,566.2202 179.8578,566.4968 179.9004,567.1881"/>
    <polyline points="180.5794,570.7189 179.1116,566.5031 178.477,565.538 177.8424,566.5031 176.3747,570.7189"/>
    <polyline points="176.2737,578.8637 176.3004,578.4413 176.7763,578.1396 178.477,577.8983 180.1778,578.1396 180.6537,578.4413 180.6803,578.8637"/>
    <polyline points="185.0638,599.3489 181.9961,592.3228 179.0489,584.2752 178.477,583.4913 177.9051,584.2752 174.9579,592.3228 171.8902,599.3489"/>
    <polyline points="177.9683,551.8156 178.254,552.2092 179.0248,552.078 178.9858,551.8156"/>
    <polyline points="178.6627,550.3867 178.477,550.5961 178.2913,550.3867"/>
    <polyline points="169.0946,491.9484 168.3478,486.0689 168.1984,480.8075 168.6328,475.9019 169.606,471.7486 171.1691,468.1344 173.1202,465.492 175.4747,463.7264 178.3126,462.9907 181.1878,463.5871 183.6006,465.2594 185.785,468.1344 187.348,471.7486 188.3213,475.9019 188.7556,480.8075 188.6062,486.0689 187.8594,491.9484"/>
    <polyline points="186.2403,489.141 184.9815,486.8268 183.1778,484.9143 180.891,483.6494 178.6409,483.2391 176.3727,483.5487 174.0398,484.7148 172.1735,486.5541 170.7138,489.141"/>
    <polyline points="171.6856,478.8805 178.477,478.1014 185.2684,478.8805"/>
    <polyline points="189.6479,474.7731 184.8328,480.1769 179.4455,487.6756 178.477,488.4807 177.5085,487.6756 172.1212,480.1769 167.3061,474.7731"/>
    <polyline points="163.0019,471.3183 165.891,464.3258 167.594,461.4952 169.6243,458.9244 171.8071,456.916 174.0384,455.527 176.1954,454.7426 178.477,454.4656 180.7587,454.7426 182.9157,455.527 185.147,456.916 187.3297,458.9244 189.3601,461.4952 191.0631,464.3258 193.9521,471.3183"/>
    <polyline points="179.8824,468.0263 178.5331,474.1354 178.3824,478.4009 178.6791,477.4537 178.5146,474.8298 177.0717,468.0263"/>
    <line x1="178.4057" x2="178.5484" y1="468.0853" y2="468.0853"/>
    <line x1="178.5265" x2="178.4275" y1="468.4755" y2="468.4755"/>
    <polyline points="177.7254,470.6331 178.2274,470.9534 179.2286,470.6331"/>
    <polyline points="178.9218,471.6958 180.2338,467.1723 180.5087,463.597 179.8583,461.0199 179.2282,460.2714 178.3107,460.0188 177.4671,460.5037 176.9443,461.3204 176.4309,463.9013 176.7865,467.5081 178.0323,471.6958"/>
    <line x1="178.371" x2="178.583" y1="471.9189" y2="471.9189"/>
    <line x1="178.4819" x2="178.4721" y1="463.0158" y2="463.0158"/>
    <polyline points="158.3838,488.7438 158.582,486.1158 159.5147,483.6703 161.3181,481.3333 163.6386,479.5101 166.5645,478.0058 170.3204,476.7889 174.2084,476.0916 178.477,475.842 182.7457,476.0916 186.6337,476.7889 190.3896,478.0058 193.3154,479.5101 195.6359,481.3333 197.4393,483.6703 198.372,486.1158 198.5703,488.7438"/>
    <polyline points="179.3377,650.9814 178.7415,650.7204 177.6164,650.9814"/>
    <polyline points="173.7937,660.3 175.9067,661.9369 178.477,662.5552 181.0473,661.9369 183.1603,660.3"/>
    <line x1="178.7636" x2="178.1905" y1="667.8406" y2="667.8406"/>
    <line x1="177.9624" x2="178.9916" y1="670.4974" y2="670.4974"/>
    <polyline points="180.65,674.9006 182.8612,671.5501 183.3012,670.0435 183.2858,668.6928 182.8051,667.4967 181.6337,666.3725 180.117,665.738 178.477,665.5369 176.8371,665.738 175.3204,666.3725 174.1489,667.4967 173.6682,668.6928 173.6529,670.0435 174.0929,671.5501 176.3041,674.9006"/>
    <polyline points="165.3383,673.5714 176.6389,675.9398 178.5132,676.6295 179.2024,677.2442 178.3036,677.5149 177.7517,677.2442 177.917,676.9533 180.3152,675.9398 191.6157,673.5714"/>
    <polyline points="192.8302,683.194 193.4484,681.6592 193.3896,680.0175 192.5678,678.61 191.0174,677.3773 188.5968,676.2856 185.7295,675.52 178.477,674.8413 171.2245,675.52 168.3573,676.2856 165.9366,677.3773 164.3862,678.61 163.5645,680.0175 163.5056,681.6592 164.1238,683.194"/>
    <polyline points="161.8926,682.6408 166.2393,684.999 170.2214,686.5632 174.3789,687.5594 178.3125,687.8867 182.5751,687.5594 186.7326,686.5632 190.7147,684.999 195.0614,682.6408"/>
    <polyline points="204.0344,686.1896 203.373,684.6972 201.7186,683.0969 199.4003,681.8002 196.3081,680.6711 188.2116,679.0735 178.3118,678.5106 168.7425,679.0735 160.6459,680.6711 157.5538,681.8002 155.2354,683.0969 153.5811,684.6972 152.9197,686.1896"/>
    <polyline points="152.0664,689.224 153.6435,686.7127 155.6924,684.5693 158.3491,682.6137 161.5631,680.9241 165.2779,679.5477 169.4449,678.52 173.6944,677.9107 178.3119,677.6813 182.9311,677.88 187.1851,678.459 191.3609,679.4528 195.0894,680.7924 198.3236,682.4414 201.2616,684.5693 203.3106,686.7127 204.8876,689.224"/>
    <polyline points="193.9499,695.3105 184.6933,692.8009 178.477,692.1148 172.2607,692.8009 163.0041,695.3105"/>
    <polyline points="167.4047,708.8985 173.7302,703.0501 177.8073,697.8474 178.9833,695.5357 179.5619,693.2823 179.3418,691.6692 178.9393,691.1645 178.3158,691.027 177.4931,691.9824 177.4287,693.6041 178.0872,695.8171 179.3202,698.1277 183.4663,703.3064 189.5494,708.8985"/>
    <line x1="178.5387" x2="178.4153" y1="749.5464" y2="749.5464"/>
    <line x1="178.3953" x2="178.5587" y1="763.3773" y2="763.3773"/>
    <polyline points="178.9691,767.6248 178.7523,767.4144 177.985,767.6248"/>
    <line x1="178.1939" x2="178.7601" y1="768.216" y2="768.216"/>
    <polyline points="180.654,767.3387 180.1818,767.7652 178.477,767.972 176.7722,767.7652 176.3001,767.3387"/>
    <polyline points="172.8914,765.6508 172.1129,764.5318 172.949,763.6809 175.1813,763.0959 178.477,762.873 181.7727,763.0959 184.0051,763.6809 184.8412,764.5318 184.0627,765.6508"/>
    <polyline points="188.8215,760.3989 185.8069,763.5366 183.2395,765.6299 180.9062,766.8709 178.6431,767.3272 176.3527,766.9776 173.9958,765.8166 171.3829,763.7548 168.1326,760.3989"/>
    <polyline points="168.4084,773.3416 178.6254,775.8489 188.5457,773.3416"/>
    <polyline points="190.5115,773.6179 184.9493,778.3487 179.5979,783.7505 178.477,784.3328 177.3562,783.7505 172.0048,778.3487 166.4426,773.6179"/>
    <polyline points="167.0616,775.0442 168.0323,777.098 170.4264,778.83 174.2065,780.0068 178.477,780.3876 182.7476,780.0068 186.5276,778.83 188.9218,777.098 189.8924,775.0442"/>
    <polyline points="192.8455,780.1141 187.965,787.597 184.2943,792.2539 181.2819,794.8102 179.7769,795.4708 178.477,795.6555 177.1771,795.4708 175.6721,794.8102 172.6597,792.2539 168.989,787.597 164.1086,780.1141"/>
    <line x1="178.4698" x2="178.4842" y1="771.925" y2="771.925"/>
    <polyline points="189.4957,797.4283 178.64,796.7429 167.4583,797.4283"/>
    <polyline points="153.7135,668.1187 164.8487,669.9312 172.8713,671.5813 177.5904,672.9919 178.7328,673.6228 178.8898,673.9088 178.6436,674.0979 178.0642,673.9088 179.0371,673.1343 184.0828,671.5813 192.1054,669.9312 203.2406,668.1187"/>
    <line x1="778.0886" x2="778.8655" y1="150.8883" y2="150.8883"/>
  </g>
</svg>
